<svg width="86" height="91" viewBox="0 0 86 91" fill="none" xmlns="http://www.w3.org/2000/svg">
<mask id="mask0_303_191" style="mask-type:luminance" maskUnits="userSpaceOnUse" x="0" y="0" width="74" height="91">
<path d="M0 0H73.1526V90.5849H0V0Z" fill="white"/>
</mask>
<g mask="url(#mask0_303_191)">
<path d="M64.2484 25.8769L64.2499 32.8056C64.2514 52.7605 53.67 70.9555 36.5297 80.6509C19.3895 70.96 8.80059 52.7635 8.79909 32.8056L8.79759 17.5648C9.76009 16.8807 10.7751 16.2175 11.8382 15.5858C27.0625 6.4876 45.979 6.4846 61.2077 15.5798C61.3114 15.6414 61.412 15.7014 61.5126 15.7629L67.4737 9.12825C66.9016 8.75766 66.316 8.39457 65.7214 8.03898C56.9133 2.77719 46.8154 -0.00149967 36.5192 6.07202e-07C31.3734 0.00150088 26.2757 0.696172 21.3611 2.04951C16.4495 3.40284 11.7241 5.41484 7.32006 8.04649C5.30048 9.25428 3.39801 10.5581 1.67123 11.9234L0 13.2423L0.0030031 32.8071C0.00450456 44.3734 3.13074 55.7283 9.04384 65.6382C14.984 75.5962 23.5128 83.7177 33.7098 89.125C33.9741 89.266 34.2429 89.4056 34.5147 89.5451L36.5312 90.5849L38.5508 89.5436C38.8181 89.4056 39.0839 89.266 39.3497 89.125C49.5452 83.7192 58.0755 75.5962 64.0126 65.6367C69.9242 55.7253 73.0475 44.3719 73.046 32.8041L73.043 16.087L64.2484 25.8769Z" fill="#4D8FA7"/>
</g>
<mask id="mask1_303_191" style="mask-type:luminance" maskUnits="userSpaceOnUse" x="10" y="5" width="76" height="61">
<path d="M10.5244 5.17773H85.165V65.11H10.5244V5.17773Z" fill="white"/>
</mask>
<g mask="url(#mask1_303_191)">
<path d="M36.6184 65.0935L10.6716 37.7913L17.0502 31.7418L36.4367 52.1409L78.6183 5.18677L85.165 11.0547L36.6184 65.0935Z" fill="#4D8FA7"/>
</g>
<mask id="mask2_303_191" style="mask-type:luminance" maskUnits="userSpaceOnUse" x="0" y="0" width="74" height="91">
<path d="M0 0H73.1526V90.5849H0V0Z" fill="white"/>
</mask>
<g mask="url(#mask2_303_191)">
<path d="M64.2484 25.8769L64.2499 32.8056C64.2514 52.7605 53.67 70.9555 36.5297 80.6509C19.3895 70.96 8.80059 52.7635 8.79909 32.8056L8.79759 17.5648C9.76009 16.8807 10.7751 16.2175 11.8382 15.5858C27.0625 6.4876 45.979 6.4846 61.2077 15.5798C61.3114 15.6414 61.412 15.7014 61.5126 15.7629L67.4737 9.12825C66.9016 8.75766 66.316 8.39457 65.7214 8.03898C56.9133 2.77719 46.8154 -0.00149967 36.5192 6.07202e-07C31.3734 0.00150088 26.2757 0.696172 21.3611 2.04951C16.4495 3.40284 11.7241 5.41484 7.32006 8.04649C5.30048 9.25428 3.39801 10.5581 1.67123 11.9234L0 13.2423L0.0030031 32.8071C0.00450456 44.3734 3.13074 55.7283 9.04384 65.6382C14.984 75.5962 23.5128 83.7177 33.7098 89.125C33.9741 89.266 34.2429 89.4056 34.5147 89.5451L36.5312 90.5849L38.5508 89.5436C38.8181 89.4056 39.0839 89.266 39.3497 89.125C49.5452 83.7192 58.0755 75.5962 64.0126 65.6367C69.9242 55.7253 73.0475 44.3719 73.046 32.8041L73.043 16.087L64.2484 25.8769Z" fill="#4D8FA7"/>
</g>
<mask id="mask3_303_191" style="mask-type:luminance" maskUnits="userSpaceOnUse" x="10" y="5" width="76" height="61">
<path d="M10.5244 5.17773H85.165V65.11H10.5244V5.17773Z" fill="white"/>
</mask>
<g mask="url(#mask3_303_191)">
<path d="M36.6184 65.0935L10.6716 37.7913L17.0502 31.7418L36.4367 52.1409L78.6183 5.18677L85.165 11.0547L36.6184 65.0935Z" fill="#4D8FA7"/>
</g>
</svg>
