<svg width="74" height="73" viewBox="0 0 74 73" fill="none" xmlns="http://www.w3.org/2000/svg">
<mask id="mask0_18_459" style="mask-type:luminance" maskUnits="userSpaceOnUse" x="0" y="0" width="74" height="73">
<path d="M0.691406 0.187744H73.0255V72.3932H0.691406V0.187744Z" fill="white"/>
</mask>
<g mask="url(#mask0_18_459)">
<path d="M71.767 0.987971L71.0546 0.576565C70.5493 0.284211 69.9594 0.207355 69.3922 0.35956C68.8264 0.510258 68.353 0.871933 68.0611 1.37828L61.2466 13.1644L60.0728 12.4877C59.8656 12.3672 59.6206 12.3355 59.3922 12.3973C59.1607 12.4591 58.9641 12.6098 58.8461 12.8163L57.3955 15.3254C55.5924 16.1241 53.7047 17.8164 52.614 19.6625C52.5959 19.6956 52.5777 19.7318 52.5626 19.7649C51.7276 21.7165 49.7779 22.7668 48.2108 22.9401C47.5286 23.017 46.9674 23.4661 46.7435 24.1141C46.5212 24.7636 46.6891 25.4628 47.1792 25.942C48.6419 27.3631 50.5569 28.7752 52.7184 30.0199C54.3188 30.9422 55.9827 31.7258 57.5286 32.2864C57.9294 32.4311 58.3394 32.5034 58.7402 32.5034C59.6115 32.5034 60.4495 32.1689 61.1181 31.5284C62.0514 30.6333 62.9423 29.4262 63.924 27.7308C65.4745 25.0469 66.1476 22.3313 65.8284 20.1402L67.2578 17.6657C67.5074 17.2362 67.3592 16.6877 66.9281 16.439L65.7543 15.7624L72.5687 3.9748C73.1722 2.93348 72.8138 1.59227 71.767 0.987971ZM59.9518 14.4905L65.2521 17.5482L64.6879 18.5247L59.3861 15.4685L59.9518 14.4905ZM62.366 26.8342C61.4735 28.3788 60.6809 29.4608 59.8717 30.2354C59.3937 30.6936 58.7614 30.8277 58.1397 30.6016C57.8326 30.4901 57.5195 30.3665 57.2034 30.2384C58.5647 29.3614 59.8157 28.0322 60.7354 26.4378C61.0636 25.8712 61.345 25.2805 61.5734 24.6837C61.7504 24.2211 61.5174 23.7027 61.053 23.5264C60.5886 23.35 60.0713 23.5821 59.8944 24.0448C59.6992 24.5541 59.4602 25.0574 59.1789 25.5427C58.1442 27.333 56.6543 28.7089 55.1417 29.2936C54.6304 29.0359 54.1191 28.7601 53.6139 28.4693C53.0769 28.1588 52.5596 27.8408 52.0604 27.5153C53.803 27.0843 55.3595 25.9511 56.3109 24.3025C56.6225 23.763 56.86 23.1873 57.0158 22.592C57.1398 22.1113 56.8524 21.623 56.3729 21.4965C55.8934 21.3714 55.4033 21.6607 55.2763 22.1384C55.1613 22.5785 54.9859 23.0049 54.7559 23.4043C53.7258 25.1871 51.7473 26.153 49.7869 25.8577C49.3226 25.4794 48.8884 25.0981 48.4891 24.7154C50.5433 24.4577 53.0694 23.0743 54.1857 20.5275C55.237 18.7764 56.9598 17.4382 58.2758 16.9017L64.0193 20.214C64.3521 22.0058 63.747 24.4456 62.366 26.8342ZM71.0122 3.08117L64.1978 14.8673L62.8001 14.0625L69.6145 2.27493C69.6856 2.15437 69.796 2.10916 69.8566 2.09259C69.9155 2.07601 70.0335 2.05943 70.1561 2.13026L70.867 2.54016C71.053 2.64866 71.1196 2.89581 71.0122 3.08117ZM66.8358 34.9086H30.6279V33.6608C30.6279 32.3542 29.5645 31.2888 28.2531 31.2888H24.7861C23.4777 31.2888 22.4113 32.3527 22.4113 33.6608V34.9086H13.9738V33.3519C13.9738 32.8561 13.5715 32.4537 13.0753 32.4537C12.5807 32.4537 12.1768 32.8561 12.1768 33.3519V34.9086H10.7988V23.35C10.7988 22.143 11.7805 21.1619 12.9891 21.1619C14.1977 21.1619 15.1794 22.143 15.1794 23.35V25.1629C15.1794 25.6572 15.5818 26.0596 16.0779 26.0596C16.5741 26.0596 16.9764 25.6572 16.9764 25.1629V23.35C16.9764 21.1544 15.187 19.3671 12.9891 19.3671C10.7913 19.3671 9.00181 21.1544 9.00181 23.35V34.9086H7.62078V33.3519C7.62078 32.8561 7.21842 32.4537 6.72227 32.4537C6.22764 32.4537 5.82377 32.8561 5.82377 33.3519V34.9086H2.82724C1.65042 34.9086 0.691406 35.8655 0.691406 37.041V70.2307C0.691406 71.4076 1.65042 72.3646 2.82724 72.3646H66.8343C68.0111 72.3646 68.9701 71.4076 68.9701 70.2322V37.041C68.9717 35.8655 68.0127 34.9086 66.8358 34.9086ZM67.1747 37.041V42.0291H35.73V36.7034H66.8358C67.0189 36.7034 67.1747 36.8586 67.1747 37.041ZM33.933 42.0291H19.1092V36.7034H33.933V42.0291ZM19.1077 49.5926H21.1452C21.3525 49.5926 21.5294 49.7704 21.5294 49.9769V57.1004C21.5294 57.3083 21.3525 57.4846 21.1452 57.4846H19.1077V49.5926ZM17.3122 57.4831H15.2747C15.0675 57.4831 14.8905 57.3083 14.8905 57.0989V49.9769C14.8905 49.7704 15.066 49.5926 15.2747 49.5926H17.3122V57.4831ZM19.1077 59.2779H21.1452C22.3463 59.2779 23.3264 58.3014 23.3264 57.0989V49.9769C23.3264 48.7773 22.3463 47.7993 21.1452 47.7993H19.1077V43.8239H33.9315V70.5697H19.1077V59.2779ZM24.2098 33.6608C24.2098 33.3489 24.4745 33.0836 24.7877 33.0836H28.2546C28.5677 33.0836 28.8339 33.3489 28.8339 33.6608V34.9086H24.2113V33.6608H24.2098ZM2.82724 36.7034H17.3122V42.0291H2.48841V37.041C2.48841 36.8586 2.64422 36.7034 2.82724 36.7034ZM2.48841 70.2322V43.8239H17.3122V47.7993H15.2747C14.0737 47.7993 13.0935 48.7773 13.0935 49.9769V57.1004C13.0935 58.3014 14.0722 59.2795 15.2747 59.2795H17.3122V70.5697H2.82724C2.64422 70.5697 2.48841 70.4145 2.48841 70.2322ZM66.8358 70.5697H35.73V43.8239H67.1747V70.2322C67.1747 70.4145 67.0189 70.5697 66.8358 70.5697ZM7.42111 39.3662C7.42111 38.8704 7.82347 38.4681 8.31961 38.4681H11.481C11.9772 38.4681 12.3795 38.8704 12.3795 39.3662C12.3795 39.8605 11.9772 40.2629 11.481 40.2629H8.31961C7.82347 40.2629 7.42111 39.862 7.42111 39.3662ZM24.0419 39.3662C24.0419 38.8704 24.4443 38.4681 24.9404 38.4681H28.1018C28.598 38.4681 29.0003 38.8704 29.0003 39.3662C29.0003 39.8605 28.598 40.2629 28.1018 40.2629H24.9404C24.4428 40.2629 24.0419 39.862 24.0419 39.3662ZM61.8305 46.8212H41.0742C39.554 46.8212 38.3166 48.0555 38.3166 49.5745V65.0632C38.3166 66.5808 39.554 67.8165 41.0742 67.8165H61.8305C63.3507 67.8165 64.5865 66.5808 64.5865 65.0632V49.5745C64.5865 48.054 63.3507 46.8212 61.8305 46.8212ZM41.0742 48.6146H61.8305C62.3599 48.6146 62.7895 49.0456 62.7895 49.5745V52.5161H40.1136V49.5745C40.1136 49.044 40.5447 48.6146 41.0742 48.6146ZM61.8305 66.0217H41.0742C40.5432 66.0217 40.1136 65.5907 40.1136 65.0632V54.3109H62.7895V65.0632C62.7895 65.5922 62.3584 66.0217 61.8305 66.0217ZM47.3561 39.3662C47.3561 38.8704 47.7585 38.4681 48.2546 38.4681C48.7508 38.4681 49.1531 38.8704 49.1531 39.3662C49.1531 39.8605 48.7508 40.2629 48.2546 40.2629C47.7585 40.2629 47.3561 39.862 47.3561 39.3662ZM53.75 39.3662C53.75 38.8704 54.1524 38.4681 54.6485 38.4681C55.1432 38.4681 55.547 38.8704 55.547 39.3662C55.547 39.8605 55.1432 40.2629 54.6485 40.2629C54.1524 40.2629 53.75 39.862 53.75 39.3662ZM40.9622 39.3662C40.9622 38.8704 41.3661 38.4681 41.8607 38.4681C42.3569 38.4681 42.7592 38.8704 42.7592 39.3662C42.7592 39.8605 42.3569 40.2629 41.8607 40.2629C41.3661 40.2629 40.9622 39.862 40.9622 39.3662ZM60.1424 39.3662C60.1424 38.8704 60.5463 38.4681 61.0409 38.4681C61.5371 38.4681 61.9394 38.8704 61.9394 39.3662C61.9394 39.8605 61.5371 40.2629 61.0409 40.2629C60.5463 40.2629 60.1424 39.862 60.1424 39.3662ZM2.08152 16.7389C3.19784 16.7389 5.22779 18.7643 5.22779 19.8825C5.22779 20.3768 5.63167 20.7791 6.1263 20.7791C6.62244 20.7791 7.0248 20.3768 7.0248 19.8825C7.0248 18.7658 9.05475 16.7389 10.1726 16.7389C10.6687 16.7389 11.0711 16.3366 11.0711 15.8408C11.0711 15.8317 11.0711 15.8197 11.0711 15.8091C11.0529 15.3284 10.6597 14.9441 10.1741 14.9441C9.05778 14.9441 7.02631 12.9172 7.02631 11.8006C7.02631 11.3063 6.62395 10.9039 6.12781 10.9039C5.63318 10.9039 5.22931 11.3063 5.22931 11.8006C5.22931 12.9157 3.20086 14.9441 2.08303 14.9441C1.58689 14.9441 1.18452 15.3465 1.18452 15.8408C1.18452 16.3366 1.58537 16.7389 2.08152 16.7389ZM6.12478 14.1153C6.59219 14.7678 7.20027 15.3751 7.85221 15.8393C7.19875 16.3049 6.59068 16.9137 6.12478 17.5647C5.65889 16.9122 5.05081 16.3049 4.39887 15.8393C5.05233 15.3751 5.66041 14.7678 6.12478 14.1153ZM30.3859 25.4779C31.5022 25.4779 33.5337 27.5048 33.5337 28.6215C33.5337 29.1157 33.9361 29.5181 34.4322 29.5181C34.9268 29.5181 35.3307 29.1157 35.3307 28.6215C35.3307 27.5063 37.3591 25.4779 38.477 25.4779C38.9731 25.4779 39.3755 25.0755 39.3755 24.5812C39.3755 24.0854 38.9731 23.6831 38.477 23.6831C37.3607 23.6831 35.3307 21.6577 35.3307 20.5395C35.3307 20.0332 34.9041 19.6263 34.3989 19.6429C33.9179 19.661 33.5352 20.0543 33.5337 20.538C33.5337 21.6547 31.5037 23.6816 30.3859 23.6816C29.8898 23.6816 29.4874 24.0839 29.4874 24.5797C29.4874 25.074 29.8898 25.4779 30.3859 25.4779ZM34.4322 22.8558C34.8981 23.5068 35.5062 24.1141 36.1581 24.5797C35.5047 25.0454 34.8966 25.6527 34.4322 26.3037C33.9648 25.6512 33.3567 25.0439 32.7048 24.5797C33.3567 24.1141 33.9648 23.5068 34.4322 22.8558ZM39.1985 6.11924C40.3163 6.11924 42.3463 8.14612 42.3463 9.2628C42.3463 9.75859 42.7487 10.161 43.2448 10.161C43.7409 10.161 44.1433 9.75859 44.1433 9.2628C44.1433 8.14763 46.1717 6.11924 47.2896 6.11924C47.7857 6.11924 48.1881 5.71687 48.1881 5.22258C48.1881 5.21204 48.1881 5.19998 48.1881 5.18943C48.1714 4.71021 47.7766 4.32593 47.2911 4.32593C46.1748 4.32593 44.1448 2.29904 44.1448 1.18237C44.1448 0.674519 43.7228 0.269141 43.213 0.284211C42.732 0.302295 42.3493 0.695616 42.3478 1.18086C42.3478 2.29603 40.3194 4.32442 39.2 4.32442C38.7054 4.32442 38.3015 4.72528 38.3015 5.22108C38.3015 5.71537 38.7024 6.11924 39.1985 6.11924ZM43.2433 3.49709C43.7107 4.14811 44.3188 4.75542 44.9692 5.22108C44.3173 5.68673 43.7092 6.29405 43.2433 6.94506C42.7759 6.29254 42.1678 5.68673 41.5174 5.22108C42.1693 4.75542 42.7774 4.14811 43.2433 3.49709Z" fill="white"/>
</g>
</svg>
