<svg width="67" height="62" viewBox="0 0 67 62" fill="none" xmlns="http://www.w3.org/2000/svg">
<mask id="mask0_18_210" style="mask-type:luminance" maskUnits="userSpaceOnUse" x="0" y="0" width="67" height="62">
<path d="M0.266357 0.822266H66.5957V61.8803H0.266357V0.822266Z" fill="white"/>
</mask>
<g mask="url(#mask0_18_210)">
<path fill-rule="evenodd" clip-rule="evenodd" d="M54.0743 19.8471C54.9494 19.1311 55.6875 18.1401 56.2371 16.9437C56.7877 18.1401 57.5259 19.1311 58.3999 19.8471C57.5259 20.556 56.7877 21.547 56.2371 22.7433C55.6875 21.547 54.9494 20.556 54.0743 19.8471ZM56.2371 27.6055C56.7512 27.6055 57.1811 27.2172 57.2328 26.7065C57.534 23.7728 58.9373 21.3943 60.731 20.7926C61.6334 20.4882 61.6314 19.207 60.731 18.8945C58.9393 18.2928 57.534 15.9153 57.2328 12.9806C57.1122 11.8015 55.3621 11.8005 55.2414 12.9806C54.9403 15.9153 53.5349 18.2928 51.7432 18.8945C50.8428 19.207 50.8408 20.4882 51.7432 20.7926C53.5369 21.3943 54.9403 23.7728 55.2414 26.7065C55.2931 27.2172 55.723 27.6055 56.2371 27.6055ZM60.1044 44.7686C59.3135 42.4973 58.1282 40.6609 56.6883 39.5252C58.1282 38.3825 59.3135 36.5531 60.1044 34.2818C60.8963 36.5531 62.0806 38.3825 63.5194 39.5252C62.0806 40.6609 60.8963 42.4973 60.1044 44.7686ZM65.8434 38.5959C63.4109 37.6433 61.5057 33.9158 61.1021 29.3206C61.0565 28.8099 60.6235 28.4135 60.1044 28.4135C59.5852 28.4135 59.1523 28.8099 59.1076 29.3206C58.7031 33.9168 56.7968 37.6433 54.3643 38.5959C53.5217 38.9286 53.5217 40.1229 54.3643 40.4556C56.7978 41.4082 58.7031 45.1347 59.1076 49.7299C59.1523 50.2416 59.5852 50.637 60.1044 50.637C60.6235 50.637 61.0565 50.2416 61.1021 49.7299C61.5057 45.1347 63.4109 41.4082 65.8434 40.4556C66.684 40.1239 66.6911 38.9337 65.8434 38.5959ZM39.0444 36.7129C37.9635 37.0254 36.9718 37.5513 36.0998 38.2834C35.6821 38.6272 35.0493 38.5817 34.6894 38.154C34.3355 37.7343 34.3903 37.1023 34.8161 36.7513C35.9021 35.8442 37.1381 35.1889 38.4897 34.8006C39.021 34.6479 39.5757 34.9533 39.7298 35.4792C39.8829 36.0121 39.5757 36.5612 39.0444 36.7129ZM38.9227 29.6482C36.0461 30.0983 33.3753 31.3785 31.1953 33.3373C30.7816 33.7125 30.1499 33.671 29.7818 33.2686C29.4107 32.857 29.4431 32.2239 29.8528 31.8589C32.3218 29.6331 35.3495 28.1849 38.6114 27.6743C39.1569 27.5903 39.669 27.9645 39.7562 28.5055C39.8423 29.0465 39.4692 29.5643 38.9227 29.6482ZM38.871 21.8595C39.4216 21.7988 39.82 21.3104 39.7622 20.7623C39.7044 20.2132 39.2106 19.8167 38.6631 19.8703C33.282 20.4346 28.3329 22.6897 24.352 26.4021C23.9485 26.7752 23.9262 27.4073 24.3044 27.8118C24.6795 28.2082 25.3133 28.2294 25.7189 27.8573C29.3782 24.4503 33.9269 22.3773 38.871 21.8595ZM15.5904 54.0217H43.6924L46.3936 56.7187H13.2603C14.037 55.8501 14.8127 54.951 15.5904 54.0217ZM8.94284 58.3954C13.1903 54.0743 17.2756 49.0139 21.7593 42.5135L19.7314 40.493C13.167 44.9598 8.09517 49.0372 3.8132 53.2744C2.88441 54.1966 2.46362 54.9591 2.40988 55.843C2.34397 56.9402 2.67959 57.7482 3.56884 58.632C4.45808 59.524 5.26824 59.8587 6.36839 59.7909C7.26778 59.7374 8.03737 59.3177 8.94284 58.3954ZM4.79979 10.0156L7.58109 12.7824V47.132C6.61681 47.947 5.69106 48.7621 4.79979 49.5782V10.0156ZM17.4611 11.2969C18.5359 10.8388 19.5124 9.89423 20.3104 8.60588H6.21528L8.91648 11.2969H17.4611ZM23.4131 6.66224C24.2618 9.11657 25.5586 11.0906 27.1465 12.295C25.5586 13.4994 24.2618 15.4724 23.4131 17.9196C22.5634 15.4734 21.2645 13.4994 19.6787 12.295C21.2645 11.0906 22.5634 9.11657 23.4131 6.66224ZM46.3936 8.60588H26.5148C27.3128 9.89423 28.2872 10.8388 29.363 11.2969H43.6924L46.3936 8.60588ZM29.9927 50.7209L23.1981 43.9536C21.1449 46.9186 19.1687 49.5853 17.2198 52.0245H42.8244L43.0282 51.8262V13.4913L42.8244 13.2931H29.362C26.8149 14.3751 24.8347 18.1856 24.4098 22.8657C24.3632 23.3764 23.9302 23.7728 23.4131 23.7728C22.894 23.7728 22.462 23.3764 22.4154 22.8657C21.9915 18.1856 20.0102 14.3832 17.4632 13.2931H9.78544L9.58265 13.4913V45.4775C12.1845 43.3822 15.0601 41.2636 18.2906 39.0611L11.5082 32.3008C10.3877 31.1803 10.3877 29.3661 11.5082 28.2456L12.5302 27.2253L15.2649 24.5039C16.07 23.6959 17.38 23.6959 18.1841 24.5039L37.8164 44.0678C38.6215 44.8718 38.6205 46.1763 37.8164 46.9793L34.0597 50.7209C32.9373 51.8374 31.1192 51.8394 29.9927 50.7209ZM36.3999 45.5696V45.4775L16.7686 25.9136C16.7453 25.8914 16.7047 25.8914 16.6804 25.9136L14.6555 27.9331L34.374 47.5891L36.3999 45.5696ZM12.9237 30.8911L31.4082 49.3112C31.5714 49.471 31.7915 49.563 32.0257 49.563C32.4648 49.563 32.6655 49.289 32.9586 48.9988L13.239 29.3438L12.9237 29.6563C12.584 29.9991 12.584 30.5473 12.9237 30.8911ZM45.0308 52.5351L47.8091 55.302V10.0156L45.0308 12.7824V52.5351ZM48.8119 6.60965H25.5252C24.9624 5.17669 24.5731 3.51519 24.4098 1.72424C24.3632 1.21355 23.9302 0.817139 23.4131 0.817139C22.894 0.817139 22.462 1.21355 22.4154 1.72424C22.2531 3.51519 21.8628 5.17669 21.299 6.60965H3.79901C3.24538 6.60965 2.79721 7.05157 2.79721 7.60777V51.4683C1.72647 52.5119 0.534048 53.7224 0.412373 55.7206C0.308949 57.4125 0.845335 58.7463 2.15233 60.0417C3.48874 61.3736 4.79472 61.8772 6.48905 61.7801C8.79683 61.6476 10.1555 60.0387 11.4179 58.7079H48.8119C49.3635 58.7079 49.8126 58.266 49.8126 57.7098V7.60777C49.8126 7.05157 49.3635 6.60965 48.8119 6.60965Z" fill="white"/>
<path fill-rule="evenodd" clip-rule="evenodd" d="M54.0743 19.8471C54.9494 19.1311 55.6875 18.1401 56.2371 16.9437C56.7877 18.1401 57.5259 19.1311 58.3999 19.8471C57.5259 20.556 56.7877 21.547 56.2371 22.7433C55.6875 21.547 54.9494 20.556 54.0743 19.8471ZM56.2371 27.6055C56.7512 27.6055 57.1811 27.2172 57.2328 26.7065C57.534 23.7728 58.9373 21.3943 60.731 20.7926C61.6334 20.4882 61.6314 19.207 60.731 18.8945C58.9393 18.2928 57.534 15.9153 57.2328 12.9806C57.1122 11.8015 55.3621 11.8005 55.2414 12.9806C54.9403 15.9153 53.5349 18.2928 51.7432 18.8945C50.8428 19.207 50.8408 20.4882 51.7432 20.7926C53.5369 21.3943 54.9403 23.7728 55.2414 26.7065C55.2931 27.2172 55.723 27.6055 56.2371 27.6055ZM60.1044 44.7686C59.3135 42.4973 58.1282 40.6609 56.6883 39.5252C58.1282 38.3825 59.3135 36.5531 60.1044 34.2818C60.8963 36.5531 62.0806 38.3825 63.5194 39.5252C62.0806 40.6609 60.8963 42.4973 60.1044 44.7686ZM65.8434 38.5959C63.4109 37.6433 61.5057 33.9158 61.1021 29.3206C61.0565 28.8099 60.6235 28.4135 60.1044 28.4135C59.5852 28.4135 59.1523 28.8099 59.1076 29.3206C58.7031 33.9168 56.7968 37.6433 54.3643 38.5959C53.5217 38.9286 53.5217 40.1229 54.3643 40.4556C56.7978 41.4082 58.7031 45.1347 59.1076 49.7299C59.1523 50.2416 59.5852 50.637 60.1044 50.637C60.6235 50.637 61.0565 50.2416 61.1021 49.7299C61.5057 45.1347 63.4109 41.4082 65.8434 40.4556C66.684 40.1239 66.6911 38.9337 65.8434 38.5959ZM39.0444 36.7129C37.9635 37.0254 36.9718 37.5513 36.0998 38.2834C35.6821 38.6272 35.0493 38.5817 34.6894 38.154C34.3355 37.7343 34.3903 37.1023 34.8161 36.7513C35.9021 35.8442 37.1381 35.1889 38.4897 34.8006C39.021 34.6479 39.5757 34.9533 39.7298 35.4792C39.8829 36.0121 39.5757 36.5612 39.0444 36.7129ZM38.9227 29.6482C36.0461 30.0983 33.3753 31.3785 31.1953 33.3373C30.7816 33.7125 30.1499 33.671 29.7818 33.2686C29.4107 32.857 29.4431 32.2239 29.8528 31.8589C32.3218 29.6331 35.3495 28.1849 38.6114 27.6743C39.1569 27.5903 39.669 27.9645 39.7562 28.5055C39.8423 29.0465 39.4692 29.5643 38.9227 29.6482ZM38.871 21.8595C39.4216 21.7988 39.82 21.3104 39.7622 20.7623C39.7044 20.2132 39.2106 19.8167 38.6631 19.8703C33.282 20.4346 28.3329 22.6897 24.352 26.4021C23.9485 26.7752 23.9262 27.4073 24.3044 27.8118C24.6795 28.2082 25.3133 28.2294 25.7189 27.8573C29.3782 24.4503 33.9269 22.3773 38.871 21.8595ZM15.5904 54.0217H43.6924L46.3936 56.7187H13.2603C14.037 55.8501 14.8127 54.951 15.5904 54.0217ZM8.94284 58.3954C13.1903 54.0743 17.2756 49.0139 21.7593 42.5135L19.7314 40.493C13.167 44.9598 8.09517 49.0372 3.8132 53.2744C2.88441 54.1966 2.46362 54.9591 2.40988 55.843C2.34397 56.9402 2.67959 57.7482 3.56884 58.632C4.45808 59.524 5.26824 59.8587 6.36839 59.7909C7.26778 59.7374 8.03737 59.3177 8.94284 58.3954ZM4.79979 10.0156L7.58109 12.7824V47.132C6.61681 47.947 5.69106 48.7621 4.79979 49.5782V10.0156ZM17.4611 11.2969C18.5359 10.8388 19.5124 9.89423 20.3104 8.60588H6.21528L8.91648 11.2969H17.4611ZM23.4131 6.66224C24.2618 9.11657 25.5586 11.0906 27.1465 12.295C25.5586 13.4994 24.2618 15.4724 23.4131 17.9196C22.5634 15.4734 21.2645 13.4994 19.6787 12.295C21.2645 11.0906 22.5634 9.11657 23.4131 6.66224ZM46.3936 8.60588H26.5148C27.3128 9.89423 28.2872 10.8388 29.363 11.2969H43.6924L46.3936 8.60588ZM29.9927 50.7209L23.1981 43.9536C21.1449 46.9186 19.1687 49.5853 17.2198 52.0245H42.8244L43.0282 51.8262V13.4913L42.8244 13.2931H29.362C26.8149 14.3751 24.8347 18.1856 24.4098 22.8657C24.3632 23.3764 23.9302 23.7728 23.4131 23.7728C22.894 23.7728 22.462 23.3764 22.4154 22.8657C21.9915 18.1856 20.0102 14.3832 17.4632 13.2931H9.78544L9.58265 13.4913V45.4775C12.1845 43.3822 15.0601 41.2636 18.2906 39.0611L11.5082 32.3008C10.3877 31.1803 10.3877 29.3661 11.5082 28.2456L12.5302 27.2253L15.2649 24.5039C16.07 23.6959 17.38 23.6959 18.1841 24.5039L37.8164 44.0678C38.6215 44.8718 38.6205 46.1763 37.8164 46.9793L34.0597 50.7209C32.9373 51.8374 31.1192 51.8394 29.9927 50.7209ZM36.3999 45.5696V45.4775L16.7686 25.9136C16.7453 25.8914 16.7047 25.8914 16.6804 25.9136L14.6555 27.9331L34.374 47.5891L36.3999 45.5696ZM12.9237 30.8911L31.4082 49.3112C31.5714 49.471 31.7915 49.563 32.0257 49.563C32.4648 49.563 32.6655 49.289 32.9586 48.9988L13.239 29.3438L12.9237 29.6563C12.584 29.9991 12.584 30.5473 12.9237 30.8911ZM45.0308 52.5351L47.8091 55.302V10.0156L45.0308 12.7824V52.5351ZM48.8119 6.60965H25.5252C24.9624 5.17669 24.5731 3.51519 24.4098 1.72424C24.3632 1.21355 23.9302 0.817139 23.4131 0.817139C22.894 0.817139 22.462 1.21355 22.4154 1.72424C22.2531 3.51519 21.8628 5.17669 21.299 6.60965H3.79901C3.24538 6.60965 2.79721 7.05157 2.79721 7.60777V51.4683C1.72647 52.5119 0.534048 53.7224 0.412373 55.7206C0.308949 57.4125 0.845335 58.7463 2.15233 60.0417C3.48874 61.3736 4.79472 61.8772 6.48905 61.7801C8.79683 61.6476 10.1555 60.0387 11.4179 58.7079H48.8119C49.3635 58.7079 49.8126 58.266 49.8126 57.7098V7.60777C49.8126 7.05157 49.3635 6.60965 48.8119 6.60965Z" fill="white"/>
</g>
</svg>
