<svg width="128" height="76" viewBox="0 0 128 76" fill="none" xmlns="http://www.w3.org/2000/svg">
<path d="M45 18.4991C45 8.28324 53.5071 0 63.9991 0C74.4929 0 83 8.28324 83 18.4991C83 28.7168 74.4929 37 63.9991 37C53.5071 37 45 28.7168 45 18.4991Z" fill="#4D8FA7"/>
<mask id="mask0_303_193" style="mask-type:luminance" maskUnits="userSpaceOnUse" x="31" y="36" width="66" height="40">
<path d="M31.2102 36.4529H96.7212V75.7863H31.2102V36.4529Z" fill="white"/>
</mask>
<g mask="url(#mask0_303_193)">
<path d="M96.2397 65.4978L93.5566 55.1575C91.3693 46.7324 85.4698 40.0488 77.8823 36.6748C74.0232 39.6765 69.1743 41.4682 63.9048 41.4682C58.6371 41.4682 53.7882 39.6765 49.9274 36.6748C42.3417 40.0488 36.4403 46.7324 34.2548 55.1575L31.5735 65.4978C30.2222 70.7047 34.151 75.7845 39.5315 75.7845H88.2817C93.6604 75.7845 97.5911 70.7047 96.2397 65.4978Z" fill="#4D8FA7"/>
</g>
<path d="M11 15.9991C11 7.71501 17.7164 1 26 1C34.2836 1 41 7.71501 41 15.9991C41 24.285 34.2836 31 26 31C17.7164 31 11 24.285 11 15.9991Z" fill="#4D8FA7"/>
<path d="M30.5081 55.1087C32.5725 47.1274 37.4942 40.4932 44 36.1897C41.9727 33.9937 39.518 32.2212 36.7825 31C33.7345 33.3786 29.9059 34.8001 25.7453 34.8001C21.5847 34.8001 17.7561 33.3786 14.7063 31C8.71622 33.6728 4.05763 38.9707 2.33053 45.6492L0.211384 53.8468C-0.855253 57.973 2.2493 62 6.49642 62H28.728L30.5081 55.1087Z" fill="#4D8FA7"/>
<path d="M117 15.9991C117 7.71501 110.285 1 102 1C93.7164 1 87 7.71501 87 15.9991C87 24.285 93.7164 31 102 31C110.285 31 117 24.285 117 15.9991Z" fill="#4D8FA7"/>
<mask id="mask1_303_193" style="mask-type:luminance" maskUnits="userSpaceOnUse" x="83" y="30" width="45" height="33">
<path d="M83.4221 30.532H128V62.1133H83.4221V30.532Z" fill="white"/>
</mask>
<g mask="url(#mask1_303_193)">
<path d="M97.0989 55.0181C95.0083 46.9581 90.0198 40.2584 83.4257 35.9125C85.4805 33.6948 87.9667 31.9049 90.7393 30.6716C93.8305 33.0737 97.7093 34.5092 101.926 34.5092C106.145 34.5092 110.024 33.0737 113.115 30.6716C119.186 33.3708 123.91 38.7209 125.661 45.4653L127.809 53.7437C128.89 57.9106 125.743 61.9773 121.436 61.9773H98.9049L97.0989 55.0181Z" fill="#4D8FA7"/>
</g>
<path d="M45 18.4991C45 8.28324 53.5071 0 63.9991 0C74.4929 0 83 8.28324 83 18.4991C83 28.7168 74.4929 37 63.9991 37C53.5071 37 45 28.7168 45 18.4991Z" fill="#4D8FA7"/>
<mask id="mask2_303_193" style="mask-type:luminance" maskUnits="userSpaceOnUse" x="31" y="36" width="66" height="40">
<path d="M31.2102 36.4529H96.7212V75.7863H31.2102V36.4529Z" fill="white"/>
</mask>
<g mask="url(#mask2_303_193)">
<path d="M96.2397 65.4978L93.5566 55.1575C91.3693 46.7324 85.4698 40.0488 77.8823 36.6748C74.0232 39.6765 69.1743 41.4682 63.9048 41.4682C58.6371 41.4682 53.7882 39.6765 49.9274 36.6748C42.3417 40.0488 36.4403 46.7324 34.2548 55.1575L31.5735 65.4978C30.2222 70.7047 34.151 75.7845 39.5315 75.7845H88.2817C93.6604 75.7845 97.5911 70.7047 96.2397 65.4978Z" fill="#4D8FA7"/>
</g>
<path d="M11 15.9991C11 7.71501 17.7164 1 26 1C34.2836 1 41 7.71501 41 15.9991C41 24.285 34.2836 31 26 31C17.7164 31 11 24.285 11 15.9991Z" fill="#4D8FA7"/>
<path d="M30.5081 55.1087C32.5725 47.1274 37.4942 40.4932 44 36.1897C41.9727 33.9937 39.518 32.2212 36.7825 31C33.7345 33.3786 29.9059 34.8001 25.7453 34.8001C21.5847 34.8001 17.7561 33.3786 14.7063 31C8.71622 33.6728 4.05763 38.9707 2.33053 45.6492L0.211384 53.8468C-0.855253 57.973 2.2493 62 6.49642 62H28.728L30.5081 55.1087Z" fill="#4D8FA7"/>
<path d="M117 15.9991C117 7.71501 110.285 1 102 1C93.7164 1 87 7.71501 87 15.9991C87 24.285 93.7164 31 102 31C110.285 31 117 24.285 117 15.9991Z" fill="#4D8FA7"/>
<mask id="mask3_303_193" style="mask-type:luminance" maskUnits="userSpaceOnUse" x="83" y="30" width="45" height="33">
<path d="M83.4221 30.532H128V62.1133H83.4221V30.532Z" fill="white"/>
</mask>
<g mask="url(#mask3_303_193)">
<path d="M97.0989 55.0181C95.0083 46.9581 90.0198 40.2584 83.4257 35.9125C85.4805 33.6948 87.9667 31.9049 90.7393 30.6716C93.8305 33.0737 97.7093 34.5092 101.926 34.5092C106.145 34.5092 110.024 33.0737 113.115 30.6716C119.186 33.3708 123.91 38.7209 125.661 45.4653L127.809 53.7437C128.89 57.9106 125.743 61.9773 121.436 61.9773H98.9049L97.0989 55.0181Z" fill="#4D8FA7"/>
</g>
</svg>
