<svg width="64" height="77" viewBox="0 0 64 77" fill="none" xmlns="http://www.w3.org/2000/svg">
<path d="M42.0046 29.0669H12.7092L43.0246 20.9593C43.4339 20.8507 43.7673 20.5944 43.9624 20.2389C44.1449 19.9055 44.1892 19.5152 44.0879 19.1397L42.9867 15.0353C42.436 12.9847 39.8632 12.3602 37.6934 12.9403L27.3791 15.6988L27.0078 14.319C26.8527 13.741 26.4814 13.2579 25.9603 12.9583C25.4392 12.6576 24.8348 12.5785 24.2557 12.7325L15.1597 15.165C14.5816 15.3201 14.0974 15.6914 13.7968 16.2114C13.4962 16.7304 13.416 17.3349 13.5711 17.9119L13.9413 19.2927L3.6259 22.0511C2.60059 22.3254 1.63118 22.8897 0.966621 23.6007C0.137507 24.4868 -0.172619 25.5184 0.0921487 26.5057L1.19447 30.6112C1.29574 30.9868 1.52991 31.3032 1.85481 31.5005C2.08476 31.6397 2.34637 31.7114 2.61536 31.7114C2.75143 31.7114 2.88962 31.6935 3.0278 31.6566L3.99405 31.3982L7.11747 65.3444C7.32 67.5363 9.16177 69.1882 11.4023 69.1882H35.5078C37.7483 69.1882 39.59 67.5363 39.7926 65.3444L43.0278 30.1861C43.0542 29.8992 42.9582 29.6144 42.7641 29.4013C42.5689 29.1882 42.2936 29.0669 42.0046 29.0669ZM15.5552 17.3813C15.5394 17.319 15.5573 17.2684 15.5763 17.2368C15.5943 17.2041 15.6301 17.1629 15.6913 17.146L24.7873 14.7136C24.8495 14.6967 24.9012 14.7157 24.9329 14.7336C24.9656 14.7526 25.0067 14.7874 25.0236 14.8496L25.3938 16.2294L15.9265 18.761L15.5552 17.3813ZM2.07738 25.9752C1.97612 25.5986 2.27886 25.203 2.46873 24.9994C2.87168 24.569 3.50354 24.2062 4.1586 24.0321L38.2261 14.9203C39.474 14.587 40.8232 14.9003 41.0014 15.5659L41.9571 19.1228L3.03202 29.5321L2.07738 25.9752ZM37.7472 65.1566C37.6428 66.2863 36.6797 67.1376 35.5078 67.1376H11.4033C10.2303 67.1376 9.26831 66.2863 9.16388 65.1566L6.03202 31.1176H40.8791L37.7472 65.1566ZM12.1692 57.3823C12.2177 57.9098 12.6618 58.3138 13.1924 58.3138H16.8622C17.1512 58.3138 17.4265 58.1925 17.6206 57.9794C17.8158 57.7674 17.9118 57.4825 17.8854 57.1946L16.0795 37.5722C16.031 37.0448 15.5879 36.6408 15.0563 36.6408H11.3865C11.0974 36.6408 10.8221 36.7621 10.628 36.9752C10.4329 37.1882 10.3369 37.473 10.3632 37.76L12.1692 57.3823ZM14.1196 38.6914L15.7367 56.2631H14.1301L12.513 38.6914H14.1196ZM21.6038 58.3138H25.2578C25.8242 58.3138 26.2841 57.857 26.2852 57.2916L26.3348 37.6693C26.3358 37.396 26.2282 37.1355 26.0352 36.9425C25.8422 36.7494 25.5805 36.6408 25.3073 36.6408H21.6533C21.0869 36.6408 20.627 37.0986 20.6259 37.664L20.5763 57.2863C20.5753 57.5585 20.6839 57.8201 20.8759 58.0131C21.0689 58.2062 21.3305 58.3138 21.6038 58.3138ZM22.6786 38.6914H24.2778L24.2335 56.2631H22.6333L22.6786 38.6914ZM29.3928 58.3138H33.0626C33.5943 58.3138 34.0373 57.9098 34.0858 57.3823L35.8917 37.76C35.9181 37.473 35.8221 37.1882 35.627 36.9752C35.4329 36.7621 35.1576 36.6408 34.8685 36.6408H31.1987C30.6681 36.6408 30.224 37.0448 30.1755 37.5722L28.3696 57.1946C28.3432 57.4825 28.4392 57.7674 28.6343 57.9804C28.8284 58.1925 29.1038 58.3138 29.3928 58.3138ZM32.1354 38.6914H33.743L32.1259 56.2631H30.5194L32.1354 38.6914ZM62.3917 20.7863C61.436 19.1112 60.0109 17.2357 57.9561 14.953C58.4476 14.511 58.7588 13.8739 58.7588 13.164C58.7588 12.2368 58.2314 11.4319 57.4624 11.0279L58.2599 10.2315C58.8928 9.60068 59.2019 8.82642 59.109 8.10807C59.0289 7.48887 58.6533 6.95617 58.051 6.60596C58.0331 6.59541 58.0141 6.58486 57.9951 6.57537C55.8822 5.51524 54.4656 6.79161 53.705 7.47832C53.5447 7.62284 53.3137 7.83064 53.1765 7.91609C53.0225 7.81693 52.762 7.57748 52.5816 7.40976C51.8917 6.77368 50.9487 5.90237 49.6438 6.00891C49.6006 6.01208 49.5573 6.01841 49.5151 6.02685C49.0352 6.12811 47.5742 6.43718 47.2124 7.65343C46.974 8.45512 47.3147 9.3222 48.2261 10.2315L49.0236 11.0279C48.2546 11.4319 47.7272 12.2368 47.7272 13.1629C47.7272 13.8739 48.0384 14.511 48.5299 14.953C46.4751 17.2357 45.05 19.1112 44.0943 20.7863C42.3917 23.7695 42.3601 27.0712 44.0067 29.8444C45.8337 32.9214 49.3717 34.7958 53.243 34.7347C53.3031 34.7357 53.3622 34.7368 53.4213 34.7368C57.223 34.7368 60.6808 32.8739 62.4793 29.8444C64.1259 27.0712 64.0943 23.7695 62.3917 20.7863ZM50.1438 13.5247C49.9476 13.5247 49.782 13.3591 49.782 13.164C49.782 12.9678 49.9476 12.8022 50.1438 12.8022H56.3422C56.5384 12.8022 56.704 12.9678 56.704 13.164C56.704 13.3591 56.5384 13.5247 56.3422 13.5247H50.1438ZM49.8622 8.05111C50.2578 8.05849 50.7493 8.51208 51.186 8.91503C51.6997 9.38971 52.2314 9.88128 52.9213 9.97727C53.8548 10.1081 54.5352 9.49309 55.0827 8.99942C55.9097 8.25364 56.2757 8.01946 57.0394 8.39182C57.0478 8.3971 57.0552 8.40132 57.0605 8.40659C57.0352 8.48676 56.955 8.63444 56.8073 8.78212L54.8337 10.7515H51.6523L49.6786 8.78212C49.4297 8.53317 49.3073 8.36018 49.2472 8.25575C49.3506 8.2009 49.5384 8.12389 49.8622 8.05111ZM60.7124 28.799C59.282 31.2062 56.5004 32.6861 53.4223 32.6861C53.3685 32.6861 53.3137 32.6861 53.2599 32.6851C53.2483 32.684 53.2367 32.684 53.2251 32.6851C50.0848 32.7378 47.2282 31.2484 45.7736 28.799C44.4951 26.646 44.5331 24.1608 45.8791 21.8011C46.8622 20.0796 48.4128 18.0933 50.7409 15.5754H55.744C58.0721 18.0933 59.6238 20.0796 60.6069 21.8011C61.9529 24.1608 61.9898 26.646 60.7124 28.799Z" fill="white"/>
</svg>
