<svg width="67" height="67" viewBox="0 0 67 67" fill="none" xmlns="http://www.w3.org/2000/svg">
<mask id="mask0_336_205" style="mask-type:luminance" maskUnits="userSpaceOnUse" x="0" y="0" width="67" height="67">
<path d="M0.815552 0.41626H66.3856V66.2631H0.815552V0.41626Z" fill="white"/>
</mask>
<g mask="url(#mask0_336_205)">
<path d="M43.4364 51.9962H32.5081C28.5779 51.9962 24.1698 50.3996 20.7175 47.7255C17.4193 45.1692 15.4515 42.0458 15.0855 38.8275H62.4902C58.1842 47.6841 51.9365 51.9962 43.4364 51.9962ZM48.8012 61.06C48.9294 61.5398 49.3616 61.8736 49.8568 61.8736C51.0916 61.8736 52.1037 62.8464 52.1754 64.0678H23.7691C23.8408 62.8464 24.8529 61.8736 26.0877 61.8736C26.5818 61.8736 27.0151 61.5398 27.1433 61.06L29.0655 53.8545C30.2286 54.0748 31.3852 54.1915 32.5081 54.1915H43.4364C44.6278 54.1915 45.7843 54.1108 46.9051 53.9516L48.8012 61.06ZM7.37278 49.802V38.8275H11.7439V48.7038C11.7439 51.729 14.1961 54.1915 17.2086 54.1915H26.7121L25.5414 58.5811H16.115C11.2954 58.5811 7.37278 54.6419 7.37278 49.802ZM13.93 42.7808C15.0051 45.2194 16.8535 47.5019 19.3828 49.4628C20.6523 50.4465 22.0413 51.2971 23.4922 51.9962H17.2086C15.4004 51.9962 13.93 50.5196 13.93 48.7038V42.7808ZM4.09416 35.535V11.3907H19.3936V35.535C19.3936 36.1392 18.9038 36.6322 18.3011 36.6322H5.18667C4.58503 36.6322 4.09416 36.1392 4.09416 35.535ZM3.00166 7.00117H20.4872V9.1965H3.00166V7.00117ZM23.187 2.9693C23.3955 2.73919 23.68 2.61159 23.9896 2.61159C24.5456 2.61159 25.0082 3.03037 25.0658 3.58548L28.0175 32.2426H25.8433L22.9144 3.80905C22.8829 3.49932 22.9796 3.20159 23.187 2.9693ZM21.5797 12.1792L23.7658 33.3964V36.6322H21.3919C21.5135 36.2886 21.5797 35.9189 21.5797 35.535V12.1792ZM64.2006 35.535C64.2006 36.1392 63.7097 36.6322 63.107 36.6322H25.9509V34.4368H63.107C63.7097 34.4368 64.2006 34.9298 64.2006 35.535ZM63.107 32.2426H30.2156L27.2399 3.35973C27.0673 1.68133 25.6696 0.41626 23.9896 0.41626C23.0665 0.41626 22.1825 0.811049 21.5645 1.50029C20.9455 2.18845 20.6458 3.11217 20.7413 4.0348L20.8206 4.80583H1.90915C1.30533 4.80583 0.815552 5.29768 0.815552 5.90404V10.2936C0.815552 10.9 1.30533 11.3907 1.90915 11.3907V35.535C1.90915 37.3498 3.37958 38.8275 5.18667 38.8275V49.802C5.18667 55.8525 10.0899 60.7754 16.115 60.7754H23.149C22.189 61.6075 21.5797 62.8355 21.5797 64.2052V65.166C21.5797 65.7713 22.0695 66.2631 22.6722 66.2631H53.2723C53.875 66.2631 54.3648 65.7713 54.3648 65.166V64.2052C54.3648 62.0044 52.7923 60.1657 50.7169 59.7611L49.0575 53.5372C51.7649 52.873 54.2366 51.7072 56.4455 50.0452C59.975 47.3885 62.9213 43.3937 65.2008 38.1699C65.2214 38.1208 65.2388 38.0717 65.2529 38.0215C65.9458 37.4174 66.3856 36.5264 66.3856 35.535C66.3856 33.7192 64.9152 32.2426 63.107 32.2426Z" fill="white"/>
</g>
<path d="M11.7439 15.7802C12.3467 15.7802 12.8375 16.2731 12.8375 16.8784C12.8375 17.4826 12.3467 17.9755 11.7439 17.9755C11.1423 17.9755 10.6514 17.4826 10.6514 16.8784C10.6514 16.2731 11.1423 15.7802 11.7439 15.7802ZM11.7439 20.1698C13.3317 20.1698 14.6598 19.0312 14.9585 17.524L15.6264 17.8599C15.7838 17.9384 15.9511 17.9755 16.114 17.9755C16.5158 17.9755 16.9013 17.753 17.0935 17.3692C17.3629 16.826 17.1446 16.1673 16.6048 15.8958C16.6048 15.8958 14.2873 14.7409 14.2189 14.7223C13.6173 14.0265 12.7311 13.5859 11.7439 13.5859C9.93685 13.5859 8.46533 15.0626 8.46533 16.8784C8.46533 18.6931 9.93685 20.1698 11.7439 20.1698Z" fill="white"/>
<path d="M37.9718 13.0125C37.2854 11.9132 36.3602 10.9829 35.2644 10.2936C36.3602 9.60331 37.2854 8.67414 37.9718 7.57484C38.6592 8.67414 39.5845 9.60331 40.6803 10.2936C39.5845 10.9829 38.6592 11.9132 37.9718 13.0125ZM43.7015 11.3581C44.188 11.2359 44.529 10.7975 44.529 10.2936C44.529 9.7898 44.188 9.35139 43.7015 9.22815C41.397 8.65015 39.6084 6.85397 39.0328 4.53976C38.9112 4.05118 38.4735 3.70874 37.9718 3.70874C37.4711 3.70874 37.0335 4.05118 36.9119 4.53976C36.3363 6.85397 34.5466 8.65015 32.2432 9.22815C31.7567 9.35139 31.4156 9.7898 31.4156 10.2936C31.4156 10.7975 31.7567 11.2359 32.2432 11.3581C34.5466 11.9361 36.3363 13.7333 36.9119 16.0464C37.0335 16.535 37.4711 16.8786 37.9718 16.8786C38.4735 16.8786 38.9112 16.535 39.0328 16.0464C39.6084 13.7333 41.397 11.9361 43.7015 11.3581Z" fill="white"/>
<path d="M45.6215 26.5399C45.085 25.7711 44.416 25.0993 43.6504 24.5605C44.416 24.0207 45.085 23.3489 45.6215 22.5801C46.159 23.3489 46.828 24.0207 47.5936 24.5605C46.828 25.0993 46.159 25.7711 45.6215 26.5399ZM50.339 23.519C48.6112 22.9399 47.2353 21.5593 46.6586 19.8231C46.5098 19.3748 46.0917 19.0728 45.6215 19.0728C45.1523 19.0728 44.7342 19.3748 44.5854 19.8231C44.0088 21.5593 42.6328 22.9399 40.905 23.519C40.4587 23.6684 40.1578 24.0883 40.1578 24.5605C40.1578 25.0328 40.4587 25.4515 40.905 25.601C42.6328 26.18 44.0088 27.5618 44.5854 29.2969C44.7342 29.7451 45.1523 30.0472 45.6215 30.0472C46.0917 30.0472 46.5098 29.7451 46.6586 29.2969C47.2353 27.5618 48.6112 26.18 50.339 25.601C50.7854 25.4515 51.0862 25.0328 51.0862 24.5605C51.0862 24.0883 50.7854 23.6684 50.339 23.519Z" fill="white"/>
<path d="M60.922 15.7802H59.8284V14.6831C59.8284 14.0767 59.3397 13.5859 58.7359 13.5859C58.1321 13.5859 57.6434 14.0767 57.6434 14.6831V15.7802H56.5498C55.9471 15.7802 55.4573 16.272 55.4573 16.8784C55.4573 17.4837 55.9471 17.9755 56.5498 17.9755H57.6434V19.0726C57.6434 19.679 58.1321 20.1698 58.7359 20.1698C59.3397 20.1698 59.8284 19.679 59.8284 19.0726V17.9755H60.922C61.5247 17.9755 62.0145 17.4837 62.0145 16.8784C62.0145 16.272 61.5247 15.7802 60.922 15.7802Z" fill="white"/>
<mask id="mask1_336_205" style="mask-type:luminance" maskUnits="userSpaceOnUse" x="0" y="0" width="67" height="67">
<path d="M0.815552 0.41626H66.3856V66.2631H0.815552V0.41626Z" fill="white"/>
</mask>
<g mask="url(#mask1_336_205)">
<path d="M43.4364 51.9962H32.5081C28.5779 51.9962 24.1698 50.3996 20.7175 47.7255C17.4193 45.1692 15.4515 42.0458 15.0855 38.8275H62.4902C58.1842 47.6841 51.9365 51.9962 43.4364 51.9962ZM48.8012 61.06C48.9294 61.5398 49.3616 61.8736 49.8568 61.8736C51.0916 61.8736 52.1037 62.8464 52.1754 64.0678H23.7691C23.8408 62.8464 24.8529 61.8736 26.0877 61.8736C26.5818 61.8736 27.0151 61.5398 27.1433 61.06L29.0655 53.8545C30.2286 54.0748 31.3852 54.1915 32.5081 54.1915H43.4364C44.6278 54.1915 45.7843 54.1108 46.9051 53.9516L48.8012 61.06ZM7.37278 49.802V38.8275H11.7439V48.7038C11.7439 51.729 14.1961 54.1915 17.2086 54.1915H26.7121L25.5414 58.5811H16.115C11.2954 58.5811 7.37278 54.6419 7.37278 49.802ZM13.93 42.7808C15.0051 45.2194 16.8535 47.5019 19.3828 49.4628C20.6523 50.4465 22.0413 51.2971 23.4922 51.9962H17.2086C15.4004 51.9962 13.93 50.5196 13.93 48.7038V42.7808ZM4.09416 35.535V11.3907H19.3936V35.535C19.3936 36.1392 18.9038 36.6322 18.3011 36.6322H5.18667C4.58503 36.6322 4.09416 36.1392 4.09416 35.535ZM3.00166 7.00117H20.4872V9.1965H3.00166V7.00117ZM23.187 2.9693C23.3955 2.73919 23.68 2.61159 23.9896 2.61159C24.5456 2.61159 25.0082 3.03037 25.0658 3.58548L28.0175 32.2426H25.8433L22.9144 3.80905C22.8829 3.49932 22.9796 3.20159 23.187 2.9693ZM21.5797 12.1792L23.7658 33.3964V36.6322H21.3919C21.5135 36.2886 21.5797 35.9189 21.5797 35.535V12.1792ZM64.2006 35.535C64.2006 36.1392 63.7097 36.6322 63.107 36.6322H25.9509V34.4368H63.107C63.7097 34.4368 64.2006 34.9298 64.2006 35.535ZM63.107 32.2426H30.2156L27.2399 3.35973C27.0673 1.68133 25.6696 0.41626 23.9896 0.41626C23.0665 0.41626 22.1825 0.811049 21.5645 1.50029C20.9455 2.18845 20.6458 3.11217 20.7413 4.0348L20.8206 4.80583H1.90915C1.30533 4.80583 0.815552 5.29768 0.815552 5.90404V10.2936C0.815552 10.9 1.30533 11.3907 1.90915 11.3907V35.535C1.90915 37.3498 3.37958 38.8275 5.18667 38.8275V49.802C5.18667 55.8525 10.0899 60.7754 16.115 60.7754H23.149C22.189 61.6075 21.5797 62.8355 21.5797 64.2052V65.166C21.5797 65.7713 22.0695 66.2631 22.6722 66.2631H53.2723C53.875 66.2631 54.3648 65.7713 54.3648 65.166V64.2052C54.3648 62.0044 52.7923 60.1657 50.7169 59.7611L49.0575 53.5372C51.7649 52.873 54.2366 51.7072 56.4455 50.0452C59.975 47.3885 62.9213 43.3937 65.2008 38.1699C65.2214 38.1208 65.2388 38.0717 65.2529 38.0215C65.9458 37.4174 66.3856 36.5264 66.3856 35.535C66.3856 33.7192 64.9152 32.2426 63.107 32.2426Z" fill="white"/>
</g>
<path d="M11.7439 15.7802C12.3467 15.7802 12.8375 16.2731 12.8375 16.8784C12.8375 17.4826 12.3467 17.9755 11.7439 17.9755C11.1423 17.9755 10.6514 17.4826 10.6514 16.8784C10.6514 16.2731 11.1423 15.7802 11.7439 15.7802ZM11.7439 20.1698C13.3317 20.1698 14.6598 19.0312 14.9585 17.524L15.6264 17.8599C15.7838 17.9384 15.9511 17.9755 16.114 17.9755C16.5158 17.9755 16.9013 17.753 17.0935 17.3692C17.3629 16.826 17.1446 16.1673 16.6048 15.8958C16.6048 15.8958 14.2873 14.7409 14.2189 14.7223C13.6173 14.0265 12.7311 13.5859 11.7439 13.5859C9.93685 13.5859 8.46533 15.0626 8.46533 16.8784C8.46533 18.6931 9.93685 20.1698 11.7439 20.1698Z" fill="white"/>
<path d="M37.9718 13.0125C37.2854 11.9132 36.3602 10.9829 35.2644 10.2936C36.3602 9.60331 37.2854 8.67414 37.9718 7.57484C38.6592 8.67414 39.5845 9.60331 40.6803 10.2936C39.5845 10.9829 38.6592 11.9132 37.9718 13.0125ZM43.7015 11.3581C44.188 11.2359 44.529 10.7975 44.529 10.2936C44.529 9.7898 44.188 9.35139 43.7015 9.22815C41.397 8.65015 39.6084 6.85397 39.0328 4.53976C38.9112 4.05118 38.4735 3.70874 37.9718 3.70874C37.4711 3.70874 37.0335 4.05118 36.9119 4.53976C36.3363 6.85397 34.5466 8.65015 32.2432 9.22815C31.7567 9.35139 31.4156 9.7898 31.4156 10.2936C31.4156 10.7975 31.7567 11.2359 32.2432 11.3581C34.5466 11.9361 36.3363 13.7333 36.9119 16.0464C37.0335 16.535 37.4711 16.8786 37.9718 16.8786C38.4735 16.8786 38.9112 16.535 39.0328 16.0464C39.6084 13.7333 41.397 11.9361 43.7015 11.3581Z" fill="white"/>
<path d="M45.6215 26.5399C45.085 25.7711 44.416 25.0993 43.6504 24.5605C44.416 24.0207 45.085 23.3489 45.6215 22.5801C46.159 23.3489 46.828 24.0207 47.5936 24.5605C46.828 25.0993 46.159 25.7711 45.6215 26.5399ZM50.339 23.519C48.6112 22.9399 47.2353 21.5593 46.6586 19.8231C46.5098 19.3748 46.0917 19.0728 45.6215 19.0728C45.1523 19.0728 44.7342 19.3748 44.5854 19.8231C44.0088 21.5593 42.6328 22.9399 40.905 23.519C40.4587 23.6684 40.1578 24.0883 40.1578 24.5605C40.1578 25.0328 40.4587 25.4515 40.905 25.601C42.6328 26.18 44.0088 27.5618 44.5854 29.2969C44.7342 29.7451 45.1523 30.0472 45.6215 30.0472C46.0917 30.0472 46.5098 29.7451 46.6586 29.2969C47.2353 27.5618 48.6112 26.18 50.339 25.601C50.7854 25.4515 51.0862 25.0328 51.0862 24.5605C51.0862 24.0883 50.7854 23.6684 50.339 23.519Z" fill="white"/>
<path d="M60.922 15.7802H59.8284V14.6831C59.8284 14.0767 59.3397 13.5859 58.7359 13.5859C58.1321 13.5859 57.6434 14.0767 57.6434 14.6831V15.7802H56.5498C55.9471 15.7802 55.4573 16.272 55.4573 16.8784C55.4573 17.4837 55.9471 17.9755 56.5498 17.9755H57.6434V19.0726C57.6434 19.679 58.1321 20.1698 58.7359 20.1698C59.3397 20.1698 59.8284 19.679 59.8284 19.0726V17.9755H60.922C61.5247 17.9755 62.0145 17.4837 62.0145 16.8784C62.0145 16.272 61.5247 15.7802 60.922 15.7802Z" fill="white"/>
</svg>
