<svg width="57" height="51" viewBox="0 0 57 51" fill="none" xmlns="http://www.w3.org/2000/svg">
<path d="M53.6513 40.175H29.9979C29.5206 40.175 29.1337 39.7879 29.1337 39.3106C29.1337 38.8348 29.5206 38.4477 29.9979 38.4477H52.7871V18.6063H30.4623C29.985 18.6063 29.598 18.2192 29.598 17.7419C29.598 17.2645 29.985 16.8774 30.4623 16.8774H53.6513C54.1286 16.8774 54.5156 17.2645 54.5156 17.7419V39.3106C54.5156 39.7879 54.1286 40.175 53.6513 40.175Z" fill="white"/>
<mask id="mask0_336_204" style="mask-type:luminance" maskUnits="userSpaceOnUse" x="29" y="13" width="28" height="6">
<path d="M29.1191 13.6277H56.1295V18.9949H29.1191V13.6277Z" fill="white"/>
</mask>
<g mask="url(#mask0_336_204)">
<path d="M55.2846 18.6063H29.9979C29.5206 18.6063 29.1337 18.2192 29.1337 17.7418C29.1337 17.2645 29.5206 16.8774 29.9979 16.8774H54.4204V15.734H29.9979C29.5206 15.734 29.1337 15.3469 29.1337 14.8696C29.1337 14.3922 29.5206 14.0051 29.9979 14.0051H55.2846C55.7619 14.0051 56.1489 14.3922 56.1489 14.8696V17.7418C56.1489 18.2192 55.7619 18.6063 55.2846 18.6063Z" fill="white"/>
</g>
<path d="M53.6513 25.3619H29.9979C29.5206 25.3619 29.1337 24.9749 29.1337 24.4975C29.1337 24.0201 29.5206 23.6331 29.9979 23.6331H53.6513C54.1286 23.6331 54.5156 24.0201 54.5156 24.4975C54.5156 24.9749 54.1286 25.3619 53.6513 25.3619Z" fill="white"/>
<path d="M53.6513 33.4177H29.9979C29.5206 33.4177 29.1337 33.0306 29.1337 32.5532C29.1337 32.0775 29.5206 31.6904 29.9979 31.6904H53.6513C54.1286 31.6904 54.5156 32.0775 54.5156 32.5532C54.5156 33.0306 54.1286 33.4177 53.6513 33.4177Z" fill="white"/>
<path d="M39.8237 21.3253H37.3261C36.8489 21.3253 36.4619 20.9382 36.4619 20.4609C36.4619 19.9835 36.8489 19.5964 37.3261 19.5964H39.8237C40.301 19.5964 40.6879 19.9835 40.6879 20.4609C40.6879 20.9382 40.301 21.3253 39.8237 21.3253Z" fill="white"/>
<path d="M39.8237 36.7962H37.3261C36.8489 36.7962 36.4619 36.4092 36.4619 35.9318C36.4619 35.4544 36.8489 35.0674 37.3261 35.0674H39.8237C40.301 35.0674 40.6879 35.4544 40.6879 35.9318C40.6879 36.4092 40.301 36.7962 39.8237 36.7962Z" fill="white"/>
<path d="M39.8237 29.3907H37.3261C36.8489 29.3907 36.4619 29.0037 36.4619 28.5263C36.4619 28.0489 36.8489 27.6619 37.3261 27.6619H39.8237C40.301 27.6619 40.6879 28.0489 40.6879 28.5263C40.6879 29.0037 40.301 29.3907 39.8237 29.3907Z" fill="white"/>
<path d="M48.1935 43.352H44.1723C43.1597 43.352 42.3374 42.5279 42.3374 41.5151V39.3105C42.3374 38.8331 42.7244 38.446 43.2 38.446H49.1642C49.6414 38.446 50.0284 38.8331 50.0284 39.3105V41.5151C50.03 42.5279 49.2061 43.352 48.1935 43.352ZM44.0659 40.1749V41.5167C44.0659 41.5747 44.1158 41.6247 44.1739 41.6247H48.1951C48.2516 41.6247 48.3032 41.5747 48.3032 41.5167V40.1749H44.0659Z" fill="white"/>
<path d="M32.9759 43.352H29.9979C29.5206 43.352 29.1337 42.9649 29.1337 42.4876C29.1337 42.0102 29.5206 41.6231 29.9979 41.6231H32.9759C33.0324 41.6231 33.084 41.5731 33.084 41.5151V40.1749H29.9979C29.5206 40.1749 29.1337 39.7878 29.1337 39.3105C29.1337 38.8331 29.5206 38.446 29.9979 38.446H33.9466C34.4238 38.446 34.8108 38.8331 34.8108 39.3105V41.5151C34.8108 42.5279 33.9869 43.352 32.9759 43.352Z" fill="white"/>
<mask id="mask1_336_204" style="mask-type:luminance" maskUnits="userSpaceOnUse" x="0" y="7" width="32" height="40">
<path d="M0.809204 7.43481H31.183V46.6565H0.809204V7.43481Z" fill="white"/>
</mask>
<g mask="url(#mask1_336_204)">
<path d="M29.9978 46.3661H1.7153C1.23804 46.3661 0.851074 45.9791 0.851074 45.5017V8.46208C0.851074 7.98471 1.23804 7.59766 1.7153 7.59766H29.9978C30.4751 7.59766 30.8621 7.98471 30.8621 8.46208V45.5017C30.8605 45.9791 30.4751 46.3661 29.9978 46.3661ZM2.57953 44.6373H29.1336V9.32651H2.57953V44.6373Z" fill="white"/>
</g>
<mask id="mask2_336_204" style="mask-type:luminance" maskUnits="userSpaceOnUse" x="20" y="44" width="9" height="7">
<path d="M20.451 44.5923H28.7064V50.5223H20.451V44.5923Z" fill="white"/>
</mask>
<g mask="url(#mask2_336_204)">
<path d="M27.7422 50.5949H23.8451C23.5242 50.5949 23.2276 50.4159 23.0792 50.1304L20.8735 45.9018C20.7348 45.6325 20.7445 45.3116 20.9009 45.0535C21.0573 44.7955 21.3379 44.6375 21.641 44.6375H27.7422C28.2178 44.6375 28.6048 45.0245 28.6048 45.5019V49.7305C28.6048 50.2078 28.2194 50.5949 27.7422 50.5949ZM24.3691 48.866H26.878V46.3663H23.0663L24.3691 48.866Z" fill="white"/>
</g>
<mask id="mask3_336_204" style="mask-type:luminance" maskUnits="userSpaceOnUse" x="2" y="44" width="9" height="7">
<path d="M2.70215 44.5923H10.9575V50.5223H2.70215V44.5923Z" fill="white"/>
</mask>
<g mask="url(#mask3_336_204)">
<path d="M7.86652 50.5949H3.97104C3.49378 50.5949 3.10681 50.2078 3.10681 49.7305V45.5019C3.10681 45.0245 3.49378 44.6375 3.97104 44.6375H10.0722C10.3737 44.6375 10.6527 44.7955 10.8107 45.0535C10.9671 45.3132 10.9768 45.6325 10.8381 45.9018L8.63239 50.1304C8.48406 50.4159 8.18899 50.5949 7.86652 50.5949ZM4.83527 48.866H7.3425L8.6469 46.3663H4.83527V48.866Z" fill="white"/>
</g>
<path d="M15.8558 46.3661C15.3801 46.3661 14.9932 45.9791 14.9932 45.5017V8.46208C14.9932 7.98471 15.3801 7.59766 15.8558 7.59766C16.333 7.59766 16.72 7.98471 16.72 8.46208V45.5017C16.72 45.9791 16.333 46.3661 15.8558 46.3661Z" fill="white"/>
<path d="M21.3249 31.6H19.8238C19.3481 31.6 18.9612 31.2129 18.9612 30.7356C18.9612 30.2582 19.3481 29.8711 19.8238 29.8711H20.4607V24.0943H19.8238C19.3481 24.0943 18.9612 23.7073 18.9612 23.2299C18.9612 22.7525 19.3481 22.3655 19.8238 22.3655H21.3249C21.8022 22.3655 22.1891 22.7525 22.1891 23.2299V30.7356C22.1891 31.2129 21.8022 31.6 21.3249 31.6Z" fill="white"/>
<path d="M11.8878 31.6H10.3883C9.91102 31.6 9.52405 31.2129 9.52405 30.7356V23.2299C9.52405 22.7525 9.91102 22.3655 10.3883 22.3655H11.8878C12.365 22.3655 12.752 22.7525 12.752 23.2299C12.752 23.7073 12.365 24.0943 11.8878 24.0943H11.2525V29.8711H11.8878C12.365 29.8711 12.752 30.2582 12.752 30.7356C12.752 31.2129 12.365 31.6 11.8878 31.6Z" fill="white"/>
<path d="M21.5942 19.0643C21.1169 19.0643 20.73 18.6773 20.73 18.1999C20.73 16.4985 19.3466 15.1132 17.6439 15.1132C17.1666 15.1132 16.7797 14.7261 16.7797 14.2487C16.7797 13.7714 17.1666 13.3843 17.6439 13.3843C19.3449 13.3843 20.73 12.0006 20.73 10.2975C20.73 9.82016 21.1169 9.43311 21.5942 9.43311C22.0715 9.43311 22.4584 9.82016 22.4584 10.2975C22.4584 11.999 23.8418 13.3843 25.5445 13.3843C26.0218 13.3843 26.4087 13.7714 26.4087 14.2487C26.4087 14.7261 26.0218 15.1132 25.5445 15.1132C23.8434 15.1132 22.4584 16.4969 22.4584 18.1999C22.4584 18.6773 22.0715 19.0643 21.5942 19.0643ZM20.3946 14.2487C20.8606 14.5745 21.2685 14.9825 21.5942 15.4486C21.9199 14.9825 22.3278 14.5745 22.7954 14.2487C22.3278 13.923 21.9199 13.5149 21.5942 13.0472C21.2685 13.5165 20.8622 13.923 20.3946 14.2487Z" fill="white"/>
<path d="M36.1346 13.0779C35.6573 13.0779 35.2704 12.6908 35.2704 12.2134C35.2704 10.512 33.887 9.12667 32.1843 9.12667C31.707 9.12667 31.3201 8.73962 31.3201 8.26386C31.3201 7.78649 31.707 7.39944 32.1843 7.39944C33.8853 7.39944 35.2704 6.0141 35.2704 4.31267C35.2704 3.8353 35.6573 3.44824 36.1346 3.44824C36.6119 3.44824 36.9988 3.8353 36.9988 4.31267C36.9988 6.0141 38.3822 7.39944 40.0849 7.39944C40.5622 7.39944 40.9491 7.78649 40.9491 8.26386C40.9491 8.73962 40.5622 9.12667 40.0849 9.12667C38.3838 9.12667 36.9988 10.512 36.9988 12.2134C36.9972 12.6908 36.6119 13.0779 36.1346 13.0779ZM34.9334 8.26386C35.3994 8.58963 35.8073 8.99765 36.133 9.46373C36.4603 8.99765 36.8666 8.58963 37.3342 8.26386C36.865 7.93648 36.4603 7.53007 36.133 7.06238C35.8073 7.53007 35.401 7.93648 34.9334 8.26386Z" fill="white"/>
<mask id="mask4_336_204" style="mask-type:luminance" maskUnits="userSpaceOnUse" x="42" y="0" width="12" height="11">
<path d="M42.7405 0.753418H53.0596V10.7378H42.7405V0.753418Z" fill="white"/>
</mask>
<g mask="url(#mask4_336_204)">
<path d="M47.9581 10.3799C47.4808 10.3799 47.0939 9.99281 47.0939 9.51545C47.0939 7.81401 45.7088 6.42868 44.0078 6.42868C43.5305 6.42868 43.1436 6.04162 43.1436 5.56425C43.1436 5.08849 43.5305 4.70144 44.0078 4.70144C45.7088 4.70144 47.0939 3.3161 47.0939 1.61467C47.0939 1.1373 47.4808 0.750244 47.9581 0.750244C48.4337 0.750244 48.8207 1.1373 48.8207 1.61467C48.8207 3.3161 50.2057 4.70144 51.9068 4.70144C52.384 4.70144 52.771 5.08849 52.771 5.56425C52.771 6.04162 52.384 6.42868 51.9068 6.42868C50.2057 6.42868 48.8207 7.81401 48.8207 9.51545C48.8207 9.99281 48.4337 10.3799 47.9581 10.3799ZM46.7569 5.56425C47.2245 5.89164 47.6308 6.29804 47.9581 6.76574C48.2838 6.29804 48.6917 5.89164 49.1577 5.56425C48.6901 5.23848 48.2838 4.83046 47.9581 4.36438C47.6308 4.83207 47.2245 5.23848 46.7569 5.56425Z" fill="white"/>
</g>
<path d="M53.6513 40.175H29.9979C29.5206 40.175 29.1337 39.7879 29.1337 39.3106C29.1337 38.8348 29.5206 38.4477 29.9979 38.4477H52.7871V18.6063H30.4623C29.985 18.6063 29.598 18.2192 29.598 17.7419C29.598 17.2645 29.985 16.8774 30.4623 16.8774H53.6513C54.1286 16.8774 54.5156 17.2645 54.5156 17.7419V39.3106C54.5156 39.7879 54.1286 40.175 53.6513 40.175Z" fill="white"/>
<mask id="mask5_336_204" style="mask-type:luminance" maskUnits="userSpaceOnUse" x="29" y="13" width="28" height="6">
<path d="M29.1191 13.6277H56.1295V18.9949H29.1191V13.6277Z" fill="white"/>
</mask>
<g mask="url(#mask5_336_204)">
<path d="M55.2846 18.6063H29.9979C29.5206 18.6063 29.1337 18.2192 29.1337 17.7418C29.1337 17.2645 29.5206 16.8774 29.9979 16.8774H54.4204V15.734H29.9979C29.5206 15.734 29.1337 15.3469 29.1337 14.8696C29.1337 14.3922 29.5206 14.0051 29.9979 14.0051H55.2846C55.7619 14.0051 56.1489 14.3922 56.1489 14.8696V17.7418C56.1489 18.2192 55.7619 18.6063 55.2846 18.6063Z" fill="white"/>
</g>
<path d="M53.6513 25.3619H29.9979C29.5206 25.3619 29.1337 24.9749 29.1337 24.4975C29.1337 24.0201 29.5206 23.6331 29.9979 23.6331H53.6513C54.1286 23.6331 54.5156 24.0201 54.5156 24.4975C54.5156 24.9749 54.1286 25.3619 53.6513 25.3619Z" fill="white"/>
<path d="M53.6513 33.4177H29.9979C29.5206 33.4177 29.1337 33.0306 29.1337 32.5532C29.1337 32.0775 29.5206 31.6904 29.9979 31.6904H53.6513C54.1286 31.6904 54.5156 32.0775 54.5156 32.5532C54.5156 33.0306 54.1286 33.4177 53.6513 33.4177Z" fill="white"/>
<path d="M39.8237 21.3253H37.3261C36.8489 21.3253 36.4619 20.9382 36.4619 20.4609C36.4619 19.9835 36.8489 19.5964 37.3261 19.5964H39.8237C40.301 19.5964 40.6879 19.9835 40.6879 20.4609C40.6879 20.9382 40.301 21.3253 39.8237 21.3253Z" fill="white"/>
<path d="M39.8237 36.7962H37.3261C36.8489 36.7962 36.4619 36.4092 36.4619 35.9318C36.4619 35.4544 36.8489 35.0674 37.3261 35.0674H39.8237C40.301 35.0674 40.6879 35.4544 40.6879 35.9318C40.6879 36.4092 40.301 36.7962 39.8237 36.7962Z" fill="white"/>
<path d="M39.8237 29.3907H37.3261C36.8489 29.3907 36.4619 29.0037 36.4619 28.5263C36.4619 28.0489 36.8489 27.6619 37.3261 27.6619H39.8237C40.301 27.6619 40.6879 28.0489 40.6879 28.5263C40.6879 29.0037 40.301 29.3907 39.8237 29.3907Z" fill="white"/>
<path d="M48.1935 43.352H44.1723C43.1597 43.352 42.3374 42.5279 42.3374 41.5151V39.3105C42.3374 38.8331 42.7244 38.446 43.2 38.446H49.1642C49.6414 38.446 50.0284 38.8331 50.0284 39.3105V41.5151C50.03 42.5279 49.2061 43.352 48.1935 43.352ZM44.0659 40.1749V41.5167C44.0659 41.5747 44.1158 41.6247 44.1739 41.6247H48.1951C48.2516 41.6247 48.3032 41.5747 48.3032 41.5167V40.1749H44.0659Z" fill="white"/>
<path d="M32.9759 43.352H29.9979C29.5206 43.352 29.1337 42.9649 29.1337 42.4876C29.1337 42.0102 29.5206 41.6231 29.9979 41.6231H32.9759C33.0324 41.6231 33.084 41.5731 33.084 41.5151V40.1749H29.9979C29.5206 40.1749 29.1337 39.7878 29.1337 39.3105C29.1337 38.8331 29.5206 38.446 29.9979 38.446H33.9466C34.4238 38.446 34.8108 38.8331 34.8108 39.3105V41.5151C34.8108 42.5279 33.9869 43.352 32.9759 43.352Z" fill="white"/>
<mask id="mask6_336_204" style="mask-type:luminance" maskUnits="userSpaceOnUse" x="0" y="7" width="32" height="40">
<path d="M0.809204 7.43481H31.183V46.6565H0.809204V7.43481Z" fill="white"/>
</mask>
<g mask="url(#mask6_336_204)">
<path d="M29.9978 46.3661H1.7153C1.23804 46.3661 0.851074 45.9791 0.851074 45.5017V8.46208C0.851074 7.98471 1.23804 7.59766 1.7153 7.59766H29.9978C30.4751 7.59766 30.8621 7.98471 30.8621 8.46208V45.5017C30.8605 45.9791 30.4751 46.3661 29.9978 46.3661ZM2.57953 44.6373H29.1336V9.32651H2.57953V44.6373Z" fill="white"/>
</g>
<mask id="mask7_336_204" style="mask-type:luminance" maskUnits="userSpaceOnUse" x="20" y="44" width="9" height="7">
<path d="M20.451 44.5923H28.7064V50.5223H20.451V44.5923Z" fill="white"/>
</mask>
<g mask="url(#mask7_336_204)">
<path d="M27.7422 50.5949H23.8451C23.5242 50.5949 23.2276 50.4159 23.0792 50.1304L20.8735 45.9018C20.7348 45.6325 20.7445 45.3116 20.9009 45.0535C21.0573 44.7955 21.3379 44.6375 21.641 44.6375H27.7422C28.2178 44.6375 28.6048 45.0245 28.6048 45.5019V49.7305C28.6048 50.2078 28.2194 50.5949 27.7422 50.5949ZM24.3691 48.866H26.878V46.3663H23.0663L24.3691 48.866Z" fill="white"/>
</g>
<mask id="mask8_336_204" style="mask-type:luminance" maskUnits="userSpaceOnUse" x="2" y="44" width="9" height="7">
<path d="M2.70215 44.5923H10.9575V50.5223H2.70215V44.5923Z" fill="white"/>
</mask>
<g mask="url(#mask8_336_204)">
<path d="M7.86652 50.5949H3.97104C3.49378 50.5949 3.10681 50.2078 3.10681 49.7305V45.5019C3.10681 45.0245 3.49378 44.6375 3.97104 44.6375H10.0722C10.3737 44.6375 10.6527 44.7955 10.8107 45.0535C10.9671 45.3132 10.9768 45.6325 10.8381 45.9018L8.63239 50.1304C8.48406 50.4159 8.18899 50.5949 7.86652 50.5949ZM4.83527 48.866H7.3425L8.6469 46.3663H4.83527V48.866Z" fill="white"/>
</g>
<path d="M15.8558 46.3661C15.3801 46.3661 14.9932 45.9791 14.9932 45.5017V8.46208C14.9932 7.98471 15.3801 7.59766 15.8558 7.59766C16.333 7.59766 16.72 7.98471 16.72 8.46208V45.5017C16.72 45.9791 16.333 46.3661 15.8558 46.3661Z" fill="white"/>
<path d="M21.3249 31.6H19.8238C19.3481 31.6 18.9612 31.2129 18.9612 30.7356C18.9612 30.2582 19.3481 29.8711 19.8238 29.8711H20.4607V24.0943H19.8238C19.3481 24.0943 18.9612 23.7073 18.9612 23.2299C18.9612 22.7525 19.3481 22.3655 19.8238 22.3655H21.3249C21.8022 22.3655 22.1891 22.7525 22.1891 23.2299V30.7356C22.1891 31.2129 21.8022 31.6 21.3249 31.6Z" fill="white"/>
<path d="M11.8878 31.6H10.3883C9.91102 31.6 9.52405 31.2129 9.52405 30.7356V23.2299C9.52405 22.7525 9.91102 22.3655 10.3883 22.3655H11.8878C12.365 22.3655 12.752 22.7525 12.752 23.2299C12.752 23.7073 12.365 24.0943 11.8878 24.0943H11.2525V29.8711H11.8878C12.365 29.8711 12.752 30.2582 12.752 30.7356C12.752 31.2129 12.365 31.6 11.8878 31.6Z" fill="white"/>
<path d="M21.5942 19.0643C21.1169 19.0643 20.73 18.6773 20.73 18.1999C20.73 16.4985 19.3466 15.1132 17.6439 15.1132C17.1666 15.1132 16.7797 14.7261 16.7797 14.2487C16.7797 13.7714 17.1666 13.3843 17.6439 13.3843C19.3449 13.3843 20.73 12.0006 20.73 10.2975C20.73 9.82016 21.1169 9.43311 21.5942 9.43311C22.0715 9.43311 22.4584 9.82016 22.4584 10.2975C22.4584 11.999 23.8418 13.3843 25.5445 13.3843C26.0218 13.3843 26.4087 13.7714 26.4087 14.2487C26.4087 14.7261 26.0218 15.1132 25.5445 15.1132C23.8434 15.1132 22.4584 16.4969 22.4584 18.1999C22.4584 18.6773 22.0715 19.0643 21.5942 19.0643ZM20.3946 14.2487C20.8606 14.5745 21.2685 14.9825 21.5942 15.4486C21.9199 14.9825 22.3278 14.5745 22.7954 14.2487C22.3278 13.923 21.9199 13.5149 21.5942 13.0472C21.2685 13.5165 20.8622 13.923 20.3946 14.2487Z" fill="white"/>
<path d="M36.1346 13.0779C35.6573 13.0779 35.2704 12.6908 35.2704 12.2134C35.2704 10.512 33.887 9.12667 32.1843 9.12667C31.707 9.12667 31.3201 8.73962 31.3201 8.26386C31.3201 7.78649 31.707 7.39944 32.1843 7.39944C33.8853 7.39944 35.2704 6.0141 35.2704 4.31267C35.2704 3.8353 35.6573 3.44824 36.1346 3.44824C36.6119 3.44824 36.9988 3.8353 36.9988 4.31267C36.9988 6.0141 38.3822 7.39944 40.0849 7.39944C40.5622 7.39944 40.9491 7.78649 40.9491 8.26386C40.9491 8.73962 40.5622 9.12667 40.0849 9.12667C38.3838 9.12667 36.9988 10.512 36.9988 12.2134C36.9972 12.6908 36.6119 13.0779 36.1346 13.0779ZM34.9334 8.26386C35.3994 8.58963 35.8073 8.99765 36.133 9.46373C36.4603 8.99765 36.8666 8.58963 37.3342 8.26386C36.865 7.93648 36.4603 7.53007 36.133 7.06238C35.8073 7.53007 35.401 7.93648 34.9334 8.26386Z" fill="white"/>
<mask id="mask9_336_204" style="mask-type:luminance" maskUnits="userSpaceOnUse" x="42" y="0" width="12" height="11">
<path d="M42.7405 0.753418H53.0596V10.7378H42.7405V0.753418Z" fill="white"/>
</mask>
<g mask="url(#mask9_336_204)">
<path d="M47.9581 10.3799C47.4808 10.3799 47.0939 9.99281 47.0939 9.51545C47.0939 7.81401 45.7088 6.42868 44.0078 6.42868C43.5305 6.42868 43.1436 6.04162 43.1436 5.56425C43.1436 5.08849 43.5305 4.70144 44.0078 4.70144C45.7088 4.70144 47.0939 3.3161 47.0939 1.61467C47.0939 1.1373 47.4808 0.750244 47.9581 0.750244C48.4337 0.750244 48.8207 1.1373 48.8207 1.61467C48.8207 3.3161 50.2057 4.70144 51.9068 4.70144C52.384 4.70144 52.771 5.08849 52.771 5.56425C52.771 6.04162 52.384 6.42868 51.9068 6.42868C50.2057 6.42868 48.8207 7.81401 48.8207 9.51545C48.8207 9.99281 48.4337 10.3799 47.9581 10.3799ZM46.7569 5.56425C47.2245 5.89164 47.6308 6.29804 47.9581 6.76574C48.2838 6.29804 48.6917 5.89164 49.1577 5.56425C48.6901 5.23848 48.2838 4.83046 47.9581 4.36438C47.6308 4.83207 47.2245 5.23848 46.7569 5.56425Z" fill="white"/>
</g>
</svg>
