<svg width="111" height="111" viewBox="0 0 111 111" fill="none" xmlns="http://www.w3.org/2000/svg">
<mask id="mask0_303_192" style="mask-type:luminance" maskUnits="userSpaceOnUse" x="0" y="0" width="111" height="111">
<path d="M0 0H110.029V110.543H0V0Z" fill="white"/>
</mask>
<g mask="url(#mask0_303_192)">
<path d="M43.7684 50.6521C43.7684 52.1882 43.4823 53.7463 42.9321 55.3043C42.3819 56.8624 41.6574 58.3984 40.7991 59.9144C39.9408 61.4285 38.9945 62.8767 37.9381 64.281C36.9037 65.6852 35.8693 66.9815 34.879 68.1441L32.4801 69.9877V70.2074L35.7373 69.5703H44.4506V74.5539H25.3715V71.5238C26.0978 70.7786 26.9121 69.8998 27.8144 68.891C28.7167 67.8804 29.6411 66.8057 30.5654 65.6852C31.4897 64.5666 32.3921 63.382 33.2724 62.1737C34.1527 60.9671 34.923 59.7606 35.6272 58.5303C36.3315 57.3018 36.8817 56.1392 37.2778 54.9748C37.696 53.8341 37.8941 52.7356 37.8941 51.7268C37.8941 50.4983 37.5419 49.4657 36.8377 48.6766C36.1334 47.8857 35.011 47.4683 33.4705 47.4683C32.5021 47.4683 31.5118 47.666 30.4994 48.0835C29.487 48.5009 28.6287 49.0044 27.9465 49.6415L25.5696 45.4928C26.758 44.5279 28.0785 43.759 29.5751 43.1676C31.0716 42.5744 32.8322 42.2888 34.857 42.2888C36.1554 42.2888 37.3439 42.4646 38.4443 42.8381C39.5227 43.1896 40.469 43.737 41.2613 44.4181C42.0517 45.1211 42.668 45.9761 43.1081 47.0087C43.5483 48.0615 43.7684 49.268 43.7684 50.6521ZM70.0881 65.7511H65.0923V74.5758H59.6141V65.7511H45.8811V62.4153L60.2523 42.7062H65.0923V61.055H70.0881V65.7511ZM59.6141 54.1417L60.0323 50.3445H59.8562L58.3156 53.5925L53.6059 59.6947L51.3391 61.4065L54.2442 61.055H59.6361V54.1417H59.6141ZM81.2241 59.5189V52.0344C81.2241 50.9579 81.0701 50.1908 80.784 49.7074C80.4758 49.2241 79.9476 49.0044 79.1554 49.0044C78.5832 49.0044 78.033 49.2021 77.5488 49.5976C77.0646 49.993 76.7345 50.4983 76.5804 51.1117V59.5189H73.1472V41.0823H76.5804V47.8198H76.6905C77.1086 47.2486 77.6368 46.811 78.253 46.4815C78.8693 46.1519 79.6615 45.9761 80.6079 45.9761C81.2681 45.9761 81.8623 46.064 82.3667 46.2398C82.8729 46.4155 83.313 46.7012 83.6432 47.1168C83.9953 47.5122 84.2374 48.0615 84.4134 48.7645C84.5895 49.4657 84.6555 50.3226 84.6555 51.3314V59.5189H81.2241ZM101.228 55.6119C101.228 81.0277 80.4978 101.703 55.0144 101.703C29.531 101.703 8.80136 81.0277 8.80136 55.6119C8.80136 38.1841 18.3748 22.6676 33.5805 14.7657L31.5118 21.0217L55.0144 5.12992L27.0882 0.0603027L32.172 5.70115C23.1927 9.78394 15.5138 16.148 9.83573 24.2916C3.4094 33.5099 0 44.3522 0 55.6119C0 85.8795 24.6673 110.482 55.0144 110.482C85.3598 110.482 110.029 85.8795 110.029 55.6119H101.228ZM55.0144 9.5203C55.8948 9.5203 56.7971 9.54226 57.6994 9.58621L58.2056 0.827428C57.1492 0.761518 56.0708 0.739547 55.0144 0.739547V9.5203ZM72.751 13.0538C74.3356 13.7111 75.8982 14.4581 77.3947 15.293L81.6643 7.61072C79.8816 6.62206 78.0109 5.72312 76.1183 4.93219L72.751 13.0538ZM86.8783 10.8806L81.7743 18.0356C83.181 19.0242 84.5235 20.1209 85.8219 21.2615L91.6981 14.7217C90.1575 13.3614 88.5509 12.0652 86.8783 10.8806ZM62.8254 10.1776C64.5201 10.4632 66.2147 10.8586 67.8653 11.32L70.3302 2.91276C68.3715 2.34337 66.3467 1.882 64.322 1.55244L62.8254 10.1776ZM103.162 29.0316L95.4614 33.2902C96.2977 34.7823 97.046 36.3404 97.7063 37.9204L105.825 34.5407C105.033 32.675 104.153 30.8094 103.162 29.0316ZM107.872 40.3573L99.4229 42.7941C99.9071 44.4401 100.281 46.1299 100.567 47.8198L109.237 46.3496C108.906 44.3302 108.444 42.3108 107.872 40.3573ZM96.0336 19.0682L89.4753 24.9269C90.6197 26.2012 91.6981 27.5615 92.7104 28.9657L99.885 23.8741C98.6966 22.1843 97.3981 20.5823 96.0336 19.0682ZM109.941 52.4519L101.162 52.9553C101.206 53.8561 101.228 54.7551 101.228 55.6339H110.029C110.029 54.5793 110.007 53.5046 109.941 52.4519Z" fill="#4D8FA7"/>
<path d="M43.7555 50.6814C43.7555 52.2193 43.4694 53.7774 42.9192 55.3373C42.3709 56.8972 41.6446 58.4332 40.7863 59.9492C39.928 61.4651 38.9816 62.9133 37.9271 64.3194C36.8927 65.7255 35.8583 67.0217 34.868 68.1843L32.4709 70.0298V70.2495L35.7263 69.6124H44.4378V74.5978H25.3642V71.5677C26.0905 70.8208 26.9048 69.9419 27.8071 68.9313C28.7076 67.9207 29.6319 66.846 30.5562 65.7255C31.4806 64.605 32.3829 63.4186 33.2632 62.2121C34.1417 61.0037 34.912 59.7954 35.6162 58.5651C36.3205 57.3366 36.8707 56.1721 37.2668 55.0077C37.685 53.8653 37.8831 52.7686 37.8831 51.758C37.8831 50.5276 37.5309 49.495 36.8267 48.7041C36.1224 47.915 35 47.4976 33.4595 47.4976C32.4929 47.4976 31.5026 47.6953 30.4902 48.1127C29.4779 48.5283 28.6195 49.0337 27.9391 49.6708L25.5623 45.5203C26.7507 44.5536 28.0712 43.7846 29.5659 43.1933C31.0624 42.6001 32.8231 42.3144 34.846 42.3144C36.1444 42.3144 37.3329 42.4902 38.4314 42.8637C39.5098 43.2152 40.4562 43.7626 41.2485 44.4437C42.0407 45.1468 42.6551 46.0036 43.0953 47.0362C43.5354 48.0908 43.7555 49.2973 43.7555 50.6814ZM70.0679 65.7914H65.0739V74.6198H59.5958V65.7914H45.8683V62.4519L60.234 42.7319H65.0739V61.0916H70.0679V65.7914ZM59.5958 54.1729L60.0139 50.3738H59.8379L58.2973 53.6236L53.5894 59.7295L51.3244 61.4431L54.2277 61.0916H59.6178V54.1729H59.5958ZM81.1984 59.5537V52.0655C81.1984 50.989 81.0444 50.2201 80.7583 49.7367C80.4502 49.2534 79.9238 49.0337 79.1315 49.0337C78.5593 49.0337 78.0091 49.2314 77.5249 49.6269C77.0408 50.0223 76.7106 50.5276 76.5566 51.1428V59.5537H73.1252V41.1061H76.5566V47.8491H76.6666C77.0848 47.2779 77.613 46.8385 78.2292 46.5089C78.8454 46.1794 79.6377 46.0036 80.5822 46.0036C81.2425 46.0036 81.8367 46.0915 82.3428 46.2673C82.849 46.443 83.2892 46.7286 83.6193 47.1461C83.9714 47.5415 84.2135 48.0908 84.3896 48.792C84.5657 49.495 84.6317 50.3519 84.6317 51.3625V59.5537H81.1984ZM101.196 55.6449C101.196 81.0772 80.4722 101.764 54.9979 101.764C29.5219 101.764 8.79952 81.0772 8.79952 55.6449C8.79952 38.2079 18.3693 22.6804 33.5695 14.7748L31.5026 21.0327L54.9979 5.13358L27.0808 0.0603027L32.1628 5.70481C23.1872 9.78943 15.5083 16.1571 9.8339 24.3062C3.4094 33.53 0 44.3778 0 55.6449C0 85.9289 24.6599 110.548 54.9979 110.548C85.3341 110.548 109.996 85.9289 109.996 55.6449H101.196ZM54.9979 9.52579C55.8783 9.52579 56.7788 9.54776 57.6811 9.5917L58.1873 0.829259C57.1309 0.763348 56.0543 0.741378 54.9979 0.741378V9.52579ZM72.729 13.0612C74.3136 13.7203 75.8743 14.4672 77.3709 15.3021L81.6386 7.61438C79.8578 6.62572 77.9871 5.72678 76.0944 4.93585L72.729 13.0612ZM86.8527 10.8879L81.7486 18.0466C83.1572 19.0352 84.4996 20.1337 85.7963 21.2743L91.6706 14.7309C90.13 13.3687 88.5253 12.0725 86.8527 10.8879ZM62.8071 10.1849C64.5017 10.4705 66.1945 10.866 67.8451 11.3255L70.31 2.9146C68.3513 2.34337 66.3265 1.882 64.3036 1.55427L62.8071 10.1849ZM103.133 29.05L95.4321 33.3103C96.2684 34.8025 97.0167 36.3624 97.6769 37.9442L105.794 34.5608C105.002 32.6952 104.122 30.8277 103.133 29.05ZM107.841 40.3811L99.3917 42.8198C99.8759 44.4657 100.25 46.1574 100.536 47.8491L109.204 46.3771C108.873 44.3558 108.411 42.3364 107.841 40.3811ZM96.0043 19.0792L89.4496 24.9434C90.5922 26.2158 91.6706 27.578 92.6829 28.984L99.8539 23.8888C98.6673 22.1971 97.3688 20.5933 96.0043 19.0792ZM109.908 52.483L101.13 52.9883C101.174 53.8872 101.196 54.788 101.196 55.6668H109.996C109.996 54.6123 109.974 53.5357 109.908 52.483Z" fill="#4D8FA7"/>
</g>
</svg>
