<svg width="121" height="126" viewBox="0 0 121 126" fill="none" xmlns="http://www.w3.org/2000/svg">
<path d="M42.3428 53.0568H58.5106V28.1541H42.3428V53.0568ZM46.9616 32.9752H53.8918V48.2356H46.9616V32.9752Z" fill="#4D8FA7"/>
<path d="M42.3428 85.1861H58.5106V60.2854H42.3428V85.1861ZM46.9616 65.1045H53.8918V80.367H46.9616V65.1045Z" fill="#4D8FA7"/>
<path d="M11.5469 65.1045H27.7147V44.2197H11.5469V65.1045ZM16.1677 49.0388H23.0959V60.2854H16.1677V49.0388Z" fill="#4D8FA7"/>
<path d="M11.5469 89.2019H27.7147V68.3171H11.5469V89.2019ZM16.1677 73.1383H23.0959V84.3828H16.1677V73.1383Z" fill="#4D8FA7"/>
<path d="M11.5469 113.3H27.7147V92.4148H11.5469V113.3ZM16.1677 97.236H23.0959V108.48H16.1677V97.236Z" fill="#4D8FA7"/>
<path d="M77.7575 28.1541H61.5898V53.0568H77.7575V28.1541ZM73.1367 48.2356H66.2085V32.9752H73.1367V48.2356Z" fill="#4D8FA7"/>
<path d="M77.7575 60.2854H61.5898V85.1861H77.7575V60.2854ZM73.1367 80.367H66.2085V65.1045H73.1367V80.367Z" fill="#4D8FA7"/>
<path d="M108.551 44.2197H92.3836V65.1045H108.551V44.2197ZM103.933 60.2854H97.0044V49.0388H103.933V60.2854Z" fill="#4D8FA7"/>
<path d="M108.551 68.3171H92.3836V89.2019H108.551V68.3171ZM103.933 84.3828H97.0044V73.1383H103.933V84.3828Z" fill="#4D8FA7"/>
<path d="M108.551 92.4148H92.3836V113.3H108.551V92.4148ZM103.933 108.48H97.0044V97.236H103.933V108.48Z" fill="#4D8FA7"/>
<mask id="mask0_303_190" style="mask-type:luminance" maskUnits="userSpaceOnUse" x="0" y="0" width="121" height="126">
<path d="M0 0.0405273H120.1V125.349H0V0.0405273Z" fill="white"/>
</mask>
<g mask="url(#mask0_303_190)">
<path d="M89.3044 16.9094H93.1534V0.0405273H26.9449V16.9094H30.7939V20.1221H0V36.991H3.84899V125.349H116.251V36.991H120.1V20.1221H89.3044V16.9094ZM31.5637 4.85961H88.5346V12.0903H31.5637V4.85961ZM4.61878 24.9412H30.7939V32.1719H4.61878V24.9412ZM8.46777 120.53V36.991H30.7939V120.53H8.46777ZM46.9616 120.53V101.252H57.7408V120.53H46.9616ZM62.3595 120.53V101.252H73.1367V120.53H62.3595ZM84.6857 120.53H77.7575V96.4326H42.3428V120.53H35.4146V16.9094H84.6857V120.53ZM111.631 120.53H89.3044V36.991H111.631V120.53ZM115.482 24.9412V32.1719H89.3044V24.9412H115.482Z" fill="#4D8FA7"/>
</g>
<path d="M42.3428 53.0568H58.5106V28.1541H42.3428V53.0568ZM46.9616 32.9752H53.8918V48.2356H46.9616V32.9752Z" fill="#4D8FA7"/>
<path d="M42.3428 85.1861H58.5106V60.2854H42.3428V85.1861ZM46.9616 65.1045H53.8918V80.367H46.9616V65.1045Z" fill="#4D8FA7"/>
<path d="M11.5469 65.1045H27.7147V44.2197H11.5469V65.1045ZM16.1677 49.0388H23.0959V60.2854H16.1677V49.0388Z" fill="#4D8FA7"/>
<path d="M11.5469 89.2019H27.7147V68.3171H11.5469V89.2019ZM16.1677 73.1383H23.0959V84.3828H16.1677V73.1383Z" fill="#4D8FA7"/>
<path d="M11.5469 113.3H27.7147V92.4148H11.5469V113.3ZM16.1677 97.236H23.0959V108.48H16.1677V97.236Z" fill="#4D8FA7"/>
<path d="M77.7575 28.1541H61.5898V53.0568H77.7575V28.1541ZM73.1367 48.2356H66.2085V32.9752H73.1367V48.2356Z" fill="#4D8FA7"/>
<path d="M77.7575 60.2854H61.5898V85.1861H77.7575V60.2854ZM73.1367 80.367H66.2085V65.1045H73.1367V80.367Z" fill="#4D8FA7"/>
<path d="M108.551 44.2197H92.3836V65.1045H108.551V44.2197ZM103.933 60.2854H97.0044V49.0388H103.933V60.2854Z" fill="#4D8FA7"/>
<path d="M108.551 68.3171H92.3836V89.2019H108.551V68.3171ZM103.933 84.3828H97.0044V73.1383H103.933V84.3828Z" fill="#4D8FA7"/>
<path d="M108.551 92.4148H92.3836V113.3H108.551V92.4148ZM103.933 108.48H97.0044V97.236H103.933V108.48Z" fill="#4D8FA7"/>
</svg>
