<svg width="78" height="77" viewBox="0 0 78 77" fill="none" xmlns="http://www.w3.org/2000/svg">
<mask id="mask0_336_208" style="mask-type:luminance" maskUnits="userSpaceOnUse" x="0" y="0" width="78" height="77">
<path d="M0.331909 0.923828H77.6681V76.0286H0.331909V0.923828Z" fill="white"/>
</mask>
<g mask="url(#mask0_336_208)">
<path d="M75.7713 1.85819C73.9146 0.70018 71.4278 1.21111 70.226 2.99747L46.2179 38.6648H37.5907V27.7293C37.5907 27.2283 37.168 26.8211 36.6481 26.8211H19.6867C19.1668 26.8211 18.7454 27.2283 18.7454 27.7293V38.6811C16.9782 38.841 15.5909 40.2763 15.5909 42.0214V44.2163C15.5909 46.0027 17.047 47.468 18.8764 47.5667L21.0131 61.0906C20.0005 61.1693 18.8997 60.8407 17.668 60.0837C14.214 57.9601 9.98729 57.6678 6.36216 59.3005C3.11691 60.7633 1.00355 63.5003 0.56013 66.812C-0.145189 72.0911 2.53088 74.4359 4.19304 75.3653C4.19564 75.3665 4.19693 75.3678 4.19823 75.369C4.88021 75.7488 5.39753 75.8924 5.45458 75.9087C5.53756 75.9312 5.62183 75.9412 5.70611 75.9412H47.4548C47.9202 75.9412 48.3157 75.6139 48.387 75.1704L52.746 47.5679C54.5754 47.4692 56.0327 46.0039 56.0327 44.2163V42.0214C56.0327 41.157 55.6736 40.335 55.0642 39.7192L76.9524 7.2023C78.1556 5.41469 77.6253 3.01746 75.7713 1.85819ZM35.7068 38.6648H31.9365V28.6362H35.7068V38.6648ZM30.0526 38.6648H26.2822V28.6362H30.0526V38.6648ZM20.6293 28.6362H24.3984V38.6648H20.6293V28.6362ZM17.4748 44.2151V42.0202C17.4748 41.1707 18.1918 40.4787 19.0735 40.4787H44.9952L41.4427 45.7566H19.0735C18.1918 45.7566 17.4748 45.0645 17.4748 44.2151ZM45.3466 52.4873L46.048 52.9258L43.665 56.4673L37.1136 52.3724L39.4979 48.8321L40.1993 49.2706L45.3466 52.4873ZM22.8218 60.4747L20.7836 47.5717H38.1015L35.3425 51.6691C33.2525 51.729 30.3547 52.4261 27.5373 55.1406C27.0265 55.6328 26.5221 56.3261 25.9879 57.0606C25.079 58.3099 24.0742 59.6915 22.8218 60.4747ZM2.42974 67.0431C2.78759 64.361 4.51199 62.1387 7.15953 60.9444C10.1986 59.5753 13.7473 59.8264 16.6554 61.614C18.6819 62.8595 20.6034 63.2192 22.3654 62.6808C24.7251 61.96 26.2809 59.8214 27.5308 58.1025C28.0157 57.4354 28.4747 56.8046 28.8688 56.4248C31.2726 54.1088 33.692 53.5266 35.4306 53.4842L41.151 57.0594C38.8159 56.5522 34.7344 56.4723 30.7683 60.2948C30.2574 60.787 29.7531 61.4791 29.2189 62.2111C27.348 64.782 25.7066 66.702 23.1057 66.1674C22.4121 66.0237 21.6691 65.7102 20.899 65.238C17.445 63.1143 13.2183 62.8207 9.59314 64.4535C6.34919 65.9163 4.23453 68.6533 3.79241 71.9649C3.76129 72.191 3.73796 72.4159 3.7198 72.637C2.80445 71.5739 2.05634 69.8363 2.42974 67.0431ZM7.9971 74.0536L5.56867 73.7725C5.5583 73.2679 5.58683 72.7419 5.65943 72.196C6.01728 69.514 7.74168 67.2904 10.3905 66.0974C13.4283 64.7295 16.977 64.9794 19.8851 66.767C20.8458 67.3566 21.7949 67.7514 22.709 67.9412C26.7399 68.777 29.1606 65.4516 30.7618 63.2542C31.2467 62.5871 31.7044 61.9575 32.0998 61.5778C36.0841 57.739 40.1267 58.5597 41.6813 59.0906C41.96 59.1855 42.4255 59.3442 42.9311 59.594L42.913 62.0025C40.6829 61.8414 37.2808 62.2836 33.998 65.4478C33.4858 65.94 32.9815 66.6333 32.4473 67.3666C31.2947 68.9531 29.8581 70.9268 27.9522 71.3353C26.8086 71.5789 25.5601 71.2691 24.1313 70.3909L24.0496 70.3435C21.0662 68.5396 17.4645 68.0861 14.1686 69.103C11.4265 69.9462 9.21455 71.7326 7.9971 74.0536ZM14.743 70.8319C17.5085 69.9799 20.536 70.3622 23.0513 71.8825C23.0577 71.8875 23.107 71.9162 23.1148 71.92C24.9637 73.0567 26.727 73.4565 28.3606 73.1067C30.9822 72.5458 32.6509 70.2523 33.9915 68.4084C34.4764 67.7414 34.9354 67.1105 35.3295 66.7308C38.0237 64.1362 40.7348 63.6515 42.7678 63.8114C42.2608 66.702 41.0758 70.1636 39.2347 74.1248H10.1247C11.1684 72.6008 12.7904 71.4328 14.743 70.8319ZM46.6457 74.1261H41.3001C43.2086 69.8962 44.3781 66.2098 44.7813 63.1493C44.9849 61.6078 44.9939 60.1912 44.8111 58.9407C44.7774 58.7133 44.7372 58.4935 44.6905 58.2749C44.7061 58.2561 44.7204 58.2361 44.7333 58.2162L48.1419 53.1519C48.2781 52.9508 48.3248 52.7047 48.2729 52.4686C48.221 52.2337 48.0732 52.0276 47.8645 51.8964L47.1618 51.458L49.7782 47.5717H50.8388L46.6457 74.1261ZM54.1475 44.2151C54.1475 45.0645 53.4305 45.7566 52.5489 45.7566H50.9995L53.9764 41.3331C54.0879 41.5417 54.1475 41.7766 54.1475 42.0214V44.2151ZM75.3719 6.21418L53.0234 39.4156L48.4855 46.1563C48.4855 46.1576 48.4842 46.1576 48.4842 46.1588L45.5813 50.4711L42.0145 48.2425L42.7354 47.1732C42.7354 47.1719 42.7367 47.1707 42.738 47.1694L47.5196 40.0664L71.8064 3.98559C72.4443 3.03745 73.7629 2.76762 74.7457 3.38098C75.7285 3.99559 76.0098 5.26728 75.3719 6.21418Z" fill="white"/>
</g>
<path d="M65.8086 68.1813C63.1844 68.1813 61.049 66.1238 61.049 63.5942C61.049 63.0932 60.6276 62.6873 60.1077 62.6873C59.5878 62.6873 59.1651 63.0932 59.1651 63.5942C59.1651 66.1238 57.0297 68.1813 54.4042 68.1813C53.8843 68.1813 53.4629 68.5873 53.4629 69.0882C53.4629 69.5891 53.8843 69.9964 54.4042 69.9964C57.0297 69.9964 59.1651 72.0538 59.1651 74.5835C59.1651 75.0844 59.5878 75.4904 60.1077 75.4904C60.6276 75.4904 61.049 75.0844 61.049 74.5835C61.049 72.0538 63.1844 69.9964 65.8086 69.9964C66.3298 69.9964 66.7512 69.5891 66.7512 69.0882C66.7512 68.5873 66.3298 68.1813 65.8086 68.1813ZM60.1077 71.313C59.5411 70.3999 58.7463 69.6341 57.7972 69.0882C58.7463 68.5423 59.5411 67.7778 60.1077 66.8634C60.6743 67.7778 61.4677 68.5423 62.4168 69.0882C61.4677 69.6341 60.6743 70.3999 60.1077 71.313Z" fill="white"/>
<path d="M71.1568 61.0682C69.6541 61.0682 68.4315 59.8902 68.4315 58.4423C68.4315 57.9414 68.0088 57.5354 67.4889 57.5354C66.969 57.5354 66.5476 57.9414 66.5476 58.4423C66.5476 59.8902 65.325 61.0682 63.8236 61.0682C63.3024 61.0682 62.881 61.4741 62.881 61.9763C62.881 62.4773 63.3024 62.8833 63.8236 62.8833C65.325 62.8833 66.5476 64.0613 66.5476 65.5078C66.5476 66.0088 66.969 66.416 67.4889 66.416C68.0088 66.416 68.4315 66.0088 68.4315 65.5078C68.4315 64.0613 69.6541 62.8833 71.1568 62.8833C71.6767 62.8833 72.0981 62.4773 72.0981 61.9763C72.0981 61.4741 71.6767 61.0682 71.1568 61.0682ZM67.4889 62.8295C67.2361 62.5072 66.9379 62.2212 66.6034 61.9763C66.9379 61.7315 67.2361 61.4442 67.4889 61.1231C67.7443 61.4442 68.0412 61.7315 68.3757 61.9763C68.0412 62.2212 67.743 62.5072 67.4889 62.8295Z" fill="white"/>
<mask id="mask1_336_208" style="mask-type:luminance" maskUnits="userSpaceOnUse" x="0" y="0" width="78" height="77">
<path d="M0.331909 0.923828H77.6681V76.0286H0.331909V0.923828Z" fill="white"/>
</mask>
<g mask="url(#mask1_336_208)">
<path d="M75.7713 1.85819C73.9146 0.70018 71.4278 1.21111 70.226 2.99747L46.2179 38.6648H37.5907V27.7293C37.5907 27.2283 37.168 26.8211 36.6481 26.8211H19.6867C19.1668 26.8211 18.7454 27.2283 18.7454 27.7293V38.6811C16.9782 38.841 15.5909 40.2763 15.5909 42.0214V44.2163C15.5909 46.0027 17.047 47.468 18.8764 47.5667L21.0131 61.0906C20.0005 61.1693 18.8997 60.8407 17.668 60.0837C14.214 57.9601 9.98729 57.6678 6.36216 59.3005C3.11691 60.7633 1.00355 63.5003 0.56013 66.812C-0.145189 72.0911 2.53088 74.4359 4.19304 75.3653C4.19564 75.3665 4.19693 75.3678 4.19823 75.369C4.88021 75.7488 5.39753 75.8924 5.45458 75.9087C5.53756 75.9312 5.62183 75.9412 5.70611 75.9412H47.4548C47.9202 75.9412 48.3157 75.6139 48.387 75.1704L52.746 47.5679C54.5754 47.4692 56.0327 46.0039 56.0327 44.2163V42.0214C56.0327 41.157 55.6736 40.335 55.0642 39.7192L76.9524 7.2023C78.1556 5.41469 77.6253 3.01746 75.7713 1.85819ZM35.7068 38.6648H31.9365V28.6362H35.7068V38.6648ZM30.0526 38.6648H26.2822V28.6362H30.0526V38.6648ZM20.6293 28.6362H24.3984V38.6648H20.6293V28.6362ZM17.4748 44.2151V42.0202C17.4748 41.1707 18.1918 40.4787 19.0735 40.4787H44.9952L41.4427 45.7566H19.0735C18.1918 45.7566 17.4748 45.0645 17.4748 44.2151ZM45.3466 52.4873L46.048 52.9258L43.665 56.4673L37.1136 52.3724L39.4979 48.8321L40.1993 49.2706L45.3466 52.4873ZM22.8218 60.4747L20.7836 47.5717H38.1015L35.3425 51.6691C33.2525 51.729 30.3547 52.4261 27.5373 55.1406C27.0265 55.6328 26.5221 56.3261 25.9879 57.0606C25.079 58.3099 24.0742 59.6915 22.8218 60.4747ZM2.42974 67.0431C2.78759 64.361 4.51199 62.1387 7.15953 60.9444C10.1986 59.5753 13.7473 59.8264 16.6554 61.614C18.6819 62.8595 20.6034 63.2192 22.3654 62.6808C24.7251 61.96 26.2809 59.8214 27.5308 58.1025C28.0157 57.4354 28.4747 56.8046 28.8688 56.4248C31.2726 54.1088 33.692 53.5266 35.4306 53.4842L41.151 57.0594C38.8159 56.5522 34.7344 56.4723 30.7683 60.2948C30.2574 60.787 29.7531 61.4791 29.2189 62.2111C27.348 64.782 25.7066 66.702 23.1057 66.1674C22.4121 66.0237 21.6691 65.7102 20.899 65.238C17.445 63.1143 13.2183 62.8207 9.59314 64.4535C6.34919 65.9163 4.23453 68.6533 3.79241 71.9649C3.76129 72.191 3.73796 72.4159 3.7198 72.637C2.80445 71.5739 2.05634 69.8363 2.42974 67.0431ZM7.9971 74.0536L5.56867 73.7725C5.5583 73.2679 5.58683 72.7419 5.65943 72.196C6.01728 69.514 7.74168 67.2904 10.3905 66.0974C13.4283 64.7295 16.977 64.9794 19.8851 66.767C20.8458 67.3566 21.7949 67.7514 22.709 67.9412C26.7399 68.777 29.1606 65.4516 30.7618 63.2542C31.2467 62.5871 31.7044 61.9575 32.0998 61.5778C36.0841 57.739 40.1267 58.5597 41.6813 59.0906C41.96 59.1855 42.4255 59.3442 42.9311 59.594L42.913 62.0025C40.6829 61.8414 37.2808 62.2836 33.998 65.4478C33.4858 65.94 32.9815 66.6333 32.4473 67.3666C31.2947 68.9531 29.8581 70.9268 27.9522 71.3353C26.8086 71.5789 25.5601 71.2691 24.1313 70.3909L24.0496 70.3435C21.0662 68.5396 17.4645 68.0861 14.1686 69.103C11.4265 69.9462 9.21455 71.7326 7.9971 74.0536ZM14.743 70.8319C17.5085 69.9799 20.536 70.3622 23.0513 71.8825C23.0577 71.8875 23.107 71.9162 23.1148 71.92C24.9637 73.0567 26.727 73.4565 28.3606 73.1067C30.9822 72.5458 32.6509 70.2523 33.9915 68.4084C34.4764 67.7414 34.9354 67.1105 35.3295 66.7308C38.0237 64.1362 40.7348 63.6515 42.7678 63.8114C42.2608 66.702 41.0758 70.1636 39.2347 74.1248H10.1247C11.1684 72.6008 12.7904 71.4328 14.743 70.8319ZM46.6457 74.1261H41.3001C43.2086 69.8962 44.3781 66.2098 44.7813 63.1493C44.9849 61.6078 44.9939 60.1912 44.8111 58.9407C44.7774 58.7133 44.7372 58.4935 44.6905 58.2749C44.7061 58.2561 44.7204 58.2361 44.7333 58.2162L48.1419 53.1519C48.2781 52.9508 48.3248 52.7047 48.2729 52.4686C48.221 52.2337 48.0732 52.0276 47.8645 51.8964L47.1618 51.458L49.7782 47.5717H50.8388L46.6457 74.1261ZM54.1475 44.2151C54.1475 45.0645 53.4305 45.7566 52.5489 45.7566H50.9995L53.9764 41.3331C54.0879 41.5417 54.1475 41.7766 54.1475 42.0214V44.2151ZM75.3719 6.21418L53.0234 39.4156L48.4855 46.1563C48.4855 46.1576 48.4842 46.1576 48.4842 46.1588L45.5813 50.4711L42.0145 48.2425L42.7354 47.1732C42.7354 47.1719 42.7367 47.1707 42.738 47.1694L47.5196 40.0664L71.8064 3.98559C72.4443 3.03745 73.7629 2.76762 74.7457 3.38098C75.7285 3.99559 76.0098 5.26728 75.3719 6.21418Z" fill="white"/>
</g>
<path d="M65.8086 68.1813C63.1844 68.1813 61.049 66.1238 61.049 63.5942C61.049 63.0932 60.6276 62.6873 60.1077 62.6873C59.5878 62.6873 59.1651 63.0932 59.1651 63.5942C59.1651 66.1238 57.0297 68.1813 54.4042 68.1813C53.8843 68.1813 53.4629 68.5873 53.4629 69.0882C53.4629 69.5891 53.8843 69.9964 54.4042 69.9964C57.0297 69.9964 59.1651 72.0538 59.1651 74.5835C59.1651 75.0844 59.5878 75.4904 60.1077 75.4904C60.6276 75.4904 61.049 75.0844 61.049 74.5835C61.049 72.0538 63.1844 69.9964 65.8086 69.9964C66.3298 69.9964 66.7512 69.5891 66.7512 69.0882C66.7512 68.5873 66.3298 68.1813 65.8086 68.1813ZM60.1077 71.313C59.5411 70.3999 58.7463 69.6341 57.7972 69.0882C58.7463 68.5423 59.5411 67.7778 60.1077 66.8634C60.6743 67.7778 61.4677 68.5423 62.4168 69.0882C61.4677 69.6341 60.6743 70.3999 60.1077 71.313Z" fill="white"/>
<path d="M71.1568 61.0682C69.6541 61.0682 68.4315 59.8902 68.4315 58.4423C68.4315 57.9414 68.0088 57.5354 67.4889 57.5354C66.969 57.5354 66.5476 57.9414 66.5476 58.4423C66.5476 59.8902 65.325 61.0682 63.8236 61.0682C63.3024 61.0682 62.881 61.4741 62.881 61.9763C62.881 62.4773 63.3024 62.8833 63.8236 62.8833C65.325 62.8833 66.5476 64.0613 66.5476 65.5078C66.5476 66.0088 66.969 66.416 67.4889 66.416C68.0088 66.416 68.4315 66.0088 68.4315 65.5078C68.4315 64.0613 69.6541 62.8833 71.1568 62.8833C71.6767 62.8833 72.0981 62.4773 72.0981 61.9763C72.0981 61.4741 71.6767 61.0682 71.1568 61.0682ZM67.4889 62.8295C67.2361 62.5072 66.9379 62.2212 66.6034 61.9763C66.9379 61.7315 67.2361 61.4442 67.4889 61.1231C67.7443 61.4442 68.0412 61.7315 68.3757 61.9763C68.0412 62.2212 67.743 62.5072 67.4889 62.8295Z" fill="white"/>
</svg>
