<svg width="74" height="71" viewBox="0 0 74 71" fill="none" xmlns="http://www.w3.org/2000/svg">
<path d="M56.3478 3.73343C56.314 3.78694 56.2942 3.83114 56.2745 3.87884C56.2628 3.91374 56.2651 3.95445 56.2779 3.98819C56.2989 4.051 56.3233 4.11731 56.3454 4.18943C56.3594 4.24993 56.3815 4.31507 56.4036 4.38138C56.4502 4.51399 56.4932 4.65242 56.5107 4.80481C56.6724 5.60515 56.6724 6.68119 56.5048 8.29815L56.4909 8.43542C56.4211 9.11245 56.3547 9.75225 56.3117 10.5375L56.2989 10.705C56.2558 11.4821 56.207 12.287 56.1127 13.1455C56.0743 13.5981 56.0301 14.0715 55.9812 14.5461L55.9138 15.0964C55.8777 15.3965 55.8381 15.6978 55.802 16.0072C55.7322 16.6691 55.6275 17.3287 55.5158 18.029C55.46 18.3733 55.4053 18.72 55.3564 19.0643C55.1714 19.9752 54.9829 20.8674 54.7967 21.7317C54.5605 22.838 54.3383 23.8826 54.1463 24.8854C53.7542 26.9188 53.4772 28.4264 53.269 29.6386C53.056 31.0368 52.8757 32.1664 52.6453 32.9563C52.5732 33.2226 52.4929 33.4483 52.43 33.6344C52.3963 33.7322 52.3649 33.8194 52.3474 33.8822C52.2893 34.016 52.2532 34.1056 52.2311 34.1509C52.2066 34.1998 52.209 34.258 52.2357 34.301C52.2648 34.3475 52.3137 34.3766 52.3672 34.3766C52.5557 34.3789 52.828 34.4232 53.1142 34.4685C53.4656 34.5267 53.824 34.5848 54.1265 34.5848C54.2871 34.5848 54.4302 34.5686 54.5489 34.5267C55.0143 34.365 55.0655 34.1032 55.1167 33.8241C55.14 33.7031 55.1621 33.5763 55.2203 33.439C55.2203 33.439 55.254 33.3587 55.3145 33.1912C55.3343 33.1401 55.3587 33.0819 55.3855 33.0144C55.4413 32.876 55.5112 32.7061 55.5717 32.4909C55.7543 31.943 56.0255 30.9787 56.2989 29.5048C56.3594 29.1558 56.4257 28.7824 56.4955 28.3904L56.7085 27.1875C56.8737 26.3325 57.0529 25.3949 57.2449 24.3794C57.6812 22.0889 58.1222 19.7158 58.5562 17.3241L58.5632 17.2799C58.804 15.9642 59.0286 14.7206 59.2113 13.5306L59.2322 13.3898C59.4149 12.2673 59.5871 11.2087 59.6953 10.2443C59.9257 8.16205 59.8803 6.50204 59.5604 5.30502C59.4149 4.75479 59.2113 4.24295 58.9437 3.77298C58.825 3.59383 58.7191 3.42632 58.6051 3.25183L58.5248 3.16458C58.4305 3.06221 58.3456 2.97031 58.2746 2.90052C58.1932 2.7935 58.1001 2.70392 57.9814 2.61202C57.9314 2.57247 57.8627 2.56782 57.8092 2.59923L57.6521 2.68647C57.5241 2.75976 57.3973 2.82956 57.274 2.90517C56.8376 3.17156 56.5002 3.47169 56.3478 3.73343Z" fill="white"/>
<path d="M45.1299 9.1415L45.6977 9.38812C45.9595 9.50212 46.1899 9.60449 46.3889 9.68941C46.4075 9.69639 46.4296 9.70104 46.4494 9.70104C46.5052 9.70104 46.5587 9.67196 46.5878 9.61845L46.7112 9.38579C46.8229 9.18222 46.9323 8.97864 47.0335 8.77972C47.5059 7.86189 47.9911 7.04759 48.3809 6.39266C48.7404 5.79939 49.2221 5.03744 49.7853 4.39066C50.3089 3.81367 50.8732 3.35882 51.455 3.03543C52.3963 2.53638 53.3342 2.26068 54.2487 2.21183C54.5292 2.19787 54.8014 2.21183 55.0819 2.25836C55.2133 2.27697 55.3053 2.30373 55.3437 2.31652C55.3495 2.31652 55.3588 2.31885 55.3681 2.32118C55.4658 2.35026 55.5694 2.3933 55.6718 2.45379C55.7172 2.47822 55.7707 2.48055 55.8196 2.45612L55.8801 2.42703C56.1349 2.29907 56.4234 2.15599 56.712 1.98382C56.8039 1.93031 56.8807 1.87796 56.9517 1.82678L57.0052 1.78723C57.039 1.76396 57.0611 1.71976 57.0657 1.67904C57.0727 1.63484 57.0553 1.58947 57.0285 1.55457C56.9994 1.51851 56.9389 1.44639 56.833 1.36379C56.6212 1.1672 56.392 0.99736 56.1291 0.84497C55.7614 0.619293 55.3076 0.433168 54.7968 0.294737C54.2429 0.120245 53.5867 0.0236922 52.842 0.00159004C51.206 -0.0367985 49.463 0.62162 48.0493 1.79305C47.2662 2.43983 46.5681 3.23435 45.9746 4.16033C45.4406 5.02115 44.8949 5.98552 44.3643 6.91847L43.6126 8.35861C43.5928 8.39933 43.5905 8.44586 43.6079 8.48657C43.6254 8.52845 43.6591 8.55986 43.6999 8.57382C44.0932 8.71458 44.5725 8.90419 45.1299 9.1415Z" fill="white"/>
<path d="M14.6026 59.5268C14.741 59.5559 14.8772 59.585 15.0133 59.6164C15.1727 59.6652 15.331 59.7304 15.4974 59.8013L15.7382 59.9002C15.9465 59.9875 16.1618 60.077 16.3875 60.2085C16.5038 60.2806 16.64 60.3655 16.804 60.5016C16.8099 60.504 16.8308 60.5237 16.8355 60.5261C16.8622 60.5423 16.8913 60.5528 16.9227 60.5528C16.9623 60.5528 17.0007 60.5354 17.0321 60.5063L17.0856 60.4481C17.1415 60.39 17.1461 60.3004 17.0949 60.2399C16.4922 59.5128 16.2199 58.9603 16.0896 58.5985C16.0873 58.5822 16.0815 58.5671 16.0745 58.5531C16.0384 58.4798 16.0024 58.4054 15.9605 58.3135C15.9395 58.2716 15.9 58.2402 15.8569 58.2286C15.8104 58.2181 15.7615 58.2286 15.7254 58.2577C15.4636 58.4554 15.2146 58.6718 14.9738 58.8823C14.8283 59.0091 14.6829 59.1348 14.5351 59.2558C14.4897 59.2941 14.4699 59.3546 14.4839 59.4128C14.499 59.471 14.5444 59.5152 14.6026 59.5268Z" fill="white"/>
<path d="M29.3986 38.5434C29.4091 38.5434 29.4161 38.5434 29.4254 38.5399C29.8594 38.4631 30.2957 38.4073 30.7228 38.3736C31.2557 38.327 31.806 38.3026 32.3646 38.3026C32.4169 38.3026 32.4658 38.2735 32.4949 38.2305C34.4881 35.0384 36.0542 31.5649 37.5669 28.2053C37.9857 27.2805 38.4035 26.3522 38.8293 25.4286C38.8607 25.3599 38.8398 25.2785 38.7758 25.2366C38.2359 24.8713 37.2108 24.2897 36.4033 24.5224C36.0368 24.6259 35.761 24.8853 35.5806 25.2878L35.5329 25.3995C35.2804 25.9706 35.0431 26.5139 34.7592 27.0571C34.4276 27.7016 34.0808 28.3368 33.7317 28.9742C33.2535 29.8514 32.7567 30.7576 32.311 31.6672C31.8794 32.5374 31.5128 33.4482 31.1591 34.3277C30.618 35.6713 30.0584 37.0591 29.2683 38.3049C29.2346 38.3584 29.2369 38.4236 29.2706 38.4748C29.2997 38.519 29.3486 38.5434 29.3986 38.5434Z" fill="white"/>
<path d="M7.94584 63.5528V63.5551L8.4869 63.7901C8.60558 63.8436 8.72426 63.9041 8.84527 63.9623C9.3235 64.1973 9.84478 64.4544 10.387 64.4544C10.6267 64.4544 10.8745 64.4032 11.1224 64.2752C11.3737 64.1251 11.6192 63.9867 11.8566 63.8529L11.9171 63.8169C12.1672 63.6715 12.4023 63.5412 12.6269 63.4144L12.6711 63.3899C12.8572 63.2911 13.0422 63.1899 13.2261 63.0852C13.6869 62.8281 14.1616 62.5617 14.6468 62.3674C14.7317 62.336 14.8597 62.3069 14.9935 62.2755C15.4322 62.1766 16.0338 62.0382 16.0186 61.5392C16.0117 61.0517 15.0808 60.669 14.6829 60.5259L14.4606 60.448C14.3675 60.4143 14.278 60.3852 14.1988 60.3561C13.9708 60.2572 13.7543 60.2107 13.5659 60.1688C13.4809 60.1525 13.4006 60.1351 13.325 60.1165L13.1772 60.0769C13.1633 60.0723 13.1481 60.0723 13.1365 60.0723H13.0923C13.0713 60.0723 13.0516 60.0746 13.0318 60.0851C12.6245 60.2514 12.1987 60.4387 11.7251 60.6562L11.376 60.8261L10.3311 61.3763C9.8122 61.6671 9.20947 62.0231 8.66143 62.4675C8.50784 62.5838 8.37287 62.7048 8.25651 62.8258C8.17623 62.8932 8.11572 62.9688 8.06452 63.0317L8.01682 63.0898C7.96097 63.148 7.92606 63.1864 7.90744 63.2283L7.85625 63.3132C7.83646 63.3492 7.82948 63.3899 7.83879 63.4318C7.85159 63.4807 7.89697 63.5284 7.94584 63.5528Z" fill="white"/>
<path d="M49.5841 51.9235C49.7342 51.8607 49.8889 51.7955 50.0274 51.7129L50.2066 51.6117C50.3451 51.5361 50.4789 51.4617 50.6173 51.3814C50.7593 51.2965 50.9105 51.2162 51.056 51.1359C51.2829 51.015 51.5191 50.8893 51.7274 50.7439C51.9531 50.5915 52.1753 50.4426 52.3941 50.2972C52.8642 49.9831 53.3098 49.6865 53.7101 49.398C54.3477 48.9548 54.8841 48.5965 55.3495 48.301C55.7882 48.0172 56.2455 47.7287 56.6411 47.5391C57.124 47.2971 57.3974 47.1831 57.5533 47.1319C57.4463 47.2541 57.238 47.4623 56.8331 47.8066C56.5026 48.0707 56.1 48.4313 55.7102 48.7803C55.4868 48.9746 55.2471 49.1828 54.9923 49.4038C54.7457 49.619 54.4839 49.8447 54.2069 50.082C53.7194 50.5113 53.169 50.937 52.5872 51.3907L52.3313 51.592C52.0951 51.7781 51.8414 51.9386 51.5715 52.1085C51.4435 52.1887 51.312 52.2701 51.1863 52.3527C51.0362 52.4446 50.8884 52.5377 50.7383 52.6343L50.5638 52.7436C50.4323 52.8262 50.2939 52.8913 50.1484 52.9611C50.0693 53.0007 49.9913 53.0391 49.9157 53.0775C49.7726 53.1484 49.6271 53.2205 49.4794 53.2938C49.1745 53.4439 48.8615 53.6009 48.5415 53.7394C48.2146 53.8778 47.8795 54.0127 47.5397 54.1512L47.0743 54.3385C46.6647 54.5025 46.2551 54.6525 45.8386 54.8061L45.1812 55.0434C45.0962 55.0771 45.0136 55.0993 44.9345 55.1237C44.8763 55.14 44.8181 55.1574 44.7623 55.1772L43.921 55.4192C41.8766 55.8891 39.695 55.9938 37.4237 55.7321C37.1014 55.7053 36.7686 55.6425 36.4463 55.5808C36.2787 55.5471 36.1147 55.5157 35.9564 55.4913C35.6411 55.4308 35.3502 55.3482 35.0721 55.2691C34.9337 55.2295 34.7975 55.1911 34.6672 55.1574C33.8236 54.9003 33.0894 54.627 32.354 54.2989C30.9194 53.6498 29.9152 52.9297 29.4428 52.212C29.3509 52.0933 29.2927 51.9526 29.2392 51.8269C29.2194 51.7816 29.2008 51.735 29.1926 51.7304L29.1763 51.6455C29.1472 51.507 29.1205 51.3744 29.1228 51.3163C29.1251 51.2942 29.1275 51.2744 29.1321 51.2581C29.1391 51.2767 29.1472 51.2965 29.1542 51.3209C29.1856 51.3907 29.2299 51.4512 29.2706 51.5094C29.295 51.5431 29.3218 51.5826 29.3462 51.6234C29.3532 51.6362 29.3602 51.6478 29.3695 51.6571C29.4044 51.6908 29.4358 51.7304 29.4696 51.7688C29.5324 51.849 29.6045 51.9409 29.7023 52.0142C30.2329 52.5249 31.2556 53.0437 32.6624 53.5137C33.3431 53.7417 34.1366 53.9651 34.9069 54.1419C35.0651 54.171 35.2222 54.2047 35.3851 54.2407C35.6586 54.2966 35.9401 54.3571 36.2206 54.3966C36.3835 54.4106 36.544 54.435 36.7058 54.4571C36.9745 54.4955 37.2538 54.5339 37.5493 54.5467C39.7019 54.7037 41.7358 54.5653 43.6103 54.1349L44.4714 53.8848C44.561 53.8604 44.6552 53.8359 44.7309 53.8068L45.8525 53.4102C46.1143 53.3148 46.3738 53.2229 46.631 53.1287C47.0673 52.9635 47.499 52.8018 47.9214 52.6436L48.0587 52.5901C48.3647 52.4691 48.6556 52.3388 48.9418 52.2073C49.0919 52.1422 49.2373 52.0747 49.3874 52.0084C49.4526 51.9793 49.5189 51.9502 49.5841 51.9235ZM32.7182 45.0043C32.7659 44.9438 32.7589 44.8565 32.7054 44.803C32.6519 44.7472 32.5681 44.7402 32.5041 44.7844C31.8746 45.2393 31.2463 45.7848 30.5842 46.4514C29.8279 47.2273 29.1856 48.0021 28.676 48.7582C28.1117 49.5876 27.7137 50.3821 27.4985 51.1173C27.2565 51.9293 27.2483 52.6773 27.4787 53.2857C27.602 53.6114 27.7719 53.8918 27.986 54.1326C28.2106 54.3675 28.4468 54.6095 28.7179 54.8038C29.1787 55.1597 29.7186 55.4703 30.3713 55.7553C31.4569 56.2335 32.4878 56.515 33.4548 56.7616C35.4747 57.2443 37.3318 57.4665 39.3773 57.4665C39.6228 57.4665 39.8695 57.4619 40.122 57.4572C40.4687 57.4526 40.8155 57.4374 41.1762 57.4235C41.3775 57.4142 41.5857 57.406 41.8022 57.3991C42.0081 57.3898 42.2187 57.3677 42.4317 57.3455L42.7284 57.3165C43.0146 57.2944 43.3288 57.256 43.7197 57.1955C44.7518 57.0571 45.9037 56.8395 47.1208 56.6092C47.5211 56.5336 47.933 56.4545 48.36 56.3765C49.2106 56.216 50.1461 56.0659 51.1479 55.9333L51.2224 55.9205C52.1707 55.7902 53.1527 55.6495 54.1732 55.4389C54.6875 55.3435 55.2378 55.2226 55.858 55.0678C55.8871 55.0609 55.9139 55.0457 55.9337 55.0236L56.0686 54.8852C56.2827 54.6607 56.505 54.4304 56.6923 54.1803C56.8017 54.0325 56.9099 53.8894 57.0193 53.7464C57.1984 53.516 57.366 53.3008 57.5161 53.0612C57.6162 52.8983 57.7127 52.7413 57.8093 52.5854C57.9385 52.3795 58.0641 52.1782 58.1828 51.9747L58.426 51.5222C58.5296 51.3279 58.632 51.1418 58.7309 50.9545C59.4174 49.5806 59.8944 48.4406 60.1807 47.7624L60.5495 46.9144L60.5786 46.8434C60.6321 46.5991 60.6903 46.3304 60.738 46.0268C60.8299 45.4626 60.9277 44.7065 60.8544 43.8503C60.8067 43.4943 60.7264 43.0267 60.5274 42.5928C60.3389 42.1833 60.0236 41.8099 59.6187 41.5121C59.23 41.2283 58.6389 41.0421 58.0188 40.8595C57.8582 40.8118 57.693 40.763 57.5266 40.7164L57.3637 40.6641C57.245 40.6269 57.1263 40.5885 57.0076 40.5524C56.6725 40.4407 56.3281 40.3291 55.9744 40.2174C55.7347 40.1429 55.495 40.0603 55.2471 39.9777C54.7643 39.8149 54.2674 39.6485 53.7322 39.5054C53.475 39.4322 53.2156 39.36 52.9538 39.2868C52.3941 39.1297 51.8193 38.9668 51.2038 38.7784C50.5487 38.5667 49.9134 38.3049 49.3002 38.0537C49.0244 37.9373 48.7475 37.8233 48.4636 37.7117L48.2169 37.6174C47.2465 37.2394 45.9165 36.7229 44.9554 37.1172C43.3416 37.7791 41.5811 38.6597 39.5786 39.8102C39.5297 39.837 39.5006 39.8882 39.5006 39.9417C39.4983 39.9952 39.5251 40.0452 39.5693 40.0743C39.8963 40.2883 40.1895 40.5187 40.4443 40.7583C40.4827 40.7967 40.5385 40.8118 40.5921 40.7967C41.4066 40.5687 42.2315 40.5594 43.0379 40.7676C43.5277 40.9014 43.9641 41.1271 44.2992 41.4179C44.6308 41.7029 44.8926 42.11 45.0171 42.5393C45.2975 43.4315 45.0799 44.2237 44.9217 44.6169C44.2945 46.192 42.8203 47.0889 41.3972 47.952L41.0912 48.1382C40.1778 48.6233 38.7152 49.2747 36.5894 49.3305C36.437 49.3457 36.2717 49.3282 36.0995 49.3084C36.0076 49.3015 35.9134 49.2898 35.8284 49.2875C35.7609 49.2793 35.6946 49.2747 35.6295 49.2677C35.4165 49.2503 35.2176 49.2363 34.9848 49.1653C34.3542 48.9967 33.7922 48.6977 33.3116 48.2789C33.0429 48.0439 32.8171 47.7776 32.631 47.467C32.4587 47.1471 32.2865 46.7597 32.2959 46.299C32.3005 45.8384 32.4413 45.38 32.6845 45.0578C32.6961 45.038 32.7078 45.0194 32.7182 45.0043Z" fill="white"/>
<path d="M58.9704 36.3832C57.9546 36.1284 56.8039 35.8376 55.4948 35.6201C53.81 35.3339 52.2485 35.2874 50.7231 35.4793C50.3868 35.5131 50.054 35.5782 49.7026 35.6492L49.3652 35.7143C48.937 35.826 48.4948 35.9377 48.0469 36.0493C47.9817 36.0633 47.9328 36.1238 47.9305 36.1924C47.9259 36.2599 47.9689 36.3227 48.0352 36.3448C48.2261 36.4123 48.4157 36.4832 48.5972 36.553L48.8788 36.6577C49.2128 36.7903 49.5374 36.9264 49.8527 37.0567C50.4473 37.3045 51.0047 37.5395 51.5376 37.714C52.0763 37.8861 52.622 38.0478 53.1526 38.2061C53.4574 38.2956 53.7588 38.3852 54.0544 38.4748C54.5582 38.6179 55.0434 38.7923 55.5111 38.9622C55.7857 39.0587 56.0522 39.1565 56.3117 39.2414C56.5688 39.3309 56.8201 39.4205 57.0657 39.5101L58.3619 39.9556C58.9704 40.1592 59.5987 40.3674 60.1444 40.7874C60.6587 41.1945 61.0509 41.7087 61.2766 42.2729C61.4965 42.8475 61.55 43.4001 61.5721 43.8096C61.5814 44.7867 61.393 45.572 61.2301 46.1361L61.2091 46.2164C61.1719 46.6643 61.0555 47.261 60.867 47.9951C60.5738 49.0979 60.1805 50.2135 59.6616 51.3977L59.1287 52.4958C58.9786 52.7773 58.8087 53.0635 58.6341 53.3566L58.4445 53.6742C58.3654 53.8127 58.2699 53.9476 58.1757 54.086C58.1373 54.1419 58.1396 54.214 58.1804 54.2675C58.2094 54.307 58.256 54.328 58.3014 54.328C58.3211 54.328 58.3386 54.3257 58.3549 54.3187C58.9495 54.1081 59.572 53.8534 60.2096 53.5649C60.2585 53.5428 60.2922 53.4974 60.2992 53.4439C60.4016 52.6075 60.5156 51.9095 60.6553 51.3058C61.0439 49.5539 61.7641 47.9753 62.745 46.7306C62.8881 46.5119 63.0755 46.3199 63.2523 46.1338C63.3466 46.0349 63.4408 45.9372 63.5258 45.8407C63.577 45.7872 63.6212 45.7383 63.6666 45.6883C63.7515 45.5987 63.8341 45.508 63.9412 45.4091L64.0715 45.2951C64.1657 45.2125 64.2565 45.1334 64.3577 45.0508C65.0151 44.5145 65.6842 44.1516 66.4044 43.9375C67.1235 43.7154 67.9019 43.6886 68.5977 43.8631C69.0515 43.9666 69.4972 44.1493 69.9219 44.4005C69.9649 44.4273 70.0208 44.4296 70.0673 44.4087C70.115 44.3866 70.1476 44.34 70.1546 44.2889C70.314 43.1744 70.0813 42.1368 69.4809 41.2888C68.927 40.4966 68.116 39.7963 67.0002 39.1483C65.3758 38.2305 63.9284 37.7407 62.7648 37.3452L62.4541 37.2417C61.5814 37.0521 60.5098 36.788 59.1764 36.4344L58.9704 36.3832Z" fill="white"/>
<path d="M40.1312 43.9015C39.9473 44.1435 39.6727 44.4203 39.3167 44.7228C38.8757 45.0776 38.2718 45.5639 37.2537 45.9082C36.694 46.0908 36.0587 46.1408 35.4664 46.0536C34.8055 45.9501 34.2796 45.7942 33.8979 45.586C33.8351 45.5545 33.7583 45.5662 33.7095 45.6174C33.5303 45.8093 33.4255 46.0641 33.4302 46.2886C33.4209 46.6504 33.6583 47.0936 34.0515 47.4472C34.3738 47.7462 34.8055 47.9881 35.2605 48.1266C35.4257 48.1847 35.627 48.2033 35.8236 48.2231L35.947 48.2371C36.0226 48.2429 36.0971 48.2545 36.1704 48.2662C36.2914 48.2836 36.4171 48.3034 36.5404 48.3034C36.5648 48.3034 36.5916 48.3034 36.616 48.3011C38.4033 48.322 39.7774 47.8811 40.7816 47.4891C41.9905 46.9261 42.7864 46.4293 43.516 45.4115C44.1652 44.5053 44.3351 43.6712 44.0396 42.8662C43.9255 42.5172 43.6102 42.0554 42.755 41.8437C42.1755 41.6983 41.4623 41.7297 40.8002 41.9332C40.7304 41.9553 40.6839 42.0228 40.6908 42.0961C40.7106 42.3195 40.7036 42.53 40.6676 42.7266C40.5943 43.1431 40.4127 43.5386 40.1312 43.9015Z" fill="white"/>
<path d="M36.7546 23.3975C37.4399 23.3777 38.2183 23.6057 38.9991 24.0489C39.0212 24.064 39.048 24.0687 39.0747 24.0687C39.1015 24.0687 39.1259 24.064 39.1492 24.0489C39.1957 24.0245 39.2272 23.9768 39.2295 23.9233C39.2388 23.7686 39.2923 23.6197 39.3924 23.4696C39.404 23.4533 39.5646 23.2206 39.8718 22.7844C40.0952 22.4831 40.3395 22.0667 40.6502 21.5385C40.8131 21.2617 40.9946 20.9569 41.1982 20.6195C41.7463 19.6168 42.4025 18.3895 43.1135 16.8877C43.8337 15.365 44.6645 13.6003 45.6035 11.6006C45.664 11.4773 45.7222 11.3587 45.7803 11.2377L45.8653 11.0632C45.8944 11.0027 45.8792 10.9271 45.8315 10.8817C45.6012 10.6677 45.2207 10.3675 44.7041 10.1326C44.1874 9.92433 43.644 9.83243 43.2636 9.8778C43.0914 9.88478 42.9657 9.91386 42.8831 9.93596C42.84 9.95108 42.8051 9.98017 42.7842 10.0186C42.2547 11.1144 41.7311 12.2265 41.2343 13.3246L40.9388 13.9784C40.6118 14.7077 40.2988 15.3964 39.9451 16.0676C39.5716 16.7737 39.2097 17.4182 38.8804 18.0138L38.6791 18.3756C37.7634 20.0112 37.298 21.0918 37.0699 21.7026C36.9629 21.9678 36.9 22.1923 36.8488 22.3749C36.8244 22.4668 36.8 22.5518 36.7732 22.6262L36.6743 22.9589C36.6568 23.0438 36.6312 23.116 36.6045 23.1892C36.5847 23.2369 36.594 23.2904 36.6231 23.3323C36.6522 23.373 36.7057 23.3998 36.7546 23.3975Z" fill="white"/>
<path d="M70.1955 51.5455C70.1955 51.5432 70.1955 51.5409 70.1931 51.5409L70.1734 51.1651L70.1256 50.7975C70.0384 50.2764 69.8848 49.7762 69.6742 49.3167C69.4543 48.8165 69.1634 48.3593 68.8306 47.9882C68.6654 47.8184 68.4722 47.6264 68.2779 47.5182C68.2325 47.4868 68.179 47.4496 68.1208 47.4287C68.1057 47.4228 68.0836 47.4112 68.0696 47.4042C68.0452 47.3914 68.0254 47.3821 68.0068 47.3751C67.9847 47.3577 67.9556 47.3461 67.9265 47.3437L67.6554 47.3286C67.6112 47.3286 67.5751 47.3414 67.546 47.3507L67.4948 47.3623C67.4204 47.3845 67.3063 47.4228 67.1993 47.4915C67.0201 47.588 66.7944 47.7462 66.5907 47.9207L66.0229 48.5117C65.8391 48.6931 65.696 48.8967 65.5552 49.0956L65.5121 49.1561C64.9548 49.9367 64.5394 50.8673 64.2415 52.0085C63.989 53.0392 63.8587 54.0256 63.754 54.9388C63.6504 55.8043 63.6283 56.6895 63.6888 57.491C63.7982 58.987 64.3043 60.198 65.0362 60.7273C65.1095 60.7878 65.1817 60.839 65.2503 60.8867L65.3271 60.9379C65.5342 61.0321 65.7181 61.0763 65.9624 61.0926C66.13 61.103 66.3022 61.11 66.4697 61.11C66.685 61.11 66.8933 61.0972 67.0806 61.0542C67.8346 60.8797 68.2907 60.2666 68.5665 59.8199L68.7771 59.4791C69.1029 58.9579 69.4391 58.4217 69.6672 57.811C70.2292 56.2917 70.2606 54.2874 70.2129 52.3482L70.1955 51.5455Z" fill="white"/>
<mask id="mask0_336_203" style="mask-type:luminance" maskUnits="userSpaceOnUse" x="0" y="61" width="20" height="10">
<path d="M0 61.3323H19.2837V70.2221H0V61.3323Z" fill="white"/>
</mask>
<g mask="url(#mask0_336_203)">
<path d="M18.4728 65.7005C18.0656 65.3247 17.5199 64.9757 16.7543 64.5977C16.2853 64.3697 15.7524 64.1545 15.1904 63.9265C14.9263 63.8171 14.654 63.7078 14.3701 63.5891C14.3224 63.5682 14.2666 63.5751 14.2223 63.6042C13.9245 63.8055 13.5929 64.0277 13.2263 64.258C12.79 64.5372 12.3071 64.842 11.7789 65.1747L11.6648 65.2468C11.602 65.284 11.5322 65.3177 11.4589 65.3538L11.3867 65.3899C11.3018 65.4387 11.1994 65.4794 11.09 65.512C10.9772 65.5504 10.8748 65.5818 10.7386 65.5934C10.6223 65.6109 10.5257 65.6155 10.4431 65.6132C10.414 65.6086 10.3826 65.6179 10.3581 65.6353C10.2348 65.6062 10.1091 65.5772 9.96602 65.5457C9.95323 65.5411 9.94159 65.5353 9.92646 65.5329C9.79382 65.5039 9.67281 65.4771 9.5611 65.4387C9.47616 65.4073 9.39122 65.3782 9.30396 65.3491C9.10499 65.2817 8.91882 65.2154 8.74661 65.1363C8.49644 65.0316 8.24977 64.9245 8.02404 64.821C7.93677 64.7791 7.85881 64.7431 7.7762 64.707C7.63308 64.6419 7.47833 64.5709 7.2363 64.4476L7.14904 64.4011C7.08271 64.3673 7.02221 64.3359 6.96868 64.2801C6.89422 64.2219 6.82324 64.1661 6.77088 64.0835C6.73364 64.0381 6.70456 63.9718 6.67314 63.9044L6.65685 63.866C6.65103 63.8392 6.64638 63.8125 6.6394 63.7857C6.62776 63.7252 6.61729 63.667 6.61962 63.631C6.62776 63.5891 6.62776 63.5484 6.63009 63.5065C6.63241 63.4518 6.63474 63.403 6.65103 63.3588L6.75575 63.0703C6.79997 62.9667 6.85233 62.8842 6.914 62.7969C6.95007 62.7411 6.98846 62.6852 7.01988 62.6247C7.08504 62.52 7.13624 62.4619 7.19907 62.3944C7.2235 62.3677 7.24794 62.3432 7.27005 62.3165C7.31077 62.2711 7.35731 62.2246 7.39804 62.1839C7.43411 62.1478 7.45156 62.0966 7.44225 62.0454C7.43178 61.9942 7.39804 61.9512 7.35266 61.9314C6.50559 61.5638 5.65502 61.3789 4.89638 61.4056C3.90037 61.4324 2.92297 61.7721 2.07241 62.3805C1.89787 62.4968 1.72101 62.634 1.53368 62.7992C1.43245 62.8795 1.32074 62.9784 1.2137 63.0761C1.14621 63.1366 1.08105 63.1947 1.0124 63.2506C0.714528 63.5263 0.408511 63.8171 0.244449 64.0765C0.154854 64.2126 0.10133 64.3336 0.0943488 64.4185C0.0652598 64.5302 0.072241 64.6291 0.11762 64.7431C0.193252 64.9443 0.381749 65.184 0.588864 65.3398C0.647042 65.3852 0.707547 65.4271 0.768052 65.4678L0.844848 65.5213C0.869283 65.5376 0.896044 65.5481 0.925133 65.5504C1.20904 65.5667 1.91184 65.7295 3.65718 66.4008L7.84252 67.906C9.55296 68.5028 11.4542 69.195 13.4905 69.9639C13.5684 69.9906 13.651 69.9592 13.6871 69.886C13.7674 69.7219 13.8465 69.566 13.9291 69.4206C14.1549 69.0577 14.4073 68.718 14.6785 68.4179C15.1462 67.8863 15.6628 67.4361 16.2132 67.0766C16.6588 66.7916 17.0905 66.6043 17.4617 66.5322C17.6165 66.5008 17.7165 66.5124 17.784 66.5264C17.7933 66.5299 17.8038 66.5322 17.8084 66.5345C17.8038 66.5415 17.7968 66.5508 17.7863 66.5613C17.7619 66.5904 17.7282 66.6218 17.6898 66.6578C17.6409 66.7067 17.5874 66.7567 17.549 66.8033L17.3965 66.9487C17.2115 67.1232 16.9579 67.3628 16.6903 67.6583C16.2667 68.1247 15.8839 68.6087 15.5511 69.1007C15.3626 69.3753 15.1823 69.6754 15.0322 69.9709C15.0054 70.0244 15.0112 70.0872 15.0473 70.1337C15.0764 70.1744 15.1218 70.1965 15.1706 70.1965C15.18 70.1965 15.1904 70.1965 15.1997 70.1942C16.0235 70.0383 16.8822 69.6928 17.6118 69.3753C18.3053 69.0786 18.7882 68.5237 18.9604 68.1119C19.0523 67.8991 19.0791 67.7025 19.0348 67.4675L19.0162 67.4093C18.9964 67.3465 18.972 67.2662 18.9336 67.2151C18.9115 67.1743 18.8917 67.1325 18.8533 67.072L18.78 66.9824C18.7393 66.9266 18.6986 66.8765 18.659 66.8277C18.6008 66.7544 18.5333 66.6695 18.5043 66.6171C18.5764 66.6067 18.7614 66.609 18.9522 66.6962C19.0162 66.7253 19.0884 66.709 19.1349 66.6555C19.178 66.6043 19.1826 66.5264 19.1465 66.4717C18.965 66.1972 18.744 65.9447 18.4728 65.7005Z" fill="white"/>
</g>
<path d="M37.775 60.3121C37.7575 60.3738 37.4841 60.5773 36.4776 60.7367C35.6968 60.86 34.4565 60.9577 32.9939 60.7169C32.3132 60.5983 31.6511 60.4052 31.0833 60.1551C30.512 59.884 30.0338 59.5734 29.7022 59.2582C28.9912 58.5893 28.9284 58.1309 28.9668 58.0681C28.9749 58.0658 28.9819 58.0635 28.9936 58.0635C29.1076 58.0635 29.4136 58.2066 29.6417 58.3136C29.8081 58.3904 29.9907 58.4753 30.1792 58.5532C30.5574 58.7324 31.0403 58.8917 31.5103 59.0383C32.0095 59.1756 32.582 59.3047 33.2126 59.4187C33.8328 59.5199 34.4483 59.6002 34.9917 59.6723C35.5398 59.7456 36.0587 59.8154 36.4904 59.891C37.6656 60.0946 37.7703 60.3121 37.775 60.3121ZM60.1131 56.5873C60.1003 56.0301 60.1049 55.6078 60.1294 55.2181V55.2158L60.1375 55.0901C60.1375 55.0366 60.1131 54.9854 60.0689 54.9563C60.0258 54.9249 59.97 54.9203 59.9211 54.9389C58.8448 55.3833 57.7464 55.7485 56.5665 56.0545C56.5537 56.0568 56.5421 56.0615 56.5293 56.0684C56.5177 56.0661 56.5025 56.0684 56.4909 56.0731C54.4733 56.5849 52.5615 56.835 50.8709 57.0549C50.0424 57.1643 49.2593 57.2655 48.5344 57.3899L47.877 57.4981C46.4249 57.7412 45.0554 57.9692 43.8185 58.0856C43.5113 58.124 43.1786 58.1507 42.8027 58.1682C42.6864 58.1728 42.57 58.1798 42.4583 58.1868C42.2477 58.1996 42.0441 58.2112 41.8428 58.2112L41.588 58.2089C41.0597 58.2042 40.5582 58.2019 40.1172 58.1775C39.1259 58.1356 38.1892 58.0972 37.4259 58.0169C36.9558 57.9588 36.5579 57.896 36.189 57.8238C35.3001 57.7552 34.3273 57.6342 33.3046 57.4621C32.3132 57.2829 31.2264 57.0503 30.0198 56.5826C29.2879 56.2964 28.691 55.9765 28.1407 55.5764C27.8637 55.3949 27.5833 55.1529 27.2319 54.7958C27.1249 54.6748 27.0202 54.5422 26.9236 54.4038C26.8875 54.3526 26.8247 54.3282 26.7584 54.3433C26.6978 54.3573 26.6525 54.4084 26.642 54.4736C26.5524 55.1576 26.521 55.8265 26.5501 56.457C26.592 57.889 26.941 59.2942 27.5566 60.5238C28.1116 61.6534 28.9598 62.6247 30.0117 63.3378C30.8855 63.9334 31.8932 64.3801 33.1835 64.743C34.1284 65.0071 35.0627 65.1909 35.9668 65.3712L36.3403 65.4457C37.2781 65.6469 38.1101 65.7877 38.9118 65.9261L39.1782 65.9691C39.3842 65.9866 39.5878 66.0064 39.7868 66.025C40.4488 66.0855 41.0725 66.1436 41.6706 66.125C41.8358 66.132 42.001 66.1367 42.1604 66.1367C42.6771 66.1367 43.1669 66.1029 43.6417 66.0715L43.8604 66.0564C44.6889 65.9936 45.4987 65.904 46.4179 65.7737C46.5587 65.7388 46.7018 65.7051 46.8682 65.6713C47.0986 65.6132 47.3511 65.5434 47.6222 65.4631C47.9015 65.3828 48.204 65.2956 48.5368 65.2107C49.776 64.8664 51.4096 64.3138 53.6786 63.4704C54.1661 63.2936 54.6722 63.0993 55.2086 62.8958C56.84 62.2757 58.69 61.5731 60.8857 60.9263C60.9276 60.9135 60.9636 60.8821 60.9834 60.8414C61.002 60.7995 60.9997 60.7541 60.9834 60.7123C60.4552 59.5664 60.1608 58.1775 60.1131 56.5873Z" fill="white"/>
<path d="M69.0876 60.0944C69.0516 60.1305 69.0178 60.1666 68.9864 60.1956C68.9154 60.2538 68.8526 60.3155 68.7874 60.3736C68.6804 60.4725 68.564 60.5621 68.4209 60.6563C67.6693 61.2042 66.4091 61.6114 65.3957 61.2019C65.2013 61.153 65.0315 61.0902 64.8476 60.996C64.6754 60.9262 64.4159 60.7459 64.203 60.5446C63.968 60.3201 63.7667 60.0654 63.6061 59.7838C63.2524 59.1929 62.9929 58.4368 62.8568 57.598C62.7067 56.7546 62.6613 55.8287 62.716 54.8445C62.7579 54.0814 62.8381 52.9251 63.0825 51.7351C63.3594 50.4648 63.819 49.3504 64.452 48.4267L64.4858 48.3755C64.6556 48.1208 64.8209 47.8811 65.0338 47.6682L65.3642 47.2995C65.4201 47.2343 65.4562 47.1925 65.5306 47.118L65.6935 46.9656C66.0042 46.6864 66.266 46.4945 66.5685 46.3281C66.7384 46.2328 66.9246 46.156 67.1142 46.1001L67.1945 46.078C67.269 46.0583 67.3423 46.0373 67.4249 46.0269L67.7274 45.9978C67.7472 45.9978 67.7879 46.0001 67.8031 46.0036C67.8124 46.0036 67.824 46.0059 67.8345 46.0036L68.0428 46.0245C68.1742 46.0513 68.3046 46.085 68.4361 46.1269C68.5082 46.1513 68.5617 46.1781 68.6106 46.2013C68.6513 46.2211 68.6874 46.2409 68.7235 46.2549C68.8282 46.3037 68.9038 46.3468 68.9806 46.4026C69.318 46.6062 69.5752 46.8656 69.8079 47.111C70.2372 47.6008 70.5805 48.1498 70.8551 48.7955C71.1018 49.3771 71.2717 49.9878 71.3589 50.6055C71.374 50.7661 71.388 50.9231 71.4078 51.0708C71.4124 51.2232 71.4171 51.3768 71.4171 51.5315C71.4194 51.7549 71.4171 51.9503 71.4124 52.1492L71.4078 52.3574C71.3834 53.3788 71.3426 54.4618 71.1949 55.4681C71.0994 56.3207 70.8528 57.1955 70.4432 58.1355C70.0837 58.8532 69.645 59.4953 69.1458 60.0363L69.0876 60.0944ZM71.8849 47.5636C71.3345 46.6434 70.6678 45.9152 69.9021 45.4045C68.9015 44.731 67.7367 44.5611 66.7163 44.9322C66.195 45.1009 65.6237 45.4382 65.1094 45.8814C65.0338 45.9501 64.9512 46.0269 64.8721 46.1071L64.7068 46.2595C64.6533 46.313 64.5881 46.391 64.5183 46.4712C64.4695 46.5271 64.4183 46.5817 64.3671 46.6399C64.2926 46.7353 64.21 46.8225 64.1297 46.9121C63.9726 47.0843 63.8097 47.2611 63.698 47.4554C62.2028 49.4015 61.4605 52.3749 61.4314 56.5464C61.4849 58.417 61.9143 59.9874 62.6636 61.0879C62.7218 61.1798 62.7916 61.2647 62.8591 61.3473C62.9056 61.4055 62.9487 61.4613 63.0022 61.5346C63.0685 61.6067 63.1383 61.6765 63.2082 61.7451C63.2617 61.7986 63.3175 61.851 63.3827 61.9219L63.7609 62.2325C63.8586 62.2977 63.9575 62.3605 64.0576 62.421L64.2484 62.542C64.2612 62.549 64.2949 62.5664 64.3066 62.5687L64.4834 62.6606C64.5125 62.6734 64.5416 62.6874 64.5707 62.7025C64.6219 62.7269 64.6731 62.7502 64.7289 62.7723C64.7848 62.7898 64.8383 62.8119 64.8907 62.8328C64.9954 62.8747 65.1024 62.9177 65.2165 62.9398L65.3445 62.9736C65.4631 63.005 65.5842 63.0387 65.7028 63.0492C65.8611 63.0783 66.0228 63.0922 66.2032 63.0969C66.2683 63.1027 66.3312 63.105 66.3963 63.105C67.9241 63.105 69.1505 62.2325 69.7567 61.6986C69.8824 61.5951 69.9941 61.488 70.0918 61.3857L70.5782 60.8482C70.6049 60.8168 70.6678 60.7273 70.705 60.6737C70.7969 60.5528 70.8842 60.4283 70.9668 60.3155C71.26 59.956 71.4636 59.571 71.6626 59.1975C71.7278 59.0742 71.7906 58.9533 71.8639 58.8218C72.6737 57.0408 72.8599 55.3389 72.9961 54.0977C73.0123 53.936 73.0298 53.7836 73.0461 53.6347C73.323 51.2605 72.9518 49.3306 71.8849 47.5636Z" fill="white"/>
<path d="M26.6909 45.1695C26.6013 45.2126 26.5117 45.2545 26.4047 45.3173C25.9753 45.6593 25.5541 46.0176 25.1155 46.4108C24.5255 46.9528 23.7506 47.695 22.9594 48.6501C22.3462 49.3864 21.4642 50.5299 20.8801 51.9852C20.5892 52.7169 20.4309 53.4486 20.4147 54.1582C20.3972 54.4932 20.4309 54.8492 20.5089 55.211C20.5205 55.2738 20.5694 55.3192 20.6299 55.332C20.6404 55.3343 20.652 55.3343 20.659 55.3343C20.7125 55.3343 20.7614 55.3099 20.7905 55.2645C21.6771 53.9186 22.4916 52.5005 23.2793 51.129C24.3906 49.198 25.5367 47.2006 26.8969 45.3952C26.9411 45.3394 26.9306 45.2638 26.8852 45.2079C26.8387 45.1521 26.7537 45.1381 26.6909 45.1695Z" fill="white"/>
<path d="M25.6241 58.2961C25.6148 58.2519 25.588 58.2135 25.5473 58.1914C25.5054 58.1682 25.4577 58.1647 25.4158 58.1821C24.4943 58.5427 23.6972 58.7126 22.9072 58.7126C22.451 58.7079 21.7843 58.6277 21.1711 58.2577C20.587 57.9087 20.203 57.3853 19.9901 57.0119C19.5107 56.0975 19.2827 55.0994 19.3304 54.1269C19.3699 53.2789 19.5712 52.4285 19.9273 51.5968C20.6033 50.0333 21.54 48.8852 22.2788 48.0604C22.5267 47.7894 22.7594 47.516 22.9921 47.2438C23.6367 46.4853 24.2453 45.7699 25.076 45.1987L25.2529 45.0777C26.0895 44.5031 27.1274 43.7853 28.7541 43.2909C29.7501 43.0024 30.8345 42.9803 31.8084 43.2328C32.7055 43.4608 33.6364 43.9214 34.6045 44.6241C34.9919 44.7869 35.3294 44.8951 35.6389 44.9509C36.0834 45.0312 36.5243 45.0196 36.9874 44.9172C37.2423 44.8497 37.4866 44.7695 37.7682 44.6508C37.7705 44.6485 37.8019 44.6264 37.8019 44.6264C37.8182 44.6124 37.838 44.5973 37.8718 44.5752L38.0032 44.4786C38.3476 44.2216 38.7758 43.9017 39.147 43.4561C39.5042 43.0117 39.7998 42.4301 39.3506 41.4809C39.3634 41.4611 39.3681 41.439 39.3704 41.4146C39.3727 41.3645 39.3506 41.3134 39.3099 41.2819C38.9434 41.0051 38.5606 40.7701 38.1708 40.584C37.4726 40.2443 36.6721 39.9756 35.7215 39.765C34.1553 39.4393 32.5066 39.3451 30.8171 39.4812C29.9537 39.551 29.2195 39.6755 28.5702 39.8593C28.4492 39.8976 28.3247 39.9314 28.2014 39.9628C27.978 40.0244 27.7453 40.0873 27.523 40.1745C27.1926 40.3048 26.8703 40.4362 26.5386 40.5689C25.396 41.1028 24.2883 41.8054 23.1469 42.7244C21.4783 44.1413 20.0262 45.8571 18.7102 47.9662C17.6746 49.6308 16.916 51.2583 16.4599 52.7996C16.0526 54.1513 15.8932 55.4775 15.9921 56.6256C16.0096 56.8513 16.0433 57.0886 16.1038 57.3922C16.1213 57.4434 16.1352 57.5016 16.148 57.5854C16.2271 57.9588 16.3319 58.3008 16.4529 58.6067C16.4599 58.623 16.4703 58.6405 16.482 58.6521C16.7973 59.0057 17.1976 59.4326 17.77 59.934C18.7975 60.7879 19.8959 61.3207 21.1269 61.558C21.5737 61.6475 22.0415 61.6941 22.5267 61.6941C23.731 61.6941 25.0353 61.4172 26.3152 60.8821C26.3536 60.8646 26.3862 60.8332 26.4002 60.7948C26.4153 60.7565 26.4153 60.7123 26.3955 60.6739C26.0488 59.9201 25.787 59.1197 25.6241 58.2961Z" fill="white"/>
<path d="M56.3478 3.73343C56.314 3.78694 56.2942 3.83114 56.2745 3.87884C56.2628 3.91374 56.2651 3.95445 56.2779 3.98819C56.2989 4.051 56.3233 4.11731 56.3454 4.18943C56.3594 4.24993 56.3815 4.31507 56.4036 4.38138C56.4502 4.51399 56.4932 4.65242 56.5107 4.80481C56.6724 5.60515 56.6724 6.68119 56.5048 8.29815L56.4909 8.43542C56.4211 9.11245 56.3547 9.75225 56.3117 10.5375L56.2989 10.705C56.2558 11.4821 56.207 12.287 56.1127 13.1455C56.0743 13.5981 56.0301 14.0715 55.9812 14.5461L55.9138 15.0964C55.8777 15.3965 55.8381 15.6978 55.802 16.0072C55.7322 16.6691 55.6275 17.3287 55.5158 18.029C55.46 18.3733 55.4053 18.72 55.3564 19.0643C55.1714 19.9752 54.9829 20.8674 54.7967 21.7317C54.5605 22.838 54.3383 23.8826 54.1463 24.8854C53.7542 26.9188 53.4772 28.4264 53.269 29.6386C53.056 31.0368 52.8757 32.1664 52.6453 32.9563C52.5732 33.2226 52.4929 33.4483 52.43 33.6344C52.3963 33.7322 52.3649 33.8194 52.3474 33.8822C52.2893 34.016 52.2532 34.1056 52.2311 34.1509C52.2066 34.1998 52.209 34.258 52.2357 34.301C52.2648 34.3475 52.3137 34.3766 52.3672 34.3766C52.5557 34.3789 52.828 34.4232 53.1142 34.4685C53.4656 34.5267 53.824 34.5848 54.1265 34.5848C54.2871 34.5848 54.4302 34.5686 54.5489 34.5267C55.0143 34.365 55.0655 34.1032 55.1167 33.8241C55.14 33.7031 55.1621 33.5763 55.2203 33.439C55.2203 33.439 55.254 33.3587 55.3145 33.1912C55.3343 33.1401 55.3587 33.0819 55.3855 33.0144C55.4413 32.876 55.5112 32.7061 55.5717 32.4909C55.7543 31.943 56.0255 30.9787 56.2989 29.5048C56.3594 29.1558 56.4257 28.7824 56.4955 28.3904L56.7085 27.1875C56.8737 26.3325 57.0529 25.3949 57.2449 24.3794C57.6812 22.0889 58.1222 19.7158 58.5562 17.3241L58.5632 17.2799C58.804 15.9642 59.0286 14.7206 59.2113 13.5306L59.2322 13.3898C59.4149 12.2673 59.5871 11.2087 59.6953 10.2443C59.9257 8.16205 59.8803 6.50204 59.5604 5.30502C59.4149 4.75479 59.2113 4.24295 58.9437 3.77298C58.825 3.59383 58.7191 3.42632 58.6051 3.25183L58.5248 3.16458C58.4305 3.06221 58.3456 2.97031 58.2746 2.90052C58.1932 2.7935 58.1001 2.70392 57.9814 2.61202C57.9314 2.57247 57.8627 2.56782 57.8092 2.59923L57.6521 2.68647C57.5241 2.75976 57.3973 2.82956 57.274 2.90517C56.8376 3.17156 56.5002 3.47169 56.3478 3.73343Z" fill="white"/>
<path d="M45.1299 9.1415L45.6977 9.38812C45.9595 9.50212 46.1899 9.60449 46.3889 9.68941C46.4075 9.69639 46.4296 9.70104 46.4494 9.70104C46.5052 9.70104 46.5587 9.67196 46.5878 9.61845L46.7112 9.38579C46.8229 9.18222 46.9323 8.97864 47.0335 8.77972C47.5059 7.86189 47.9911 7.04759 48.3809 6.39266C48.7404 5.79939 49.2221 5.03744 49.7853 4.39066C50.3089 3.81367 50.8732 3.35882 51.455 3.03543C52.3963 2.53638 53.3342 2.26068 54.2487 2.21183C54.5292 2.19787 54.8014 2.21183 55.0819 2.25836C55.2133 2.27697 55.3053 2.30373 55.3437 2.31652C55.3495 2.31652 55.3588 2.31885 55.3681 2.32118C55.4658 2.35026 55.5694 2.3933 55.6718 2.45379C55.7172 2.47822 55.7707 2.48055 55.8196 2.45612L55.8801 2.42703C56.1349 2.29907 56.4234 2.15599 56.712 1.98382C56.8039 1.93031 56.8807 1.87796 56.9517 1.82678L57.0052 1.78723C57.039 1.76396 57.0611 1.71976 57.0657 1.67904C57.0727 1.63484 57.0553 1.58947 57.0285 1.55457C56.9994 1.51851 56.9389 1.44639 56.833 1.36379C56.6212 1.1672 56.392 0.99736 56.1291 0.84497C55.7614 0.619293 55.3076 0.433168 54.7968 0.294737C54.2429 0.120245 53.5867 0.0236922 52.842 0.00159004C51.206 -0.0367985 49.463 0.62162 48.0493 1.79305C47.2662 2.43983 46.5681 3.23435 45.9746 4.16033C45.4406 5.02115 44.8949 5.98552 44.3643 6.91847L43.6126 8.35861C43.5928 8.39933 43.5905 8.44586 43.6079 8.48657C43.6254 8.52845 43.6591 8.55986 43.6999 8.57382C44.0932 8.71458 44.5725 8.90419 45.1299 9.1415Z" fill="white"/>
<path d="M14.6026 59.5268C14.741 59.5559 14.8772 59.585 15.0133 59.6164C15.1727 59.6652 15.331 59.7304 15.4974 59.8013L15.7382 59.9002C15.9465 59.9875 16.1618 60.077 16.3875 60.2085C16.5038 60.2806 16.64 60.3655 16.804 60.5016C16.8099 60.504 16.8308 60.5237 16.8355 60.5261C16.8622 60.5423 16.8913 60.5528 16.9227 60.5528C16.9623 60.5528 17.0007 60.5354 17.0321 60.5063L17.0856 60.4481C17.1415 60.39 17.1461 60.3004 17.0949 60.2399C16.4922 59.5128 16.2199 58.9603 16.0896 58.5985C16.0873 58.5822 16.0815 58.5671 16.0745 58.5531C16.0384 58.4798 16.0024 58.4054 15.9605 58.3135C15.9395 58.2716 15.9 58.2402 15.8569 58.2286C15.8104 58.2181 15.7615 58.2286 15.7254 58.2577C15.4636 58.4554 15.2146 58.6718 14.9738 58.8823C14.8283 59.0091 14.6829 59.1348 14.5351 59.2558C14.4897 59.2941 14.4699 59.3546 14.4839 59.4128C14.499 59.471 14.5444 59.5152 14.6026 59.5268Z" fill="white"/>
<path d="M29.3986 38.5434C29.4091 38.5434 29.4161 38.5434 29.4254 38.5399C29.8594 38.4631 30.2957 38.4073 30.7228 38.3736C31.2557 38.327 31.806 38.3026 32.3646 38.3026C32.4169 38.3026 32.4658 38.2735 32.4949 38.2305C34.4881 35.0384 36.0542 31.5649 37.5669 28.2053C37.9857 27.2805 38.4035 26.3522 38.8293 25.4286C38.8607 25.3599 38.8398 25.2785 38.7758 25.2366C38.2359 24.8713 37.2108 24.2897 36.4033 24.5224C36.0368 24.6259 35.761 24.8853 35.5806 25.2878L35.5329 25.3995C35.2804 25.9706 35.0431 26.5139 34.7592 27.0571C34.4276 27.7016 34.0808 28.3368 33.7317 28.9742C33.2535 29.8514 32.7567 30.7576 32.311 31.6672C31.8794 32.5374 31.5128 33.4482 31.1591 34.3277C30.618 35.6713 30.0584 37.0591 29.2683 38.3049C29.2346 38.3584 29.2369 38.4236 29.2706 38.4748C29.2997 38.519 29.3486 38.5434 29.3986 38.5434Z" fill="white"/>
<path d="M7.94584 63.5528V63.5551L8.4869 63.7901C8.60558 63.8436 8.72426 63.9041 8.84527 63.9623C9.3235 64.1973 9.84478 64.4544 10.387 64.4544C10.6267 64.4544 10.8745 64.4032 11.1224 64.2752C11.3737 64.1251 11.6192 63.9867 11.8566 63.8529L11.9171 63.8169C12.1672 63.6715 12.4023 63.5412 12.6269 63.4144L12.6711 63.3899C12.8572 63.2911 13.0422 63.1899 13.2261 63.0852C13.6869 62.8281 14.1616 62.5617 14.6468 62.3674C14.7317 62.336 14.8597 62.3069 14.9935 62.2755C15.4322 62.1766 16.0338 62.0382 16.0186 61.5392C16.0117 61.0517 15.0808 60.669 14.6829 60.5259L14.4606 60.448C14.3675 60.4143 14.278 60.3852 14.1988 60.3561C13.9708 60.2572 13.7543 60.2107 13.5659 60.1688C13.4809 60.1525 13.4006 60.1351 13.325 60.1165L13.1772 60.0769C13.1633 60.0723 13.1481 60.0723 13.1365 60.0723H13.0923C13.0713 60.0723 13.0516 60.0746 13.0318 60.0851C12.6245 60.2514 12.1987 60.4387 11.7251 60.6562L11.376 60.8261L10.3311 61.3763C9.8122 61.6671 9.20947 62.0231 8.66143 62.4675C8.50784 62.5838 8.37287 62.7048 8.25651 62.8258C8.17623 62.8932 8.11572 62.9688 8.06452 63.0317L8.01682 63.0898C7.96097 63.148 7.92606 63.1864 7.90744 63.2283L7.85625 63.3132C7.83646 63.3492 7.82948 63.3899 7.83879 63.4318C7.85159 63.4807 7.89697 63.5284 7.94584 63.5528Z" fill="white"/>
<path d="M49.5841 51.9235C49.7342 51.8607 49.8889 51.7955 50.0274 51.7129L50.2066 51.6117C50.3451 51.5361 50.4789 51.4617 50.6173 51.3814C50.7593 51.2965 50.9105 51.2162 51.056 51.1359C51.2829 51.015 51.5191 50.8893 51.7274 50.7439C51.9531 50.5915 52.1753 50.4426 52.3941 50.2972C52.8642 49.9831 53.3098 49.6865 53.7101 49.398C54.3477 48.9548 54.8841 48.5965 55.3495 48.301C55.7882 48.0172 56.2455 47.7287 56.6411 47.5391C57.124 47.2971 57.3974 47.1831 57.5533 47.1319C57.4463 47.2541 57.238 47.4623 56.8331 47.8066C56.5026 48.0707 56.1 48.4313 55.7102 48.7803C55.4868 48.9746 55.2471 49.1828 54.9923 49.4038C54.7457 49.619 54.4839 49.8447 54.2069 50.082C53.7194 50.5113 53.169 50.937 52.5872 51.3907L52.3313 51.592C52.0951 51.7781 51.8414 51.9386 51.5715 52.1085C51.4435 52.1887 51.312 52.2701 51.1863 52.3527C51.0362 52.4446 50.8884 52.5377 50.7383 52.6343L50.5638 52.7436C50.4323 52.8262 50.2939 52.8913 50.1484 52.9611C50.0693 53.0007 49.9913 53.0391 49.9157 53.0775C49.7726 53.1484 49.6271 53.2205 49.4794 53.2938C49.1745 53.4439 48.8615 53.6009 48.5415 53.7394C48.2146 53.8778 47.8795 54.0127 47.5397 54.1512L47.0743 54.3385C46.6647 54.5025 46.2551 54.6525 45.8386 54.8061L45.1812 55.0434C45.0962 55.0771 45.0136 55.0993 44.9345 55.1237C44.8763 55.14 44.8181 55.1574 44.7623 55.1772L43.921 55.4192C41.8766 55.8891 39.695 55.9938 37.4237 55.7321C37.1014 55.7053 36.7686 55.6425 36.4463 55.5808C36.2787 55.5471 36.1147 55.5157 35.9564 55.4913C35.6411 55.4308 35.3502 55.3482 35.0721 55.2691C34.9337 55.2295 34.7975 55.1911 34.6672 55.1574C33.8236 54.9003 33.0894 54.627 32.354 54.2989C30.9194 53.6498 29.9152 52.9297 29.4428 52.212C29.3509 52.0933 29.2927 51.9526 29.2392 51.8269C29.2194 51.7816 29.2008 51.735 29.1926 51.7304L29.1763 51.6455C29.1472 51.507 29.1205 51.3744 29.1228 51.3163C29.1251 51.2942 29.1275 51.2744 29.1321 51.2581C29.1391 51.2767 29.1472 51.2965 29.1542 51.3209C29.1856 51.3907 29.2299 51.4512 29.2706 51.5094C29.295 51.5431 29.3218 51.5826 29.3462 51.6234C29.3532 51.6362 29.3602 51.6478 29.3695 51.6571C29.4044 51.6908 29.4358 51.7304 29.4696 51.7688C29.5324 51.849 29.6045 51.9409 29.7023 52.0142C30.2329 52.5249 31.2556 53.0437 32.6624 53.5137C33.3431 53.7417 34.1366 53.9651 34.9069 54.1419C35.0651 54.171 35.2222 54.2047 35.3851 54.2407C35.6586 54.2966 35.9401 54.3571 36.2206 54.3966C36.3835 54.4106 36.544 54.435 36.7058 54.4571C36.9745 54.4955 37.2538 54.5339 37.5493 54.5467C39.7019 54.7037 41.7358 54.5653 43.6103 54.1349L44.4714 53.8848C44.561 53.8604 44.6552 53.8359 44.7309 53.8068L45.8525 53.4102C46.1143 53.3148 46.3738 53.2229 46.631 53.1287C47.0673 52.9635 47.499 52.8018 47.9214 52.6436L48.0587 52.5901C48.3647 52.4691 48.6556 52.3388 48.9418 52.2073C49.0919 52.1422 49.2373 52.0747 49.3874 52.0084C49.4526 51.9793 49.5189 51.9502 49.5841 51.9235ZM32.7182 45.0043C32.7659 44.9438 32.7589 44.8565 32.7054 44.803C32.6519 44.7472 32.5681 44.7402 32.5041 44.7844C31.8746 45.2393 31.2463 45.7848 30.5842 46.4514C29.8279 47.2273 29.1856 48.0021 28.676 48.7582C28.1117 49.5876 27.7137 50.3821 27.4985 51.1173C27.2565 51.9293 27.2483 52.6773 27.4787 53.2857C27.602 53.6114 27.7719 53.8918 27.986 54.1326C28.2106 54.3675 28.4468 54.6095 28.7179 54.8038C29.1787 55.1597 29.7186 55.4703 30.3713 55.7553C31.4569 56.2335 32.4878 56.515 33.4548 56.7616C35.4747 57.2443 37.3318 57.4665 39.3773 57.4665C39.6228 57.4665 39.8695 57.4619 40.122 57.4572C40.4687 57.4526 40.8155 57.4374 41.1762 57.4235C41.3775 57.4142 41.5857 57.406 41.8022 57.3991C42.0081 57.3898 42.2187 57.3677 42.4317 57.3455L42.7284 57.3165C43.0146 57.2944 43.3288 57.256 43.7197 57.1955C44.7518 57.0571 45.9037 56.8395 47.1208 56.6092C47.5211 56.5336 47.933 56.4545 48.36 56.3765C49.2106 56.216 50.1461 56.0659 51.1479 55.9333L51.2224 55.9205C52.1707 55.7902 53.1527 55.6495 54.1732 55.4389C54.6875 55.3435 55.2378 55.2226 55.858 55.0678C55.8871 55.0609 55.9139 55.0457 55.9337 55.0236L56.0686 54.8852C56.2827 54.6607 56.505 54.4304 56.6923 54.1803C56.8017 54.0325 56.9099 53.8894 57.0193 53.7464C57.1984 53.516 57.366 53.3008 57.5161 53.0612C57.6162 52.8983 57.7127 52.7413 57.8093 52.5854C57.9385 52.3795 58.0641 52.1782 58.1828 51.9747L58.426 51.5222C58.5296 51.3279 58.632 51.1418 58.7309 50.9545C59.4174 49.5806 59.8944 48.4406 60.1807 47.7624L60.5495 46.9144L60.5786 46.8434C60.6321 46.5991 60.6903 46.3304 60.738 46.0268C60.8299 45.4626 60.9277 44.7065 60.8544 43.8503C60.8067 43.4943 60.7264 43.0267 60.5274 42.5928C60.3389 42.1833 60.0236 41.8099 59.6187 41.5121C59.23 41.2283 58.6389 41.0421 58.0188 40.8595C57.8582 40.8118 57.693 40.763 57.5266 40.7164L57.3637 40.6641C57.245 40.6269 57.1263 40.5885 57.0076 40.5524C56.6725 40.4407 56.3281 40.3291 55.9744 40.2174C55.7347 40.1429 55.495 40.0603 55.2471 39.9777C54.7643 39.8149 54.2674 39.6485 53.7322 39.5054C53.475 39.4322 53.2156 39.36 52.9538 39.2868C52.3941 39.1297 51.8193 38.9668 51.2038 38.7784C50.5487 38.5667 49.9134 38.3049 49.3002 38.0537C49.0244 37.9373 48.7475 37.8233 48.4636 37.7117L48.2169 37.6174C47.2465 37.2394 45.9165 36.7229 44.9554 37.1172C43.3416 37.7791 41.5811 38.6597 39.5786 39.8102C39.5297 39.837 39.5006 39.8882 39.5006 39.9417C39.4983 39.9952 39.5251 40.0452 39.5693 40.0743C39.8963 40.2883 40.1895 40.5187 40.4443 40.7583C40.4827 40.7967 40.5385 40.8118 40.5921 40.7967C41.4066 40.5687 42.2315 40.5594 43.0379 40.7676C43.5277 40.9014 43.9641 41.1271 44.2992 41.4179C44.6308 41.7029 44.8926 42.11 45.0171 42.5393C45.2975 43.4315 45.0799 44.2237 44.9217 44.6169C44.2945 46.192 42.8203 47.0889 41.3972 47.952L41.0912 48.1382C40.1778 48.6233 38.7152 49.2747 36.5894 49.3305C36.437 49.3457 36.2717 49.3282 36.0995 49.3084C36.0076 49.3015 35.9134 49.2898 35.8284 49.2875C35.7609 49.2793 35.6946 49.2747 35.6295 49.2677C35.4165 49.2503 35.2176 49.2363 34.9848 49.1653C34.3542 48.9967 33.7922 48.6977 33.3116 48.2789C33.0429 48.0439 32.8171 47.7776 32.631 47.467C32.4587 47.1471 32.2865 46.7597 32.2959 46.299C32.3005 45.8384 32.4413 45.38 32.6845 45.0578C32.6961 45.038 32.7078 45.0194 32.7182 45.0043Z" fill="white"/>
<path d="M58.9704 36.3832C57.9546 36.1284 56.8039 35.8376 55.4948 35.6201C53.81 35.3339 52.2485 35.2874 50.7231 35.4793C50.3868 35.5131 50.054 35.5782 49.7026 35.6492L49.3652 35.7143C48.937 35.826 48.4948 35.9377 48.0469 36.0493C47.9817 36.0633 47.9328 36.1238 47.9305 36.1924C47.9259 36.2599 47.9689 36.3227 48.0352 36.3448C48.2261 36.4123 48.4157 36.4832 48.5972 36.553L48.8788 36.6577C49.2128 36.7903 49.5374 36.9264 49.8527 37.0567C50.4473 37.3045 51.0047 37.5395 51.5376 37.714C52.0763 37.8861 52.622 38.0478 53.1526 38.2061C53.4574 38.2956 53.7588 38.3852 54.0544 38.4748C54.5582 38.6179 55.0434 38.7923 55.5111 38.9622C55.7857 39.0587 56.0522 39.1565 56.3117 39.2414C56.5688 39.3309 56.8201 39.4205 57.0657 39.5101L58.3619 39.9556C58.9704 40.1592 59.5987 40.3674 60.1444 40.7874C60.6587 41.1945 61.0509 41.7087 61.2766 42.2729C61.4965 42.8475 61.55 43.4001 61.5721 43.8096C61.5814 44.7867 61.393 45.572 61.2301 46.1361L61.2091 46.2164C61.1719 46.6643 61.0555 47.261 60.867 47.9951C60.5738 49.0979 60.1805 50.2135 59.6616 51.3977L59.1287 52.4958C58.9786 52.7773 58.8087 53.0635 58.6341 53.3566L58.4445 53.6742C58.3654 53.8127 58.2699 53.9476 58.1757 54.086C58.1373 54.1419 58.1396 54.214 58.1804 54.2675C58.2094 54.307 58.256 54.328 58.3014 54.328C58.3211 54.328 58.3386 54.3257 58.3549 54.3187C58.9495 54.1081 59.572 53.8534 60.2096 53.5649C60.2585 53.5428 60.2922 53.4974 60.2992 53.4439C60.4016 52.6075 60.5156 51.9095 60.6553 51.3058C61.0439 49.5539 61.7641 47.9753 62.745 46.7306C62.8881 46.5119 63.0755 46.3199 63.2523 46.1338C63.3466 46.0349 63.4408 45.9372 63.5258 45.8407C63.577 45.7872 63.6212 45.7383 63.6666 45.6883C63.7515 45.5987 63.8341 45.508 63.9412 45.4091L64.0715 45.2951C64.1657 45.2125 64.2565 45.1334 64.3577 45.0508C65.0151 44.5145 65.6842 44.1516 66.4044 43.9375C67.1235 43.7154 67.9019 43.6886 68.5977 43.8631C69.0515 43.9666 69.4972 44.1493 69.9219 44.4005C69.9649 44.4273 70.0208 44.4296 70.0673 44.4087C70.115 44.3866 70.1476 44.34 70.1546 44.2889C70.314 43.1744 70.0813 42.1368 69.4809 41.2888C68.927 40.4966 68.116 39.7963 67.0002 39.1483C65.3758 38.2305 63.9284 37.7407 62.7648 37.3452L62.4541 37.2417C61.5814 37.0521 60.5098 36.788 59.1764 36.4344L58.9704 36.3832Z" fill="white"/>
<path d="M40.1312 43.9015C39.9473 44.1435 39.6727 44.4203 39.3167 44.7228C38.8757 45.0776 38.2718 45.5639 37.2537 45.9082C36.694 46.0908 36.0587 46.1408 35.4664 46.0536C34.8055 45.9501 34.2796 45.7942 33.8979 45.586C33.8351 45.5545 33.7583 45.5662 33.7095 45.6174C33.5303 45.8093 33.4255 46.0641 33.4302 46.2886C33.4209 46.6504 33.6583 47.0936 34.0515 47.4472C34.3738 47.7462 34.8055 47.9881 35.2605 48.1266C35.4257 48.1847 35.627 48.2033 35.8236 48.2231L35.947 48.2371C36.0226 48.2429 36.0971 48.2545 36.1704 48.2662C36.2914 48.2836 36.4171 48.3034 36.5404 48.3034C36.5648 48.3034 36.5916 48.3034 36.616 48.3011C38.4033 48.322 39.7774 47.8811 40.7816 47.4891C41.9905 46.9261 42.7864 46.4293 43.516 45.4115C44.1652 44.5053 44.3351 43.6712 44.0396 42.8662C43.9255 42.5172 43.6102 42.0554 42.755 41.8437C42.1755 41.6983 41.4623 41.7297 40.8002 41.9332C40.7304 41.9553 40.6839 42.0228 40.6908 42.0961C40.7106 42.3195 40.7036 42.53 40.6676 42.7266C40.5943 43.1431 40.4127 43.5386 40.1312 43.9015Z" fill="white"/>
<path d="M36.7546 23.3975C37.4399 23.3777 38.2183 23.6057 38.9991 24.0489C39.0212 24.064 39.048 24.0687 39.0747 24.0687C39.1015 24.0687 39.1259 24.064 39.1492 24.0489C39.1957 24.0245 39.2272 23.9768 39.2295 23.9233C39.2388 23.7686 39.2923 23.6197 39.3924 23.4696C39.404 23.4533 39.5646 23.2206 39.8718 22.7844C40.0952 22.4831 40.3395 22.0667 40.6502 21.5385C40.8131 21.2617 40.9946 20.9569 41.1982 20.6195C41.7463 19.6168 42.4025 18.3895 43.1135 16.8877C43.8337 15.365 44.6645 13.6003 45.6035 11.6006C45.664 11.4773 45.7222 11.3587 45.7803 11.2377L45.8653 11.0632C45.8944 11.0027 45.8792 10.9271 45.8315 10.8817C45.6012 10.6677 45.2207 10.3675 44.7041 10.1326C44.1874 9.92433 43.644 9.83243 43.2636 9.8778C43.0914 9.88478 42.9657 9.91386 42.8831 9.93596C42.84 9.95108 42.8051 9.98017 42.7842 10.0186C42.2547 11.1144 41.7311 12.2265 41.2343 13.3246L40.9388 13.9784C40.6118 14.7077 40.2988 15.3964 39.9451 16.0676C39.5716 16.7737 39.2097 17.4182 38.8804 18.0138L38.6791 18.3756C37.7634 20.0112 37.298 21.0918 37.0699 21.7026C36.9629 21.9678 36.9 22.1923 36.8488 22.3749C36.8244 22.4668 36.8 22.5518 36.7732 22.6262L36.6743 22.9589C36.6568 23.0438 36.6312 23.116 36.6045 23.1892C36.5847 23.2369 36.594 23.2904 36.6231 23.3323C36.6522 23.373 36.7057 23.3998 36.7546 23.3975Z" fill="white"/>
<path d="M70.1955 51.5455C70.1955 51.5432 70.1955 51.5409 70.1931 51.5409L70.1734 51.1651L70.1256 50.7975C70.0384 50.2764 69.8848 49.7762 69.6742 49.3167C69.4543 48.8165 69.1634 48.3593 68.8306 47.9882C68.6654 47.8184 68.4722 47.6264 68.2779 47.5182C68.2325 47.4868 68.179 47.4496 68.1208 47.4287C68.1057 47.4228 68.0836 47.4112 68.0696 47.4042C68.0452 47.3914 68.0254 47.3821 68.0068 47.3751C67.9847 47.3577 67.9556 47.3461 67.9265 47.3437L67.6554 47.3286C67.6112 47.3286 67.5751 47.3414 67.546 47.3507L67.4948 47.3623C67.4204 47.3845 67.3063 47.4228 67.1993 47.4915C67.0201 47.588 66.7944 47.7462 66.5907 47.9207L66.0229 48.5117C65.8391 48.6931 65.696 48.8967 65.5552 49.0956L65.5121 49.1561C64.9548 49.9367 64.5394 50.8673 64.2415 52.0085C63.989 53.0392 63.8587 54.0256 63.754 54.9388C63.6504 55.8043 63.6283 56.6895 63.6888 57.491C63.7982 58.987 64.3043 60.198 65.0362 60.7273C65.1095 60.7878 65.1817 60.839 65.2503 60.8867L65.3271 60.9379C65.5342 61.0321 65.7181 61.0763 65.9624 61.0926C66.13 61.103 66.3022 61.11 66.4697 61.11C66.685 61.11 66.8933 61.0972 67.0806 61.0542C67.8346 60.8797 68.2907 60.2666 68.5665 59.8199L68.7771 59.4791C69.1029 58.9579 69.4391 58.4217 69.6672 57.811C70.2292 56.2917 70.2606 54.2874 70.2129 52.3482L70.1955 51.5455Z" fill="white"/>
<mask id="mask1_336_203" style="mask-type:luminance" maskUnits="userSpaceOnUse" x="0" y="61" width="20" height="10">
<path d="M0 61.3323H19.2837V70.2221H0V61.3323Z" fill="white"/>
</mask>
<g mask="url(#mask1_336_203)">
<path d="M18.4728 65.7005C18.0656 65.3247 17.5199 64.9757 16.7543 64.5977C16.2853 64.3697 15.7524 64.1545 15.1904 63.9265C14.9263 63.8171 14.654 63.7078 14.3701 63.5891C14.3224 63.5682 14.2666 63.5751 14.2223 63.6042C13.9245 63.8055 13.5929 64.0277 13.2263 64.258C12.79 64.5372 12.3071 64.842 11.7789 65.1747L11.6648 65.2468C11.602 65.284 11.5322 65.3177 11.4589 65.3538L11.3867 65.3899C11.3018 65.4387 11.1994 65.4794 11.09 65.512C10.9772 65.5504 10.8748 65.5818 10.7386 65.5934C10.6223 65.6109 10.5257 65.6155 10.4431 65.6132C10.414 65.6086 10.3826 65.6179 10.3581 65.6353C10.2348 65.6062 10.1091 65.5772 9.96602 65.5457C9.95323 65.5411 9.94159 65.5353 9.92646 65.5329C9.79382 65.5039 9.67281 65.4771 9.5611 65.4387C9.47616 65.4073 9.39122 65.3782 9.30396 65.3491C9.10499 65.2817 8.91882 65.2154 8.74661 65.1363C8.49644 65.0316 8.24977 64.9245 8.02404 64.821C7.93677 64.7791 7.85881 64.7431 7.7762 64.707C7.63308 64.6419 7.47833 64.5709 7.2363 64.4476L7.14904 64.4011C7.08271 64.3673 7.02221 64.3359 6.96868 64.2801C6.89422 64.2219 6.82324 64.1661 6.77088 64.0835C6.73364 64.0381 6.70456 63.9718 6.67314 63.9044L6.65685 63.866C6.65103 63.8392 6.64638 63.8125 6.6394 63.7857C6.62776 63.7252 6.61729 63.667 6.61962 63.631C6.62776 63.5891 6.62776 63.5484 6.63009 63.5065C6.63241 63.4518 6.63474 63.403 6.65103 63.3588L6.75575 63.0703C6.79997 62.9667 6.85233 62.8842 6.914 62.7969C6.95007 62.7411 6.98846 62.6852 7.01988 62.6247C7.08504 62.52 7.13624 62.4619 7.19907 62.3944C7.2235 62.3677 7.24794 62.3432 7.27005 62.3165C7.31077 62.2711 7.35731 62.2246 7.39804 62.1839C7.43411 62.1478 7.45156 62.0966 7.44225 62.0454C7.43178 61.9942 7.39804 61.9512 7.35266 61.9314C6.50559 61.5638 5.65502 61.3789 4.89638 61.4056C3.90037 61.4324 2.92297 61.7721 2.07241 62.3805C1.89787 62.4968 1.72101 62.634 1.53368 62.7992C1.43245 62.8795 1.32074 62.9784 1.2137 63.0761C1.14621 63.1366 1.08105 63.1947 1.0124 63.2506C0.714528 63.5263 0.408511 63.8171 0.244449 64.0765C0.154854 64.2126 0.10133 64.3336 0.0943488 64.4185C0.0652598 64.5302 0.072241 64.6291 0.11762 64.7431C0.193252 64.9443 0.381749 65.184 0.588864 65.3398C0.647042 65.3852 0.707547 65.4271 0.768052 65.4678L0.844848 65.5213C0.869283 65.5376 0.896044 65.5481 0.925133 65.5504C1.20904 65.5667 1.91184 65.7295 3.65718 66.4008L7.84252 67.906C9.55296 68.5028 11.4542 69.195 13.4905 69.9639C13.5684 69.9906 13.651 69.9592 13.6871 69.886C13.7674 69.7219 13.8465 69.566 13.9291 69.4206C14.1549 69.0577 14.4073 68.718 14.6785 68.4179C15.1462 67.8863 15.6628 67.4361 16.2132 67.0766C16.6588 66.7916 17.0905 66.6043 17.4617 66.5322C17.6165 66.5008 17.7165 66.5124 17.784 66.5264C17.7933 66.5299 17.8038 66.5322 17.8084 66.5345C17.8038 66.5415 17.7968 66.5508 17.7863 66.5613C17.7619 66.5904 17.7282 66.6218 17.6898 66.6578C17.6409 66.7067 17.5874 66.7567 17.549 66.8033L17.3965 66.9487C17.2115 67.1232 16.9579 67.3628 16.6903 67.6583C16.2667 68.1247 15.8839 68.6087 15.5511 69.1007C15.3626 69.3753 15.1823 69.6754 15.0322 69.9709C15.0054 70.0244 15.0112 70.0872 15.0473 70.1337C15.0764 70.1744 15.1218 70.1965 15.1706 70.1965C15.18 70.1965 15.1904 70.1965 15.1997 70.1942C16.0235 70.0383 16.8822 69.6928 17.6118 69.3753C18.3053 69.0786 18.7882 68.5237 18.9604 68.1119C19.0523 67.8991 19.0791 67.7025 19.0348 67.4675L19.0162 67.4093C18.9964 67.3465 18.972 67.2662 18.9336 67.2151C18.9115 67.1743 18.8917 67.1325 18.8533 67.072L18.78 66.9824C18.7393 66.9266 18.6986 66.8765 18.659 66.8277C18.6008 66.7544 18.5333 66.6695 18.5043 66.6171C18.5764 66.6067 18.7614 66.609 18.9522 66.6962C19.0162 66.7253 19.0884 66.709 19.1349 66.6555C19.178 66.6043 19.1826 66.5264 19.1465 66.4717C18.965 66.1972 18.744 65.9447 18.4728 65.7005Z" fill="white"/>
</g>
<path d="M37.775 60.3121C37.7575 60.3738 37.4841 60.5773 36.4776 60.7367C35.6968 60.86 34.4565 60.9577 32.9939 60.7169C32.3132 60.5983 31.6511 60.4052 31.0833 60.1551C30.512 59.884 30.0338 59.5734 29.7022 59.2582C28.9912 58.5893 28.9284 58.1309 28.9668 58.0681C28.9749 58.0658 28.9819 58.0635 28.9936 58.0635C29.1076 58.0635 29.4136 58.2066 29.6417 58.3136C29.8081 58.3904 29.9907 58.4753 30.1792 58.5532C30.5574 58.7324 31.0403 58.8917 31.5103 59.0383C32.0095 59.1756 32.582 59.3047 33.2126 59.4187C33.8328 59.5199 34.4483 59.6002 34.9917 59.6723C35.5398 59.7456 36.0587 59.8154 36.4904 59.891C37.6656 60.0946 37.7703 60.3121 37.775 60.3121ZM60.1131 56.5873C60.1003 56.0301 60.1049 55.6078 60.1294 55.2181V55.2158L60.1375 55.0901C60.1375 55.0366 60.1131 54.9854 60.0689 54.9563C60.0258 54.9249 59.97 54.9203 59.9211 54.9389C58.8448 55.3833 57.7464 55.7485 56.5665 56.0545C56.5537 56.0568 56.5421 56.0615 56.5293 56.0684C56.5177 56.0661 56.5025 56.0684 56.4909 56.0731C54.4733 56.5849 52.5615 56.835 50.8709 57.0549C50.0424 57.1643 49.2593 57.2655 48.5344 57.3899L47.877 57.4981C46.4249 57.7412 45.0554 57.9692 43.8185 58.0856C43.5113 58.124 43.1786 58.1507 42.8027 58.1682C42.6864 58.1728 42.57 58.1798 42.4583 58.1868C42.2477 58.1996 42.0441 58.2112 41.8428 58.2112L41.588 58.2089C41.0597 58.2042 40.5582 58.2019 40.1172 58.1775C39.1259 58.1356 38.1892 58.0972 37.4259 58.0169C36.9558 57.9588 36.5579 57.896 36.189 57.8238C35.3001 57.7552 34.3273 57.6342 33.3046 57.4621C32.3132 57.2829 31.2264 57.0503 30.0198 56.5826C29.2879 56.2964 28.691 55.9765 28.1407 55.5764C27.8637 55.3949 27.5833 55.1529 27.2319 54.7958C27.1249 54.6748 27.0202 54.5422 26.9236 54.4038C26.8875 54.3526 26.8247 54.3282 26.7584 54.3433C26.6978 54.3573 26.6525 54.4084 26.642 54.4736C26.5524 55.1576 26.521 55.8265 26.5501 56.457C26.592 57.889 26.941 59.2942 27.5566 60.5238C28.1116 61.6534 28.9598 62.6247 30.0117 63.3378C30.8855 63.9334 31.8932 64.3801 33.1835 64.743C34.1284 65.0071 35.0627 65.1909 35.9668 65.3712L36.3403 65.4457C37.2781 65.6469 38.1101 65.7877 38.9118 65.9261L39.1782 65.9691C39.3842 65.9866 39.5878 66.0064 39.7868 66.025C40.4488 66.0855 41.0725 66.1436 41.6706 66.125C41.8358 66.132 42.001 66.1367 42.1604 66.1367C42.6771 66.1367 43.1669 66.1029 43.6417 66.0715L43.8604 66.0564C44.6889 65.9936 45.4987 65.904 46.4179 65.7737C46.5587 65.7388 46.7018 65.7051 46.8682 65.6713C47.0986 65.6132 47.3511 65.5434 47.6222 65.4631C47.9015 65.3828 48.204 65.2956 48.5368 65.2107C49.776 64.8664 51.4096 64.3138 53.6786 63.4704C54.1661 63.2936 54.6722 63.0993 55.2086 62.8958C56.84 62.2757 58.69 61.5731 60.8857 60.9263C60.9276 60.9135 60.9636 60.8821 60.9834 60.8414C61.002 60.7995 60.9997 60.7541 60.9834 60.7123C60.4552 59.5664 60.1608 58.1775 60.1131 56.5873Z" fill="white"/>
<path d="M69.0876 60.0944C69.0516 60.1305 69.0178 60.1666 68.9864 60.1956C68.9154 60.2538 68.8526 60.3155 68.7874 60.3736C68.6804 60.4725 68.564 60.5621 68.4209 60.6563C67.6693 61.2042 66.4091 61.6114 65.3957 61.2019C65.2013 61.153 65.0315 61.0902 64.8476 60.996C64.6754 60.9262 64.4159 60.7459 64.203 60.5446C63.968 60.3201 63.7667 60.0654 63.6061 59.7838C63.2524 59.1929 62.9929 58.4368 62.8568 57.598C62.7067 56.7546 62.6613 55.8287 62.716 54.8445C62.7579 54.0814 62.8381 52.9251 63.0825 51.7351C63.3594 50.4648 63.819 49.3504 64.452 48.4267L64.4858 48.3755C64.6556 48.1208 64.8209 47.8811 65.0338 47.6682L65.3642 47.2995C65.4201 47.2343 65.4562 47.1925 65.5306 47.118L65.6935 46.9656C66.0042 46.6864 66.266 46.4945 66.5685 46.3281C66.7384 46.2328 66.9246 46.156 67.1142 46.1001L67.1945 46.078C67.269 46.0583 67.3423 46.0373 67.4249 46.0269L67.7274 45.9978C67.7472 45.9978 67.7879 46.0001 67.8031 46.0036C67.8124 46.0036 67.824 46.0059 67.8345 46.0036L68.0428 46.0245C68.1742 46.0513 68.3046 46.085 68.4361 46.1269C68.5082 46.1513 68.5617 46.1781 68.6106 46.2013C68.6513 46.2211 68.6874 46.2409 68.7235 46.2549C68.8282 46.3037 68.9038 46.3468 68.9806 46.4026C69.318 46.6062 69.5752 46.8656 69.8079 47.111C70.2372 47.6008 70.5805 48.1498 70.8551 48.7955C71.1018 49.3771 71.2717 49.9878 71.3589 50.6055C71.374 50.7661 71.388 50.9231 71.4078 51.0708C71.4124 51.2232 71.4171 51.3768 71.4171 51.5315C71.4194 51.7549 71.4171 51.9503 71.4124 52.1492L71.4078 52.3574C71.3834 53.3788 71.3426 54.4618 71.1949 55.4681C71.0994 56.3207 70.8528 57.1955 70.4432 58.1355C70.0837 58.8532 69.645 59.4953 69.1458 60.0363L69.0876 60.0944ZM71.8849 47.5636C71.3345 46.6434 70.6678 45.9152 69.9021 45.4045C68.9015 44.731 67.7367 44.5611 66.7163 44.9322C66.195 45.1009 65.6237 45.4382 65.1094 45.8814C65.0338 45.9501 64.9512 46.0269 64.8721 46.1071L64.7068 46.2595C64.6533 46.313 64.5881 46.391 64.5183 46.4712C64.4695 46.5271 64.4183 46.5817 64.3671 46.6399C64.2926 46.7353 64.21 46.8225 64.1297 46.9121C63.9726 47.0843 63.8097 47.2611 63.698 47.4554C62.2028 49.4015 61.4605 52.3749 61.4314 56.5464C61.4849 58.417 61.9143 59.9874 62.6636 61.0879C62.7218 61.1798 62.7916 61.2647 62.8591 61.3473C62.9056 61.4055 62.9487 61.4613 63.0022 61.5346C63.0685 61.6067 63.1383 61.6765 63.2082 61.7451C63.2617 61.7986 63.3175 61.851 63.3827 61.9219L63.7609 62.2325C63.8586 62.2977 63.9575 62.3605 64.0576 62.421L64.2484 62.542C64.2612 62.549 64.2949 62.5664 64.3066 62.5687L64.4834 62.6606C64.5125 62.6734 64.5416 62.6874 64.5707 62.7025C64.6219 62.7269 64.6731 62.7502 64.7289 62.7723C64.7848 62.7898 64.8383 62.8119 64.8907 62.8328C64.9954 62.8747 65.1024 62.9177 65.2165 62.9398L65.3445 62.9736C65.4631 63.005 65.5842 63.0387 65.7028 63.0492C65.8611 63.0783 66.0228 63.0922 66.2032 63.0969C66.2683 63.1027 66.3312 63.105 66.3963 63.105C67.9241 63.105 69.1505 62.2325 69.7567 61.6986C69.8824 61.5951 69.9941 61.488 70.0918 61.3857L70.5782 60.8482C70.6049 60.8168 70.6678 60.7273 70.705 60.6737C70.7969 60.5528 70.8842 60.4283 70.9668 60.3155C71.26 59.956 71.4636 59.571 71.6626 59.1975C71.7278 59.0742 71.7906 58.9533 71.8639 58.8218C72.6737 57.0408 72.8599 55.3389 72.9961 54.0977C73.0123 53.936 73.0298 53.7836 73.0461 53.6347C73.323 51.2605 72.9518 49.3306 71.8849 47.5636Z" fill="white"/>
<path d="M26.6909 45.1695C26.6013 45.2126 26.5117 45.2545 26.4047 45.3173C25.9753 45.6593 25.5541 46.0176 25.1155 46.4108C24.5255 46.9528 23.7506 47.695 22.9594 48.6501C22.3462 49.3864 21.4642 50.5299 20.8801 51.9852C20.5892 52.7169 20.4309 53.4486 20.4147 54.1582C20.3972 54.4932 20.4309 54.8492 20.5089 55.211C20.5205 55.2738 20.5694 55.3192 20.6299 55.332C20.6404 55.3343 20.652 55.3343 20.659 55.3343C20.7125 55.3343 20.7614 55.3099 20.7905 55.2645C21.6771 53.9186 22.4916 52.5005 23.2793 51.129C24.3906 49.198 25.5367 47.2006 26.8969 45.3952C26.9411 45.3394 26.9306 45.2638 26.8852 45.2079C26.8387 45.1521 26.7537 45.1381 26.6909 45.1695Z" fill="white"/>
<path d="M25.6241 58.2961C25.6148 58.2519 25.588 58.2135 25.5473 58.1914C25.5054 58.1682 25.4577 58.1647 25.4158 58.1821C24.4943 58.5427 23.6972 58.7126 22.9072 58.7126C22.451 58.7079 21.7843 58.6277 21.1711 58.2577C20.587 57.9087 20.203 57.3853 19.9901 57.0119C19.5107 56.0975 19.2827 55.0994 19.3304 54.1269C19.3699 53.2789 19.5712 52.4285 19.9273 51.5968C20.6033 50.0333 21.54 48.8852 22.2788 48.0604C22.5267 47.7894 22.7594 47.516 22.9921 47.2438C23.6367 46.4853 24.2453 45.7699 25.076 45.1987L25.2529 45.0777C26.0895 44.5031 27.1274 43.7853 28.7541 43.2909C29.7501 43.0024 30.8345 42.9803 31.8084 43.2328C32.7055 43.4608 33.6364 43.9214 34.6045 44.6241C34.9919 44.7869 35.3294 44.8951 35.6389 44.9509C36.0834 45.0312 36.5243 45.0196 36.9874 44.9172C37.2423 44.8497 37.4866 44.7695 37.7682 44.6508C37.7705 44.6485 37.8019 44.6264 37.8019 44.6264C37.8182 44.6124 37.838 44.5973 37.8718 44.5752L38.0032 44.4786C38.3476 44.2216 38.7758 43.9017 39.147 43.4561C39.5042 43.0117 39.7998 42.4301 39.3506 41.4809C39.3634 41.4611 39.3681 41.439 39.3704 41.4146C39.3727 41.3645 39.3506 41.3134 39.3099 41.2819C38.9434 41.0051 38.5606 40.7701 38.1708 40.584C37.4726 40.2443 36.6721 39.9756 35.7215 39.765C34.1553 39.4393 32.5066 39.3451 30.8171 39.4812C29.9537 39.551 29.2195 39.6755 28.5702 39.8593C28.4492 39.8976 28.3247 39.9314 28.2014 39.9628C27.978 40.0244 27.7453 40.0873 27.523 40.1745C27.1926 40.3048 26.8703 40.4362 26.5386 40.5689C25.396 41.1028 24.2883 41.8054 23.1469 42.7244C21.4783 44.1413 20.0262 45.8571 18.7102 47.9662C17.6746 49.6308 16.916 51.2583 16.4599 52.7996C16.0526 54.1513 15.8932 55.4775 15.9921 56.6256C16.0096 56.8513 16.0433 57.0886 16.1038 57.3922C16.1213 57.4434 16.1352 57.5016 16.148 57.5854C16.2271 57.9588 16.3319 58.3008 16.4529 58.6067C16.4599 58.623 16.4703 58.6405 16.482 58.6521C16.7973 59.0057 17.1976 59.4326 17.77 59.934C18.7975 60.7879 19.8959 61.3207 21.1269 61.558C21.5737 61.6475 22.0415 61.6941 22.5267 61.6941C23.731 61.6941 25.0353 61.4172 26.3152 60.8821C26.3536 60.8646 26.3862 60.8332 26.4002 60.7948C26.4153 60.7565 26.4153 60.7123 26.3955 60.6739C26.0488 59.9201 25.787 59.1197 25.6241 58.2961Z" fill="white"/>
</svg>
