<svg width="196" height="165" viewBox="0 0 196 165" fill="none" xmlns="http://www.w3.org/2000/svg">
<mask id="mask0_18_434" style="mask-type:luminance" maskUnits="userSpaceOnUse" x="49" y="49" width="67" height="67">
<path d="M49.8156 49.4163H115.386V115.263H49.8156V49.4163Z" fill="white"/>
</mask>
<g mask="url(#mask0_18_434)">
<path d="M92.4364 100.996H81.5081C77.5779 100.996 73.1698 99.3996 69.7175 96.7255C66.4193 94.1692 64.4515 91.0458 64.0855 87.8275H111.49C107.184 96.6841 100.936 100.996 92.4364 100.996ZM97.8012 110.06C97.9294 110.54 98.3616 110.874 98.8568 110.874C100.092 110.874 101.104 111.846 101.175 113.068H72.7691C72.8408 111.846 73.8529 110.874 75.0877 110.874C75.5818 110.874 76.0151 110.54 76.1433 110.06L78.0655 102.855C79.2286 103.075 80.3852 103.192 81.5081 103.192H92.4364C93.6278 103.192 94.7843 103.111 95.9051 102.952L97.8012 110.06ZM56.3728 98.802V87.8275H60.7439V97.7038C60.7439 100.729 63.1961 103.192 66.2086 103.192H75.7121L74.5414 107.581H65.115C60.2954 107.581 56.3728 103.642 56.3728 98.802ZM62.93 91.7808C64.0051 94.2194 65.8535 96.5019 68.3828 98.4628C69.6523 99.4465 71.0413 100.297 72.4922 100.996H66.2086C64.4004 100.996 62.93 99.5196 62.93 97.7038V91.7808ZM53.0942 84.535V60.3907H68.3936V84.535C68.3936 85.1392 67.9039 85.6322 67.3011 85.6322H54.1867C53.585 85.6322 53.0942 85.1392 53.0942 84.535ZM52.0017 56.0012H69.4872V58.1965H52.0017V56.0012ZM72.187 51.9693C72.3955 51.7392 72.68 51.6116 72.9896 51.6116C73.5456 51.6116 74.0082 52.0304 74.0658 52.5855L77.0175 81.2426H74.8433L71.9144 52.809C71.8829 52.4993 71.9796 52.2016 72.187 51.9693ZM70.5797 61.1792L72.7658 82.3964V85.6322H70.3919C70.5135 85.2886 70.5797 84.9189 70.5797 84.535V61.1792ZM113.201 84.535C113.201 85.1392 112.71 85.6322 112.107 85.6322H74.9509V83.4368H112.107C112.71 83.4368 113.201 83.9298 113.201 84.535ZM112.107 81.2426H79.2156L76.2399 52.3597C76.0673 50.6813 74.6696 49.4163 72.9896 49.4163C72.0665 49.4163 71.1825 49.811 70.5645 50.5003C69.9455 51.1884 69.6458 52.1122 69.7414 53.0348L69.8206 53.8058H50.9091C50.3053 53.8058 49.8156 54.2977 49.8156 54.904V59.2936C49.8156 59.9 50.3053 60.3907 50.9091 60.3907V84.535C50.9091 86.3498 52.3796 87.8275 54.1867 87.8275V98.802C54.1867 104.852 59.0899 109.775 65.115 109.775H72.149C71.189 110.607 70.5797 111.835 70.5797 113.205V114.166C70.5797 114.771 71.0695 115.263 71.6722 115.263H102.272C102.875 115.263 103.365 114.771 103.365 114.166V113.205C103.365 111.004 101.792 109.166 99.7169 108.761L98.0575 102.537C100.765 101.873 103.237 100.707 105.446 99.0452C108.975 96.3885 111.921 92.3937 114.201 87.1699C114.221 87.1208 114.239 87.0717 114.253 87.0215C114.946 86.4174 115.386 85.5264 115.386 84.535C115.386 82.7192 113.915 81.2426 112.107 81.2426Z" fill="white"/>
</g>
<path d="M60.7439 64.7802C61.3467 64.7802 61.8375 65.2731 61.8375 65.8784C61.8375 66.4826 61.3467 66.9755 60.7439 66.9755C60.1423 66.9755 59.6514 66.4826 59.6514 65.8784C59.6514 65.2731 60.1423 64.7802 60.7439 64.7802ZM60.7439 69.1698C62.3317 69.1698 63.6598 68.0312 63.9585 66.524L64.6264 66.8599C64.7838 66.9384 64.9511 66.9755 65.114 66.9755C65.5158 66.9755 65.9013 66.753 66.0935 66.3692C66.3629 65.826 66.1446 65.1673 65.6048 64.8958C65.6048 64.8958 63.2873 63.7409 63.2189 63.7223C62.6173 63.0265 61.7311 62.5859 60.7439 62.5859C58.9369 62.5859 57.4653 64.0626 57.4653 65.8784C57.4653 67.6931 58.9369 69.1698 60.7439 69.1698Z" fill="white"/>
<path d="M86.9718 62.0125C86.2854 60.9132 85.3602 59.9829 84.2644 59.2936C85.3602 58.6033 86.2854 57.6741 86.9718 56.5748C87.6592 57.6741 88.5845 58.6033 89.6803 59.2936C88.5845 59.9829 87.6592 60.9132 86.9718 62.0125ZM92.7015 60.3581C93.188 60.2359 93.529 59.7975 93.529 59.2936C93.529 58.7898 93.188 58.3514 92.7015 58.2282C90.397 57.6501 88.6084 55.854 88.0328 53.5398C87.9112 53.0512 87.4735 52.7087 86.9718 52.7087C86.4711 52.7087 86.0335 53.0512 85.9119 53.5398C85.3363 55.854 83.5466 57.6501 81.2432 58.2282C80.7567 58.3514 80.4156 58.7898 80.4156 59.2936C80.4156 59.7975 80.7567 60.2359 81.2432 60.3581C83.5466 60.9361 85.3363 62.7333 85.9119 65.0464C86.0335 65.535 86.4711 65.8786 86.9718 65.8786C87.4735 65.8786 87.9112 65.535 88.0328 65.0464C88.6084 62.7333 90.397 60.9361 92.7015 60.3581Z" fill="white"/>
<path d="M94.6215 75.5399C94.085 74.7711 93.416 74.0993 92.6504 73.5605C93.416 73.0207 94.085 72.3489 94.6215 71.5801C95.159 72.3489 95.828 73.0207 96.5936 73.5605C95.828 74.0993 95.159 74.7711 94.6215 75.5399ZM99.339 72.519C97.6112 71.9399 96.2353 70.5593 95.6586 68.8231C95.5098 68.3748 95.0917 68.0728 94.6215 68.0728C94.1523 68.0728 93.7342 68.3748 93.5854 68.8231C93.0088 70.5593 91.6328 71.9399 89.905 72.519C89.4587 72.6684 89.1578 73.0883 89.1578 73.5605C89.1578 74.0328 89.4587 74.4515 89.905 74.601C91.6328 75.18 93.0088 76.5618 93.5854 78.2969C93.7342 78.7451 94.1523 79.0472 94.6215 79.0472C95.0917 79.0472 95.5098 78.7451 95.6586 78.2969C96.2353 76.5618 97.6112 75.18 99.339 74.601C99.7854 74.4515 100.086 74.0328 100.086 73.5605C100.086 73.0883 99.7854 72.6684 99.339 72.519Z" fill="white"/>
<path d="M109.922 64.7802H108.828V63.6831C108.828 63.0767 108.34 62.5859 107.736 62.5859C107.132 62.5859 106.643 63.0767 106.643 63.6831V64.7802H105.55C104.947 64.7802 104.457 65.272 104.457 65.8784C104.457 66.4837 104.947 66.9755 105.55 66.9755H106.643V68.0726C106.643 68.679 107.132 69.1698 107.736 69.1698C108.34 69.1698 108.828 68.679 108.828 68.0726V66.9755H109.922C110.525 66.9755 111.015 66.4837 111.015 65.8784C111.015 65.272 110.525 64.7802 109.922 64.7802Z" fill="white"/>
<mask id="mask1_18_434" style="mask-type:luminance" maskUnits="userSpaceOnUse" x="49" y="49" width="67" height="67">
<path d="M49.8156 49.4163H115.386V115.263H49.8156V49.4163Z" fill="white"/>
</mask>
<g mask="url(#mask1_18_434)">
<path d="M92.4364 100.996H81.5081C77.5779 100.996 73.1698 99.3996 69.7175 96.7255C66.4193 94.1692 64.4515 91.0458 64.0855 87.8275H111.49C107.184 96.6841 100.936 100.996 92.4364 100.996ZM97.8012 110.06C97.9294 110.54 98.3616 110.874 98.8568 110.874C100.092 110.874 101.104 111.846 101.175 113.068H72.7691C72.8408 111.846 73.8529 110.874 75.0877 110.874C75.5818 110.874 76.0151 110.54 76.1433 110.06L78.0655 102.855C79.2286 103.075 80.3852 103.192 81.5081 103.192H92.4364C93.6278 103.192 94.7843 103.111 95.9051 102.952L97.8012 110.06ZM56.3728 98.802V87.8275H60.7439V97.7038C60.7439 100.729 63.1961 103.192 66.2086 103.192H75.7121L74.5414 107.581H65.115C60.2954 107.581 56.3728 103.642 56.3728 98.802ZM62.93 91.7808C64.0051 94.2194 65.8535 96.5019 68.3828 98.4628C69.6523 99.4465 71.0413 100.297 72.4922 100.996H66.2086C64.4004 100.996 62.93 99.5196 62.93 97.7038V91.7808ZM53.0942 84.535V60.3907H68.3936V84.535C68.3936 85.1392 67.9039 85.6322 67.3011 85.6322H54.1867C53.585 85.6322 53.0942 85.1392 53.0942 84.535ZM52.0017 56.0012H69.4872V58.1965H52.0017V56.0012ZM72.187 51.9693C72.3955 51.7392 72.68 51.6116 72.9896 51.6116C73.5456 51.6116 74.0082 52.0304 74.0658 52.5855L77.0175 81.2426H74.8433L71.9144 52.809C71.8829 52.4993 71.9796 52.2016 72.187 51.9693ZM70.5797 61.1792L72.7658 82.3964V85.6322H70.3919C70.5135 85.2886 70.5797 84.9189 70.5797 84.535V61.1792ZM113.201 84.535C113.201 85.1392 112.71 85.6322 112.107 85.6322H74.9509V83.4368H112.107C112.71 83.4368 113.201 83.9298 113.201 84.535ZM112.107 81.2426H79.2156L76.2399 52.3597C76.0673 50.6813 74.6696 49.4163 72.9896 49.4163C72.0665 49.4163 71.1825 49.811 70.5645 50.5003C69.9455 51.1884 69.6458 52.1122 69.7414 53.0348L69.8206 53.8058H50.9091C50.3053 53.8058 49.8156 54.2977 49.8156 54.904V59.2936C49.8156 59.9 50.3053 60.3907 50.9091 60.3907V84.535C50.9091 86.3498 52.3796 87.8275 54.1867 87.8275V98.802C54.1867 104.852 59.0899 109.775 65.115 109.775H72.149C71.189 110.607 70.5797 111.835 70.5797 113.205V114.166C70.5797 114.771 71.0695 115.263 71.6722 115.263H102.272C102.875 115.263 103.365 114.771 103.365 114.166V113.205C103.365 111.004 101.792 109.166 99.7169 108.761L98.0575 102.537C100.765 101.873 103.237 100.707 105.446 99.0452C108.975 96.3885 111.921 92.3937 114.201 87.1699C114.221 87.1208 114.239 87.0717 114.253 87.0215C114.946 86.4174 115.386 85.5264 115.386 84.535C115.386 82.7192 113.915 81.2426 112.107 81.2426Z" fill="white"/>
</g>
<path d="M60.7439 64.7802C61.3467 64.7802 61.8375 65.2731 61.8375 65.8784C61.8375 66.4826 61.3467 66.9755 60.7439 66.9755C60.1423 66.9755 59.6514 66.4826 59.6514 65.8784C59.6514 65.2731 60.1423 64.7802 60.7439 64.7802ZM60.7439 69.1698C62.3317 69.1698 63.6598 68.0312 63.9585 66.524L64.6264 66.8599C64.7838 66.9384 64.9511 66.9755 65.114 66.9755C65.5158 66.9755 65.9013 66.753 66.0935 66.3692C66.3629 65.826 66.1446 65.1673 65.6048 64.8958C65.6048 64.8958 63.2873 63.7409 63.2189 63.7223C62.6173 63.0265 61.7311 62.5859 60.7439 62.5859C58.9369 62.5859 57.4653 64.0626 57.4653 65.8784C57.4653 67.6931 58.9369 69.1698 60.7439 69.1698Z" fill="white"/>
<path d="M86.9718 62.0125C86.2854 60.9132 85.3602 59.9829 84.2644 59.2936C85.3602 58.6033 86.2854 57.6741 86.9718 56.5748C87.6592 57.6741 88.5845 58.6033 89.6803 59.2936C88.5845 59.9829 87.6592 60.9132 86.9718 62.0125ZM92.7015 60.3581C93.188 60.2359 93.529 59.7975 93.529 59.2936C93.529 58.7898 93.188 58.3514 92.7015 58.2282C90.397 57.6501 88.6084 55.854 88.0328 53.5398C87.9112 53.0512 87.4735 52.7087 86.9718 52.7087C86.4711 52.7087 86.0335 53.0512 85.9119 53.5398C85.3363 55.854 83.5466 57.6501 81.2432 58.2282C80.7567 58.3514 80.4156 58.7898 80.4156 59.2936C80.4156 59.7975 80.7567 60.2359 81.2432 60.3581C83.5466 60.9361 85.3363 62.7333 85.9119 65.0464C86.0335 65.535 86.4711 65.8786 86.9718 65.8786C87.4735 65.8786 87.9112 65.535 88.0328 65.0464C88.6084 62.7333 90.397 60.9361 92.7015 60.3581Z" fill="white"/>
<path d="M94.6215 75.5399C94.085 74.7711 93.416 74.0993 92.6504 73.5605C93.416 73.0207 94.085 72.3489 94.6215 71.5801C95.159 72.3489 95.828 73.0207 96.5936 73.5605C95.828 74.0993 95.159 74.7711 94.6215 75.5399ZM99.339 72.519C97.6112 71.9399 96.2353 70.5593 95.6586 68.8231C95.5098 68.3748 95.0917 68.0728 94.6215 68.0728C94.1523 68.0728 93.7342 68.3748 93.5854 68.8231C93.0088 70.5593 91.6328 71.9399 89.905 72.519C89.4587 72.6684 89.1578 73.0883 89.1578 73.5605C89.1578 74.0328 89.4587 74.4515 89.905 74.601C91.6328 75.18 93.0088 76.5618 93.5854 78.2969C93.7342 78.7451 94.1523 79.0472 94.6215 79.0472C95.0917 79.0472 95.5098 78.7451 95.6586 78.2969C96.2353 76.5618 97.6112 75.18 99.339 74.601C99.7854 74.4515 100.086 74.0328 100.086 73.5605C100.086 73.0883 99.7854 72.6684 99.339 72.519Z" fill="white"/>
<path d="M109.922 64.7802H108.828V63.6831C108.828 63.0767 108.34 62.5859 107.736 62.5859C107.132 62.5859 106.643 63.0767 106.643 63.6831V64.7802H105.55C104.947 64.7802 104.457 65.272 104.457 65.8784C104.457 66.4837 104.947 66.9755 105.55 66.9755H106.643V68.0726C106.643 68.679 107.132 69.1698 107.736 69.1698C108.34 69.1698 108.828 68.679 108.828 68.0726V66.9755H109.922C110.525 66.9755 111.015 66.4837 111.015 65.8784C111.015 65.272 110.525 64.7802 109.922 64.7802Z" fill="white"/>
</svg>
