<svg width="73" height="73" viewBox="0 0 73 73" fill="none" xmlns="http://www.w3.org/2000/svg">
<mask id="mask0_18_459" style="mask-type:luminance" maskUnits="userSpaceOnUse" x="0" y="-1" width="74" height="74">
<path d="M0 -0.0965563H73.1656V72.9389H0V-0.0965563Z" fill="white"/>
</mask>
<g mask="url(#mask0_18_459)">
<path d="M71.8926 0.712869L71.172 0.296734C70.6609 0.00101972 70.0642 -0.0767198 69.4905 0.0772346C68.9182 0.229665 68.4394 0.595497 68.1441 1.10766L61.2513 13.0292L60.064 12.3448C59.8544 12.2229 59.6065 12.1909 59.3755 12.2534C59.1414 12.3159 58.9425 12.4683 58.8232 12.6771L57.3559 15.2151C55.5321 16.023 53.6226 17.7348 52.5195 19.602C52.5011 19.6356 52.4828 19.6721 52.4675 19.7057C51.6229 21.6796 49.6507 22.7421 48.0656 22.9174C47.3756 22.9951 46.8079 23.4494 46.5815 24.1048C46.3566 24.7618 46.5264 25.4691 47.0221 25.9538C48.5017 27.3912 50.4387 28.8195 52.6251 30.0786C54.2438 31.0114 55.9268 31.8041 57.4905 32.3711C57.896 32.5174 58.3106 32.5906 58.7161 32.5906C59.5974 32.5906 60.445 32.2522 61.1213 31.6044C62.0653 30.6989 62.9665 29.478 63.9595 27.7631C65.5277 25.0484 66.2086 22.3016 65.8857 20.0852L67.3316 17.5823C67.5841 17.1479 67.4341 16.593 66.9981 16.3415L65.8108 15.6571L72.7035 3.73404C73.314 2.68074 72.9514 1.32411 71.8926 0.712869ZM59.9416 14.3706L65.3028 17.4634L64.7321 18.4512L59.3694 15.3599L59.9416 14.3706ZM62.3835 26.8562C61.4808 28.4186 60.6791 29.513 59.8605 30.2965C59.377 30.7599 58.7375 30.8956 58.1087 30.6669C57.7981 30.5541 57.4813 30.4291 57.1616 30.2996C58.5386 29.4124 59.8039 28.068 60.7342 26.4553C61.0662 25.8821 61.3508 25.2846 61.5818 24.681C61.7608 24.213 61.5252 23.6887 61.0555 23.5103C60.5858 23.332 60.0625 23.5667 59.8835 24.0347C59.6861 24.5499 59.4444 25.059 59.1598 25.5498C58.1132 27.3607 56.6062 28.7524 55.0762 29.3438C54.559 29.0832 54.0419 28.8042 53.5308 28.51C52.9877 28.196 52.4644 27.8744 51.9595 27.5452C53.7221 27.1092 55.2965 25.9629 56.2589 24.2953C56.574 23.7496 56.8143 23.1674 56.9718 22.5653C57.0973 22.079 56.8066 21.5851 56.3216 21.4571C55.8366 21.3306 55.3408 21.6232 55.2123 22.1065C55.096 22.5515 54.9186 22.9829 54.686 23.3869C53.6441 25.1901 51.6428 26.1672 49.6599 25.8684C49.1902 25.4858 48.751 25.1002 48.3471 24.713C50.4249 24.4524 52.98 23.053 54.1092 20.477C55.1725 18.7057 56.9152 17.3522 58.2464 16.8095L64.0558 20.1599C64.3924 21.9723 63.7804 24.4402 62.3835 26.8562ZM71.1291 2.83012L64.2364 14.7517L62.8226 13.9377L69.7154 2.01462C69.7873 1.89268 69.899 1.84695 69.9602 1.83018C70.0199 1.81341 70.1392 1.79665 70.2631 1.86829L70.9822 2.2829C71.1704 2.39265 71.2378 2.64264 71.1291 2.83012ZM66.9047 35.0234H30.2806V33.7613C30.2806 32.4397 29.205 31.362 27.8785 31.362H24.3717C23.0482 31.362 21.9696 32.4382 21.9696 33.7613V35.0234H13.4351V33.4488C13.4351 32.9473 13.0281 32.5403 12.5263 32.5403C12.026 32.5403 11.6174 32.9473 11.6174 33.4488V35.0234H10.2236V23.332C10.2236 22.111 11.2166 21.1187 12.4391 21.1187C13.6616 21.1187 14.6545 22.111 14.6545 23.332V25.1657C14.6545 25.6657 15.0615 26.0727 15.5634 26.0727C16.0652 26.0727 16.4722 25.6657 16.4722 25.1657V23.332C16.4722 21.1111 14.6622 19.3033 12.4391 19.3033C10.2159 19.3033 8.40593 21.1111 8.40593 23.332V35.0234H7.00902V33.4488C7.00902 32.9473 6.60204 32.5403 6.10019 32.5403C5.59988 32.5403 5.19136 32.9473 5.19136 33.4488V35.0234H2.16039C0.970033 35.0234 0 35.9913 0 37.1803V70.7515C0 71.942 0.970033 72.9099 2.16039 72.9099H66.9032C68.0936 72.9099 69.0636 71.942 69.0636 70.753V37.1803C69.0651 35.9913 68.0951 35.0234 66.9047 35.0234ZM67.2475 37.1803V42.2257H35.4414V36.8388H66.9047C67.0899 36.8388 67.2475 36.9958 67.2475 37.1803ZM33.6237 42.2257H18.6295V36.8388H33.6237V42.2257ZM18.628 49.8762H20.6889C20.8986 49.8762 21.0776 50.0561 21.0776 50.2649V57.4703C21.0776 57.6806 20.8986 57.859 20.6889 57.859H18.628V49.8762ZM16.8119 57.8574H14.7509C14.5413 57.8574 14.3623 57.6806 14.3623 57.4687V50.2649C14.3623 50.0561 14.5398 49.8762 14.7509 49.8762H16.8119V57.8574ZM18.628 59.6729H20.6889C21.9038 59.6729 22.8952 58.6851 22.8952 57.4687V50.2649C22.8952 49.0515 21.9038 48.0623 20.6889 48.0623H18.628V44.0412H33.6222V71.0945H18.628V59.6729ZM23.7888 33.7613C23.7888 33.4457 24.0565 33.1775 24.3732 33.1775H27.88C28.1967 33.1775 28.466 33.4457 28.466 33.7613V35.0234H23.7903V33.7613H23.7888ZM2.16039 36.8388H16.8119V42.2257H1.81766V37.1803C1.81766 36.9958 1.97526 36.8388 2.16039 36.8388ZM1.81766 70.753V44.0412H16.8119V48.0623H14.7509C13.5361 48.0623 12.5446 49.0515 12.5446 50.2649V57.4703C12.5446 58.6851 13.5346 59.6744 14.7509 59.6744H16.8119V71.0945H2.16039C1.97526 71.0945 1.81766 70.9375 1.81766 70.753ZM66.9047 71.0945H35.4414V44.0412H67.2475V70.753C67.2475 70.9375 67.0899 71.0945 66.9047 71.0945ZM6.80706 39.5323C6.80706 39.0308 7.21405 38.6238 7.71589 38.6238H10.9136C11.4155 38.6238 11.8225 39.0308 11.8225 39.5323C11.8225 40.0322 11.4155 40.4392 10.9136 40.4392H7.71589C7.21405 40.4392 6.80706 40.0338 6.80706 39.5323ZM23.6189 39.5323C23.6189 39.0308 24.0259 38.6238 24.5278 38.6238H27.7255C28.2273 38.6238 28.6343 39.0308 28.6343 39.5323C28.6343 40.0322 28.2273 40.4392 27.7255 40.4392H24.5278C24.0244 40.4392 23.6189 40.0338 23.6189 39.5323ZM61.8419 47.073H40.847C39.3093 47.073 38.0577 48.3214 38.0577 49.8579V65.5247C38.0577 67.0596 39.3093 68.3096 40.847 68.3096H61.8419C63.3796 68.3096 64.6296 67.0596 64.6296 65.5247V49.8579C64.6296 48.3199 63.3796 47.073 61.8419 47.073ZM40.847 48.8869H61.8419C62.3774 48.8869 62.8119 49.3229 62.8119 49.8579V52.8333H39.8754V49.8579C39.8754 49.3213 40.3115 48.8869 40.847 48.8869ZM61.8419 66.4941H40.847C40.3099 66.4941 39.8754 66.0582 39.8754 65.5247V54.6488H62.8119V65.5247C62.8119 66.0597 62.3759 66.4941 61.8419 66.4941ZM47.2011 39.5323C47.2011 39.0308 47.6081 38.6238 48.11 38.6238C48.6118 38.6238 49.0188 39.0308 49.0188 39.5323C49.0188 40.0322 48.6118 40.4392 48.11 40.4392C47.6081 40.4392 47.2011 40.0338 47.2011 39.5323ZM53.6685 39.5323C53.6685 39.0308 54.0755 38.6238 54.5774 38.6238C55.0777 38.6238 55.4862 39.0308 55.4862 39.5323C55.4862 40.0322 55.0777 40.4392 54.5774 40.4392C54.0755 40.4392 53.6685 40.0338 53.6685 39.5323ZM40.7337 39.5323C40.7337 39.0308 41.1423 38.6238 41.6426 38.6238C42.1444 38.6238 42.5514 39.0308 42.5514 39.5323C42.5514 40.0322 42.1444 40.4392 41.6426 40.4392C41.1423 40.4392 40.7337 40.0338 40.7337 39.5323ZM60.1344 39.5323C60.1344 39.0308 60.5429 38.6238 61.0432 38.6238C61.5451 38.6238 61.9521 39.0308 61.9521 39.5323C61.9521 40.0322 61.5451 40.4392 61.0432 40.4392C60.5429 40.4392 60.1344 40.0338 60.1344 39.5323ZM1.40609 16.6449C2.53524 16.6449 4.58853 18.6935 4.58853 19.8246C4.58853 20.3245 4.99705 20.7315 5.49736 20.7315C5.99921 20.7315 6.4062 20.3245 6.4062 19.8246C6.4062 18.6951 8.45948 16.6449 9.59017 16.6449C10.092 16.6449 10.499 16.2379 10.499 15.7364C10.499 15.7272 10.499 15.7151 10.499 15.7044C10.4806 15.2181 10.0828 14.8294 9.5917 14.8294C8.46254 14.8294 6.40773 12.7792 6.40773 11.6497C6.40773 11.1498 6.00074 10.7428 5.49889 10.7428C4.99858 10.7428 4.59006 11.1498 4.59006 11.6497C4.59006 12.7777 2.5383 14.8294 1.40762 14.8294C0.905772 14.8294 0.498787 15.2364 0.498787 15.7364C0.498787 16.2379 0.904242 16.6449 1.40609 16.6449ZM5.49583 13.9911C5.96861 14.6511 6.58368 15.2654 7.24312 15.7349C6.58215 16.2059 5.96708 16.8217 5.49583 17.4802C5.02459 16.8202 4.40952 16.2059 3.75008 15.7349C4.41105 15.2654 5.02612 14.6511 5.49583 13.9911ZM30.0358 25.4843C31.165 25.4843 33.2198 27.5345 33.2198 28.664C33.2198 29.164 33.6268 29.571 34.1286 29.571C34.629 29.571 35.0375 29.164 35.0375 28.664C35.0375 27.536 37.0892 25.4843 38.2199 25.4843C38.7218 25.4843 39.1287 25.0773 39.1287 24.5773C39.1287 24.0758 38.7218 23.6689 38.2199 23.6689C37.0908 23.6689 35.0375 21.6202 35.0375 20.4892C35.0375 19.977 34.606 19.5654 34.095 19.5822C33.6084 19.6005 33.2213 19.9983 33.2198 20.4876C33.2198 21.6171 31.1665 23.6673 30.0358 23.6673C29.534 23.6673 29.127 24.0743 29.127 24.5758C29.127 25.0758 29.534 25.4843 30.0358 25.4843ZM34.1286 22.832C34.5999 23.4905 35.215 24.1048 35.8744 24.5758C35.2134 25.0468 34.5984 25.6611 34.1286 26.3196C33.6559 25.6596 33.0408 25.0453 32.3814 24.5758C33.0408 24.1048 33.6559 23.4905 34.1286 22.832ZM38.9497 5.90312C40.0804 5.90312 42.1337 7.9533 42.1337 9.08281C42.1337 9.58431 42.5407 9.9913 43.0425 9.9913C43.5444 9.9913 43.9514 9.58431 43.9514 9.08281C43.9514 7.95483 46.0031 5.90312 47.1338 5.90312C47.6357 5.90312 48.0426 5.49613 48.0426 4.99616C48.0426 4.98549 48.0426 4.97329 48.0426 4.96262C48.0258 4.4779 47.6265 4.0892 47.1353 4.0892C46.0062 4.0892 43.9529 2.03901 43.9529 0.909504C43.9529 0.395814 43.526 -0.0142233 43.0104 0.00101953C42.5239 0.0193112 42.1368 0.417154 42.1352 0.907979C42.1352 2.03596 40.0835 4.08767 38.9513 4.08767C38.4509 4.08767 38.0424 4.49314 38.0424 4.99463C38.0424 5.4946 38.4479 5.90312 38.9497 5.90312ZM43.041 3.25083C43.5138 3.90933 44.1289 4.52362 44.7868 4.99463C44.1273 5.46564 43.5123 6.07994 43.041 6.73844C42.5682 6.07841 41.9532 5.46564 41.2953 4.99463C41.9547 4.52362 42.5698 3.90933 43.041 3.25083Z" fill="white"/>
</g>
</svg>
