<svg width="64" height="64" viewBox="0 0 64 64" fill="none" xmlns="http://www.w3.org/2000/svg">
<path d="M42.2078 23.1785H12.7707L43.2328 15.0317C43.644 14.9225 43.979 14.665 44.1751 14.3078C44.3584 13.9728 44.403 13.5806 44.3012 13.2033L43.1946 9.07899C42.6413 7.01844 40.0561 6.39095 37.8758 6.97392L27.5115 9.7457L27.1384 8.35928C26.9826 7.77843 26.6095 7.29297 26.0859 6.99194C25.5623 6.68985 24.9549 6.61036 24.373 6.76511L15.233 9.20937C14.6521 9.36518 14.1656 9.73828 13.8635 10.2608C13.5614 10.7823 13.4809 11.3897 13.6367 11.9695L14.0087 13.357L3.64344 16.1288C2.61317 16.4043 1.63907 16.9714 0.971297 17.6858C0.138173 18.5762 -0.173454 19.6128 0.0925944 20.6049L1.20025 24.7303C1.302 25.1076 1.53731 25.4256 1.86378 25.6238C2.09485 25.7637 2.35772 25.8358 2.62801 25.8358C2.76474 25.8358 2.9036 25.8178 3.04245 25.7807L4.01337 25.521L7.1519 59.6314C7.35541 61.834 9.20609 63.4939 11.4574 63.4939H35.6795C37.9309 63.4939 39.7816 61.834 39.9851 59.6314L43.2359 24.3031C43.2624 24.0148 43.166 23.7286 42.971 23.5145C42.7749 23.3004 42.4982 23.1785 42.2078 23.1785ZM15.6305 11.4363C15.6146 11.3738 15.6326 11.3229 15.6517 11.2911C15.6697 11.2583 15.7057 11.2169 15.7672 11.2L24.9072 8.75571C24.9697 8.73875 25.0217 8.75783 25.0535 8.77585C25.0863 8.79492 25.1277 8.8299 25.1446 8.89244L25.5167 10.2789L16.0036 12.8228L15.6305 11.4363ZM2.08743 20.0718C1.98567 19.6934 2.28988 19.2959 2.48067 19.0913C2.88558 18.6589 3.52049 18.2942 4.17872 18.1193L38.411 8.96346C39.665 8.62851 41.0206 8.94332 41.1998 9.61215L42.1601 13.1863L3.04669 23.646L2.08743 20.0718ZM37.9298 59.4428C37.8249 60.578 36.8571 61.4334 35.6795 61.4334H11.4585C10.2798 61.4334 9.31314 60.578 9.20821 59.4428L6.0612 25.2391H41.0768L37.9298 59.4428ZM12.228 51.6309C12.2768 52.1609 12.723 52.5668 13.2562 52.5668H16.9438C17.2342 52.5668 17.5108 52.4449 17.7059 52.2308C17.902 52.0178 17.9984 51.7316 17.9719 51.4422L16.1573 31.7249C16.1085 31.195 15.6633 30.789 15.1291 30.789H11.4415C11.1511 30.789 10.8745 30.9109 10.6794 31.125C10.4833 31.3391 10.3869 31.6253 10.4134 31.9136L12.228 51.6309ZM14.1879 32.8495L15.8128 50.5063H14.1985L12.5736 32.8495H14.1879ZM21.7083 52.5668H25.3799C25.9491 52.5668 26.4113 52.1079 26.4123 51.5397L26.4622 31.8225C26.4632 31.5479 26.3551 31.2861 26.1611 31.0921C25.9672 30.8982 25.7043 30.789 25.4298 30.789H21.7581C21.1889 30.789 20.7267 31.249 20.7257 31.8172L20.6759 51.5344C20.6748 51.8079 20.784 52.0708 20.9769 52.2647C21.1709 52.4587 21.4337 52.5668 21.7083 52.5668ZM22.7884 32.8495H24.3952L24.3507 50.5063H22.7428L22.7884 32.8495ZM29.535 52.5668H33.2226C33.7568 52.5668 34.202 52.1609 34.2507 51.6309L36.0654 31.9136C36.0918 31.6253 35.9954 31.3391 35.7993 31.125C35.6043 30.9109 35.3276 30.789 35.0372 30.789H31.3496C30.8165 30.789 30.3702 31.195 30.3215 31.7249L28.5068 51.4422C28.4803 51.7316 28.5768 52.0178 28.7729 52.2319C28.9679 52.4449 29.2445 52.5668 29.535 52.5668ZM32.2909 32.8495H33.9062L32.2813 50.5063H30.667L32.2909 32.8495ZM62.6935 14.8579C61.7332 13.1747 60.3012 11.2901 58.2364 8.99632C58.7304 8.55219 59.0431 7.91198 59.0431 7.19863C59.0431 6.26693 58.5131 5.45819 57.7404 5.05222L58.5417 4.25196C59.1777 3.6181 59.4882 2.8401 59.395 2.11827C59.3144 1.49607 58.9371 0.960796 58.3318 0.60889C58.3138 0.598291 58.2947 0.587691 58.2757 0.578152C56.1526 -0.487103 54.729 0.795442 53.9648 1.48547C53.8037 1.63069 53.5716 1.8395 53.4338 1.92535C53.279 1.82572 53.0172 1.58511 52.836 1.41658C52.1428 0.777423 51.1951 -0.0980996 49.884 0.00895584C49.8405 0.0121358 49.7971 0.0184954 49.7547 0.0269751C49.2724 0.128731 47.8044 0.439298 47.4408 1.66143C47.2012 2.46699 47.5436 3.33827 48.4594 4.25196L49.2607 5.05222C48.488 5.45819 47.958 6.26693 47.958 7.19757C47.958 7.91198 48.2707 8.55219 48.7647 8.99632C46.6999 11.2901 45.2679 13.1747 44.3076 14.8579C42.5968 17.8554 42.565 21.1731 44.2196 23.9597C46.0554 27.0516 49.6105 28.9351 53.5006 28.8737C53.561 28.8747 53.6203 28.8758 53.6797 28.8758C57.4998 28.8758 60.9743 27.0039 62.7815 23.9597C64.4361 21.1731 64.4043 17.8554 62.6935 14.8579ZM50.3864 7.56114C50.1893 7.56114 50.0228 7.39472 50.0228 7.19863C50.0228 7.00148 50.1893 6.83507 50.3864 6.83507H56.6147C56.8119 6.83507 56.9783 7.00148 56.9783 7.19863C56.9783 7.39472 56.8119 7.56114 56.6147 7.56114H50.3864ZM50.1034 2.06103C50.5009 2.06845 50.9948 2.52423 51.4336 2.92913C51.9498 3.40611 52.4841 3.90005 53.1773 3.99651C54.1153 4.12794 54.799 3.50999 55.3491 3.01393C56.1801 2.26454 56.5479 2.02923 57.3153 2.40339C57.3238 2.40869 57.3312 2.41293 57.3365 2.41823C57.3111 2.49879 57.2305 2.64718 57.0821 2.79558L55.099 4.77451H51.9021L49.919 2.79558C49.6688 2.54543 49.5459 2.3716 49.4854 2.26666C49.5893 2.21154 49.778 2.13417 50.1034 2.06103ZM61.0061 22.9093C59.5688 25.3281 56.7737 26.8152 53.6807 26.8152C53.6267 26.8152 53.5716 26.8152 53.5175 26.8142C53.5059 26.8131 53.4942 26.8131 53.4825 26.8142C50.327 26.8672 47.4567 25.3705 45.995 22.9093C44.7103 20.7459 44.7485 18.2487 46.101 15.8775C47.0889 14.1477 48.647 12.1518 50.9863 9.62169H56.0137C58.353 12.1518 59.9122 14.1477 60.9001 15.8775C62.2526 18.2487 62.2897 20.7459 61.0061 22.9093Z" fill="white"/>
</svg>
