<svg width="291" height="244" viewBox="0 0 291 244" fill="none" xmlns="http://www.w3.org/2000/svg">
<path d="M170.651 130.175H146.998C146.521 130.175 146.134 129.788 146.134 129.311C146.134 128.835 146.521 128.448 146.998 128.448H169.787V108.606H147.462C146.985 108.606 146.598 108.219 146.598 107.742C146.598 107.264 146.985 106.877 147.462 106.877H170.651C171.129 106.877 171.516 107.264 171.516 107.742V129.311C171.516 129.788 171.129 130.175 170.651 130.175Z" fill="white"/>
<mask id="mask0_18_357" style="mask-type:luminance" maskUnits="userSpaceOnUse" x="146" y="103" width="28" height="6">
<path d="M146.119 103.628H173.13V108.995H146.119V103.628Z" fill="white"/>
</mask>
<g mask="url(#mask0_18_357)">
<path d="M172.285 108.606H146.998C146.521 108.606 146.134 108.219 146.134 107.742C146.134 107.264 146.521 106.877 146.998 106.877H171.42V105.734H146.998C146.521 105.734 146.134 105.347 146.134 104.87C146.134 104.392 146.521 104.005 146.998 104.005H172.285C172.762 104.005 173.149 104.392 173.149 104.87V107.742C173.149 108.219 172.762 108.606 172.285 108.606Z" fill="white"/>
</g>
<path d="M170.651 115.362H146.998C146.521 115.362 146.134 114.975 146.134 114.497C146.134 114.02 146.521 113.633 146.998 113.633H170.651C171.129 113.633 171.516 114.02 171.516 114.497C171.516 114.975 171.129 115.362 170.651 115.362Z" fill="white"/>
<path d="M170.651 123.418H146.998C146.521 123.418 146.134 123.031 146.134 122.553C146.134 122.077 146.521 121.69 146.998 121.69H170.651C171.129 121.69 171.516 122.077 171.516 122.553C171.516 123.031 171.129 123.418 170.651 123.418Z" fill="white"/>
<path d="M156.824 111.325H154.326C153.849 111.325 153.462 110.938 153.462 110.461C153.462 109.983 153.849 109.596 154.326 109.596H156.824C157.301 109.596 157.688 109.983 157.688 110.461C157.688 110.938 157.301 111.325 156.824 111.325Z" fill="white"/>
<path d="M156.824 126.796H154.326C153.849 126.796 153.462 126.409 153.462 125.932C153.462 125.454 153.849 125.067 154.326 125.067H156.824C157.301 125.067 157.688 125.454 157.688 125.932C157.688 126.409 157.301 126.796 156.824 126.796Z" fill="white"/>
<path d="M156.824 119.391H154.326C153.849 119.391 153.462 119.004 153.462 118.526C153.462 118.049 153.849 117.662 154.326 117.662H156.824C157.301 117.662 157.688 118.049 157.688 118.526C157.688 119.004 157.301 119.391 156.824 119.391Z" fill="white"/>
<path d="M165.194 133.352H161.172C160.16 133.352 159.337 132.528 159.337 131.515V129.31C159.337 128.833 159.724 128.446 160.2 128.446H166.164C166.641 128.446 167.028 128.833 167.028 129.31V131.515C167.03 132.528 166.206 133.352 165.194 133.352ZM161.066 130.175V131.517C161.066 131.575 161.116 131.625 161.174 131.625H165.195C165.252 131.625 165.303 131.575 165.303 131.517V130.175H161.066Z" fill="white"/>
<path d="M149.976 133.352H146.998C146.521 133.352 146.134 132.965 146.134 132.488C146.134 132.01 146.521 131.623 146.998 131.623H149.976C150.032 131.623 150.084 131.573 150.084 131.515V130.175H146.998C146.521 130.175 146.134 129.788 146.134 129.31C146.134 128.833 146.521 128.446 146.998 128.446H150.947C151.424 128.446 151.811 128.833 151.811 129.31V131.515C151.811 132.528 150.987 133.352 149.976 133.352Z" fill="white"/>
<mask id="mask1_18_357" style="mask-type:luminance" maskUnits="userSpaceOnUse" x="117" y="97" width="32" height="40">
<path d="M117.809 97.4348H148.183V136.656H117.809V97.4348Z" fill="white"/>
</mask>
<g mask="url(#mask1_18_357)">
<path d="M146.998 136.366H118.715C118.238 136.366 117.851 135.979 117.851 135.502V98.4621C117.851 97.9847 118.238 97.5977 118.715 97.5977H146.998C147.475 97.5977 147.862 97.9847 147.862 98.4621V135.502C147.86 135.979 147.475 136.366 146.998 136.366ZM119.58 134.637H146.134V99.3265H119.58V134.637Z" fill="white"/>
</g>
<mask id="mask2_18_357" style="mask-type:luminance" maskUnits="userSpaceOnUse" x="137" y="134" width="9" height="7">
<path d="M137.451 134.592H145.706V140.522H137.451V134.592Z" fill="white"/>
</mask>
<g mask="url(#mask2_18_357)">
<path d="M144.742 140.595H140.845C140.524 140.595 140.228 140.416 140.079 140.13L137.874 135.902C137.735 135.633 137.745 135.312 137.901 135.054C138.057 134.795 138.338 134.637 138.641 134.637H144.742C145.218 134.637 145.605 135.025 145.605 135.502V139.73C145.605 140.208 145.219 140.595 144.742 140.595ZM141.369 138.866H143.878V136.366H140.066L141.369 138.866Z" fill="white"/>
</g>
<mask id="mask3_18_357" style="mask-type:luminance" maskUnits="userSpaceOnUse" x="119" y="134" width="9" height="7">
<path d="M119.702 134.592H127.957V140.522H119.702V134.592Z" fill="white"/>
</mask>
<g mask="url(#mask3_18_357)">
<path d="M124.867 140.595H120.971C120.494 140.595 120.107 140.208 120.107 139.73V135.502C120.107 135.025 120.494 134.637 120.971 134.637H127.072C127.374 134.637 127.653 134.795 127.811 135.054C127.967 135.313 127.977 135.633 127.838 135.902L125.632 140.13C125.484 140.416 125.189 140.595 124.867 140.595ZM121.835 138.866H124.342L125.647 136.366H121.835V138.866Z" fill="white"/>
</g>
<path d="M132.856 136.366C132.38 136.366 131.993 135.979 131.993 135.502V98.4621C131.993 97.9847 132.38 97.5977 132.856 97.5977C133.333 97.5977 133.72 97.9847 133.72 98.4621V135.502C133.72 135.979 133.333 136.366 132.856 136.366Z" fill="white"/>
<path d="M138.325 121.6H136.824C136.348 121.6 135.961 121.213 135.961 120.736C135.961 120.258 136.348 119.871 136.824 119.871H137.461V114.094H136.824C136.348 114.094 135.961 113.707 135.961 113.23C135.961 112.753 136.348 112.365 136.824 112.365H138.325C138.802 112.365 139.189 112.753 139.189 113.23V120.736C139.189 121.213 138.802 121.6 138.325 121.6Z" fill="white"/>
<path d="M128.888 121.6H127.388C126.911 121.6 126.524 121.213 126.524 120.736V113.23C126.524 112.753 126.911 112.365 127.388 112.365H128.888C129.365 112.365 129.752 112.753 129.752 113.23C129.752 113.707 129.365 114.094 128.888 114.094H128.253V119.871H128.888C129.365 119.871 129.752 120.258 129.752 120.736C129.752 121.213 129.365 121.6 128.888 121.6Z" fill="white"/>
<path d="M138.594 109.064C138.117 109.064 137.73 108.677 137.73 108.2C137.73 106.498 136.347 105.113 134.644 105.113C134.167 105.113 133.78 104.726 133.78 104.249C133.78 103.771 134.167 103.384 134.644 103.384C136.345 103.384 137.73 102.001 137.73 100.298C137.73 99.8202 138.117 99.4331 138.594 99.4331C139.071 99.4331 139.458 99.8202 139.458 100.298C139.458 101.999 140.842 103.384 142.544 103.384C143.022 103.384 143.409 103.771 143.409 104.249C143.409 104.726 143.022 105.113 142.544 105.113C140.843 105.113 139.458 106.497 139.458 108.2C139.458 108.677 139.071 109.064 138.594 109.064ZM137.395 104.249C137.861 104.574 138.268 104.983 138.594 105.449C138.92 104.983 139.328 104.574 139.795 104.249C139.328 103.923 138.92 103.515 138.594 103.047C138.268 103.517 137.862 103.923 137.395 104.249Z" fill="white"/>
<path d="M153.135 103.078C152.657 103.078 152.27 102.691 152.27 102.213C152.27 100.512 150.887 99.1267 149.184 99.1267C148.707 99.1267 148.32 98.7396 148.32 98.2639C148.32 97.7865 148.707 97.3994 149.184 97.3994C150.885 97.3994 152.27 96.0141 152.27 94.3127C152.27 93.8353 152.657 93.4482 153.135 93.4482C153.612 93.4482 153.999 93.8353 153.999 94.3127C153.999 96.0141 155.382 97.3994 157.085 97.3994C157.562 97.3994 157.949 97.7865 157.949 98.2639C157.949 98.7396 157.562 99.1267 157.085 99.1267C155.384 99.1267 153.999 100.512 153.999 102.213C153.997 102.691 153.612 103.078 153.135 103.078ZM151.933 98.2639C152.399 98.5896 152.807 98.9977 153.133 99.4637C153.46 98.9977 153.867 98.5896 154.334 98.2639C153.865 97.9365 153.46 97.5301 153.133 97.0624C152.807 97.5301 152.401 97.9365 151.933 98.2639Z" fill="white"/>
<mask id="mask4_18_357" style="mask-type:luminance" maskUnits="userSpaceOnUse" x="159" y="90" width="12" height="11">
<path d="M159.74 90.7534H170.06V100.738H159.74V90.7534Z" fill="white"/>
</mask>
<g mask="url(#mask4_18_357)">
<path d="M164.958 100.38C164.481 100.38 164.094 99.9928 164.094 99.5154C164.094 97.814 162.709 96.4287 161.008 96.4287C160.531 96.4287 160.144 96.0416 160.144 95.5643C160.144 95.0885 160.531 94.7014 161.008 94.7014C162.709 94.7014 164.094 93.3161 164.094 91.6147C164.094 91.1373 164.481 90.7502 164.958 90.7502C165.434 90.7502 165.821 91.1373 165.821 91.6147C165.821 93.3161 167.206 94.7014 168.907 94.7014C169.384 94.7014 169.771 95.0885 169.771 95.5643C169.771 96.0416 169.384 96.4287 168.907 96.4287C167.206 96.4287 165.821 97.814 165.821 99.5154C165.821 99.9928 165.434 100.38 164.958 100.38ZM163.757 95.5643C164.224 95.8916 164.631 96.298 164.958 96.7657C165.284 96.298 165.692 95.8916 166.158 95.5643C165.69 95.2385 165.284 94.8305 164.958 94.3644C164.631 94.8321 164.224 95.2385 163.757 95.5643Z" fill="white"/>
</g>
<path d="M170.651 130.175H146.998C146.521 130.175 146.134 129.788 146.134 129.311C146.134 128.835 146.521 128.448 146.998 128.448H169.787V108.606H147.462C146.985 108.606 146.598 108.219 146.598 107.742C146.598 107.264 146.985 106.877 147.462 106.877H170.651C171.129 106.877 171.516 107.264 171.516 107.742V129.311C171.516 129.788 171.129 130.175 170.651 130.175Z" fill="white"/>
<mask id="mask5_18_357" style="mask-type:luminance" maskUnits="userSpaceOnUse" x="146" y="103" width="28" height="6">
<path d="M146.119 103.628H173.13V108.995H146.119V103.628Z" fill="white"/>
</mask>
<g mask="url(#mask5_18_357)">
<path d="M172.285 108.606H146.998C146.521 108.606 146.134 108.219 146.134 107.742C146.134 107.264 146.521 106.877 146.998 106.877H171.42V105.734H146.998C146.521 105.734 146.134 105.347 146.134 104.87C146.134 104.392 146.521 104.005 146.998 104.005H172.285C172.762 104.005 173.149 104.392 173.149 104.87V107.742C173.149 108.219 172.762 108.606 172.285 108.606Z" fill="white"/>
</g>
<path d="M170.651 115.362H146.998C146.521 115.362 146.134 114.975 146.134 114.497C146.134 114.02 146.521 113.633 146.998 113.633H170.651C171.129 113.633 171.516 114.02 171.516 114.497C171.516 114.975 171.129 115.362 170.651 115.362Z" fill="white"/>
<path d="M170.651 123.418H146.998C146.521 123.418 146.134 123.031 146.134 122.553C146.134 122.077 146.521 121.69 146.998 121.69H170.651C171.129 121.69 171.516 122.077 171.516 122.553C171.516 123.031 171.129 123.418 170.651 123.418Z" fill="white"/>
<path d="M156.824 111.325H154.326C153.849 111.325 153.462 110.938 153.462 110.461C153.462 109.983 153.849 109.596 154.326 109.596H156.824C157.301 109.596 157.688 109.983 157.688 110.461C157.688 110.938 157.301 111.325 156.824 111.325Z" fill="white"/>
<path d="M156.824 126.796H154.326C153.849 126.796 153.462 126.409 153.462 125.932C153.462 125.454 153.849 125.067 154.326 125.067H156.824C157.301 125.067 157.688 125.454 157.688 125.932C157.688 126.409 157.301 126.796 156.824 126.796Z" fill="white"/>
<path d="M156.824 119.391H154.326C153.849 119.391 153.462 119.004 153.462 118.526C153.462 118.049 153.849 117.662 154.326 117.662H156.824C157.301 117.662 157.688 118.049 157.688 118.526C157.688 119.004 157.301 119.391 156.824 119.391Z" fill="white"/>
<path d="M165.194 133.352H161.172C160.16 133.352 159.337 132.528 159.337 131.515V129.31C159.337 128.833 159.724 128.446 160.2 128.446H166.164C166.641 128.446 167.028 128.833 167.028 129.31V131.515C167.03 132.528 166.206 133.352 165.194 133.352ZM161.066 130.175V131.517C161.066 131.575 161.116 131.625 161.174 131.625H165.195C165.252 131.625 165.303 131.575 165.303 131.517V130.175H161.066Z" fill="white"/>
<path d="M149.976 133.352H146.998C146.521 133.352 146.134 132.965 146.134 132.488C146.134 132.01 146.521 131.623 146.998 131.623H149.976C150.032 131.623 150.084 131.573 150.084 131.515V130.175H146.998C146.521 130.175 146.134 129.788 146.134 129.31C146.134 128.833 146.521 128.446 146.998 128.446H150.947C151.424 128.446 151.811 128.833 151.811 129.31V131.515C151.811 132.528 150.987 133.352 149.976 133.352Z" fill="white"/>
<mask id="mask6_18_357" style="mask-type:luminance" maskUnits="userSpaceOnUse" x="117" y="97" width="32" height="40">
<path d="M117.809 97.4348H148.183V136.656H117.809V97.4348Z" fill="white"/>
</mask>
<g mask="url(#mask6_18_357)">
<path d="M146.998 136.366H118.715C118.238 136.366 117.851 135.979 117.851 135.502V98.4621C117.851 97.9847 118.238 97.5977 118.715 97.5977H146.998C147.475 97.5977 147.862 97.9847 147.862 98.4621V135.502C147.86 135.979 147.475 136.366 146.998 136.366ZM119.58 134.637H146.134V99.3265H119.58V134.637Z" fill="white"/>
</g>
<mask id="mask7_18_357" style="mask-type:luminance" maskUnits="userSpaceOnUse" x="137" y="134" width="9" height="7">
<path d="M137.451 134.592H145.706V140.522H137.451V134.592Z" fill="white"/>
</mask>
<g mask="url(#mask7_18_357)">
<path d="M144.742 140.595H140.845C140.524 140.595 140.228 140.416 140.079 140.13L137.874 135.902C137.735 135.633 137.745 135.312 137.901 135.054C138.057 134.795 138.338 134.637 138.641 134.637H144.742C145.218 134.637 145.605 135.025 145.605 135.502V139.73C145.605 140.208 145.219 140.595 144.742 140.595ZM141.369 138.866H143.878V136.366H140.066L141.369 138.866Z" fill="white"/>
</g>
<mask id="mask8_18_357" style="mask-type:luminance" maskUnits="userSpaceOnUse" x="119" y="134" width="9" height="7">
<path d="M119.702 134.592H127.957V140.522H119.702V134.592Z" fill="white"/>
</mask>
<g mask="url(#mask8_18_357)">
<path d="M124.867 140.595H120.971C120.494 140.595 120.107 140.208 120.107 139.73V135.502C120.107 135.025 120.494 134.637 120.971 134.637H127.072C127.374 134.637 127.653 134.795 127.811 135.054C127.967 135.313 127.977 135.633 127.838 135.902L125.632 140.13C125.484 140.416 125.189 140.595 124.867 140.595ZM121.835 138.866H124.342L125.647 136.366H121.835V138.866Z" fill="white"/>
</g>
<path d="M132.856 136.366C132.38 136.366 131.993 135.979 131.993 135.502V98.4621C131.993 97.9847 132.38 97.5977 132.856 97.5977C133.333 97.5977 133.72 97.9847 133.72 98.4621V135.502C133.72 135.979 133.333 136.366 132.856 136.366Z" fill="white"/>
<path d="M138.325 121.6H136.824C136.348 121.6 135.961 121.213 135.961 120.736C135.961 120.258 136.348 119.871 136.824 119.871H137.461V114.094H136.824C136.348 114.094 135.961 113.707 135.961 113.23C135.961 112.753 136.348 112.365 136.824 112.365H138.325C138.802 112.365 139.189 112.753 139.189 113.23V120.736C139.189 121.213 138.802 121.6 138.325 121.6Z" fill="white"/>
<path d="M128.888 121.6H127.388C126.911 121.6 126.524 121.213 126.524 120.736V113.23C126.524 112.753 126.911 112.365 127.388 112.365H128.888C129.365 112.365 129.752 112.753 129.752 113.23C129.752 113.707 129.365 114.094 128.888 114.094H128.253V119.871H128.888C129.365 119.871 129.752 120.258 129.752 120.736C129.752 121.213 129.365 121.6 128.888 121.6Z" fill="white"/>
<path d="M138.594 109.064C138.117 109.064 137.73 108.677 137.73 108.2C137.73 106.498 136.347 105.113 134.644 105.113C134.167 105.113 133.78 104.726 133.78 104.249C133.78 103.771 134.167 103.384 134.644 103.384C136.345 103.384 137.73 102.001 137.73 100.298C137.73 99.8202 138.117 99.4331 138.594 99.4331C139.071 99.4331 139.458 99.8202 139.458 100.298C139.458 101.999 140.842 103.384 142.544 103.384C143.022 103.384 143.409 103.771 143.409 104.249C143.409 104.726 143.022 105.113 142.544 105.113C140.843 105.113 139.458 106.497 139.458 108.2C139.458 108.677 139.071 109.064 138.594 109.064ZM137.395 104.249C137.861 104.574 138.268 104.983 138.594 105.449C138.92 104.983 139.328 104.574 139.795 104.249C139.328 103.923 138.92 103.515 138.594 103.047C138.268 103.517 137.862 103.923 137.395 104.249Z" fill="white"/>
<path d="M153.135 103.078C152.657 103.078 152.27 102.691 152.27 102.213C152.27 100.512 150.887 99.1267 149.184 99.1267C148.707 99.1267 148.32 98.7396 148.32 98.2639C148.32 97.7865 148.707 97.3994 149.184 97.3994C150.885 97.3994 152.27 96.0141 152.27 94.3127C152.27 93.8353 152.657 93.4482 153.135 93.4482C153.612 93.4482 153.999 93.8353 153.999 94.3127C153.999 96.0141 155.382 97.3994 157.085 97.3994C157.562 97.3994 157.949 97.7865 157.949 98.2639C157.949 98.7396 157.562 99.1267 157.085 99.1267C155.384 99.1267 153.999 100.512 153.999 102.213C153.997 102.691 153.612 103.078 153.135 103.078ZM151.933 98.2639C152.399 98.5896 152.807 98.9977 153.133 99.4637C153.46 98.9977 153.867 98.5896 154.334 98.2639C153.865 97.9365 153.46 97.5301 153.133 97.0624C152.807 97.5301 152.401 97.9365 151.933 98.2639Z" fill="white"/>
<mask id="mask9_18_357" style="mask-type:luminance" maskUnits="userSpaceOnUse" x="159" y="90" width="12" height="11">
<path d="M159.74 90.7534H170.06V100.738H159.74V90.7534Z" fill="white"/>
</mask>
<g mask="url(#mask9_18_357)">
<path d="M164.958 100.38C164.481 100.38 164.094 99.9928 164.094 99.5154C164.094 97.814 162.709 96.4287 161.008 96.4287C160.531 96.4287 160.144 96.0416 160.144 95.5643C160.144 95.0885 160.531 94.7014 161.008 94.7014C162.709 94.7014 164.094 93.3161 164.094 91.6147C164.094 91.1373 164.481 90.7502 164.958 90.7502C165.434 90.7502 165.821 91.1373 165.821 91.6147C165.821 93.3161 167.206 94.7014 168.907 94.7014C169.384 94.7014 169.771 95.0885 169.771 95.5643C169.771 96.0416 169.384 96.4287 168.907 96.4287C167.206 96.4287 165.821 97.814 165.821 99.5154C165.821 99.9928 165.434 100.38 164.958 100.38ZM163.757 95.5643C164.224 95.8916 164.631 96.298 164.958 96.7657C165.284 96.298 165.692 95.8916 166.158 95.5643C165.69 95.2385 165.284 94.8305 164.958 94.3644C164.631 94.8321 164.224 95.2385 163.757 95.5643Z" fill="white"/>
</g>
</svg>
