<svg width="210" height="176" viewBox="0 0 210 176" fill="none" xmlns="http://www.w3.org/2000/svg">
<path d="M124.639 56.4588C124.605 56.5123 124.585 56.5565 124.565 56.6042C124.554 56.6391 124.556 56.6798 124.569 56.7135C124.59 56.7763 124.614 56.8427 124.636 56.9148C124.65 56.9753 124.672 57.0404 124.694 57.1067C124.741 57.2393 124.784 57.3778 124.801 57.5302C124.963 58.3305 124.963 59.4065 124.796 61.0235L124.782 61.1608C124.712 61.8378 124.646 62.4776 124.602 63.2628L124.59 63.4303C124.547 64.2074 124.498 65.0124 124.403 65.8709C124.365 66.3234 124.321 66.7969 124.272 67.2715L124.205 67.8217C124.168 68.1218 124.129 68.4231 124.093 68.7326C124.023 69.3945 123.918 70.0541 123.807 70.7544C123.751 71.0987 123.696 71.4453 123.647 71.7897C123.462 72.7005 123.274 73.5928 123.088 74.4571C122.851 75.5634 122.629 76.608 122.437 77.6107C122.045 79.6442 121.768 81.1518 121.56 82.3639C121.347 83.7622 121.166 84.8917 120.936 85.6816C120.864 85.948 120.784 86.1737 120.721 86.3598C120.687 86.4575 120.656 86.5448 120.638 86.6076C120.58 86.7413 120.544 86.8309 120.522 86.8763C120.497 86.9251 120.5 86.9833 120.526 87.0263C120.556 87.0729 120.604 87.102 120.658 87.102C120.846 87.1043 121.119 87.1485 121.405 87.1939C121.756 87.252 122.115 87.3102 122.417 87.3102C122.578 87.3102 122.721 87.2939 122.84 87.252C123.305 87.0903 123.356 86.8286 123.407 86.5494C123.431 86.4284 123.453 86.3016 123.511 86.1644C123.511 86.1644 123.545 86.0841 123.605 85.9166C123.625 85.8654 123.65 85.8072 123.676 85.7398C123.732 85.6013 123.802 85.4315 123.862 85.2163C124.045 84.6684 124.316 83.704 124.59 82.2301C124.65 81.8811 124.716 81.5077 124.786 81.1157L124.999 79.9129C125.164 79.0579 125.344 78.1203 125.536 77.1047C125.972 74.8142 126.413 72.4411 126.847 70.0494L126.854 70.0052C127.095 68.6895 127.319 67.446 127.502 66.2559L127.523 66.1152C127.706 64.9926 127.878 63.934 127.986 62.9697C128.216 60.8874 128.171 59.2274 127.851 58.0304C127.706 57.4801 127.502 56.9683 127.234 56.4983C127.116 56.3192 127.01 56.1517 126.896 55.9772L126.816 55.8899C126.721 55.7876 126.636 55.6957 126.565 55.6259C126.484 55.5188 126.391 55.4293 126.272 55.3374C126.222 55.2978 126.153 55.2932 126.1 55.3246L125.943 55.4118C125.815 55.4851 125.688 55.5549 125.565 55.6305C125.128 55.8969 124.791 56.197 124.639 56.4588Z" fill="white"/>
<path d="M113.421 61.8668L113.988 62.1135C114.25 62.2275 114.481 62.3298 114.68 62.4147C114.698 62.4217 114.72 62.4264 114.74 62.4264C114.796 62.4264 114.85 62.3973 114.879 62.3438L115.002 62.1111C115.114 61.9076 115.223 61.704 115.324 61.5051C115.797 60.5872 116.282 59.7729 116.672 59.118C117.031 58.5247 117.513 57.7628 118.076 57.116C118.6 56.539 119.164 56.0842 119.746 55.7608C120.687 55.2617 121.625 54.986 122.54 54.9372C122.82 54.9232 123.092 54.9372 123.373 54.9837C123.504 55.0023 123.596 55.0291 123.634 55.0419C123.64 55.0419 123.65 55.0442 123.659 55.0465C123.757 55.0756 123.86 55.1186 123.963 55.1791C124.008 55.2036 124.061 55.2059 124.11 55.1815L124.171 55.1524C124.426 55.0244 124.714 54.8813 125.003 54.7092C125.095 54.6557 125.171 54.6033 125.242 54.5521L125.296 54.5126C125.33 54.4893 125.352 54.4451 125.357 54.4044C125.363 54.3602 125.346 54.3148 125.319 54.2799C125.29 54.2439 125.23 54.1717 125.124 54.0891C124.912 53.8925 124.683 53.7227 124.42 53.5703C124.052 53.3446 123.598 53.1585 123.088 53.0201C122.534 52.8456 121.877 52.749 121.133 52.7269C119.497 52.6885 117.754 53.347 116.34 54.5184C115.557 55.1652 114.859 55.9597 114.265 56.8857C113.731 57.7465 113.186 58.7109 112.655 59.6438L111.903 61.084C111.884 61.1247 111.881 61.1712 111.899 61.2119C111.916 61.2538 111.95 61.2852 111.991 61.2992C112.384 61.4399 112.863 61.6295 113.421 61.8668Z" fill="white"/>
<path d="M82.8934 112.252C83.0318 112.281 83.168 112.31 83.3041 112.342C83.4635 112.391 83.6217 112.456 83.7881 112.527L84.029 112.626C84.2373 112.713 84.4525 112.802 84.6783 112.934C84.7946 113.006 84.9308 113.091 85.0948 113.227C85.1006 113.229 85.1216 113.249 85.1262 113.251C85.153 113.268 85.1821 113.278 85.2135 113.278C85.2531 113.278 85.2915 113.261 85.3229 113.232L85.3764 113.173C85.4323 113.115 85.4369 113.026 85.3857 112.965C84.783 112.238 84.5107 111.686 84.3804 111.324C84.3781 111.308 84.3722 111.292 84.3653 111.278C84.3292 111.205 84.2931 111.131 84.2512 111.039C84.2303 110.997 84.1907 110.966 84.1477 110.954C84.1011 110.943 84.0523 110.954 84.0162 110.983C83.7544 111.181 83.5054 111.397 83.2645 111.608C83.1191 111.734 82.9736 111.86 82.8259 111.981C82.7805 112.019 82.7607 112.08 82.7747 112.138C82.7898 112.196 82.8352 112.241 82.8934 112.252Z" fill="white"/>
<path d="M97.6894 91.2687C97.6999 91.2687 97.7069 91.2687 97.7162 91.2653C98.1502 91.1885 98.5865 91.1326 99.0135 91.0989C99.5465 91.0524 100.097 91.0279 100.655 91.0279C100.708 91.0279 100.757 90.9989 100.786 90.9558C102.779 87.7638 104.345 84.2902 105.858 80.9306C106.277 80.0058 106.694 79.0775 107.12 78.1539C107.152 78.0853 107.131 78.0038 107.067 77.962C106.527 77.5967 105.502 77.015 104.694 77.2477C104.328 77.3512 104.052 77.6106 103.871 78.0131L103.824 78.1248C103.571 78.696 103.334 79.2392 103.05 79.7825C102.718 80.4269 102.372 81.0621 102.023 81.6996C101.544 82.5767 101.047 83.4829 100.602 84.3926C100.17 85.2627 99.8036 86.1736 99.4499 87.053C98.9088 88.3966 98.3491 89.7844 97.5591 91.0303C97.5253 91.0838 97.5277 91.1489 97.5614 91.2001C97.5905 91.2443 97.6394 91.2687 97.6894 91.2687Z" fill="white"/>
<path d="M76.2366 116.278V116.28L76.7777 116.515C76.8964 116.569 77.015 116.629 77.136 116.688C77.6143 116.923 78.1355 117.18 78.6778 117.18C78.9175 117.18 79.1653 117.129 79.4131 117.001C79.6645 116.85 79.91 116.712 80.1473 116.578L80.2079 116.542C80.458 116.397 80.6931 116.267 80.9176 116.14L80.9618 116.115C81.148 116.016 81.333 115.915 81.5169 115.811C81.9776 115.553 82.4524 115.287 82.9376 115.093C83.0225 115.061 83.1505 115.032 83.2843 115.001C83.723 114.902 84.3245 114.764 84.3094 114.265C84.3024 113.777 83.3716 113.394 82.9736 113.251L82.7514 113.173C82.6583 113.14 82.5687 113.111 82.4896 113.081C82.2615 112.983 82.0451 112.936 81.8566 112.894C81.7717 112.878 81.6914 112.86 81.6158 112.842L81.468 112.802C81.454 112.798 81.4389 112.798 81.4273 112.798H81.3831C81.3621 112.798 81.3423 112.8 81.3225 112.81C80.9153 112.977 80.4894 113.164 80.0159 113.382L79.6668 113.551L78.6219 114.102C78.103 114.392 77.5002 114.748 76.9522 115.193C76.7986 115.309 76.6636 115.43 76.5473 115.551C76.467 115.619 76.4065 115.694 76.3553 115.757L76.3076 115.815C76.2517 115.873 76.2168 115.912 76.1982 115.954L76.147 116.039C76.1272 116.075 76.1203 116.115 76.1296 116.157C76.1424 116.206 76.1877 116.254 76.2366 116.278Z" fill="white"/>
<path d="M117.875 104.649C118.025 104.586 118.18 104.521 118.318 104.438L118.497 104.337C118.636 104.261 118.77 104.187 118.908 104.107C119.05 104.022 119.201 103.942 119.347 103.861C119.574 103.74 119.81 103.615 120.018 103.469C120.244 103.317 120.466 103.168 120.685 103.023C121.155 102.708 121.601 102.412 122.001 102.123C122.638 101.68 123.175 101.322 123.64 101.026C124.079 100.743 124.536 100.454 124.932 100.264C125.415 100.022 125.688 99.9085 125.844 99.8573C125.737 99.9794 125.529 100.188 125.124 100.532C124.793 100.796 124.391 101.157 124.001 101.506C123.778 101.7 123.538 101.908 123.283 102.129C123.036 102.344 122.775 102.57 122.498 102.807C122.01 103.237 121.46 103.662 120.878 104.116L120.622 104.317C120.386 104.503 120.132 104.664 119.862 104.834C119.734 104.914 119.603 104.995 119.477 105.078C119.327 105.17 119.179 105.263 119.029 105.36L118.855 105.469C118.723 105.552 118.585 105.617 118.439 105.686C118.36 105.726 118.282 105.764 118.206 105.803C118.063 105.874 117.918 105.946 117.77 106.019C117.465 106.169 117.152 106.326 116.832 106.465C116.505 106.603 116.17 106.738 115.83 106.877L115.365 107.064C114.955 107.228 114.546 107.378 114.129 107.531L113.472 107.769C113.387 107.802 113.304 107.825 113.225 107.849C113.167 107.865 113.109 107.883 113.053 107.903L112.212 108.144C110.167 108.614 107.986 108.719 105.714 108.457C105.392 108.431 105.059 108.368 104.737 108.306C104.57 108.272 104.405 108.241 104.247 108.217C103.932 108.156 103.641 108.074 103.363 107.994C103.224 107.955 103.088 107.916 102.958 107.883C102.114 107.626 101.38 107.352 100.645 107.024C99.2101 106.375 98.206 105.655 97.7336 104.937C97.6416 104.819 97.5835 104.678 97.5299 104.552C97.5102 104.507 97.4915 104.46 97.4834 104.456L97.4671 104.371C97.438 104.232 97.4113 104.1 97.4136 104.042C97.4159 104.019 97.4182 104 97.4229 103.983C97.4299 104.002 97.438 104.022 97.445 104.046C97.4764 104.116 97.5206 104.177 97.5614 104.235C97.5858 104.268 97.6126 104.308 97.637 104.349C97.644 104.361 97.651 104.373 97.6603 104.382C97.6952 104.416 97.7266 104.456 97.7603 104.494C97.8232 104.574 97.8953 104.666 97.993 104.74C98.5236 105.25 99.5464 105.769 100.953 106.239C101.634 106.467 102.427 106.69 103.198 106.867C103.356 106.896 103.513 106.93 103.676 106.966C103.949 107.022 104.231 107.082 104.511 107.122C104.674 107.136 104.835 107.16 104.997 107.182C105.265 107.221 105.545 107.259 105.84 107.272C107.993 107.429 110.027 107.291 111.901 106.86L112.762 106.61C112.852 106.586 112.946 106.561 113.022 106.532L114.143 106.136C114.405 106.04 114.665 105.948 114.922 105.854C115.358 105.689 115.79 105.527 116.212 105.369L116.349 105.315C116.655 105.194 116.946 105.064 117.233 104.933C117.383 104.868 117.528 104.8 117.678 104.734C117.743 104.705 117.81 104.676 117.875 104.649ZM101.009 97.7296C101.057 97.6691 101.05 97.5819 100.996 97.5284C100.943 97.4725 100.859 97.4656 100.795 97.5098C100.165 97.9646 99.5371 98.5102 98.875 99.1768C98.1187 99.9527 97.4764 100.727 96.9668 101.484C96.4024 102.313 96.0045 103.107 95.7892 103.843C95.5472 104.655 95.5391 105.403 95.7695 106.011C95.8928 106.337 96.0627 106.617 96.2768 106.858C96.5013 107.093 96.7376 107.335 97.0087 107.529C97.4694 107.885 98.0093 108.196 98.6621 108.481C99.7477 108.959 100.779 109.24 101.746 109.487C103.765 109.97 105.623 110.192 107.668 110.192C107.914 110.192 108.16 110.187 108.413 110.183C108.759 110.178 109.106 110.163 109.467 110.149C109.668 110.14 109.877 110.131 110.093 110.124C110.299 110.115 110.509 110.093 110.722 110.071L111.019 110.042C111.305 110.02 111.62 109.981 112.01 109.921C113.043 109.782 114.195 109.565 115.412 109.335C115.812 109.259 116.224 109.18 116.651 109.102C117.501 108.941 118.437 108.791 119.439 108.659L119.513 108.646C120.461 108.516 121.444 108.375 122.464 108.164C122.978 108.069 123.529 107.948 124.149 107.793C124.178 107.786 124.205 107.771 124.224 107.749L124.359 107.611C124.573 107.386 124.796 107.156 124.983 106.906C125.092 106.758 125.201 106.615 125.31 106.472C125.489 106.241 125.657 106.026 125.807 105.787C125.907 105.624 126.004 105.467 126.1 105.311C126.229 105.105 126.355 104.904 126.474 104.7L126.717 104.247C126.82 104.053 126.923 103.867 127.022 103.68C127.708 102.306 128.185 101.166 128.471 100.488L128.84 99.6397L128.869 99.5688C128.923 99.3245 128.981 99.0558 129.029 98.7522C129.121 98.188 129.218 97.4318 129.145 96.5757C129.097 96.2197 129.017 95.752 128.818 95.3181C128.63 94.9087 128.314 94.5353 127.909 94.2375C127.521 93.9536 126.93 93.7675 126.31 93.5849C126.149 93.5372 125.984 93.4883 125.817 93.4418L125.654 93.3894C125.536 93.3522 125.417 93.3138 125.298 93.2777C124.963 93.1661 124.619 93.0544 124.265 92.9427C124.025 92.8683 123.786 92.7857 123.538 92.7031C123.055 92.5402 122.558 92.3739 122.023 92.2308C121.766 92.1575 121.506 92.0854 121.245 92.0121C120.685 91.855 120.11 91.6922 119.495 91.5037C118.839 91.292 118.204 91.0303 117.591 90.779C117.315 90.6627 117.038 90.5487 116.754 90.437L116.508 90.3428C115.537 89.9647 114.207 89.4482 113.246 89.8426C111.632 90.5045 109.872 91.3851 107.869 92.5356C107.82 92.5623 107.791 92.6135 107.791 92.667C107.789 92.7205 107.816 92.7706 107.86 92.7996C108.187 93.0137 108.48 93.244 108.735 93.4836C108.773 93.522 108.829 93.5372 108.883 93.522C109.697 93.294 110.522 93.2847 111.329 93.493C111.819 93.6267 112.255 93.8524 112.59 94.1432C112.922 94.4282 113.183 94.8354 113.308 95.2646C113.588 96.1569 113.371 96.9491 113.212 97.3423C112.585 98.9173 111.111 99.8142 109.688 100.677L109.382 100.864C108.469 101.349 107.006 102 104.88 102.056C104.728 102.071 104.563 102.054 104.39 102.034C104.298 102.027 104.204 102.015 104.119 102.013C104.052 102.005 103.985 102 103.92 101.993C103.707 101.976 103.508 101.962 103.276 101.891C102.645 101.722 102.083 101.423 101.602 101.004C101.334 100.769 101.108 100.503 100.922 100.192C100.75 99.8724 100.577 99.485 100.587 99.0244C100.591 98.5637 100.732 98.1054 100.975 97.7831C100.987 97.7634 100.999 97.7447 101.009 97.7296Z" fill="white"/>
<path d="M127.261 89.1085C126.245 88.8538 125.095 88.5629 123.786 88.3454C122.101 88.0592 120.539 88.0127 119.014 88.2047C118.678 88.2384 118.345 88.3035 117.993 88.3745L117.656 88.4396C117.228 88.5513 116.786 88.663 116.338 88.7747C116.272 88.7886 116.224 88.8491 116.221 88.9178C116.217 88.9852 116.26 89.048 116.326 89.0701C116.517 89.1376 116.706 89.2086 116.888 89.2784L117.17 89.3831C117.504 89.5157 117.828 89.6518 118.143 89.7821C118.738 90.0298 119.295 90.2648 119.828 90.4393C120.367 90.6115 120.913 90.7732 121.443 90.9314C121.748 91.021 122.05 91.1105 122.345 91.2001C122.849 91.3432 123.334 91.5177 123.802 91.6875C124.077 91.7841 124.343 91.8818 124.602 91.9667C124.86 92.0563 125.111 92.1459 125.356 92.2354L126.653 92.681C127.261 92.8845 127.89 93.0928 128.435 93.5127C128.95 93.9199 129.342 94.434 129.567 94.9982C129.787 95.5729 129.841 96.1255 129.863 96.5349C129.872 97.5121 129.684 98.2973 129.521 98.8615L129.5 98.9418C129.463 99.3896 129.346 99.9864 129.158 100.72C128.865 101.823 128.471 102.939 127.952 104.123L127.419 105.221C127.269 105.503 127.099 105.789 126.925 106.082L126.735 106.4C126.656 106.538 126.561 106.673 126.466 106.811C126.428 106.867 126.43 106.939 126.471 106.993C126.5 107.032 126.547 107.053 126.592 107.053C126.612 107.053 126.629 107.051 126.646 107.044C127.24 106.833 127.863 106.579 128.5 106.29C128.549 106.268 128.583 106.223 128.59 106.169C128.692 105.333 128.806 104.635 128.946 104.031C129.335 102.279 130.055 100.701 131.036 99.4559C131.179 99.2372 131.366 99.0453 131.543 98.8592C131.637 98.7603 131.732 98.6626 131.817 98.566C131.868 98.5125 131.912 98.4636 131.957 98.4136C132.042 98.3241 132.125 98.2333 132.232 98.1344L132.362 98.0204C132.456 97.9378 132.547 97.8587 132.648 97.7761C133.306 97.2399 133.975 96.8769 134.695 96.6629C135.414 96.4407 136.193 96.4139 136.889 96.5884C137.342 96.692 137.788 96.8746 138.213 97.1259C138.256 97.1526 138.312 97.155 138.358 97.134C138.406 97.1119 138.438 97.0654 138.445 97.0142C138.605 95.8998 138.372 94.8621 137.772 94.0141C137.218 93.2219 136.407 92.5216 135.291 91.8737C133.667 90.9558 132.219 90.4661 131.056 90.0706L130.745 89.967C129.872 89.7774 128.801 89.5134 127.467 89.1597L127.261 89.1085Z" fill="white"/>
<path d="M108.422 96.6269C108.238 96.8688 107.963 97.1457 107.607 97.4481C107.166 97.8029 106.563 98.2892 105.544 98.6335C104.985 98.8162 104.349 98.8662 103.757 98.7789C103.096 98.6754 102.57 98.5195 102.189 98.3113C102.126 98.2799 102.049 98.2915 102 98.3427C101.821 98.5346 101.716 98.7894 101.721 99.0139C101.712 99.3757 101.949 99.8189 102.342 100.173C102.665 100.472 103.096 100.713 103.551 100.852C103.716 100.91 103.918 100.929 104.114 100.948L104.238 100.962C104.313 100.968 104.388 100.98 104.461 100.991C104.582 101.009 104.708 101.029 104.831 101.029C104.856 101.029 104.882 101.029 104.907 101.026C106.694 101.047 108.068 100.606 109.072 100.214C110.281 99.6514 111.077 99.1547 111.807 98.1368C112.456 97.2306 112.626 96.3965 112.33 95.5915C112.216 95.2426 111.901 94.7807 111.046 94.569C110.466 94.4236 109.753 94.455 109.091 94.6586C109.021 94.6807 108.975 94.7482 108.982 94.8214C109.001 95.0448 108.994 95.2554 108.958 95.4519C108.885 95.8684 108.704 96.2639 108.422 96.6269Z" fill="white"/>
<path d="M105.045 76.1228C105.731 76.103 106.509 76.331 107.29 76.7742C107.312 76.7894 107.339 76.794 107.365 76.794C107.392 76.794 107.417 76.7894 107.44 76.7742C107.487 76.7498 107.518 76.7021 107.52 76.6486C107.53 76.4939 107.583 76.345 107.683 76.1949C107.695 76.1786 107.855 75.946 108.163 75.5098C108.386 75.2085 108.63 74.792 108.941 74.2639C109.104 73.987 109.285 73.6822 109.489 73.3449C110.037 72.3421 110.693 71.1149 111.404 69.6131C112.124 68.0903 112.955 66.3256 113.894 64.326C113.955 64.2027 114.013 64.084 114.071 63.963L114.156 63.7885C114.185 63.728 114.17 63.6524 114.122 63.6071C113.892 63.393 113.511 63.0929 112.995 62.8579C112.478 62.6497 111.935 62.5578 111.554 62.6031C111.382 62.6101 111.256 62.6392 111.174 62.6613C111.131 62.6764 111.096 62.7055 111.075 62.7439C110.546 63.8397 110.022 64.9518 109.525 66.0499L109.23 66.7037C108.903 67.4331 108.59 68.1218 108.236 68.793C107.862 69.4991 107.5 70.1435 107.171 70.7391L106.97 71.1009C106.054 72.7365 105.589 73.8172 105.361 74.4279C105.254 74.6931 105.191 74.9176 105.14 75.1003C105.115 75.1922 105.091 75.2771 105.064 75.3516L104.965 75.6843C104.948 75.7692 104.922 75.8413 104.895 75.9146C104.875 75.9623 104.885 76.0158 104.914 76.0577C104.943 76.0984 104.996 76.1251 105.045 76.1228Z" fill="white"/>
<path d="M138.486 104.271C138.486 104.269 138.486 104.266 138.484 104.266L138.464 103.89L138.416 103.523C138.329 103.002 138.176 102.502 137.965 102.042C137.745 101.542 137.454 101.085 137.121 100.714C136.956 100.544 136.763 100.352 136.569 100.244C136.523 100.212 136.47 100.175 136.412 100.154C136.396 100.148 136.374 100.137 136.36 100.13C136.336 100.117 136.316 100.107 136.298 100.1C136.275 100.083 136.246 100.071 136.217 100.069L135.946 100.054C135.902 100.054 135.866 100.067 135.837 100.076L135.786 100.088C135.711 100.11 135.597 100.148 135.49 100.217C135.311 100.313 135.085 100.472 134.882 100.646L134.314 101.237C134.13 101.418 133.987 101.622 133.846 101.821L133.803 101.881C133.246 102.662 132.83 103.593 132.532 104.734C132.28 105.765 132.149 106.751 132.045 107.664C131.941 108.53 131.919 109.415 131.98 110.216C132.089 111.712 132.595 112.923 133.327 113.453C133.4 113.513 133.472 113.564 133.541 113.612L133.618 113.663C133.825 113.757 134.009 113.802 134.253 113.818C134.421 113.828 134.593 113.835 134.76 113.835C134.976 113.835 135.184 113.823 135.371 113.78C136.125 113.605 136.581 112.992 136.857 112.545L137.068 112.204C137.394 111.683 137.73 111.147 137.958 110.536C138.52 109.017 138.551 107.013 138.504 105.074L138.486 104.271Z" fill="white"/>
<mask id="mask0_18_318" style="mask-type:luminance" maskUnits="userSpaceOnUse" x="68" y="114" width="20" height="9">
<path d="M68.2908 114.058H87.5745V122.947H68.2908V114.058Z" fill="white"/>
</mask>
<g mask="url(#mask0_18_318)">
<path d="M86.7636 118.426C86.3564 118.05 85.8107 117.701 85.045 117.323C84.5761 117.095 84.0432 116.88 83.4812 116.652C83.2171 116.542 82.9448 116.433 82.6609 116.314C82.6132 116.294 82.5573 116.3 82.5131 116.33C82.2152 116.531 81.8836 116.753 81.5171 116.983C81.0808 117.263 80.5979 117.567 80.0696 117.9L79.9556 117.972C79.8928 118.009 79.823 118.043 79.7496 118.079L79.6775 118.115C79.5926 118.164 79.4902 118.205 79.3808 118.237C79.2679 118.276 79.1655 118.307 79.0294 118.319C78.913 118.336 78.8165 118.341 78.7339 118.339C78.7048 118.334 78.6734 118.343 78.6489 118.361C78.5256 118.332 78.3999 118.302 78.2568 118.271C78.244 118.266 78.2324 118.261 78.2172 118.258C78.0846 118.229 77.9636 118.202 77.8519 118.164C77.7669 118.133 77.682 118.104 77.5947 118.074C77.3958 118.007 77.2096 117.941 77.0374 117.862C76.7872 117.757 76.5405 117.65 76.3148 117.546C76.2275 117.504 76.1496 117.468 76.067 117.432C75.9239 117.367 75.7691 117.296 75.5271 117.173L75.4398 117.126C75.3735 117.093 75.313 117.061 75.2595 117.005C75.185 116.947 75.114 116.891 75.0616 116.809C75.0244 116.763 74.9953 116.697 74.9639 116.63L74.9476 116.591C74.9418 116.565 74.9371 116.538 74.9302 116.511C74.9185 116.451 74.9081 116.392 74.9104 116.356C74.9185 116.314 74.9185 116.274 74.9209 116.232C74.9232 116.177 74.9255 116.128 74.9418 116.084L75.0465 115.796C75.0907 115.692 75.1431 115.609 75.2048 115.522C75.2408 115.466 75.2792 115.411 75.3107 115.35C75.3758 115.245 75.427 115.187 75.4898 115.12C75.5143 115.093 75.5387 115.069 75.5608 115.042C75.6015 114.996 75.6481 114.95 75.6888 114.909C75.7249 114.873 75.7423 114.822 75.733 114.771C75.7226 114.72 75.6888 114.677 75.6434 114.657C74.7964 114.289 73.9458 114.104 73.1871 114.131C72.1911 114.158 71.2137 114.497 70.3632 115.106C70.1886 115.222 70.0118 115.359 69.8244 115.525C69.7232 115.605 69.6115 115.704 69.5045 115.801C69.437 115.862 69.3718 115.92 69.3032 115.976C69.0053 116.252 68.6993 116.542 68.5352 116.802C68.4456 116.938 68.3921 117.059 68.3851 117.144C68.356 117.256 68.363 117.354 68.4084 117.468C68.484 117.67 68.6725 117.909 68.8796 118.065C68.9378 118.111 68.9983 118.152 69.0588 118.193L69.1356 118.247C69.1601 118.263 69.1868 118.273 69.2159 118.276C69.4998 118.292 70.2026 118.455 71.948 119.126L76.1333 120.631C77.8437 121.228 79.745 121.92 81.7812 122.689C81.8592 122.716 81.9418 122.685 81.9779 122.611C82.0582 122.447 82.1373 122.291 82.2199 122.146C82.4456 121.783 82.6981 121.443 82.9692 121.143C83.437 120.612 83.9536 120.161 84.504 119.802C84.9496 119.517 85.3813 119.33 85.7525 119.258C85.9072 119.226 86.0073 119.238 86.0748 119.252C86.0841 119.255 86.0946 119.258 86.0992 119.26C86.0946 119.267 86.0876 119.276 86.0771 119.287C86.0527 119.316 86.0189 119.347 85.9805 119.383C85.9317 119.432 85.8781 119.482 85.8397 119.529L85.6873 119.674C85.5023 119.848 85.2487 120.088 84.981 120.384C84.5575 120.85 84.1747 121.334 83.8419 121.826C83.6534 122.101 83.4731 122.401 83.323 122.696C83.2962 122.75 83.302 122.813 83.3381 122.859C83.3672 122.9 83.4125 122.922 83.4614 122.922C83.4707 122.922 83.4812 122.922 83.4905 122.92C84.3143 122.764 85.173 122.418 85.9026 122.101C86.5961 121.804 87.0789 121.249 87.2511 120.837C87.3431 120.624 87.3698 120.428 87.3256 120.193L87.307 120.135C87.2872 120.072 87.2628 119.992 87.2244 119.94C87.2023 119.9 87.1825 119.858 87.1441 119.797L87.0708 119.708C87.0301 119.652 86.9893 119.602 86.9498 119.553C86.8916 119.48 86.8241 119.395 86.795 119.342C86.8672 119.332 87.0522 119.334 87.243 119.422C87.307 119.451 87.3791 119.434 87.4257 119.381C87.4687 119.33 87.4734 119.252 87.4373 119.197C87.2558 118.923 87.0347 118.67 86.7636 118.426Z" fill="white"/>
</g>
<path d="M106.066 113.037C106.048 113.099 105.775 113.303 104.768 113.462C103.988 113.585 102.747 113.683 101.285 113.442C100.604 113.324 99.9419 113.131 99.3741 112.88C98.8028 112.609 98.3246 112.299 97.9929 111.984C97.282 111.315 97.2192 110.856 97.2576 110.793C97.2657 110.791 97.2727 110.789 97.2843 110.789C97.3984 110.789 97.7044 110.932 97.9324 111.039C98.0988 111.116 98.2815 111.201 98.47 111.279C98.8482 111.458 99.331 111.617 99.8011 111.764C100.3 111.901 100.873 112.03 101.503 112.144C102.124 112.245 102.739 112.326 103.282 112.398C103.831 112.471 104.349 112.541 104.781 112.616C105.956 112.82 106.061 113.037 106.066 113.037ZM128.404 109.313C128.391 108.755 128.396 108.333 128.42 107.943V107.941L128.428 107.815C128.428 107.762 128.404 107.711 128.36 107.682C128.317 107.65 128.261 107.646 128.212 107.664C127.136 108.109 126.037 108.474 124.857 108.78C124.845 108.782 124.833 108.787 124.82 108.794C124.808 108.791 124.793 108.794 124.782 108.798C122.764 109.31 120.852 109.56 119.162 109.78C118.333 109.89 117.55 109.991 116.825 110.115L116.168 110.223C114.716 110.467 113.346 110.695 112.109 110.811C111.802 110.849 111.469 110.876 111.094 110.894C110.977 110.898 110.861 110.905 110.749 110.912C110.538 110.925 110.335 110.937 110.134 110.937L109.879 110.934C109.35 110.93 108.849 110.927 108.408 110.903C107.417 110.861 106.48 110.823 105.717 110.742C105.247 110.684 104.849 110.621 104.48 110.549C103.591 110.481 102.618 110.36 101.595 110.187C100.604 110.008 99.5172 109.776 98.3106 109.308C97.5787 109.022 96.9818 108.702 96.4314 108.302C96.1545 108.12 95.8741 107.878 95.5227 107.521C95.4156 107.4 95.3109 107.268 95.2143 107.129C95.1783 107.078 95.1154 107.054 95.0491 107.069C94.9886 107.083 94.9432 107.134 94.9328 107.199C94.8432 107.883 94.8118 108.552 94.8408 109.182C94.8827 110.614 95.2318 112.02 95.8473 113.249C96.4023 114.379 97.2506 115.35 98.3024 116.063C99.1763 116.659 100.184 117.105 101.474 117.468C102.419 117.732 103.353 117.916 104.258 118.097L104.631 118.171C105.569 118.372 106.401 118.513 107.203 118.651L107.469 118.694C107.675 118.712 107.879 118.732 108.078 118.75C108.74 118.811 109.363 118.869 109.961 118.85C110.127 118.857 110.292 118.862 110.451 118.862C110.968 118.862 111.458 118.828 111.932 118.797L112.151 118.782C112.98 118.719 113.789 118.629 114.709 118.499C114.849 118.464 114.993 118.43 115.159 118.397C115.389 118.339 115.642 118.269 115.913 118.188C116.192 118.108 116.495 118.021 116.828 117.936C118.067 117.592 119.7 117.039 121.969 116.196C122.457 116.019 122.963 115.825 123.499 115.621C125.131 115.001 126.981 114.298 129.176 113.652C129.218 113.639 129.254 113.607 129.274 113.567C129.293 113.525 129.29 113.479 129.274 113.438C128.746 112.292 128.452 110.903 128.404 109.313Z" fill="white"/>
<path d="M137.378 112.82C137.342 112.856 137.309 112.892 137.277 112.921C137.206 112.979 137.143 113.041 137.078 113.099C136.971 113.198 136.855 113.287 136.712 113.382C135.96 113.93 134.7 114.337 133.686 113.927C133.492 113.878 133.322 113.816 133.138 113.721C132.966 113.652 132.707 113.471 132.494 113.27C132.259 113.045 132.057 112.791 131.897 112.509C131.543 111.918 131.284 111.162 131.148 110.323C130.997 109.48 130.952 108.554 131.007 107.57C131.049 106.807 131.129 105.65 131.373 104.46C131.65 103.19 132.11 102.076 132.743 101.152L132.777 101.101C132.946 100.846 133.112 100.606 133.325 100.394L133.655 100.025C133.711 99.9597 133.747 99.9178 133.821 99.8434L133.984 99.691C134.295 99.4118 134.557 99.2198 134.859 99.0535C135.029 98.9581 135.215 98.8813 135.405 98.8255L135.485 98.8034C135.56 98.7836 135.633 98.7627 135.716 98.7522L136.018 98.7231C136.038 98.7231 136.079 98.7254 136.094 98.7289C136.103 98.7289 136.115 98.7313 136.125 98.7289L136.334 98.7499C136.465 98.7766 136.595 98.8104 136.727 98.8522C136.799 98.8767 136.852 98.9034 136.901 98.9267C136.942 98.9465 136.978 98.9662 137.014 98.9802C137.119 99.0291 137.195 99.0721 137.271 99.1279C137.609 99.3315 137.866 99.5909 138.099 99.8364C138.528 100.326 138.871 100.875 139.146 101.521C139.393 102.102 139.562 102.713 139.65 103.331C139.665 103.491 139.679 103.648 139.699 103.796C139.703 103.949 139.708 104.102 139.708 104.257C139.71 104.48 139.708 104.676 139.703 104.875L139.699 105.083C139.674 106.104 139.633 107.187 139.486 108.193C139.39 109.046 139.144 109.921 138.734 110.861C138.374 111.579 137.936 112.221 137.437 112.762L137.378 112.82ZM140.176 100.289C139.625 99.3687 138.959 98.6405 138.193 98.1298C137.192 97.4563 136.028 97.2865 135.007 97.6575C134.486 97.8262 133.914 98.1636 133.4 98.6068C133.325 98.6754 133.242 98.7522 133.163 98.8325L132.998 98.9849C132.944 99.0384 132.879 99.1163 132.809 99.1966C132.76 99.2524 132.709 99.3071 132.658 99.3652C132.583 99.4606 132.501 99.5479 132.42 99.6375C132.263 99.8096 132.1 99.9864 131.989 100.181C130.494 102.127 129.751 105.1 129.722 109.272C129.776 111.142 130.205 112.713 130.954 113.813C131.013 113.905 131.082 113.99 131.15 114.073C131.196 114.131 131.239 114.187 131.293 114.26C131.359 114.332 131.429 114.402 131.499 114.47C131.552 114.524 131.608 114.576 131.673 114.647L132.052 114.958C132.149 115.023 132.248 115.086 132.348 115.146L132.539 115.267C132.552 115.274 132.586 115.292 132.597 115.294L132.774 115.386C132.803 115.399 132.832 115.413 132.861 115.428C132.913 115.452 132.964 115.476 133.02 115.498C133.076 115.515 133.129 115.537 133.181 115.558C133.286 115.6 133.393 115.643 133.507 115.665L133.635 115.699C133.754 115.73 133.875 115.764 133.994 115.775C134.152 115.804 134.314 115.818 134.494 115.822C134.559 115.828 134.622 115.83 134.687 115.83C136.215 115.83 137.441 114.958 138.047 114.424C138.173 114.32 138.285 114.213 138.383 114.111L138.869 113.574C138.896 113.542 138.959 113.453 138.996 113.399C139.088 113.278 139.175 113.154 139.258 113.041C139.551 112.681 139.754 112.296 139.953 111.923C140.019 111.8 140.081 111.679 140.155 111.547C140.965 109.766 141.151 108.064 141.287 106.823C141.303 106.661 141.321 106.509 141.337 106.36C141.614 103.986 141.243 102.056 140.176 100.289Z" fill="white"/>
<path d="M94.9817 97.8949C94.8921 97.9379 94.8025 97.9798 94.6955 98.0426C94.2661 98.3846 93.8449 98.7429 93.4062 99.1361C92.8163 99.6782 92.0414 100.42 91.2501 101.375C90.6369 102.112 89.755 103.255 89.1709 104.711C88.88 105.442 88.7217 106.174 88.7054 106.884C88.688 107.219 88.7217 107.575 88.7997 107.936C88.8113 107.999 88.8602 108.045 88.9207 108.057C88.9312 108.06 88.9428 108.06 88.9498 108.06C89.0033 108.06 89.0522 108.035 89.0813 107.99C89.9679 106.644 90.7824 105.226 91.5701 103.854C92.6813 101.923 93.8274 99.926 95.1876 98.1206C95.2319 98.0647 95.2214 97.9891 95.176 97.9333C95.1295 97.8774 95.0445 97.8635 94.9817 97.8949Z" fill="white"/>
<path d="M93.9149 111.021C93.9055 110.977 93.8788 110.939 93.8381 110.917C93.7962 110.893 93.7485 110.89 93.7066 110.907C92.785 111.268 91.988 111.438 91.1979 111.438C90.7418 111.433 90.0751 111.353 89.4619 110.983C88.8778 110.634 88.4938 110.111 88.2809 109.737C87.8015 108.823 87.5734 107.825 87.6211 106.852C87.6607 106.004 87.862 105.154 88.218 104.322C88.8941 102.759 89.8307 101.611 90.5696 100.786C90.8174 100.515 91.0502 100.241 91.2829 99.9691C91.9275 99.2107 92.536 98.4952 93.3668 97.9241L93.5437 97.8031C94.3803 97.2284 95.4182 96.5107 97.0448 96.0163C98.0408 95.7278 99.1253 95.7057 100.099 95.9581C100.996 96.1861 101.927 96.6468 102.895 97.3494C103.283 97.5123 103.62 97.6204 103.93 97.6763C104.374 97.7566 104.815 97.7449 105.278 97.6425C105.533 97.5751 105.777 97.4948 106.059 97.3762C106.061 97.3738 106.093 97.3517 106.093 97.3517C106.109 97.3378 106.129 97.3226 106.163 97.3005L106.294 97.204C106.638 96.9469 107.067 96.627 107.438 96.1815C107.795 95.7371 108.091 95.1555 107.641 94.2062C107.654 94.1864 107.659 94.1643 107.661 94.1399C107.664 94.0899 107.641 94.0387 107.601 94.0073C107.234 93.7304 106.851 93.4954 106.462 93.3093C105.763 92.9696 104.963 92.7009 104.012 92.4904C102.446 92.1647 100.797 92.0704 99.1078 92.2065C98.2445 92.2763 97.5103 92.4008 96.861 92.5846C96.74 92.623 96.6155 92.6567 96.4921 92.6881C96.2687 92.7498 96.036 92.8126 95.8138 92.8998C95.4833 93.0301 95.161 93.1616 94.8294 93.2942C93.6868 93.8281 92.5791 94.5308 91.4376 95.4498C89.7691 96.8666 88.3169 98.5825 87.001 100.692C85.9654 102.356 85.2067 103.984 84.7506 105.525C84.3434 106.877 84.184 108.203 84.2829 109.351C84.3003 109.577 84.3341 109.814 84.3946 110.118C84.412 110.169 84.426 110.227 84.4388 110.311C84.5179 110.684 84.6226 111.026 84.7436 111.332C84.7506 111.348 84.7611 111.366 84.7727 111.377C85.0881 111.731 85.4883 112.158 86.0608 112.659C87.0882 113.513 88.1866 114.046 89.4177 114.283C89.8645 114.373 90.3322 114.419 90.8174 114.419C92.0217 114.419 93.3261 114.143 94.606 113.607C94.6444 113.59 94.677 113.559 94.6909 113.52C94.7061 113.482 94.7061 113.438 94.6863 113.399C94.3396 112.645 94.0778 111.845 93.9149 111.021Z" fill="white"/>
<path d="M124.639 56.4588C124.605 56.5123 124.585 56.5565 124.565 56.6042C124.554 56.6391 124.556 56.6798 124.569 56.7135C124.59 56.7763 124.614 56.8427 124.636 56.9148C124.65 56.9753 124.672 57.0404 124.694 57.1067C124.741 57.2393 124.784 57.3778 124.801 57.5302C124.963 58.3305 124.963 59.4065 124.796 61.0235L124.782 61.1608C124.712 61.8378 124.646 62.4776 124.602 63.2628L124.59 63.4303C124.547 64.2074 124.498 65.0124 124.403 65.8709C124.365 66.3234 124.321 66.7969 124.272 67.2715L124.205 67.8217C124.168 68.1218 124.129 68.4231 124.093 68.7326C124.023 69.3945 123.918 70.0541 123.807 70.7544C123.751 71.0987 123.696 71.4453 123.647 71.7897C123.462 72.7005 123.274 73.5928 123.088 74.4571C122.851 75.5634 122.629 76.608 122.437 77.6107C122.045 79.6442 121.768 81.1518 121.56 82.3639C121.347 83.7622 121.166 84.8917 120.936 85.6816C120.864 85.948 120.784 86.1737 120.721 86.3598C120.687 86.4575 120.656 86.5448 120.638 86.6076C120.58 86.7413 120.544 86.8309 120.522 86.8763C120.497 86.9251 120.5 86.9833 120.526 87.0263C120.556 87.0729 120.604 87.102 120.658 87.102C120.846 87.1043 121.119 87.1485 121.405 87.1939C121.756 87.252 122.115 87.3102 122.417 87.3102C122.578 87.3102 122.721 87.2939 122.84 87.252C123.305 87.0903 123.356 86.8286 123.407 86.5494C123.431 86.4284 123.453 86.3016 123.511 86.1644C123.511 86.1644 123.545 86.0841 123.605 85.9166C123.625 85.8654 123.65 85.8072 123.676 85.7398C123.732 85.6013 123.802 85.4315 123.862 85.2163C124.045 84.6684 124.316 83.704 124.59 82.2301C124.65 81.8811 124.716 81.5077 124.786 81.1157L124.999 79.9129C125.164 79.0579 125.344 78.1203 125.536 77.1047C125.972 74.8142 126.413 72.4411 126.847 70.0494L126.854 70.0052C127.095 68.6895 127.319 67.446 127.502 66.2559L127.523 66.1152C127.706 64.9926 127.878 63.934 127.986 62.9697C128.216 60.8874 128.171 59.2274 127.851 58.0304C127.706 57.4801 127.502 56.9683 127.234 56.4983C127.116 56.3192 127.01 56.1517 126.896 55.9772L126.816 55.8899C126.721 55.7876 126.636 55.6957 126.565 55.6259C126.484 55.5188 126.391 55.4293 126.272 55.3374C126.222 55.2978 126.153 55.2932 126.1 55.3246L125.943 55.4118C125.815 55.4851 125.688 55.5549 125.565 55.6305C125.128 55.8969 124.791 56.197 124.639 56.4588Z" fill="white"/>
<path d="M113.421 61.8668L113.988 62.1135C114.25 62.2275 114.481 62.3298 114.68 62.4147C114.698 62.4217 114.72 62.4264 114.74 62.4264C114.796 62.4264 114.85 62.3973 114.879 62.3438L115.002 62.1111C115.114 61.9076 115.223 61.704 115.324 61.5051C115.797 60.5872 116.282 59.7729 116.672 59.118C117.031 58.5247 117.513 57.7628 118.076 57.116C118.6 56.539 119.164 56.0842 119.746 55.7608C120.687 55.2617 121.625 54.986 122.54 54.9372C122.82 54.9232 123.092 54.9372 123.373 54.9837C123.504 55.0023 123.596 55.0291 123.634 55.0419C123.64 55.0419 123.65 55.0442 123.659 55.0465C123.757 55.0756 123.86 55.1186 123.963 55.1791C124.008 55.2036 124.061 55.2059 124.11 55.1815L124.171 55.1524C124.426 55.0244 124.714 54.8813 125.003 54.7092C125.095 54.6557 125.171 54.6033 125.242 54.5521L125.296 54.5126C125.33 54.4893 125.352 54.4451 125.357 54.4044C125.363 54.3602 125.346 54.3148 125.319 54.2799C125.29 54.2439 125.23 54.1717 125.124 54.0891C124.912 53.8925 124.683 53.7227 124.42 53.5703C124.052 53.3446 123.598 53.1585 123.088 53.0201C122.534 52.8456 121.877 52.749 121.133 52.7269C119.497 52.6885 117.754 53.347 116.34 54.5184C115.557 55.1652 114.859 55.9597 114.265 56.8857C113.731 57.7465 113.186 58.7109 112.655 59.6438L111.903 61.084C111.884 61.1247 111.881 61.1712 111.899 61.2119C111.916 61.2538 111.95 61.2852 111.991 61.2992C112.384 61.4399 112.863 61.6295 113.421 61.8668Z" fill="white"/>
<path d="M82.8934 112.252C83.0318 112.281 83.168 112.31 83.3041 112.342C83.4635 112.391 83.6217 112.456 83.7881 112.527L84.029 112.626C84.2373 112.713 84.4525 112.802 84.6783 112.934C84.7946 113.006 84.9308 113.091 85.0948 113.227C85.1006 113.229 85.1216 113.249 85.1262 113.251C85.153 113.268 85.1821 113.278 85.2135 113.278C85.2531 113.278 85.2915 113.261 85.3229 113.232L85.3764 113.173C85.4323 113.115 85.4369 113.026 85.3857 112.965C84.783 112.238 84.5107 111.686 84.3804 111.324C84.3781 111.308 84.3722 111.292 84.3653 111.278C84.3292 111.205 84.2931 111.131 84.2512 111.039C84.2303 110.997 84.1907 110.966 84.1477 110.954C84.1011 110.943 84.0523 110.954 84.0162 110.983C83.7544 111.181 83.5054 111.397 83.2645 111.608C83.1191 111.734 82.9736 111.86 82.8259 111.981C82.7805 112.019 82.7607 112.08 82.7747 112.138C82.7898 112.196 82.8352 112.241 82.8934 112.252Z" fill="white"/>
<path d="M97.6894 91.2687C97.6999 91.2687 97.7069 91.2687 97.7162 91.2653C98.1502 91.1885 98.5865 91.1326 99.0135 91.0989C99.5465 91.0524 100.097 91.0279 100.655 91.0279C100.708 91.0279 100.757 90.9989 100.786 90.9558C102.779 87.7638 104.345 84.2902 105.858 80.9306C106.277 80.0058 106.694 79.0775 107.12 78.1539C107.152 78.0853 107.131 78.0038 107.067 77.962C106.527 77.5967 105.502 77.015 104.694 77.2477C104.328 77.3512 104.052 77.6106 103.871 78.0131L103.824 78.1248C103.571 78.696 103.334 79.2392 103.05 79.7825C102.718 80.4269 102.372 81.0621 102.023 81.6996C101.544 82.5767 101.047 83.4829 100.602 84.3926C100.17 85.2627 99.8036 86.1736 99.4499 87.053C98.9088 88.3966 98.3491 89.7844 97.5591 91.0303C97.5253 91.0838 97.5277 91.1489 97.5614 91.2001C97.5905 91.2443 97.6394 91.2687 97.6894 91.2687Z" fill="white"/>
<path d="M76.2366 116.278V116.28L76.7777 116.515C76.8964 116.569 77.015 116.629 77.136 116.688C77.6143 116.923 78.1355 117.18 78.6778 117.18C78.9175 117.18 79.1653 117.129 79.4131 117.001C79.6645 116.85 79.91 116.712 80.1473 116.578L80.2079 116.542C80.458 116.397 80.6931 116.267 80.9176 116.14L80.9618 116.115C81.148 116.016 81.333 115.915 81.5169 115.811C81.9776 115.553 82.4524 115.287 82.9376 115.093C83.0225 115.061 83.1505 115.032 83.2843 115.001C83.723 114.902 84.3245 114.764 84.3094 114.265C84.3024 113.777 83.3716 113.394 82.9736 113.251L82.7514 113.173C82.6583 113.14 82.5687 113.111 82.4896 113.081C82.2615 112.983 82.0451 112.936 81.8566 112.894C81.7717 112.878 81.6914 112.86 81.6158 112.842L81.468 112.802C81.454 112.798 81.4389 112.798 81.4273 112.798H81.3831C81.3621 112.798 81.3423 112.8 81.3225 112.81C80.9153 112.977 80.4894 113.164 80.0159 113.382L79.6668 113.551L78.6219 114.102C78.103 114.392 77.5002 114.748 76.9522 115.193C76.7986 115.309 76.6636 115.43 76.5473 115.551C76.467 115.619 76.4065 115.694 76.3553 115.757L76.3076 115.815C76.2517 115.873 76.2168 115.912 76.1982 115.954L76.147 116.039C76.1272 116.075 76.1203 116.115 76.1296 116.157C76.1424 116.206 76.1877 116.254 76.2366 116.278Z" fill="white"/>
<path d="M117.875 104.649C118.025 104.586 118.18 104.521 118.318 104.438L118.497 104.337C118.636 104.261 118.77 104.187 118.908 104.107C119.05 104.022 119.201 103.942 119.347 103.861C119.574 103.74 119.81 103.615 120.018 103.469C120.244 103.317 120.466 103.168 120.685 103.023C121.155 102.708 121.601 102.412 122.001 102.123C122.638 101.68 123.175 101.322 123.64 101.026C124.079 100.743 124.536 100.454 124.932 100.264C125.415 100.022 125.688 99.9085 125.844 99.8573C125.737 99.9794 125.529 100.188 125.124 100.532C124.793 100.796 124.391 101.157 124.001 101.506C123.778 101.7 123.538 101.908 123.283 102.129C123.036 102.344 122.775 102.57 122.498 102.807C122.01 103.237 121.46 103.662 120.878 104.116L120.622 104.317C120.386 104.503 120.132 104.664 119.862 104.834C119.734 104.914 119.603 104.995 119.477 105.078C119.327 105.17 119.179 105.263 119.029 105.36L118.855 105.469C118.723 105.552 118.585 105.617 118.439 105.686C118.36 105.726 118.282 105.764 118.206 105.803C118.063 105.874 117.918 105.946 117.77 106.019C117.465 106.169 117.152 106.326 116.832 106.465C116.505 106.603 116.17 106.738 115.83 106.877L115.365 107.064C114.955 107.228 114.546 107.378 114.129 107.531L113.472 107.769C113.387 107.802 113.304 107.825 113.225 107.849C113.167 107.865 113.109 107.883 113.053 107.903L112.212 108.144C110.167 108.614 107.986 108.719 105.714 108.457C105.392 108.431 105.059 108.368 104.737 108.306C104.57 108.272 104.405 108.241 104.247 108.217C103.932 108.156 103.641 108.074 103.363 107.994C103.224 107.955 103.088 107.916 102.958 107.883C102.114 107.626 101.38 107.352 100.645 107.024C99.2101 106.375 98.206 105.655 97.7336 104.937C97.6416 104.819 97.5835 104.678 97.5299 104.552C97.5102 104.507 97.4915 104.46 97.4834 104.456L97.4671 104.371C97.438 104.232 97.4113 104.1 97.4136 104.042C97.4159 104.019 97.4182 104 97.4229 103.983C97.4299 104.002 97.438 104.022 97.445 104.046C97.4764 104.116 97.5206 104.177 97.5614 104.235C97.5858 104.268 97.6126 104.308 97.637 104.349C97.644 104.361 97.651 104.373 97.6603 104.382C97.6952 104.416 97.7266 104.456 97.7603 104.494C97.8232 104.574 97.8953 104.666 97.993 104.74C98.5236 105.25 99.5464 105.769 100.953 106.239C101.634 106.467 102.427 106.69 103.198 106.867C103.356 106.896 103.513 106.93 103.676 106.966C103.949 107.022 104.231 107.082 104.511 107.122C104.674 107.136 104.835 107.16 104.997 107.182C105.265 107.221 105.545 107.259 105.84 107.272C107.993 107.429 110.027 107.291 111.901 106.86L112.762 106.61C112.852 106.586 112.946 106.561 113.022 106.532L114.143 106.136C114.405 106.04 114.665 105.948 114.922 105.854C115.358 105.689 115.79 105.527 116.212 105.369L116.349 105.315C116.655 105.194 116.946 105.064 117.233 104.933C117.383 104.868 117.528 104.8 117.678 104.734C117.743 104.705 117.81 104.676 117.875 104.649ZM101.009 97.7296C101.057 97.6691 101.05 97.5819 100.996 97.5284C100.943 97.4725 100.859 97.4656 100.795 97.5098C100.165 97.9646 99.5371 98.5102 98.875 99.1768C98.1187 99.9527 97.4764 100.727 96.9668 101.484C96.4024 102.313 96.0045 103.107 95.7892 103.843C95.5472 104.655 95.5391 105.403 95.7695 106.011C95.8928 106.337 96.0627 106.617 96.2768 106.858C96.5013 107.093 96.7376 107.335 97.0087 107.529C97.4694 107.885 98.0093 108.196 98.6621 108.481C99.7477 108.959 100.779 109.24 101.746 109.487C103.765 109.97 105.623 110.192 107.668 110.192C107.914 110.192 108.16 110.187 108.413 110.183C108.759 110.178 109.106 110.163 109.467 110.149C109.668 110.14 109.877 110.131 110.093 110.124C110.299 110.115 110.509 110.093 110.722 110.071L111.019 110.042C111.305 110.02 111.62 109.981 112.01 109.921C113.043 109.782 114.195 109.565 115.412 109.335C115.812 109.259 116.224 109.18 116.651 109.102C117.501 108.941 118.437 108.791 119.439 108.659L119.513 108.646C120.461 108.516 121.444 108.375 122.464 108.164C122.978 108.069 123.529 107.948 124.149 107.793C124.178 107.786 124.205 107.771 124.224 107.749L124.359 107.611C124.573 107.386 124.796 107.156 124.983 106.906C125.092 106.758 125.201 106.615 125.31 106.472C125.489 106.241 125.657 106.026 125.807 105.787C125.907 105.624 126.004 105.467 126.1 105.311C126.229 105.105 126.355 104.904 126.474 104.7L126.717 104.247C126.82 104.053 126.923 103.867 127.022 103.68C127.708 102.306 128.185 101.166 128.471 100.488L128.84 99.6397L128.869 99.5688C128.923 99.3245 128.981 99.0558 129.029 98.7522C129.121 98.188 129.218 97.4318 129.145 96.5757C129.097 96.2197 129.017 95.752 128.818 95.3181C128.63 94.9087 128.314 94.5353 127.909 94.2375C127.521 93.9536 126.93 93.7675 126.31 93.5849C126.149 93.5372 125.984 93.4883 125.817 93.4418L125.654 93.3894C125.536 93.3522 125.417 93.3138 125.298 93.2777C124.963 93.1661 124.619 93.0544 124.265 92.9427C124.025 92.8683 123.786 92.7857 123.538 92.7031C123.055 92.5402 122.558 92.3739 122.023 92.2308C121.766 92.1575 121.506 92.0854 121.245 92.0121C120.685 91.855 120.11 91.6922 119.495 91.5037C118.839 91.292 118.204 91.0303 117.591 90.779C117.315 90.6627 117.038 90.5487 116.754 90.437L116.508 90.3428C115.537 89.9647 114.207 89.4482 113.246 89.8426C111.632 90.5045 109.872 91.3851 107.869 92.5356C107.82 92.5623 107.791 92.6135 107.791 92.667C107.789 92.7205 107.816 92.7706 107.86 92.7996C108.187 93.0137 108.48 93.244 108.735 93.4836C108.773 93.522 108.829 93.5372 108.883 93.522C109.697 93.294 110.522 93.2847 111.329 93.493C111.819 93.6267 112.255 93.8524 112.59 94.1432C112.922 94.4282 113.183 94.8354 113.308 95.2646C113.588 96.1569 113.371 96.9491 113.212 97.3423C112.585 98.9173 111.111 99.8142 109.688 100.677L109.382 100.864C108.469 101.349 107.006 102 104.88 102.056C104.728 102.071 104.563 102.054 104.39 102.034C104.298 102.027 104.204 102.015 104.119 102.013C104.052 102.005 103.985 102 103.92 101.993C103.707 101.976 103.508 101.962 103.276 101.891C102.645 101.722 102.083 101.423 101.602 101.004C101.334 100.769 101.108 100.503 100.922 100.192C100.75 99.8724 100.577 99.485 100.587 99.0244C100.591 98.5637 100.732 98.1054 100.975 97.7831C100.987 97.7634 100.999 97.7447 101.009 97.7296Z" fill="white"/>
<path d="M127.261 89.1085C126.245 88.8538 125.095 88.5629 123.786 88.3454C122.101 88.0592 120.539 88.0127 119.014 88.2047C118.678 88.2384 118.345 88.3035 117.993 88.3745L117.656 88.4396C117.228 88.5513 116.786 88.663 116.338 88.7747C116.272 88.7886 116.224 88.8491 116.221 88.9178C116.217 88.9852 116.26 89.048 116.326 89.0701C116.517 89.1376 116.706 89.2086 116.888 89.2784L117.17 89.3831C117.504 89.5157 117.828 89.6518 118.143 89.7821C118.738 90.0298 119.295 90.2648 119.828 90.4393C120.367 90.6115 120.913 90.7732 121.443 90.9314C121.748 91.021 122.05 91.1105 122.345 91.2001C122.849 91.3432 123.334 91.5177 123.802 91.6875C124.077 91.7841 124.343 91.8818 124.602 91.9667C124.86 92.0563 125.111 92.1459 125.356 92.2354L126.653 92.681C127.261 92.8845 127.89 93.0928 128.435 93.5127C128.95 93.9199 129.342 94.434 129.567 94.9982C129.787 95.5729 129.841 96.1255 129.863 96.5349C129.872 97.5121 129.684 98.2973 129.521 98.8615L129.5 98.9418C129.463 99.3896 129.346 99.9864 129.158 100.72C128.865 101.823 128.471 102.939 127.952 104.123L127.419 105.221C127.269 105.503 127.099 105.789 126.925 106.082L126.735 106.4C126.656 106.538 126.561 106.673 126.466 106.811C126.428 106.867 126.43 106.939 126.471 106.993C126.5 107.032 126.547 107.053 126.592 107.053C126.612 107.053 126.629 107.051 126.646 107.044C127.24 106.833 127.863 106.579 128.5 106.29C128.549 106.268 128.583 106.223 128.59 106.169C128.692 105.333 128.806 104.635 128.946 104.031C129.335 102.279 130.055 100.701 131.036 99.4559C131.179 99.2372 131.366 99.0453 131.543 98.8592C131.637 98.7603 131.732 98.6626 131.817 98.566C131.868 98.5125 131.912 98.4636 131.957 98.4136C132.042 98.3241 132.125 98.2333 132.232 98.1344L132.362 98.0204C132.456 97.9378 132.547 97.8587 132.648 97.7761C133.306 97.2399 133.975 96.8769 134.695 96.6629C135.414 96.4407 136.193 96.4139 136.889 96.5884C137.342 96.692 137.788 96.8746 138.213 97.1259C138.256 97.1526 138.312 97.155 138.358 97.134C138.406 97.1119 138.438 97.0654 138.445 97.0142C138.605 95.8998 138.372 94.8621 137.772 94.0141C137.218 93.2219 136.407 92.5216 135.291 91.8737C133.667 90.9558 132.219 90.4661 131.056 90.0706L130.745 89.967C129.872 89.7774 128.801 89.5134 127.467 89.1597L127.261 89.1085Z" fill="white"/>
<path d="M108.422 96.6269C108.238 96.8688 107.963 97.1457 107.607 97.4481C107.166 97.8029 106.563 98.2892 105.544 98.6335C104.985 98.8162 104.349 98.8662 103.757 98.7789C103.096 98.6754 102.57 98.5195 102.189 98.3113C102.126 98.2799 102.049 98.2915 102 98.3427C101.821 98.5346 101.716 98.7894 101.721 99.0139C101.712 99.3757 101.949 99.8189 102.342 100.173C102.665 100.472 103.096 100.713 103.551 100.852C103.716 100.91 103.918 100.929 104.114 100.948L104.238 100.962C104.313 100.968 104.388 100.98 104.461 100.991C104.582 101.009 104.708 101.029 104.831 101.029C104.856 101.029 104.882 101.029 104.907 101.026C106.694 101.047 108.068 100.606 109.072 100.214C110.281 99.6514 111.077 99.1547 111.807 98.1368C112.456 97.2306 112.626 96.3965 112.33 95.5915C112.216 95.2426 111.901 94.7807 111.046 94.569C110.466 94.4236 109.753 94.455 109.091 94.6586C109.021 94.6807 108.975 94.7482 108.982 94.8214C109.001 95.0448 108.994 95.2554 108.958 95.4519C108.885 95.8684 108.704 96.2639 108.422 96.6269Z" fill="white"/>
<path d="M105.045 76.1228C105.731 76.103 106.509 76.331 107.29 76.7742C107.312 76.7894 107.339 76.794 107.365 76.794C107.392 76.794 107.417 76.7894 107.44 76.7742C107.487 76.7498 107.518 76.7021 107.52 76.6486C107.53 76.4939 107.583 76.345 107.683 76.1949C107.695 76.1786 107.855 75.946 108.163 75.5098C108.386 75.2085 108.63 74.792 108.941 74.2639C109.104 73.987 109.285 73.6822 109.489 73.3449C110.037 72.3421 110.693 71.1149 111.404 69.6131C112.124 68.0903 112.955 66.3256 113.894 64.326C113.955 64.2027 114.013 64.084 114.071 63.963L114.156 63.7885C114.185 63.728 114.17 63.6524 114.122 63.6071C113.892 63.393 113.511 63.0929 112.995 62.8579C112.478 62.6497 111.935 62.5578 111.554 62.6031C111.382 62.6101 111.256 62.6392 111.174 62.6613C111.131 62.6764 111.096 62.7055 111.075 62.7439C110.546 63.8397 110.022 64.9518 109.525 66.0499L109.23 66.7037C108.903 67.4331 108.59 68.1218 108.236 68.793C107.862 69.4991 107.5 70.1435 107.171 70.7391L106.97 71.1009C106.054 72.7365 105.589 73.8172 105.361 74.4279C105.254 74.6931 105.191 74.9176 105.14 75.1003C105.115 75.1922 105.091 75.2771 105.064 75.3516L104.965 75.6843C104.948 75.7692 104.922 75.8413 104.895 75.9146C104.875 75.9623 104.885 76.0158 104.914 76.0577C104.943 76.0984 104.996 76.1251 105.045 76.1228Z" fill="white"/>
<path d="M138.486 104.271C138.486 104.269 138.486 104.266 138.484 104.266L138.464 103.89L138.416 103.523C138.329 103.002 138.176 102.502 137.965 102.042C137.745 101.542 137.454 101.085 137.121 100.714C136.956 100.544 136.763 100.352 136.569 100.244C136.523 100.212 136.47 100.175 136.412 100.154C136.396 100.148 136.374 100.137 136.36 100.13C136.336 100.117 136.316 100.107 136.298 100.1C136.275 100.083 136.246 100.071 136.217 100.069L135.946 100.054C135.902 100.054 135.866 100.067 135.837 100.076L135.786 100.088C135.711 100.11 135.597 100.148 135.49 100.217C135.311 100.313 135.085 100.472 134.882 100.646L134.314 101.237C134.13 101.418 133.987 101.622 133.846 101.821L133.803 101.881C133.246 102.662 132.83 103.593 132.532 104.734C132.28 105.765 132.149 106.751 132.045 107.664C131.941 108.53 131.919 109.415 131.98 110.216C132.089 111.712 132.595 112.923 133.327 113.453C133.4 113.513 133.472 113.564 133.541 113.612L133.618 113.663C133.825 113.757 134.009 113.802 134.253 113.818C134.421 113.828 134.593 113.835 134.76 113.835C134.976 113.835 135.184 113.823 135.371 113.78C136.125 113.605 136.581 112.992 136.857 112.545L137.068 112.204C137.394 111.683 137.73 111.147 137.958 110.536C138.52 109.017 138.551 107.013 138.504 105.074L138.486 104.271Z" fill="white"/>
<mask id="mask1_18_318" style="mask-type:luminance" maskUnits="userSpaceOnUse" x="68" y="114" width="20" height="9">
<path d="M68.2908 114.058H87.5745V122.947H68.2908V114.058Z" fill="white"/>
</mask>
<g mask="url(#mask1_18_318)">
<path d="M86.7636 118.426C86.3564 118.05 85.8107 117.701 85.045 117.323C84.5761 117.095 84.0432 116.88 83.4812 116.652C83.2171 116.542 82.9448 116.433 82.6609 116.314C82.6132 116.294 82.5573 116.3 82.5131 116.33C82.2152 116.531 81.8836 116.753 81.5171 116.983C81.0808 117.263 80.5979 117.567 80.0696 117.9L79.9556 117.972C79.8928 118.009 79.823 118.043 79.7496 118.079L79.6775 118.115C79.5926 118.164 79.4902 118.205 79.3808 118.237C79.2679 118.276 79.1655 118.307 79.0294 118.319C78.913 118.336 78.8165 118.341 78.7339 118.339C78.7048 118.334 78.6734 118.343 78.6489 118.361C78.5256 118.332 78.3999 118.302 78.2568 118.271C78.244 118.266 78.2324 118.261 78.2172 118.258C78.0846 118.229 77.9636 118.202 77.8519 118.164C77.7669 118.133 77.682 118.104 77.5947 118.074C77.3958 118.007 77.2096 117.941 77.0374 117.862C76.7872 117.757 76.5405 117.65 76.3148 117.546C76.2275 117.504 76.1496 117.468 76.067 117.432C75.9239 117.367 75.7691 117.296 75.5271 117.173L75.4398 117.126C75.3735 117.093 75.313 117.061 75.2595 117.005C75.185 116.947 75.114 116.891 75.0616 116.809C75.0244 116.763 74.9953 116.697 74.9639 116.63L74.9476 116.591C74.9418 116.565 74.9371 116.538 74.9302 116.511C74.9185 116.451 74.9081 116.392 74.9104 116.356C74.9185 116.314 74.9185 116.274 74.9209 116.232C74.9232 116.177 74.9255 116.128 74.9418 116.084L75.0465 115.796C75.0907 115.692 75.1431 115.609 75.2048 115.522C75.2408 115.466 75.2792 115.411 75.3107 115.35C75.3758 115.245 75.427 115.187 75.4898 115.12C75.5143 115.093 75.5387 115.069 75.5608 115.042C75.6015 114.996 75.6481 114.95 75.6888 114.909C75.7249 114.873 75.7423 114.822 75.733 114.771C75.7226 114.72 75.6888 114.677 75.6434 114.657C74.7964 114.289 73.9458 114.104 73.1871 114.131C72.1911 114.158 71.2137 114.497 70.3632 115.106C70.1886 115.222 70.0118 115.359 69.8244 115.525C69.7232 115.605 69.6115 115.704 69.5045 115.801C69.437 115.862 69.3718 115.92 69.3032 115.976C69.0053 116.252 68.6993 116.542 68.5352 116.802C68.4456 116.938 68.3921 117.059 68.3851 117.144C68.356 117.256 68.363 117.354 68.4084 117.468C68.484 117.67 68.6725 117.909 68.8796 118.065C68.9378 118.111 68.9983 118.152 69.0588 118.193L69.1356 118.247C69.1601 118.263 69.1868 118.273 69.2159 118.276C69.4998 118.292 70.2026 118.455 71.948 119.126L76.1333 120.631C77.8437 121.228 79.745 121.92 81.7812 122.689C81.8592 122.716 81.9418 122.685 81.9779 122.611C82.0582 122.447 82.1373 122.291 82.2199 122.146C82.4456 121.783 82.6981 121.443 82.9692 121.143C83.437 120.612 83.9536 120.161 84.504 119.802C84.9496 119.517 85.3813 119.33 85.7525 119.258C85.9072 119.226 86.0073 119.238 86.0748 119.252C86.0841 119.255 86.0946 119.258 86.0992 119.26C86.0946 119.267 86.0876 119.276 86.0771 119.287C86.0527 119.316 86.0189 119.347 85.9805 119.383C85.9317 119.432 85.8781 119.482 85.8397 119.529L85.6873 119.674C85.5023 119.848 85.2487 120.088 84.981 120.384C84.5575 120.85 84.1747 121.334 83.8419 121.826C83.6534 122.101 83.4731 122.401 83.323 122.696C83.2962 122.75 83.302 122.813 83.3381 122.859C83.3672 122.9 83.4125 122.922 83.4614 122.922C83.4707 122.922 83.4812 122.922 83.4905 122.92C84.3143 122.764 85.173 122.418 85.9026 122.101C86.5961 121.804 87.0789 121.249 87.2511 120.837C87.3431 120.624 87.3698 120.428 87.3256 120.193L87.307 120.135C87.2872 120.072 87.2628 119.992 87.2244 119.94C87.2023 119.9 87.1825 119.858 87.1441 119.797L87.0708 119.708C87.0301 119.652 86.9893 119.602 86.9498 119.553C86.8916 119.48 86.8241 119.395 86.795 119.342C86.8672 119.332 87.0522 119.334 87.243 119.422C87.307 119.451 87.3791 119.434 87.4257 119.381C87.4687 119.33 87.4734 119.252 87.4373 119.197C87.2558 118.923 87.0347 118.67 86.7636 118.426Z" fill="white"/>
</g>
<path d="M106.066 113.037C106.048 113.099 105.775 113.303 104.768 113.462C103.988 113.585 102.747 113.683 101.285 113.442C100.604 113.324 99.9419 113.131 99.3741 112.88C98.8028 112.609 98.3246 112.299 97.9929 111.984C97.282 111.315 97.2192 110.856 97.2576 110.793C97.2657 110.791 97.2727 110.789 97.2843 110.789C97.3984 110.789 97.7044 110.932 97.9324 111.039C98.0988 111.116 98.2815 111.201 98.47 111.279C98.8482 111.458 99.331 111.617 99.8011 111.764C100.3 111.901 100.873 112.03 101.503 112.144C102.124 112.245 102.739 112.326 103.282 112.398C103.831 112.471 104.349 112.541 104.781 112.616C105.956 112.82 106.061 113.037 106.066 113.037ZM128.404 109.313C128.391 108.755 128.396 108.333 128.42 107.943V107.941L128.428 107.815C128.428 107.762 128.404 107.711 128.36 107.682C128.317 107.65 128.261 107.646 128.212 107.664C127.136 108.109 126.037 108.474 124.857 108.78C124.845 108.782 124.833 108.787 124.82 108.794C124.808 108.791 124.793 108.794 124.782 108.798C122.764 109.31 120.852 109.56 119.162 109.78C118.333 109.89 117.55 109.991 116.825 110.115L116.168 110.223C114.716 110.467 113.346 110.695 112.109 110.811C111.802 110.849 111.469 110.876 111.094 110.894C110.977 110.898 110.861 110.905 110.749 110.912C110.538 110.925 110.335 110.937 110.134 110.937L109.879 110.934C109.35 110.93 108.849 110.927 108.408 110.903C107.417 110.861 106.48 110.823 105.717 110.742C105.247 110.684 104.849 110.621 104.48 110.549C103.591 110.481 102.618 110.36 101.595 110.187C100.604 110.008 99.5172 109.776 98.3106 109.308C97.5787 109.022 96.9818 108.702 96.4314 108.302C96.1545 108.12 95.8741 107.878 95.5227 107.521C95.4156 107.4 95.3109 107.268 95.2143 107.129C95.1783 107.078 95.1154 107.054 95.0491 107.069C94.9886 107.083 94.9432 107.134 94.9328 107.199C94.8432 107.883 94.8118 108.552 94.8408 109.182C94.8827 110.614 95.2318 112.02 95.8473 113.249C96.4023 114.379 97.2506 115.35 98.3024 116.063C99.1763 116.659 100.184 117.105 101.474 117.468C102.419 117.732 103.353 117.916 104.258 118.097L104.631 118.171C105.569 118.372 106.401 118.513 107.203 118.651L107.469 118.694C107.675 118.712 107.879 118.732 108.078 118.75C108.74 118.811 109.363 118.869 109.961 118.85C110.127 118.857 110.292 118.862 110.451 118.862C110.968 118.862 111.458 118.828 111.932 118.797L112.151 118.782C112.98 118.719 113.789 118.629 114.709 118.499C114.849 118.464 114.993 118.43 115.159 118.397C115.389 118.339 115.642 118.269 115.913 118.188C116.192 118.108 116.495 118.021 116.828 117.936C118.067 117.592 119.7 117.039 121.969 116.196C122.457 116.019 122.963 115.825 123.499 115.621C125.131 115.001 126.981 114.298 129.176 113.652C129.218 113.639 129.254 113.607 129.274 113.567C129.293 113.525 129.29 113.479 129.274 113.438C128.746 112.292 128.452 110.903 128.404 109.313Z" fill="white"/>
<path d="M137.378 112.82C137.342 112.856 137.309 112.892 137.277 112.921C137.206 112.979 137.143 113.041 137.078 113.099C136.971 113.198 136.855 113.287 136.712 113.382C135.96 113.93 134.7 114.337 133.686 113.927C133.492 113.878 133.322 113.816 133.138 113.721C132.966 113.652 132.707 113.471 132.494 113.27C132.259 113.045 132.057 112.791 131.897 112.509C131.543 111.918 131.284 111.162 131.148 110.323C130.997 109.48 130.952 108.554 131.007 107.57C131.049 106.807 131.129 105.65 131.373 104.46C131.65 103.19 132.11 102.076 132.743 101.152L132.777 101.101C132.946 100.846 133.112 100.606 133.325 100.394L133.655 100.025C133.711 99.9597 133.747 99.9178 133.821 99.8434L133.984 99.691C134.295 99.4118 134.557 99.2198 134.859 99.0535C135.029 98.9581 135.215 98.8813 135.405 98.8255L135.485 98.8034C135.56 98.7836 135.633 98.7627 135.716 98.7522L136.018 98.7231C136.038 98.7231 136.079 98.7254 136.094 98.7289C136.103 98.7289 136.115 98.7313 136.125 98.7289L136.334 98.7499C136.465 98.7766 136.595 98.8104 136.727 98.8522C136.799 98.8767 136.852 98.9034 136.901 98.9267C136.942 98.9465 136.978 98.9662 137.014 98.9802C137.119 99.0291 137.195 99.0721 137.271 99.1279C137.609 99.3315 137.866 99.5909 138.099 99.8364C138.528 100.326 138.871 100.875 139.146 101.521C139.393 102.102 139.562 102.713 139.65 103.331C139.665 103.491 139.679 103.648 139.699 103.796C139.703 103.949 139.708 104.102 139.708 104.257C139.71 104.48 139.708 104.676 139.703 104.875L139.699 105.083C139.674 106.104 139.633 107.187 139.486 108.193C139.39 109.046 139.144 109.921 138.734 110.861C138.374 111.579 137.936 112.221 137.437 112.762L137.378 112.82ZM140.176 100.289C139.625 99.3687 138.959 98.6405 138.193 98.1298C137.192 97.4563 136.028 97.2865 135.007 97.6575C134.486 97.8262 133.914 98.1636 133.4 98.6068C133.325 98.6754 133.242 98.7522 133.163 98.8325L132.998 98.9849C132.944 99.0384 132.879 99.1163 132.809 99.1966C132.76 99.2524 132.709 99.3071 132.658 99.3652C132.583 99.4606 132.501 99.5479 132.42 99.6375C132.263 99.8096 132.1 99.9864 131.989 100.181C130.494 102.127 129.751 105.1 129.722 109.272C129.776 111.142 130.205 112.713 130.954 113.813C131.013 113.905 131.082 113.99 131.15 114.073C131.196 114.131 131.239 114.187 131.293 114.26C131.359 114.332 131.429 114.402 131.499 114.47C131.552 114.524 131.608 114.576 131.673 114.647L132.052 114.958C132.149 115.023 132.248 115.086 132.348 115.146L132.539 115.267C132.552 115.274 132.586 115.292 132.597 115.294L132.774 115.386C132.803 115.399 132.832 115.413 132.861 115.428C132.913 115.452 132.964 115.476 133.02 115.498C133.076 115.515 133.129 115.537 133.181 115.558C133.286 115.6 133.393 115.643 133.507 115.665L133.635 115.699C133.754 115.73 133.875 115.764 133.994 115.775C134.152 115.804 134.314 115.818 134.494 115.822C134.559 115.828 134.622 115.83 134.687 115.83C136.215 115.83 137.441 114.958 138.047 114.424C138.173 114.32 138.285 114.213 138.383 114.111L138.869 113.574C138.896 113.542 138.959 113.453 138.996 113.399C139.088 113.278 139.175 113.154 139.258 113.041C139.551 112.681 139.754 112.296 139.953 111.923C140.019 111.8 140.081 111.679 140.155 111.547C140.965 109.766 141.151 108.064 141.287 106.823C141.303 106.661 141.321 106.509 141.337 106.36C141.614 103.986 141.243 102.056 140.176 100.289Z" fill="white"/>
<path d="M94.9817 97.8949C94.8921 97.9379 94.8025 97.9798 94.6955 98.0426C94.2661 98.3846 93.8449 98.7429 93.4062 99.1361C92.8163 99.6782 92.0414 100.42 91.2501 101.375C90.6369 102.112 89.755 103.255 89.1709 104.711C88.88 105.442 88.7217 106.174 88.7054 106.884C88.688 107.219 88.7217 107.575 88.7997 107.936C88.8113 107.999 88.8602 108.045 88.9207 108.057C88.9312 108.06 88.9428 108.06 88.9498 108.06C89.0033 108.06 89.0522 108.035 89.0813 107.99C89.9679 106.644 90.7824 105.226 91.5701 103.854C92.6813 101.923 93.8274 99.926 95.1876 98.1206C95.2319 98.0647 95.2214 97.9891 95.176 97.9333C95.1295 97.8774 95.0445 97.8635 94.9817 97.8949Z" fill="white"/>
<path d="M93.9149 111.021C93.9055 110.977 93.8788 110.939 93.8381 110.917C93.7962 110.893 93.7485 110.89 93.7066 110.907C92.785 111.268 91.988 111.438 91.1979 111.438C90.7418 111.433 90.0751 111.353 89.4619 110.983C88.8778 110.634 88.4938 110.111 88.2809 109.737C87.8015 108.823 87.5734 107.825 87.6211 106.852C87.6607 106.004 87.862 105.154 88.218 104.322C88.8941 102.759 89.8307 101.611 90.5696 100.786C90.8174 100.515 91.0502 100.241 91.2829 99.9691C91.9275 99.2107 92.536 98.4952 93.3668 97.9241L93.5437 97.8031C94.3803 97.2284 95.4182 96.5107 97.0448 96.0163C98.0408 95.7278 99.1253 95.7057 100.099 95.9581C100.996 96.1861 101.927 96.6468 102.895 97.3494C103.283 97.5123 103.62 97.6204 103.93 97.6763C104.374 97.7566 104.815 97.7449 105.278 97.6425C105.533 97.5751 105.777 97.4948 106.059 97.3762C106.061 97.3738 106.093 97.3517 106.093 97.3517C106.109 97.3378 106.129 97.3226 106.163 97.3005L106.294 97.204C106.638 96.9469 107.067 96.627 107.438 96.1815C107.795 95.7371 108.091 95.1555 107.641 94.2062C107.654 94.1864 107.659 94.1643 107.661 94.1399C107.664 94.0899 107.641 94.0387 107.601 94.0073C107.234 93.7304 106.851 93.4954 106.462 93.3093C105.763 92.9696 104.963 92.7009 104.012 92.4904C102.446 92.1647 100.797 92.0704 99.1078 92.2065C98.2445 92.2763 97.5103 92.4008 96.861 92.5846C96.74 92.623 96.6155 92.6567 96.4921 92.6881C96.2687 92.7498 96.036 92.8126 95.8138 92.8998C95.4833 93.0301 95.161 93.1616 94.8294 93.2942C93.6868 93.8281 92.5791 94.5308 91.4376 95.4498C89.7691 96.8666 88.3169 98.5825 87.001 100.692C85.9654 102.356 85.2067 103.984 84.7506 105.525C84.3434 106.877 84.184 108.203 84.2829 109.351C84.3003 109.577 84.3341 109.814 84.3946 110.118C84.412 110.169 84.426 110.227 84.4388 110.311C84.5179 110.684 84.6226 111.026 84.7436 111.332C84.7506 111.348 84.7611 111.366 84.7727 111.377C85.0881 111.731 85.4883 112.158 86.0608 112.659C87.0882 113.513 88.1866 114.046 89.4177 114.283C89.8645 114.373 90.3322 114.419 90.8174 114.419C92.0217 114.419 93.3261 114.143 94.606 113.607C94.6444 113.59 94.677 113.559 94.6909 113.52C94.7061 113.482 94.7061 113.438 94.6863 113.399C94.3396 112.645 94.0778 111.845 93.9149 111.021Z" fill="white"/>
</svg>
