<svg width="234" height="189" viewBox="0 0 234 189" fill="none" xmlns="http://www.w3.org/2000/svg">
<mask id="mask0_18_485" style="mask-type:luminance" maskUnits="userSpaceOnUse" x="78" y="56" width="78" height="77">
<path d="M78.3319 56.9238H155.668V132.029H78.3319V56.9238Z" fill="white"/>
</mask>
<g mask="url(#mask0_18_485)">
<path d="M153.771 57.8582C151.915 56.7002 149.428 57.2111 148.226 58.9975L124.218 94.6648H115.591V83.7293C115.591 83.2283 115.168 82.8211 114.648 82.8211H97.6867C97.1668 82.8211 96.7454 83.2283 96.7454 83.7293V94.6811C94.9782 94.841 93.5909 96.2763 93.5909 98.0214V100.216C93.5909 102.003 95.047 103.468 96.8764 103.567L99.0131 117.091C98.0005 117.169 96.8997 116.841 95.668 116.084C92.214 113.96 87.9873 113.668 84.3622 115.3C81.1169 116.763 79.0035 119.5 78.5601 122.812C77.8548 128.091 80.5309 130.436 82.193 131.365C82.1956 131.367 82.1969 131.368 82.1982 131.369C82.8802 131.749 83.3975 131.892 83.4546 131.909C83.5376 131.931 83.6218 131.941 83.7061 131.941H125.455C125.92 131.941 126.316 131.614 126.387 131.17L130.746 103.568C132.575 103.469 134.033 102.004 134.033 100.216V98.0214C134.033 97.157 133.674 96.335 133.064 95.7192L154.952 63.2023C156.156 61.4147 155.625 59.0175 153.771 57.8582ZM113.707 94.6648H109.936V84.6362H113.707V94.6648ZM108.053 94.6648H104.282V84.6362H108.053V94.6648ZM98.6293 84.6362H102.398V94.6648H98.6293V84.6362ZM95.4748 100.215V98.0202C95.4748 97.1707 96.1918 96.4787 97.0735 96.4787H122.995L119.443 101.757H97.0735C96.1918 101.757 95.4748 101.065 95.4748 100.215ZM123.347 108.487L124.048 108.926L121.665 112.467L115.114 108.372L117.498 104.832L118.199 105.271L123.347 108.487ZM100.822 116.475L98.7836 103.572H116.102L113.342 107.669C111.252 107.729 108.355 108.426 105.537 111.141C105.026 111.633 104.522 112.326 103.988 113.061C103.079 114.31 102.074 115.691 100.822 116.475ZM80.4297 123.043C80.7876 120.361 82.512 118.139 85.1595 116.944C88.1986 115.575 91.7473 115.826 94.6554 117.614C96.6819 118.859 98.6034 119.219 100.365 118.681C102.725 117.96 104.281 115.821 105.531 114.102C106.016 113.435 106.475 112.805 106.869 112.425C109.273 110.109 111.692 109.527 113.431 109.484L119.151 113.059C116.816 112.552 112.734 112.472 108.768 116.295C108.257 116.787 107.753 117.479 107.219 118.211C105.348 120.782 103.707 122.702 101.106 122.167C100.412 122.024 99.6691 121.71 98.899 121.238C95.445 119.114 91.2183 118.821 87.5931 120.453C84.3492 121.916 82.2345 124.653 81.7924 127.965C81.7613 128.191 81.738 128.416 81.7198 128.637C80.8044 127.574 80.0563 125.836 80.4297 123.043ZM85.9971 130.054L83.5687 129.773C83.5583 129.268 83.5868 128.742 83.6594 128.196C84.0173 125.514 85.7417 123.29 88.3905 122.097C91.4283 120.73 94.977 120.979 97.8851 122.767C98.8458 123.357 99.7949 123.751 100.709 123.941C104.74 124.777 107.161 121.452 108.762 119.254C109.247 118.587 109.704 117.958 110.1 117.578C114.084 113.739 118.127 114.56 119.681 115.091C119.96 115.186 120.425 115.344 120.931 115.594L120.913 118.003C118.683 117.841 115.281 118.284 111.998 121.448C111.486 121.94 110.981 122.633 110.447 123.367C109.295 124.953 107.858 126.927 105.952 127.335C104.809 127.579 103.56 127.269 102.131 126.391L102.05 126.343C99.0662 124.54 95.4645 124.086 92.1686 125.103C89.4265 125.946 87.2146 127.733 85.9971 130.054ZM92.743 126.832C95.5085 125.98 98.536 126.362 101.051 127.882C101.058 127.887 101.107 127.916 101.115 127.92C102.964 129.057 104.727 129.456 106.361 129.107C108.982 128.546 110.651 126.252 111.991 124.408C112.476 123.741 112.935 123.111 113.33 122.731C116.024 120.136 118.735 119.651 120.768 119.811C120.261 122.702 119.076 126.164 117.235 130.125H88.1247C89.1684 128.601 90.7904 127.433 92.743 126.832ZM124.646 130.126H119.3C121.209 125.896 122.378 122.21 122.781 119.149C122.985 117.608 122.994 116.191 122.811 114.941C122.777 114.713 122.737 114.493 122.691 114.275C122.706 114.256 122.72 114.236 122.733 114.216L126.142 109.152C126.278 108.951 126.325 108.705 126.273 108.469C126.221 108.234 126.073 108.028 125.864 107.896L125.162 107.458L127.778 103.572H128.839L124.646 130.126ZM132.148 100.215C132.148 101.065 131.431 101.757 130.549 101.757H129L131.976 97.3331C132.088 97.5417 132.148 97.7766 132.148 98.0214V100.215ZM153.372 62.2142L131.023 95.4156L126.486 102.156C126.486 102.158 126.484 102.158 126.484 102.159L123.581 106.471L120.014 104.242L120.735 103.173C120.735 103.172 120.737 103.171 120.738 103.169L125.52 96.0664L149.806 59.9856C150.444 59.0374 151.763 58.7676 152.746 59.381C153.728 59.9956 154.01 61.2673 153.372 62.2142Z" fill="white"/>
</g>
<path d="M143.809 124.181C141.184 124.181 139.049 122.124 139.049 119.594C139.049 119.093 138.628 118.687 138.108 118.687C137.588 118.687 137.165 119.093 137.165 119.594C137.165 122.124 135.03 124.181 132.404 124.181C131.884 124.181 131.463 124.587 131.463 125.088C131.463 125.589 131.884 125.996 132.404 125.996C135.03 125.996 137.165 128.054 137.165 130.583C137.165 131.084 137.588 131.49 138.108 131.49C138.628 131.49 139.049 131.084 139.049 130.583C139.049 128.054 141.184 125.996 143.809 125.996C144.33 125.996 144.751 125.589 144.751 125.088C144.751 124.587 144.33 124.181 143.809 124.181ZM138.108 127.313C137.541 126.4 136.746 125.634 135.797 125.088C136.746 124.542 137.541 123.778 138.108 122.863C138.674 123.778 139.468 124.542 140.417 125.088C139.468 125.634 138.674 126.4 138.108 127.313Z" fill="white"/>
<path d="M149.157 117.068C147.654 117.068 146.431 115.89 146.431 114.442C146.431 113.941 146.009 113.535 145.489 113.535C144.969 113.535 144.548 113.941 144.548 114.442C144.548 115.89 143.325 117.068 141.824 117.068C141.302 117.068 140.881 117.474 140.881 117.976C140.881 118.477 141.302 118.883 141.824 118.883C143.325 118.883 144.548 120.061 144.548 121.508C144.548 122.009 144.969 122.416 145.489 122.416C146.009 122.416 146.431 122.009 146.431 121.508C146.431 120.061 147.654 118.883 149.157 118.883C149.677 118.883 150.098 118.477 150.098 117.976C150.098 117.474 149.677 117.068 149.157 117.068ZM145.489 118.83C145.236 118.507 144.938 118.221 144.603 117.976C144.938 117.731 145.236 117.444 145.489 117.123C145.744 117.444 146.041 117.731 146.376 117.976C146.041 118.221 145.743 118.507 145.489 118.83Z" fill="white"/>
<mask id="mask1_18_485" style="mask-type:luminance" maskUnits="userSpaceOnUse" x="78" y="56" width="78" height="77">
<path d="M78.3319 56.9238H155.668V132.029H78.3319V56.9238Z" fill="white"/>
</mask>
<g mask="url(#mask1_18_485)">
<path d="M153.771 57.8582C151.915 56.7002 149.428 57.2111 148.226 58.9975L124.218 94.6648H115.591V83.7293C115.591 83.2283 115.168 82.8211 114.648 82.8211H97.6867C97.1668 82.8211 96.7454 83.2283 96.7454 83.7293V94.6811C94.9782 94.841 93.5909 96.2763 93.5909 98.0214V100.216C93.5909 102.003 95.047 103.468 96.8764 103.567L99.0131 117.091C98.0005 117.169 96.8997 116.841 95.668 116.084C92.214 113.96 87.9873 113.668 84.3622 115.3C81.1169 116.763 79.0035 119.5 78.5601 122.812C77.8548 128.091 80.5309 130.436 82.193 131.365C82.1956 131.367 82.1969 131.368 82.1982 131.369C82.8802 131.749 83.3975 131.892 83.4546 131.909C83.5376 131.931 83.6218 131.941 83.7061 131.941H125.455C125.92 131.941 126.316 131.614 126.387 131.17L130.746 103.568C132.575 103.469 134.033 102.004 134.033 100.216V98.0214C134.033 97.157 133.674 96.335 133.064 95.7192L154.952 63.2023C156.156 61.4147 155.625 59.0175 153.771 57.8582ZM113.707 94.6648H109.936V84.6362H113.707V94.6648ZM108.053 94.6648H104.282V84.6362H108.053V94.6648ZM98.6293 84.6362H102.398V94.6648H98.6293V84.6362ZM95.4748 100.215V98.0202C95.4748 97.1707 96.1918 96.4787 97.0735 96.4787H122.995L119.443 101.757H97.0735C96.1918 101.757 95.4748 101.065 95.4748 100.215ZM123.347 108.487L124.048 108.926L121.665 112.467L115.114 108.372L117.498 104.832L118.199 105.271L123.347 108.487ZM100.822 116.475L98.7836 103.572H116.102L113.342 107.669C111.252 107.729 108.355 108.426 105.537 111.141C105.026 111.633 104.522 112.326 103.988 113.061C103.079 114.31 102.074 115.691 100.822 116.475ZM80.4297 123.043C80.7876 120.361 82.512 118.139 85.1595 116.944C88.1986 115.575 91.7473 115.826 94.6554 117.614C96.6819 118.859 98.6034 119.219 100.365 118.681C102.725 117.96 104.281 115.821 105.531 114.102C106.016 113.435 106.475 112.805 106.869 112.425C109.273 110.109 111.692 109.527 113.431 109.484L119.151 113.059C116.816 112.552 112.734 112.472 108.768 116.295C108.257 116.787 107.753 117.479 107.219 118.211C105.348 120.782 103.707 122.702 101.106 122.167C100.412 122.024 99.6691 121.71 98.899 121.238C95.445 119.114 91.2183 118.821 87.5931 120.453C84.3492 121.916 82.2345 124.653 81.7924 127.965C81.7613 128.191 81.738 128.416 81.7198 128.637C80.8044 127.574 80.0563 125.836 80.4297 123.043ZM85.9971 130.054L83.5687 129.773C83.5583 129.268 83.5868 128.742 83.6594 128.196C84.0173 125.514 85.7417 123.29 88.3905 122.097C91.4283 120.73 94.977 120.979 97.8851 122.767C98.8458 123.357 99.7949 123.751 100.709 123.941C104.74 124.777 107.161 121.452 108.762 119.254C109.247 118.587 109.704 117.958 110.1 117.578C114.084 113.739 118.127 114.56 119.681 115.091C119.96 115.186 120.425 115.344 120.931 115.594L120.913 118.003C118.683 117.841 115.281 118.284 111.998 121.448C111.486 121.94 110.981 122.633 110.447 123.367C109.295 124.953 107.858 126.927 105.952 127.335C104.809 127.579 103.56 127.269 102.131 126.391L102.05 126.343C99.0662 124.54 95.4645 124.086 92.1686 125.103C89.4265 125.946 87.2146 127.733 85.9971 130.054ZM92.743 126.832C95.5085 125.98 98.536 126.362 101.051 127.882C101.058 127.887 101.107 127.916 101.115 127.92C102.964 129.057 104.727 129.456 106.361 129.107C108.982 128.546 110.651 126.252 111.991 124.408C112.476 123.741 112.935 123.111 113.33 122.731C116.024 120.136 118.735 119.651 120.768 119.811C120.261 122.702 119.076 126.164 117.235 130.125H88.1247C89.1684 128.601 90.7904 127.433 92.743 126.832ZM124.646 130.126H119.3C121.209 125.896 122.378 122.21 122.781 119.149C122.985 117.608 122.994 116.191 122.811 114.941C122.777 114.713 122.737 114.493 122.691 114.275C122.706 114.256 122.72 114.236 122.733 114.216L126.142 109.152C126.278 108.951 126.325 108.705 126.273 108.469C126.221 108.234 126.073 108.028 125.864 107.896L125.162 107.458L127.778 103.572H128.839L124.646 130.126ZM132.148 100.215C132.148 101.065 131.431 101.757 130.549 101.757H129L131.976 97.3331C132.088 97.5417 132.148 97.7766 132.148 98.0214V100.215ZM153.372 62.2142L131.023 95.4156L126.486 102.156C126.486 102.158 126.484 102.158 126.484 102.159L123.581 106.471L120.014 104.242L120.735 103.173C120.735 103.172 120.737 103.171 120.738 103.169L125.52 96.0664L149.806 59.9856C150.444 59.0374 151.763 58.7676 152.746 59.381C153.728 59.9956 154.01 61.2673 153.372 62.2142Z" fill="white"/>
</g>
<path d="M143.809 124.181C141.184 124.181 139.049 122.124 139.049 119.594C139.049 119.093 138.628 118.687 138.108 118.687C137.588 118.687 137.165 119.093 137.165 119.594C137.165 122.124 135.03 124.181 132.404 124.181C131.884 124.181 131.463 124.587 131.463 125.088C131.463 125.589 131.884 125.996 132.404 125.996C135.03 125.996 137.165 128.054 137.165 130.583C137.165 131.084 137.588 131.49 138.108 131.49C138.628 131.49 139.049 131.084 139.049 130.583C139.049 128.054 141.184 125.996 143.809 125.996C144.33 125.996 144.751 125.589 144.751 125.088C144.751 124.587 144.33 124.181 143.809 124.181ZM138.108 127.313C137.541 126.4 136.746 125.634 135.797 125.088C136.746 124.542 137.541 123.778 138.108 122.863C138.674 123.778 139.468 124.542 140.417 125.088C139.468 125.634 138.674 126.4 138.108 127.313Z" fill="white"/>
<path d="M149.157 117.068C147.654 117.068 146.431 115.89 146.431 114.442C146.431 113.941 146.009 113.535 145.489 113.535C144.969 113.535 144.548 113.941 144.548 114.442C144.548 115.89 143.325 117.068 141.824 117.068C141.302 117.068 140.881 117.474 140.881 117.976C140.881 118.477 141.302 118.883 141.824 118.883C143.325 118.883 144.548 120.061 144.548 121.508C144.548 122.009 144.969 122.416 145.489 122.416C146.009 122.416 146.431 122.009 146.431 121.508C146.431 120.061 147.654 118.883 149.157 118.883C149.677 118.883 150.098 118.477 150.098 117.976C150.098 117.474 149.677 117.068 149.157 117.068ZM145.489 118.83C145.236 118.507 144.938 118.221 144.603 117.976C144.938 117.731 145.236 117.444 145.489 117.123C145.744 117.444 146.041 117.731 146.376 117.976C146.041 118.221 145.743 118.507 145.489 118.83Z" fill="white"/>
</svg>
