<svg width="24" height="24" viewBox="0 0 24 24" fill="none" xmlns="http://www.w3.org/2000/svg">
<path fill-rule="evenodd" clip-rule="evenodd" d="M13.0951 10.287L13.2321 10.429C14.7371 12.059 14.9101 14.439 13.5141 15.835L11.4211 17.928L11.2841 18.058C9.81209 19.408 7.74709 19.383 6.20909 17.845C4.61909 16.255 4.61609 14.071 6.08909 12.597L7.77409 10.914L8.71609 11.856L7.03209 13.539L6.92609 13.651C6.08109 14.595 6.12209 15.874 7.15109 16.903C8.21109 17.964 9.51509 17.95 10.4791 16.986L12.5721 14.893L12.6621 14.796C13.4351 13.901 13.2571 12.333 12.1531 11.229L13.0951 10.287ZM12.7151 5.97697C14.1881 4.62897 16.2531 4.65297 17.7911 6.19097C19.3811 7.78097 19.3841 9.96497 17.9111 11.439L16.2261 13.123L15.2841 12.181L16.9681 10.497L17.0741 10.385C17.9191 9.44097 17.8781 8.16197 16.8491 7.13297C15.7891 6.07297 14.4851 6.08597 13.5211 7.04997L11.4281 9.14297L11.3381 9.23997C10.5651 10.135 10.7431 11.703 11.8471 12.807L10.9051 13.749L10.7681 13.607C9.26309 11.977 9.09009 9.59697 10.4861 8.20097L12.5791 6.10797L12.7151 5.97697Z" fill="black"/>
</svg>
