<svg width="32" height="29" viewBox="0 0 32 29" fill="none" xmlns="http://www.w3.org/2000/svg">
<path d="M13.8695 13.47H17.4824V3.645C17.4824 3.203 17.3073 2.8284 16.9571 2.52122C16.6069 2.21381 16.1799 2.0601 15.676 2.0601C15.1721 2.0601 14.745 2.21381 14.3948 2.52122C14.0446 2.8284 13.8695 3.203 13.8695 3.645V13.47ZM4.62551 18.6995H26.7264V15.9527C26.7264 15.8294 26.6813 15.7281 26.591 15.6489C26.5004 15.5697 26.385 15.5301 26.2446 15.5301H5.10736C4.96697 15.5301 4.8515 15.5697 4.76094 15.6489C4.67065 15.7281 4.62551 15.8294 4.62551 15.9527V18.6995ZM2.86721 26.9399H6.82378V23.8498C6.82378 23.5579 6.93638 23.3132 7.16158 23.1157C7.38653 22.9184 7.66548 22.8197 7.99846 22.8197C8.33144 22.8197 8.61027 22.9184 8.83495 23.1157C9.05989 23.3132 9.17236 23.5579 9.17236 23.8498V26.9399H14.5017V23.8498C14.5017 23.5579 14.6143 23.3132 14.8395 23.1157C15.0647 22.9184 15.3436 22.8197 15.6764 22.8197C16.0093 22.8197 16.2882 22.9184 16.5128 23.1157C16.7378 23.3132 16.8503 23.5579 16.8503 23.8498V26.9399H22.1796V23.8498C22.1796 23.5579 22.2922 23.3132 22.5174 23.1157C22.7426 22.9184 23.0217 22.8197 23.3546 22.8197C23.6874 22.8197 23.9662 22.9184 24.1911 23.1157C24.4158 23.3132 24.5282 23.5579 24.5282 23.8498V26.9399H28.4847C28.6452 26.9399 28.7757 26.8849 28.8762 26.7748C28.9766 26.6647 29.0017 26.5436 28.9513 26.4115L27.2051 20.7596H4.14679L2.40062 26.4115C2.35026 26.5436 2.37531 26.6647 2.47578 26.7748C2.57624 26.8849 2.70672 26.9399 2.86721 26.9399ZM28.6053 29H2.74665C1.85941 29 1.13787 28.6892 0.582039 28.0675C0.0259473 27.446 -0.131668 26.7531 0.109191 25.9889L2.27693 18.9241V15.8734C2.27693 15.2062 2.54349 14.6387 3.07662 14.1711C3.60949 13.7037 4.25626 13.47 5.01694 13.47H11.5209V3.645C11.5209 2.63258 11.9249 1.77192 12.7328 1.06301C13.5407 0.354338 14.5218 0 15.676 0C16.8302 0 17.8112 0.354338 18.6191 1.06301C19.427 1.77192 19.831 2.63258 19.831 3.645V13.47H26.335C27.0957 13.47 27.7424 13.7037 28.2753 14.1711C28.8084 14.6387 29.075 15.2062 29.075 15.8734V18.9241L31.2427 26.0153C31.5319 26.7707 31.3944 27.457 30.8302 28.0744C30.2663 28.6915 29.5246 29 28.6053 29Z" fill="white"/>
</svg>
