<svg width="24" height="24" viewBox="0 0 24 24" fill="none" xmlns="http://www.w3.org/2000/svg">
<path fill-rule="evenodd" clip-rule="evenodd" d="M17.635 17.634H15.263V13.92C15.263 13.035 15.247 11.896 14.029 11.896C12.794 11.896 12.606 12.861 12.606 13.856V17.634H10.234V9.998H12.51V11.042H12.543C12.859 10.442 13.633 9.809 14.788 9.809C17.191 9.809 17.635 11.389 17.635 13.446V17.634ZM7.558 8.955C7.37424 8.95989 7.19137 8.92791 7.02018 8.86095C6.84899 8.79399 6.69295 8.69341 6.56128 8.56514C6.4296 8.43688 6.32496 8.28353 6.25354 8.11415C6.18211 7.94478 6.14535 7.76281 6.14541 7.57899C6.14548 7.39517 6.18238 7.21322 6.25393 7.0439C6.32548 6.87457 6.43023 6.7213 6.56199 6.59313C6.69376 6.46496 6.84987 6.3645 7.02111 6.29766C7.19235 6.23083 7.37525 6.19898 7.559 6.204C7.91738 6.21379 8.25779 6.36307 8.50777 6.62007C8.75774 6.87706 8.89754 7.22147 8.89741 7.57999C8.89728 7.9385 8.75723 8.28281 8.50707 8.53962C8.25691 8.79643 7.91639 8.94547 7.558 8.955ZM6.371 17.634H8.745V9.998H6.371V17.634ZM18.817 4H5.18C4.53 4 4 4.517 4 5.154V18.846C4 19.483 4.53 20 5.18 20H18.817C19.469 20 20 19.483 20 18.846V5.154C20 4.517 19.47 4 18.817 4Z" fill="black"/>
</svg>
