<svg width="26" height="26" viewBox="0 0 26 26" fill="none" xmlns="http://www.w3.org/2000/svg">
<path d="M22.1532 22.1535H18.3008V16.1204C18.3008 14.6818 18.2751 12.8298 16.2972 12.8298C14.2907 12.8298 13.9837 14.3973 13.9837 16.0157V22.1531H10.1314V9.74669H13.8296V11.4422H13.8814C14.2515 10.8093 14.7864 10.2887 15.4289 9.93582C16.0715 9.58289 16.7978 9.41086 17.5304 9.43804C21.4349 9.43804 22.1548 12.0064 22.1548 15.3475L22.1532 22.1535ZM5.78458 8.05091C4.54989 8.05111 3.54879 7.05032 3.54859 5.81562C3.54838 4.58093 4.54908 3.57983 5.78377 3.57963C7.01846 3.57932 8.01956 4.58012 8.01976 5.81481C8.01987 6.40773 7.78444 6.97642 7.36527 7.39577C6.94609 7.81511 6.37751 8.05077 5.78458 8.05091ZM7.71081 22.1536H3.85439V9.74669H7.71071V22.1535L7.71081 22.1536ZM24.0737 0.0018923H1.91861C0.871506 -0.00988893 0.0127968 0.828914 0 1.87602V24.1235C0.0123906 25.1712 0.870998 26.0108 1.91851 25.9998H24.0737C25.1235 26.0128 25.9854 25.1732 25.9999 24.1235V1.87429C25.985 0.825156 25.123 -0.0135452 24.0737 0.000165739" fill="#4D8FA7"/>
</svg>
