<svg width="78" height="14" viewBox="0 0 78 14" fill="none" xmlns="http://www.w3.org/2000/svg">
<path d="M70.9997 11.7285L67.6065 13.8687C67.4566 13.9686 67.2999 14.0114 67.1363 13.9971C66.9728 13.9829 66.8297 13.9258 66.7071 13.8259C66.5844 13.726 66.489 13.6013 66.4209 13.4518C66.3528 13.3023 66.3391 13.1345 66.38 12.9484L67.2794 8.90338L64.2746 6.18528C64.1384 6.05686 64.0533 5.91047 64.0195 5.7461C63.9857 5.58173 63.9958 5.42136 64.0498 5.26498C64.1037 5.1086 64.1855 4.98018 64.2951 4.87974C64.4046 4.77929 64.5545 4.71508 64.7448 4.68711L68.7103 4.32327L70.2433 0.513656C70.3115 0.342438 70.4172 0.214023 70.5606 0.128414C70.7039 0.0428046 70.8503 0 70.9997 0C71.149 0 71.2954 0.0428046 71.4387 0.128414C71.5821 0.214023 71.6878 0.342438 71.756 0.513656L73.289 4.32327L77.2545 4.68711C77.4453 4.71565 77.5952 4.77986 77.7042 4.87974C77.8133 4.97961 77.895 5.10803 77.9495 5.26498C78.004 5.42193 78.0144 5.58259 77.9806 5.74696C77.9468 5.91133 77.8615 6.05744 77.7247 6.18528L74.7199 8.90338L75.6193 12.9484C75.6602 13.1339 75.6465 13.3017 75.5784 13.4518C75.5103 13.6019 75.4149 13.7266 75.2922 13.8259C75.1696 13.9252 75.0265 13.9823 74.863 13.9971C74.6994 14.012 74.5427 13.9692 74.3928 13.8687L70.9997 11.7285Z" fill="#E8E8E8"/>
<path d="M54.9997 11.7285L51.6065 13.8687C51.4566 13.9686 51.2999 14.0114 51.1363 13.9971C50.9728 13.9829 50.8297 13.9258 50.7071 13.8259C50.5844 13.726 50.489 13.6013 50.4209 13.4518C50.3528 13.3023 50.3391 13.1345 50.38 12.9484L51.2794 8.90338L48.2746 6.18528C48.1384 6.05686 48.0533 5.91047 48.0195 5.7461C47.9857 5.58173 47.9958 5.42136 48.0498 5.26498C48.1037 5.1086 48.1855 4.98018 48.2951 4.87974C48.4046 4.77929 48.5545 4.71508 48.7448 4.68711L52.7103 4.32327L54.2433 0.513656C54.3115 0.342438 54.4172 0.214023 54.5606 0.128414C54.7039 0.0428046 54.8503 0 54.9997 0C55.149 0 55.2954 0.0428046 55.4387 0.128414C55.5821 0.214023 55.6878 0.342438 55.756 0.513656L57.289 4.32327L61.2545 4.68711C61.4453 4.71565 61.5952 4.77986 61.7042 4.87974C61.8133 4.97961 61.895 5.10803 61.9495 5.26498C62.004 5.42193 62.0144 5.58259 61.9806 5.74696C61.9468 5.91133 61.8615 6.05744 61.7247 6.18528L58.7199 8.90338L59.6193 12.9484C59.6602 13.1339 59.6465 13.3017 59.5784 13.4518C59.5103 13.6019 59.4149 13.7266 59.2922 13.8259C59.1696 13.9252 59.0265 13.9823 58.863 13.9971C58.6994 14.012 58.5427 13.9692 58.3928 13.8687L54.9997 11.7285Z" fill="#4E8EA7"/>
<path d="M38.9997 11.7285L35.6065 13.8687C35.4566 13.9686 35.2999 14.0114 35.1363 13.9971C34.9728 13.9829 34.8297 13.9258 34.7071 13.8259C34.5844 13.726 34.489 13.6013 34.4209 13.4518C34.3528 13.3023 34.3391 13.1345 34.38 12.9484L35.2794 8.90338L32.2746 6.18528C32.1384 6.05686 32.0533 5.91047 32.0195 5.7461C31.9857 5.58173 31.9958 5.42136 32.0498 5.26498C32.1037 5.1086 32.1855 4.98018 32.2951 4.87974C32.4046 4.77929 32.5545 4.71508 32.7448 4.68711L36.7103 4.32327L38.2433 0.513656C38.3115 0.342438 38.4172 0.214023 38.5606 0.128414C38.7039 0.0428046 38.8503 0 38.9997 0C39.149 0 39.2954 0.0428046 39.4387 0.128414C39.5821 0.214023 39.6878 0.342438 39.756 0.513656L41.289 4.32327L45.2545 4.68711C45.4453 4.71565 45.5952 4.77986 45.7042 4.87974C45.8133 4.97961 45.895 5.10803 45.9495 5.26498C46.004 5.42193 46.0144 5.58259 45.9806 5.74696C45.9468 5.91133 45.8615 6.05744 45.7247 6.18528L42.7199 8.90338L43.6193 12.9484C43.6602 13.1339 43.6465 13.3017 43.5784 13.4518C43.5103 13.6019 43.4149 13.7266 43.2922 13.8259C43.1696 13.9252 43.0265 13.9823 42.863 13.9971C42.6994 14.012 42.5427 13.9692 42.3928 13.8687L38.9997 11.7285Z" fill="#4E8EA7"/>
<path d="M22.9997 11.7285L19.6065 13.8687C19.4566 13.9686 19.2999 14.0114 19.1363 13.9971C18.9728 13.9829 18.8297 13.9258 18.7071 13.8259C18.5844 13.726 18.489 13.6013 18.4209 13.4518C18.3528 13.3023 18.3391 13.1345 18.38 12.9484L19.2794 8.90338L16.2746 6.18528C16.1384 6.05686 16.0533 5.91047 16.0195 5.7461C15.9857 5.58173 15.9958 5.42136 16.0498 5.26498C16.1037 5.1086 16.1855 4.98018 16.2951 4.87974C16.4046 4.77929 16.5545 4.71508 16.7448 4.68711L20.7103 4.32327L22.2433 0.513656C22.3115 0.342438 22.4172 0.214023 22.5606 0.128414C22.7039 0.0428046 22.8503 0 22.9997 0C23.149 0 23.2954 0.0428046 23.4387 0.128414C23.5821 0.214023 23.6878 0.342438 23.756 0.513656L25.289 4.32327L29.2545 4.68711C29.4453 4.71565 29.5952 4.77986 29.7042 4.87974C29.8133 4.97961 29.895 5.10803 29.9495 5.26498C30.004 5.42193 30.0144 5.58259 29.9806 5.74696C29.9468 5.91133 29.8615 6.05744 29.7247 6.18528L26.7199 8.90338L27.6193 12.9484C27.6602 13.1339 27.6465 13.3017 27.5784 13.4518C27.5103 13.6019 27.4149 13.7266 27.2922 13.8259C27.1696 13.9252 27.0265 13.9823 26.863 13.9971C26.6994 14.012 26.5427 13.9692 26.3928 13.8687L22.9997 11.7285Z" fill="#4E8EA7"/>
<path d="M6.99965 11.7285L3.60648 13.8687C3.45658 13.9686 3.29986 14.0114 3.13634 13.9971C2.97281 13.9829 2.82972 13.9258 2.70708 13.8259C2.58443 13.726 2.48904 13.6013 2.42091 13.4518C2.35277 13.3023 2.33915 13.1345 2.38003 12.9484L3.27942 8.90338L0.274623 6.18528C0.138351 6.05686 0.0533171 5.91047 0.0195216 5.7461C-0.0142739 5.58173 -0.00418977 5.42136 0.049774 5.26498C0.103738 5.1086 0.185501 4.98018 0.295064 4.87974C0.404627 4.77929 0.554526 4.71508 0.744762 4.68711L4.71028 4.32327L6.24334 0.513656C6.31148 0.342438 6.41722 0.214023 6.56058 0.128414C6.70394 0.0428046 6.8503 0 6.99965 0C7.14901 0 7.29536 0.0428046 7.43872 0.128414C7.58208 0.214023 7.68783 0.342438 7.75596 0.513656L9.28902 4.32327L13.2545 4.68711C13.4453 4.71565 13.5952 4.77986 13.7042 4.87974C13.8133 4.97961 13.895 5.10803 13.9495 5.26498C14.004 5.42193 14.0144 5.58259 13.9806 5.74696C13.9468 5.91133 13.8615 6.05744 13.7247 6.18528L10.7199 8.90338L11.6193 12.9484C11.6602 13.1339 11.6465 13.3017 11.5784 13.4518C11.5103 13.6019 11.4149 13.7266 11.2922 13.8259C11.1696 13.9252 11.0265 13.9823 10.863 13.9971C10.6994 14.012 10.5427 13.9692 10.3928 13.8687L6.99965 11.7285Z" fill="#4E8EA7"/>
</svg>
