<svg width="55" height="63" viewBox="0 0 55 63" fill="none" xmlns="http://www.w3.org/2000/svg">
<path d="M36.7794 22.5034C36.7794 22.0217 36.6134 21.5597 36.318 21.219C36.0225 20.8784 35.6218 20.687 35.2039 20.687L22.5999 20.5962C22.1821 20.5962 21.7813 20.7875 21.4859 21.1282C21.1904 21.4688 21.0244 21.9308 21.0244 22.4126C21.0244 22.8943 21.1904 23.3564 21.4859 23.697C21.7813 24.0376 22.1821 24.229 22.5999 24.229H31.3597L18.3303 39.2872C18.1826 39.4561 18.0654 39.657 17.9854 39.8783C17.9054 40.0997 17.8643 40.3371 17.8643 40.5769C17.8643 40.8167 17.9054 41.0541 17.9854 41.2754C18.0654 41.4968 18.1826 41.6977 18.3303 41.8665C18.4768 42.0368 18.651 42.1719 18.843 42.2642C19.035 42.3564 19.2409 42.4038 19.4489 42.4038C19.6569 42.4038 19.8628 42.3564 20.0548 42.2642C20.2468 42.1719 20.421 42.0368 20.5675 41.8665L33.6284 26.8084V36.944C33.6284 37.4258 33.7944 37.8878 34.0899 38.2284C34.3853 38.5691 34.7861 38.7605 35.2039 38.7605C35.6218 38.7605 36.0225 38.5691 36.318 38.2284C36.6134 37.8878 36.7794 37.4258 36.7794 36.944V22.5034Z" fill="white"/>
</svg>
