<svg width="74" height="91" viewBox="0 0 74 91" fill="none" xmlns="http://www.w3.org/2000/svg">
<mask id="mask0_18_509" style="mask-type:luminance" maskUnits="userSpaceOnUse" x="0" y="0" width="74" height="91">
<path d="M0 0H73.4878V90.9999H0V0Z" fill="white"/>
</mask>
<g mask="url(#mask0_18_509)">
<path d="M64.5428 25.9954L64.5443 32.9559C64.5458 53.0023 53.9159 71.2806 36.6971 81.0204C19.4784 71.2851 8.84092 53.0053 8.83941 32.9559L8.8379 17.6453C9.8048 16.958 10.8245 16.2918 11.8925 15.6573C27.1865 6.51733 46.1897 6.51431 61.4882 15.6512C61.5923 15.713 61.6933 15.7733 61.7944 15.8351L67.7829 9.17008C67.2082 8.79779 66.6199 8.43303 66.0225 8.07582C57.1741 2.78991 47.0299 -0.00150654 36.6866 6.09984e-07C31.5172 0.00150776 26.396 0.699362 21.4589 2.0589C16.5249 3.41843 11.7778 5.43965 7.3536 8.08335C5.32476 9.29668 3.41358 10.6065 1.67888 11.9781L0 13.3029L0.00301686 32.9574C0.0045252 44.5768 3.14508 55.9836 9.08528 65.9389C15.0526 75.9425 23.6205 84.1012 33.8643 89.5333C34.1298 89.675 34.3998 89.8152 34.6728 89.9554L36.6986 90.9999L38.7275 89.9539C38.996 89.8152 39.263 89.675 39.5299 89.5333C49.7722 84.1027 58.3416 75.9425 64.3059 65.9374C70.2446 55.9806 73.3822 44.5753 73.3807 32.9544L73.3776 16.1607L64.5428 25.9954Z" fill="#4D8FA7"/>
</g>
</svg>
