<svg width="121" height="126" viewBox="0 0 121 126" fill="none" xmlns="http://www.w3.org/2000/svg">
<mask id="mask0_18_569" style="mask-type:luminance" maskUnits="userSpaceOnUse" x="0" y="0" width="121" height="126">
<path d="M0 0H120.763V126H0V0Z" fill="white"/>
</mask>
<g mask="url(#mask0_18_569)">
<path d="M89.7972 16.9619H93.6674V0H27.0936V16.9619H30.9638V20.1924H0V37.1543H3.87022V126H116.893V37.1543H120.763V20.1924H89.7972V16.9619ZM31.7378 4.84567H89.0231V12.1163H31.7378V4.84567ZM4.64427 25.0381H30.9638V32.3087H4.64427V25.0381ZM8.51449 121.154V37.1543H30.9638V121.154H8.51449ZM47.2207 121.154V101.77H58.0594V121.154H47.2207ZM62.7036 121.154V101.77H73.5402V121.154H62.7036ZM85.1529 121.154H78.1865V96.9239H42.5765V121.154H35.6101V16.9619H85.1529V121.154ZM112.246 121.154H89.7972V37.1543H112.246V121.154ZM116.119 25.0381V32.3087H89.7972V25.0381H116.119Z" fill="#4D8FA7"/>
</g>
</svg>
