<svg width="46" height="46" viewBox="0 0 46 46" fill="none" xmlns="http://www.w3.org/2000/svg">
<circle cx="23" cy="23" r="23" fill="white"/>
<path d="M20.8191 18.421H24.4188V8.63175C24.4188 8.19135 24.2444 7.81812 23.8954 7.51205C23.5465 7.20575 23.121 7.05261 22.619 7.05261C22.1169 7.05261 21.6914 7.20575 21.3425 7.51205C20.9935 7.81812 20.8191 8.19135 20.8191 8.63175V18.421ZM11.6087 23.6315H33.6292V20.8947C33.6292 20.7718 33.5842 20.6709 33.4943 20.592C33.4041 20.513 33.289 20.4736 33.1491 20.4736H12.0888C11.9489 20.4736 11.8339 20.513 11.7436 20.592C11.6537 20.6709 11.6087 20.7718 11.6087 20.8947V23.6315ZM9.85678 31.842H13.799V28.763C13.799 28.4723 13.9112 28.2284 14.1355 28.0316C14.3597 27.835 14.6376 27.7367 14.9694 27.7367C15.3011 27.7367 15.579 27.835 15.8028 28.0316C16.0269 28.2284 16.139 28.4723 16.139 28.763V31.842H21.4489V28.763C21.4489 28.4723 21.5611 28.2284 21.7855 28.0316C22.0099 27.835 22.2878 27.7367 22.6193 27.7367C22.9511 27.7367 23.2289 27.835 23.4528 28.0316C23.6769 28.2284 23.789 28.4723 23.789 28.763V31.842H29.0989V28.763C29.0989 28.4723 29.2111 28.2284 29.4355 28.0316C29.6599 27.835 29.9379 27.7367 30.2697 27.7367C30.6012 27.7367 30.879 27.835 31.1032 28.0316C31.327 28.2284 31.4389 28.4723 31.4389 28.763V31.842H35.3811C35.541 31.842 35.671 31.7871 35.7711 31.6774C35.8712 31.5677 35.8962 31.4471 35.846 31.3155L34.1062 25.6841H11.1317L9.39189 31.3155C9.34171 31.4471 9.36667 31.5677 9.46677 31.6774C9.56687 31.7871 9.69688 31.842 9.85678 31.842ZM35.5013 33.8946H9.73666C8.85264 33.8946 8.13373 33.5848 7.57992 32.9654C7.02585 32.3462 6.86881 31.6558 7.10879 30.8943L9.26865 23.8553V20.8157C9.26865 20.1509 9.53424 19.5855 10.0654 19.1195C10.5964 18.6538 11.2408 18.421 11.9987 18.421H18.479V8.63175C18.479 7.623 18.8815 6.76547 19.6865 6.05915C20.4915 5.35305 21.469 5 22.619 5C23.769 5 24.7464 5.35305 25.5514 6.05915C26.3564 6.76547 26.7589 7.623 26.7589 8.63175V18.421H33.2392C33.9971 18.421 34.6415 18.6538 35.1725 19.1195C35.7037 19.5855 35.9693 20.1509 35.9693 20.8157V23.8553L38.1291 30.9207C38.4172 31.6733 38.2802 32.3572 37.7181 32.9723C37.1562 33.5871 36.4172 33.8946 35.5013 33.8946Z" fill="#4D8FA7"/>
</svg>
