<svg width="46" height="46" viewBox="0 0 46 46" fill="none" xmlns="http://www.w3.org/2000/svg">
<circle cx="23" cy="23" r="23" fill="white"/>
<path d="M23 11C29.6276 11 35 16.3724 35 23C35 29.6276 29.6276 35 23 35C16.3724 35 11 29.6276 11 23C11 16.3724 16.3724 11 23 11ZM19.5032 24.6788L19.3832 24.6836C19.2763 24.6961 19.1729 24.7296 19.079 24.7822C18.9851 24.8348 18.9025 24.9055 18.836 24.9901C18.7696 25.0748 18.7205 25.1718 18.6916 25.2755C18.6628 25.3792 18.6548 25.4876 18.668 25.5944C18.7973 26.6496 19.3073 27.6214 20.1022 28.3272C20.8971 29.0331 21.9224 29.4245 22.9855 29.4281C24.0486 29.4316 25.0764 29.047 25.8761 28.3464C26.6757 27.6459 27.1921 26.6775 27.3284 25.6232C27.3466 25.4126 27.2827 25.2032 27.1499 25.0387C27.0172 24.8742 26.826 24.7675 26.6163 24.7408C26.4067 24.7141 26.1948 24.7696 26.0251 24.8956C25.8554 25.0216 25.7411 25.2084 25.706 25.4168C25.6216 26.0763 25.2992 26.6824 24.7995 27.1209C24.2997 27.5595 23.6569 27.8003 22.992 27.7983C22.3271 27.7962 21.6858 27.5513 21.1887 27.1097C20.6917 26.6681 20.3731 26.0601 20.2928 25.4C20.2803 25.2931 20.2468 25.1897 20.1942 25.0958C20.1416 25.0019 20.0709 24.9193 19.9863 24.8528C19.9016 24.7864 19.8046 24.7373 19.7009 24.7084C19.5972 24.6796 19.4888 24.6716 19.382 24.6848L19.5032 24.6788ZM17.9768 18.5348C17.5328 18.5348 17.107 18.7112 16.7931 19.0251C16.4792 19.339 16.3028 19.7648 16.3028 20.2088C16.3028 20.6528 16.4792 21.0786 16.7931 21.3925C17.107 21.7064 17.5328 21.8828 17.9768 21.8828C18.4208 21.8828 18.8466 21.7064 19.1605 21.3925C19.4744 21.0786 19.6508 20.6528 19.6508 20.2088C19.6508 19.7648 19.4744 19.339 19.1605 19.0251C18.8466 18.7112 18.4208 18.5348 17.9768 18.5348ZM28.0232 18.5348C27.5792 18.5348 27.1534 18.7112 26.8395 19.0251C26.5256 19.339 26.3492 19.7648 26.3492 20.2088C26.3492 20.6528 26.5256 21.0786 26.8395 21.3925C27.1534 21.7064 27.5792 21.8828 28.0232 21.8828C28.4672 21.8828 28.893 21.7064 29.2069 21.3925C29.5208 21.0786 29.6972 20.6528 29.6972 20.2088C29.6972 19.7648 29.5208 19.339 29.2069 19.0251C28.893 18.7112 28.4672 18.5348 28.0232 18.5348Z" fill="#4D8FA7"/>
</svg>
