<svg width="67" height="61" viewBox="0 0 67 61" fill="none" xmlns="http://www.w3.org/2000/svg">
<mask id="mask0_18_210" style="mask-type:luminance" maskUnits="userSpaceOnUse" x="-1" y="0" width="68" height="62">
<path d="M-0.133612 0H66.229V61.0886H-0.133612V0Z" fill="white"/>
</mask>
<g mask="url(#mask0_18_210)">
<path fill-rule="evenodd" clip-rule="evenodd" d="M53.7013 19.0343C54.5768 18.318 55.3153 17.3265 55.8652 16.1296C56.416 17.3265 57.1545 18.318 58.029 19.0343C57.1545 19.7436 56.416 20.7351 55.8652 21.932C55.3153 20.7351 54.5768 19.7436 53.7013 19.0343ZM55.8652 26.7966C56.3795 26.7966 56.8096 26.4081 56.8614 25.8972C57.1627 22.962 58.5667 20.5823 60.3613 19.9803C61.2642 19.6758 61.2621 18.3939 60.3613 18.0813C58.5687 17.4792 57.1627 15.1006 56.8614 12.1644C56.7406 10.9847 54.9897 10.9837 54.8689 12.1644C54.5676 15.1006 53.1616 17.4792 51.369 18.0813C50.4682 18.3939 50.4661 19.6758 51.369 19.9803C53.1636 20.5823 54.5676 22.962 54.8689 25.8972C54.9207 26.4081 55.3508 26.7966 55.8652 26.7966ZM59.7343 43.9684C58.9431 41.6959 57.7571 39.8586 56.3166 38.7223C57.7571 37.579 58.9431 35.7488 59.7343 33.4763C60.5266 35.7488 61.7115 37.579 63.1511 38.7223C61.7115 39.8586 60.5266 41.6959 59.7343 43.9684ZM65.4762 37.7925C63.0425 36.8394 61.1363 33.1101 60.7326 28.5126C60.6869 28.0016 60.2538 27.605 59.7343 27.605C59.2149 27.605 58.7818 28.0016 58.7371 28.5126C58.3323 33.1111 56.4251 36.8394 53.9914 37.7925C53.1484 38.1254 53.1484 39.3203 53.9914 39.6532C56.4262 40.6063 58.3323 44.3346 58.7371 48.9321C58.7818 49.4441 59.2149 49.8397 59.7343 49.8397C60.2538 49.8397 60.6869 49.4441 60.7326 48.9321C61.1363 44.3346 63.0425 40.6063 65.4762 39.6532C66.3172 39.3213 66.3243 38.1305 65.4762 37.7925ZM38.6638 35.9086C37.5824 36.2213 36.5902 36.7474 35.7178 37.4799C35.2998 37.8239 34.6668 37.7784 34.3066 37.3504C33.9526 36.9305 34.0074 36.2982 34.4335 35.9471C35.52 35.0395 36.7566 34.3839 38.1089 33.9954C38.6405 33.8426 39.1954 34.1481 39.3496 34.6743C39.5028 35.2075 39.1954 35.7569 38.6638 35.9086ZM38.5421 28.8404C35.664 29.2906 32.9919 30.5715 30.8108 32.5313C30.3969 32.9067 29.7649 32.8652 29.3966 32.4625C29.0253 32.0507 29.0578 31.4174 29.4676 31.0521C31.9379 28.8252 34.9671 27.3764 38.2306 26.8654C38.7764 26.7815 39.2887 27.1558 39.376 27.6971C39.4622 28.2384 39.0889 28.7564 38.5421 28.8404ZM38.4903 21.0478C39.0412 20.9871 39.4399 20.4984 39.382 19.95C39.3242 19.4006 38.8302 19.004 38.2824 19.0576C32.8986 19.6222 27.9469 21.8784 23.9641 25.5926C23.5604 25.966 23.538 26.5983 23.9164 27.003C24.2918 27.3996 24.9258 27.4209 25.3316 27.0486C28.9929 23.6399 33.5438 21.5658 38.4903 21.0478ZM15.1981 53.2261H43.3141L46.0167 55.9244H12.8668C13.6439 55.0553 14.42 54.1559 15.1981 53.2261ZM8.54722 57.602C12.7968 53.2787 16.8841 48.2158 21.3701 41.7121L19.3412 39.6906C12.7735 44.1596 7.69912 48.239 3.41501 52.4784C2.48576 53.4011 2.06475 54.164 2.01098 55.0483C1.94504 56.146 2.28083 56.9544 3.17052 57.8387C4.06021 58.7311 4.87078 59.066 5.97148 58.9982C6.87131 58.9446 7.64129 58.5247 8.54722 57.602ZM4.40209 9.19792L7.18478 11.9661V46.3329C6.22002 47.1484 5.29381 47.9638 4.40209 48.7803V9.19792ZM17.0698 10.4798C18.1451 10.0215 19.1221 9.07651 19.9204 7.78751H5.81829L8.52084 10.4798H17.0698ZM23.0247 5.8429C23.8738 8.29846 25.1713 10.2734 26.76 11.4784C25.1713 12.6835 23.8738 14.6574 23.0247 17.1059C22.1746 14.6584 20.8751 12.6835 19.2884 11.4784C20.8751 10.2734 22.1746 8.29846 23.0247 5.8429ZM46.0167 7.78751H26.128C26.9264 9.07651 27.9013 10.0215 28.9776 10.4798H43.3141L46.0167 7.78751ZM29.6076 49.9236L22.8097 43.1529C20.7554 46.1194 18.7781 48.7874 16.8283 51.2278H42.4457L42.6497 51.0295V12.6754L42.4457 12.4771H28.9766C26.4283 13.5597 24.447 17.372 24.0219 22.0545C23.9753 22.5654 23.5421 22.962 23.0247 22.962C22.5053 22.962 22.0731 22.5654 22.0265 22.0545C21.6024 17.372 19.6202 13.5678 17.0718 12.4771H9.39024L9.18735 12.6754V44.6776C11.7905 42.5812 14.6675 40.4616 17.8996 38.2579L11.1138 31.4943C9.99284 30.3732 9.99284 28.5581 11.1138 27.4371L12.1364 26.4162L14.8724 23.6935C15.6779 22.8851 16.9886 22.8851 17.7931 23.6935L37.4353 43.2672C38.2408 44.0716 38.2398 45.3768 37.4353 46.1801L33.6767 49.9236C32.5536 51.0406 30.7347 51.0427 29.6076 49.9236ZM36.0181 44.7697V44.6776L16.3769 25.1039C16.3536 25.0817 16.313 25.0817 16.2886 25.1039L14.2627 27.1244L33.9911 46.7902L36.0181 44.7697ZM12.53 30.0839L31.0238 48.5132C31.1871 48.6731 31.4073 48.7652 31.6416 48.7652C32.0809 48.7652 32.2818 48.491 32.5749 48.2006L12.8455 28.5359L12.53 28.8485C12.1902 29.1915 12.1902 29.7399 12.53 30.0839ZM44.6532 51.7388L47.4329 54.507V9.19792L44.6532 11.9661V51.7388ZM48.4362 5.79028H25.1379C24.5748 4.35661 24.1853 2.69427 24.0219 0.902427C23.9753 0.391484 23.5421 -0.00512952 23.0247 -0.00512952C22.5053 -0.00512952 22.0731 0.391484 22.0265 0.902427C21.8642 2.69427 21.4736 4.35661 20.9096 5.79028H3.40081C2.84691 5.79028 2.39851 6.23243 2.39851 6.7889V50.6713C1.32723 51.7155 0.134213 52.9266 0.0124768 54.9258C-0.0909993 56.6185 0.445656 57.953 1.75331 59.2491C3.09038 60.5816 4.39702 61.0855 6.0922 60.9883C8.40113 60.8558 9.76052 59.2461 11.0235 57.9146H48.4362C48.9881 57.9146 49.4375 57.4725 49.4375 56.916V6.7889C49.4375 6.23243 48.9881 5.79028 48.4362 5.79028Z" fill="white"/>
<path fill-rule="evenodd" clip-rule="evenodd" d="M53.7013 19.0343C54.5768 18.318 55.3153 17.3265 55.8652 16.1296C56.416 17.3265 57.1545 18.318 58.029 19.0343C57.1545 19.7436 56.416 20.7351 55.8652 21.932C55.3153 20.7351 54.5768 19.7436 53.7013 19.0343ZM55.8652 26.7966C56.3795 26.7966 56.8096 26.4081 56.8614 25.8972C57.1627 22.962 58.5667 20.5823 60.3613 19.9803C61.2642 19.6758 61.2621 18.3939 60.3613 18.0813C58.5687 17.4792 57.1627 15.1006 56.8614 12.1644C56.7406 10.9847 54.9897 10.9837 54.8689 12.1644C54.5676 15.1006 53.1616 17.4792 51.369 18.0813C50.4682 18.3939 50.4661 19.6758 51.369 19.9803C53.1636 20.5823 54.5676 22.962 54.8689 25.8972C54.9207 26.4081 55.3508 26.7966 55.8652 26.7966ZM59.7343 43.9684C58.9431 41.6959 57.7571 39.8586 56.3166 38.7223C57.7571 37.579 58.9431 35.7488 59.7343 33.4763C60.5266 35.7488 61.7115 37.579 63.1511 38.7223C61.7115 39.8586 60.5266 41.6959 59.7343 43.9684ZM65.4762 37.7925C63.0425 36.8394 61.1363 33.1101 60.7326 28.5126C60.6869 28.0016 60.2538 27.605 59.7343 27.605C59.2149 27.605 58.7818 28.0016 58.7371 28.5126C58.3323 33.1111 56.4251 36.8394 53.9914 37.7925C53.1484 38.1254 53.1484 39.3203 53.9914 39.6532C56.4262 40.6063 58.3323 44.3346 58.7371 48.9321C58.7818 49.4441 59.2149 49.8397 59.7343 49.8397C60.2538 49.8397 60.6869 49.4441 60.7326 48.9321C61.1363 44.3346 63.0425 40.6063 65.4762 39.6532C66.3172 39.3213 66.3243 38.1305 65.4762 37.7925ZM38.6638 35.9086C37.5824 36.2213 36.5902 36.7474 35.7178 37.4799C35.2998 37.8239 34.6668 37.7784 34.3066 37.3504C33.9526 36.9305 34.0074 36.2982 34.4335 35.9471C35.52 35.0395 36.7566 34.3839 38.1089 33.9954C38.6405 33.8426 39.1954 34.1481 39.3496 34.6743C39.5028 35.2075 39.1954 35.7569 38.6638 35.9086ZM38.5421 28.8404C35.664 29.2906 32.9919 30.5715 30.8108 32.5313C30.3969 32.9067 29.7649 32.8652 29.3966 32.4625C29.0253 32.0507 29.0578 31.4174 29.4676 31.0521C31.9379 28.8252 34.9671 27.3764 38.2306 26.8654C38.7764 26.7815 39.2887 27.1558 39.376 27.6971C39.4622 28.2384 39.0889 28.7564 38.5421 28.8404ZM38.4903 21.0478C39.0412 20.9871 39.4399 20.4984 39.382 19.95C39.3242 19.4006 38.8302 19.004 38.2824 19.0576C32.8986 19.6222 27.9469 21.8784 23.9641 25.5926C23.5604 25.966 23.538 26.5983 23.9164 27.003C24.2918 27.3996 24.9258 27.4209 25.3316 27.0486C28.9929 23.6399 33.5438 21.5658 38.4903 21.0478ZM15.1981 53.2261H43.3141L46.0167 55.9244H12.8668C13.6439 55.0553 14.42 54.1559 15.1981 53.2261ZM8.54722 57.602C12.7968 53.2787 16.8841 48.2158 21.3701 41.7121L19.3412 39.6906C12.7735 44.1596 7.69912 48.239 3.41501 52.4784C2.48576 53.4011 2.06475 54.164 2.01098 55.0483C1.94504 56.146 2.28083 56.9544 3.17052 57.8387C4.06021 58.7311 4.87078 59.066 5.97148 58.9982C6.87131 58.9446 7.64129 58.5247 8.54722 57.602ZM4.40209 9.19792L7.18478 11.9661V46.3329C6.22002 47.1484 5.29381 47.9638 4.40209 48.7803V9.19792ZM17.0698 10.4798C18.1451 10.0215 19.1221 9.07651 19.9204 7.78751H5.81829L8.52084 10.4798H17.0698ZM23.0247 5.8429C23.8738 8.29846 25.1713 10.2734 26.76 11.4784C25.1713 12.6835 23.8738 14.6574 23.0247 17.1059C22.1746 14.6584 20.8751 12.6835 19.2884 11.4784C20.8751 10.2734 22.1746 8.29846 23.0247 5.8429ZM46.0167 7.78751H26.128C26.9264 9.07651 27.9013 10.0215 28.9776 10.4798H43.3141L46.0167 7.78751ZM29.6076 49.9236L22.8097 43.1529C20.7554 46.1194 18.7781 48.7874 16.8283 51.2278H42.4457L42.6497 51.0295V12.6754L42.4457 12.4771H28.9766C26.4283 13.5597 24.447 17.372 24.0219 22.0545C23.9753 22.5654 23.5421 22.962 23.0247 22.962C22.5053 22.962 22.0731 22.5654 22.0265 22.0545C21.6024 17.372 19.6202 13.5678 17.0718 12.4771H9.39024L9.18735 12.6754V44.6776C11.7905 42.5812 14.6675 40.4616 17.8996 38.2579L11.1138 31.4943C9.99284 30.3732 9.99284 28.5581 11.1138 27.4371L12.1364 26.4162L14.8724 23.6935C15.6779 22.8851 16.9886 22.8851 17.7931 23.6935L37.4353 43.2672C38.2408 44.0716 38.2398 45.3768 37.4353 46.1801L33.6767 49.9236C32.5536 51.0406 30.7347 51.0427 29.6076 49.9236ZM36.0181 44.7697V44.6776L16.3769 25.1039C16.3536 25.0817 16.313 25.0817 16.2886 25.1039L14.2627 27.1244L33.9911 46.7902L36.0181 44.7697ZM12.53 30.0839L31.0238 48.5132C31.1871 48.6731 31.4073 48.7652 31.6416 48.7652C32.0809 48.7652 32.2818 48.491 32.5749 48.2006L12.8455 28.5359L12.53 28.8485C12.1902 29.1915 12.1902 29.7399 12.53 30.0839ZM44.6532 51.7388L47.4329 54.507V9.19792L44.6532 11.9661V51.7388ZM48.4362 5.79028H25.1379C24.5748 4.35661 24.1853 2.69427 24.0219 0.902427C23.9753 0.391484 23.5421 -0.00512952 23.0247 -0.00512952C22.5053 -0.00512952 22.0731 0.391484 22.0265 0.902427C21.8642 2.69427 21.4736 4.35661 20.9096 5.79028H3.40081C2.84691 5.79028 2.39851 6.23243 2.39851 6.7889V50.6713C1.32723 51.7155 0.134213 52.9266 0.0124768 54.9258C-0.0909993 56.6185 0.445656 57.953 1.75331 59.2491C3.09038 60.5816 4.39702 61.0855 6.0922 60.9883C8.40113 60.8558 9.76052 59.2461 11.0235 57.9146H48.4362C48.9881 57.9146 49.4375 57.4725 49.4375 56.916V6.7889C49.4375 6.23243 48.9881 5.79028 48.4362 5.79028Z" fill="white"/>
</g>
</svg>
