<svg width="27" height="23" viewBox="0 0 27 23" fill="none" xmlns="http://www.w3.org/2000/svg">
<g clip-path="url(#clip0_0_353)">
<path d="M27 2.76179C26.0065 3.21506 24.939 3.52141 23.8185 3.65922C24.9623 2.95386 25.8405 1.8369 26.2541 0.506048C25.1667 1.16994 23.9771 1.63769 22.7366 1.8891C21.7261 0.781464 20.2865 0.0892349 18.6932 0.0892349C15.634 0.0892349 13.1537 2.64112 13.1537 5.78854C13.1537 6.23531 13.2027 6.67024 13.2971 7.08749C8.69338 6.84973 4.61173 4.58075 1.87956 1.13252C1.40284 1.97428 1.12968 2.95343 1.12968 3.9978C1.12968 5.97519 2.10769 7.7196 3.59396 8.74172C2.71429 8.71338 1.85398 8.46892 1.08485 8.02877C1.08454 8.05264 1.08454 8.07651 1.08454 8.1005C1.08454 10.8619 2.99395 13.1655 5.52794 13.6891C4.71223 13.9174 3.85661 13.9508 3.02643 13.7868C3.73128 16.0511 5.77706 17.6988 8.20095 17.7449C6.30514 19.2735 3.91659 20.1847 1.32142 20.1847C0.874232 20.1847 0.433372 20.1577 0 20.1051C2.45141 21.7222 5.36309 22.6657 8.4913 22.6657C18.6803 22.6657 24.2519 13.981 24.2519 6.44952C24.2519 6.20232 24.2467 5.95653 24.2359 5.71215C25.3204 4.90552 26.2564 3.90644 27 2.76179Z" fill="#4D8FA7"/>
</g>
<defs>
<clipPath id="clip0_0_353">
<rect width="26.8519" height="22.5556" fill="white" transform="scale(1.00552)"/>
</clipPath>
</defs>
</svg>
