<svg width="111" height="111" viewBox="0 0 111 111" fill="none" xmlns="http://www.w3.org/2000/svg">
<mask id="mask0_18_638" style="mask-type:luminance" maskUnits="userSpaceOnUse" x="0" y="-1" width="111" height="112">
<path d="M0 -0.0605851H110.544V111H0V-0.0605851Z" fill="white"/>
</mask>
<g mask="url(#mask0_18_638)">
<path d="M43.9733 50.8287C43.9733 52.372 43.6859 53.9373 43.1331 55.5027C42.5803 57.068 41.8525 58.6113 40.9902 60.1344C40.1278 61.6556 39.1771 63.1105 38.1157 64.5214C37.0765 65.9322 36.0373 67.2345 35.0423 68.4025L32.6322 70.2548V70.4756L35.9046 69.8355H44.6588V74.8424H25.4903V71.7981C26.22 71.0495 27.0381 70.1666 27.9447 69.153C28.8512 68.1377 29.7799 67.0579 30.7085 65.9322C31.6372 64.8083 32.5438 63.6182 33.4282 62.4042C34.3126 61.192 35.0865 59.9798 35.7941 58.7438C36.5016 57.5095 37.0544 56.3415 37.4524 55.1716C37.8725 54.0256 38.0715 52.922 38.0715 51.9085C38.0715 50.6742 37.7177 49.6368 37.0102 48.844C36.3026 48.0494 35.175 47.63 33.6272 47.63C32.6543 47.63 31.6593 47.8286 30.6422 48.248C29.6251 48.6674 28.7628 49.1732 28.0773 49.8134L25.6893 45.6452C26.8833 44.6759 28.21 43.9033 29.7135 43.3092C31.2171 42.7132 32.986 42.4262 35.0202 42.4262C36.3247 42.4262 37.5187 42.6028 38.6243 42.9781C39.7077 43.3312 40.6585 43.8812 41.4545 44.5655C42.2486 45.2718 42.8678 46.1308 43.31 47.1683C43.7522 48.2259 43.9733 49.4381 43.9733 50.8287ZM70.4163 65.9984H65.3971V74.8644H59.8933V65.9984H46.096V62.647L60.5345 42.8456H65.3971V61.2803H70.4163V65.9984ZM59.8933 54.3347L60.3134 50.5197H60.1365L58.5887 53.7828L53.8569 59.9136L51.5795 61.6335L54.4982 61.2803H59.9154V54.3347H59.8933ZM81.6044 59.737V52.2175C81.6044 51.1359 81.4497 50.3652 81.1622 49.8796C80.8527 49.394 80.322 49.1732 79.526 49.1732C78.9511 49.1732 78.3983 49.3719 77.9119 49.7692C77.4255 50.1665 77.0938 50.6742 76.939 51.2904V59.737H73.4897V41.2141H76.939V47.9831H77.0496C77.4697 47.4092 78.0003 46.9696 78.6194 46.6385C79.2386 46.3074 80.0346 46.1308 80.9853 46.1308C81.6487 46.1308 82.2457 46.2191 82.7524 46.3957C83.2609 46.5723 83.7031 46.8593 84.0348 47.2768C84.3886 47.6741 84.6318 48.2259 84.8087 48.9323C84.9856 49.6368 85.0519 50.4976 85.0519 51.5111V59.737H81.6044ZM101.702 55.8117C101.702 81.3466 80.8748 102.119 55.272 102.119C29.6693 102.119 8.84257 81.3466 8.84257 55.8117C8.84257 38.3023 18.4609 22.7132 33.7377 14.7742L31.6593 21.0595L55.272 5.09336L27.215 0L32.3226 5.66726C23.3013 9.76917 15.5864 16.163 9.88179 24.3447C3.42537 33.6062 0 44.4993 0 55.8117C0 86.221 24.7828 110.939 55.272 110.939C85.7595 110.939 110.544 86.221 110.544 55.8117H101.702ZM55.272 9.50429C56.1565 9.50429 57.063 9.52636 57.9696 9.57051L58.4781 0.770717C57.4168 0.704498 56.3334 0.682425 55.272 0.682425V9.50429ZM73.0917 13.0544C74.6837 13.7147 76.2536 14.4652 77.7571 15.304L82.0467 7.58577C80.2557 6.59249 78.3762 5.68933 76.4747 4.8947L73.0917 13.0544ZM87.2851 10.871L82.1572 18.0594C83.5705 19.0527 84.9193 20.1545 86.2238 21.3005L92.1274 14.7301C90.5797 13.3634 88.9656 12.0611 87.2851 10.871ZM63.1196 10.1646C64.8222 10.4516 66.5247 10.8489 68.183 11.3124L70.6595 2.86582C68.6916 2.29376 66.6574 1.83022 64.6232 1.49913L63.1196 10.1646ZM103.645 29.107L95.9084 33.3855C96.7487 34.8846 97.5004 36.45 98.1638 38.0374L106.321 34.6418C105.525 32.7674 104.64 30.8931 103.645 29.107ZM108.377 40.4857L99.8884 42.9339C100.375 44.5876 100.751 46.2854 101.038 47.9831L109.748 46.5061C109.416 44.4772 108.952 42.4483 108.377 40.4857ZM96.4833 19.0969L89.8942 24.983C91.044 26.2633 92.1274 27.6299 93.1446 29.0408L100.353 23.9254C99.1588 22.2276 97.8542 20.6181 96.4833 19.0969ZM110.456 52.6369L101.635 53.1427C101.679 54.0477 101.702 54.9509 101.702 55.8338H110.544C110.544 54.7743 110.522 53.6945 110.456 52.6369Z" fill="#4D8FA7"/>
<path d="M43.9604 50.8582C43.9604 52.4033 43.673 53.9686 43.1202 55.5358C42.5693 57.103 41.8396 58.6463 40.9773 60.1693C40.1149 61.6923 39.1642 63.1473 38.1047 64.56C37.0655 65.9727 36.0262 67.275 35.0312 68.443L32.623 70.2972V70.5179L35.8936 69.8778H44.6459V74.8865H25.483V71.8423C26.2126 71.0918 27.0307 70.2089 27.9373 69.1935C28.842 68.1781 29.7707 67.0984 30.6993 65.9727C31.628 64.847 32.5345 63.655 33.419 62.4428C34.3016 61.2288 35.0755 60.0148 35.783 58.7787C36.4906 57.5444 37.0433 56.3746 37.4413 55.2047C37.8615 54.0569 38.0605 52.9551 38.0605 51.9397C38.0605 50.7036 37.7067 49.6662 36.9991 48.8716C36.2916 48.0788 35.1639 47.6594 33.6161 47.6594C32.6451 47.6594 31.6501 47.8581 30.633 48.2774C29.6159 48.695 28.7536 49.2027 28.07 49.8428L25.682 45.6728C26.876 44.7016 28.2026 43.9291 29.7043 43.3349C31.2079 42.7389 32.9768 42.452 35.0091 42.452C36.3137 42.452 37.5077 42.6286 38.6114 43.0038C39.6948 43.357 40.6456 43.907 41.4416 44.5912C42.2376 45.2976 42.8549 46.1584 43.2971 47.1959C43.7393 48.2554 43.9604 49.4676 43.9604 50.8582ZM70.396 66.0389H65.3786V74.9086H59.8748V66.0389H46.0831V62.6838L60.5161 42.8714H65.3786V61.3171H70.396V66.0389ZM59.8748 54.3659L60.2949 50.5491H60.1181L58.5703 53.8141L53.8404 59.9486L51.5648 61.6703L54.4816 61.3171H59.8969V54.3659H59.8748ZM81.5787 59.772V52.2488C81.5787 51.1672 81.4239 50.3946 81.1364 49.909C80.8269 49.4234 80.2981 49.2027 79.5021 49.2027C78.9272 49.2027 78.3744 49.4013 77.888 49.7986C77.4015 50.196 77.0698 50.7036 76.9151 51.3217V59.772H73.4676V41.238H76.9151V48.0126H77.0256C77.4457 47.4387 77.9764 46.9972 78.5955 46.6661C79.2146 46.335 80.0106 46.1584 80.9595 46.1584C81.6229 46.1584 82.2199 46.2467 82.7284 46.4233C83.237 46.5999 83.6792 46.8868 84.0109 47.3062C84.3646 47.7035 84.6079 48.2554 84.7847 48.9599C84.9616 49.6662 85.028 50.5271 85.028 51.5424V59.772H81.5787ZM101.67 55.8448C101.67 81.3962 80.849 102.18 55.2555 102.18C29.6601 102.18 8.84073 81.3962 8.84073 55.8448C8.84073 38.3262 18.4553 22.726 33.7267 14.7834L31.6501 21.0706L55.2555 5.09704L27.2076 0L32.3134 5.67094C23.2958 9.77468 15.5809 16.1722 9.87995 24.3595C3.42537 33.6265 0 44.525 0 55.8448C0 86.2707 24.7754 111.005 55.2555 111.005C85.7337 111.005 110.511 86.2707 110.511 55.8448H101.67ZM55.2555 9.50981C56.1399 9.50981 57.0446 9.53188 57.9512 9.57603L58.4597 0.772557C57.3984 0.706338 56.3168 0.684265 55.2555 0.684265V9.50981ZM73.0696 13.0617C74.6616 13.7239 76.2296 14.4744 77.7332 15.3132L82.0209 7.58945C80.2317 6.59616 78.3523 5.69301 76.4507 4.89838L73.0696 13.0617ZM87.2593 10.8783L82.1314 18.0705C83.5465 19.0638 84.8953 20.1674 86.198 21.3134L92.0998 14.7393C90.552 13.3708 88.9398 12.0684 87.2593 10.8783ZM63.1012 10.172C64.8037 10.4589 66.5045 10.8563 68.1628 11.318L70.6392 2.86766C68.6713 2.29376 66.6371 1.83022 64.6048 1.50097L63.1012 10.172ZM103.616 29.1254L95.879 33.4057C96.7192 34.9049 97.4709 36.472 98.1343 38.0613L106.29 34.6621C105.494 32.7877 104.609 30.9115 103.616 29.1254ZM108.346 40.5096L99.8571 42.9597C100.344 44.6133 100.719 46.3129 101.007 48.0126L109.715 46.5337C109.383 44.503 108.919 42.4741 108.346 40.5096ZM96.4538 19.1079L89.8684 24.9996C91.0164 26.278 92.0998 27.6465 93.1169 29.0592L100.321 23.9401C99.1293 22.2404 97.8247 20.6291 96.4538 19.1079ZM110.422 52.6681L101.604 53.1758C101.648 54.079 101.67 54.984 101.67 55.8669H110.511C110.511 54.8074 110.489 53.7258 110.422 52.6681Z" fill="#4D8FA7"/>
</g>
</svg>
