<svg width="32" height="29" viewBox="0 0 32 29" fill="none" xmlns="http://www.w3.org/2000/svg">
<path d="M13.8191 13.421H17.4188V3.63175C17.4188 3.19135 17.2444 2.81812 16.8954 2.51205C16.5465 2.20575 16.121 2.05261 15.619 2.05261C15.1169 2.05261 14.6914 2.20575 14.3425 2.51205C13.9935 2.81812 13.8191 3.19135 13.8191 3.63175V13.421ZM4.60869 18.6315H26.6292V15.8947C26.6292 15.7718 26.5842 15.6709 26.4943 15.592C26.4041 15.513 26.289 15.4736 26.1491 15.4736H5.08878C4.9489 15.4736 4.83385 15.513 4.74363 15.592C4.65367 15.6709 4.60869 15.7718 4.60869 15.8947V18.6315ZM2.85678 26.842H6.79896V23.763C6.79896 23.4723 6.91116 23.2284 7.13554 23.0316C7.35966 22.835 7.63761 22.7367 7.96937 22.7367C8.30114 22.7367 8.57895 22.835 8.80282 23.0316C9.02694 23.2284 9.139 23.4723 9.139 23.763V26.842H14.4489V23.763C14.4489 23.4723 14.5611 23.2284 14.7855 23.0316C15.0099 22.835 15.2878 22.7367 15.6193 22.7367C15.9511 22.7367 16.2289 22.835 16.4528 23.0316C16.6769 23.2284 16.789 23.4723 16.789 23.763V26.842H22.0989V23.763C22.0989 23.4723 22.2111 23.2284 22.4355 23.0316C22.6599 22.835 22.9379 22.7367 23.2697 22.7367C23.6012 22.7367 23.879 22.835 24.1032 23.0316C24.327 23.2284 24.4389 23.4723 24.4389 23.763V26.842H28.3811C28.541 26.842 28.671 26.7871 28.7711 26.6774C28.8712 26.5677 28.8962 26.4471 28.846 26.3155L27.1062 20.6841H4.13171L2.39189 26.3155C2.34171 26.4471 2.36667 26.5677 2.46677 26.6774C2.56687 26.7871 2.69688 26.842 2.85678 26.842ZM28.5013 28.8946H2.73666C1.85264 28.8946 1.13373 28.5848 0.579922 27.9654C0.025853 27.3462 -0.13119 26.6558 0.108794 25.8943L2.26865 18.8553V15.8157C2.26865 15.1509 2.53424 14.5855 3.06543 14.1195C3.59636 13.6538 4.24078 13.421 4.99869 13.421H11.479V3.63175C11.479 2.623 11.8815 1.76547 12.6865 1.05915C13.4915 0.353049 14.469 0 15.619 0C16.769 0 17.7464 0.353049 18.5514 1.05915C19.3564 1.76547 19.7589 2.623 19.7589 3.63175V13.421H26.2392C26.9971 13.421 27.6415 13.6538 28.1725 14.1195C28.7037 14.5855 28.9693 15.1509 28.9693 15.8157V18.8553L31.1291 25.9207C31.4172 26.6733 31.2802 27.3572 30.7181 27.9723C30.1562 28.5871 29.4172 28.8946 28.5013 28.8946Z" fill="white"/>
</svg>
