<svg width="197" height="197" viewBox="0 0 197 197" fill="none" xmlns="http://www.w3.org/2000/svg">
<path d="M196.949 98.5036C196.949 44.1016 152.861 0 98.4746 0C44.0886 0 0 44.1016 0 98.5036C0 152.906 44.0886 197.007 98.4746 197.007C152.861 197.007 196.949 152.906 196.949 98.5036Z" fill="#4D8FA7"/>
<path d="M160.097 78.5896C159.322 71.1072 157.655 62.8357 151.517 58.4888C146.763 55.1179 140.514 54.9933 134.681 55.0002C122.35 55.0002 110.012 55.021 97.6813 55.0279C85.8209 55.0418 73.9604 55.0487 62.1 55.0625C57.1455 55.0625 52.3293 54.6818 47.7277 56.8276C43.7766 58.6688 40.6835 62.1712 38.822 66.0682C36.241 71.4879 35.7013 77.6275 35.3899 83.6217C34.8156 94.5374 34.8778 105.481 35.5629 116.389C36.068 124.349 37.3482 133.147 43.4998 138.221C48.9525 142.713 56.6472 142.934 63.7192 142.941C86.1668 142.962 108.621 142.983 131.076 142.997C133.954 143.004 136.958 142.948 139.892 142.63C145.663 142.007 151.164 140.352 154.873 136.075C158.616 131.763 159.578 125.761 160.146 120.079C161.53 106.291 161.516 92.3708 160.097 78.5896ZM84.6999 118.327V79.6694L118.164 98.9949L84.6999 118.327Z" fill="white"/>
</svg>
